<?xml version="1.0" encoding="utf-8"?>
<!-- Generator: Adobe Illustrator 16.0.1, SVG Export Plug-In . SVG Version: 6.00 Build 0)  -->
<!DOCTYPE svg PUBLIC "-//W3C//DTD SVG 1.1//EN" "http://www.w3.org/Graphics/SVG/1.1/DTD/svg11.dtd">
<svg version="1.1" id="Layer_1" xmlns="http://www.w3.org/2000/svg" xmlns:xlink="http://www.w3.org/1999/xlink" x="0px" y="0px"
	 width="138px" height="138px" viewBox="0 0 138 138" enable-background="new 0 0 138 138" xml:space="preserve">
<rect fill="#E2E2E2" width="138" height="138"/>
<circle fill="#E2E2E2" cx="47.8" cy="58.534" r="3.271"/>
<path fill="#E2E2E2" d="M47.8,64.054c-3.044,0-5.521-2.475-5.521-5.52s2.477-5.52,5.521-5.52s5.52,2.476,5.52,5.521
	S50.842,64.054,47.8,64.054z M47.8,57.513c-0.562,0-1.021,0.461-1.021,1.021c0,1.127,2.042,1.127,2.042,0
	C48.819,57.971,48.364,57.513,47.8,57.513z"/>
<circle fill="#E2E2E2" cx="91.134" cy="58.534" r="3.271"/>
<path fill="#E2E2E2" d="M91.134,64.054c-3.046,0-5.521-2.475-5.521-5.52s2.475-5.521,5.521-5.521c3.05,0,5.521,2.476,5.521,5.521
	S94.177,64.054,91.134,64.054z M91.134,57.513c-0.565,0-1.019,0.461-1.019,1.021c0,1.127,2.037,1.127,2.037,0
	C92.152,57.971,91.693,57.513,91.134,57.513z"/>
<rect x="60.159" y="106.318" fill="#E2E2E2" stroke="#E2E2E2" stroke-width="2.76" width="18.544" height="1.623"/>
<rect x="58.779" y="104.939" fill="#E2E2E2" stroke="#E2E2E2" stroke-width="2.76" width="21.304" height="4.383"/>
<path fill="#ABABAB" d="M68.999,121L68.999,121c-28.523-0.003-51.361-10.713-52.32-11.168c-1.455-0.693-2.383-2.161-2.383-3.775
	c0-11.015,14.751-19.816,37.916-22.863v-4.58c-7.662-6.365-12.173-16.534-12.173-27.656C40.038,32.232,53.03,17,68.999,17
	c15.968,0,28.96,15.232,28.96,33.958c0,11.125-4.514,21.291-12.176,27.656v4.578c23.168,3.045,37.922,11.849,37.922,22.865
	c0,1.611-0.926,3.082-2.385,3.775C120.361,110.287,97.521,121,68.999,121z"/>
</svg>
