<?xml version="1.0" encoding="utf-8"?>
<!-- Generator: Adobe Illustrator 15.1.0, SVG Export Plug-In . SVG Version: 6.00 Build 0)  -->
<!DOCTYPE svg PUBLIC "-//W3C//DTD SVG 1.1//EN" "http://www.w3.org/Graphics/SVG/1.1/DTD/svg11.dtd">
<svg version="1.1" id="Layer_1" xmlns="http://www.w3.org/2000/svg" xmlns:xlink="http://www.w3.org/1999/xlink" x="0px" y="0px"
	 width="9px" height="9px" viewBox="0 0 9 9" enable-background="new 0 0 9 9" xml:space="preserve">
<path fill="#666766" d="M6.081,4.5l2.592-2.591c0.437-0.437,0.437-1.145,0-1.582c-0.438-0.437-1.146-0.437-1.582,0L4.5,2.918
	L1.909,0.328c-0.437-0.437-1.145-0.437-1.581,0c-0.437,0.437-0.437,1.145,0,1.582L2.918,4.5L0.328,7.091
	c-0.437,0.438-0.437,1.146,0,1.582c0.437,0.437,1.145,0.437,1.581,0L4.5,6.082l2.591,2.591c0.437,0.437,1.145,0.437,1.581,0
	c0.438-0.437,0.438-1.145,0-1.582L6.081,4.5z"/>
</svg>
