<?xml version="1.0" encoding="utf-8"?>
<!-- Generator: Adobe Illustrator 16.0.1, SVG Export Plug-In . SVG Version: 6.00 Build 0)  -->
<!DOCTYPE svg PUBLIC "-//W3C//DTD SVG 1.1//EN" "http://www.w3.org/Graphics/SVG/1.1/DTD/svg11.dtd">
<svg version="1.1" id="Layer_1" xmlns="http://www.w3.org/2000/svg" xmlns:xlink="http://www.w3.org/1999/xlink" x="0px" y="0px"
	 width="7px" height="10.375px" viewBox="0 0 7 10.375" enable-background="new 0 0 7 10.375" xml:space="preserve">
<g>
	<g>
		<path fill="#BBBBBA" d="M2.069,9.688L2.069,9.688c-0.109,0-0.214-0.043-0.291-0.12L0.501,8.289
			c-0.077-0.077-0.12-0.183-0.12-0.292s0.045-0.214,0.122-0.291l2.53-2.495l-2.51-2.509c-0.078-0.078-0.121-0.184-0.12-0.293
			s0.046-0.215,0.125-0.292l1.351-1.312C2.04,0.647,2.297,0.649,2.456,0.809l4.042,4.039C6.574,4.925,6.619,5.03,6.619,5.139
			c0,0.109-0.043,0.214-0.121,0.291L2.359,9.567C2.283,9.645,2.179,9.688,2.069,9.688z"/>
	</g>
</g>
</svg>
