<?xml version="1.0" encoding="utf-8"?>
<!-- Generator: Adobe Illustrator 16.0.1, SVG Export Plug-In . SVG Version: 6.00 Build 0)  -->
<!DOCTYPE svg PUBLIC "-//W3C//DTD SVG 1.1//EN" "http://www.w3.org/Graphics/SVG/1.1/DTD/svg11.dtd">
<svg version="1.1" id="Layer_1" xmlns="http://www.w3.org/2000/svg" xmlns:xlink="http://www.w3.org/1999/xlink" x="0px" y="0px"
	 width="9px" height="11px" viewBox="0 0 9 11" enable-background="new 0 0 9 11" xml:space="preserve">
<g>
	<g>
		<path fill="#BBBBBA" d="M4.066,10.4c-0.018,0-0.036-0.002-0.055-0.004c-2.229-0.287-3.91-2.101-3.91-4.22
			c0-2.359,2.026-4.277,4.518-4.277c0.099,0,0.195,0.004,0.289,0.012V0.977c0-0.156,0.101-0.296,0.254-0.352
			C5.314,0.569,5.489,0.608,5.6,0.724l3.197,3.338c0.072,0.077,0.11,0.178,0.102,0.28c-0.006,0.104-0.06,0.199-0.144,0.264
			L5.561,7.111C5.439,7.204,5.275,7.225,5.137,7.162C4.995,7.1,4.907,6.967,4.907,6.82V5.275C4.805,5.261,4.711,5.254,4.618,5.254
			c-1.294,0-2.347,0.997-2.347,2.225c0,1.051,0.789,1.965,1.874,2.176c0.211,0.041,0.349,0.231,0.312,0.434
			C4.425,10.27,4.257,10.4,4.066,10.4z"/>
	</g>
</g>
</svg>
