<?xml version="1.0" encoding="utf-8"?>
<!-- Generator: Adobe Illustrator 16.0.1, SVG Export Plug-In . SVG Version: 6.00 Build 0)  -->
<!DOCTYPE svg PUBLIC "-//W3C//DTD SVG 1.1//EN" "http://www.w3.org/Graphics/SVG/1.1/DTD/svg11.dtd">
<svg version="1.1" id="Layer_1" xmlns="http://www.w3.org/2000/svg" xmlns:xlink="http://www.w3.org/1999/xlink" x="0px" y="0px"
	 width="13px" height="10px" viewBox="0 0 13 10" enable-background="new 0 0 13 10" xml:space="preserve">
<g>
	<g>
		<g>
			<path fill="#666666" d="M6.529,5.045c-0.039,0-0.077-0.009-0.113-0.026L0.225,2.037c-0.09-0.043-0.147-0.135-0.147-0.234V0.26
				C0.078,0.116,0.194,0,0.338,0h12.324c0.144,0,0.26,0.116,0.26,0.26v1.547c0,0.1-0.057,0.19-0.146,0.234L6.643,5.019
				C6.607,5.036,6.568,5.045,6.529,5.045z"/>
		</g>
	</g>
	<g>
		<g>
			<path fill="#666666" d="M12.662,10H0.338c-0.144,0-0.26-0.116-0.26-0.26V3.546c0-0.089,0.046-0.172,0.122-0.22
				c0.076-0.047,0.171-0.053,0.251-0.014l6.082,2.932l6.015-2.922c0.081-0.039,0.176-0.034,0.252,0.014
				c0.076,0.047,0.122,0.131,0.122,0.22V9.74C12.922,9.884,12.806,10,12.662,10z"/>
		</g>
	</g>
</g>
</svg>
