<?xml version="1.0" encoding="utf-8"?>
<!-- Generator: Adobe Illustrator 15.1.0, SVG Export Plug-In . SVG Version: 6.00 Build 0)  -->
<!DOCTYPE svg PUBLIC "-//W3C//DTD SVG 1.1//EN" "http://www.w3.org/Graphics/SVG/1.1/DTD/svg11.dtd">
<svg version="1.1" id="Layer_1" xmlns="http://www.w3.org/2000/svg" xmlns:xlink="http://www.w3.org/1999/xlink" x="0px" y="0px"
	 width="69px" height="50px" viewBox="0 0 69 50" enable-background="new 0 0 69 50" xml:space="preserve">
<g>
	<g>
		<path fill="#F8F8F8" d="M37.583,21.806h8.308v-9.202h6.764v9.202h8.309v6.219h-8.309v9.199h-6.764v-9.199h-8.308V21.806z"/>
		<path fill="#F8F8F8" d="M52.654,38.59h-6.764c-0.755,0-1.365-0.611-1.365-1.365v-7.836h-6.941c-0.754,0-1.365-0.611-1.365-1.363
			v-6.219c0-0.755,0.611-1.366,1.365-1.366h6.941v-7.836c0-0.754,0.61-1.366,1.365-1.366h6.764c0.756,0,1.367,0.611,1.367,1.366
			v7.836h6.94c0.754,0,1.365,0.611,1.365,1.366v6.219c0,0.752-0.611,1.363-1.365,1.363h-6.94v7.836
			C54.021,37.979,53.409,38.59,52.654,38.59z M47.255,35.859h4.034v-7.836c0-0.756,0.611-1.366,1.365-1.366h6.941v-3.485h-6.941
			c-0.754,0-1.365-0.611-1.365-1.366V13.97h-4.034v7.836c0,0.755-0.61,1.366-1.364,1.366h-6.94v3.485h6.94
			c0.754,0,1.364,0.61,1.364,1.366V35.859z"/>
	</g>
</g>
<path fill="#F8F8F8" d="M6.06,48.666V24.642H0.951v-8.45h5.06c0,0,0-2.703,0-7.665c0-4.962,3.489-7.86,9.629-7.86
	c6.14,0,7.764,0,7.764,0L23.39,8.822c0,0-3.967,0-5.441,0c-1.474,0-2.111,1.376-2.111,2.113c0,0.736,0,5.403,0,5.403H23.5
	l-0.883,8.304h-6.535l-0.072,24.02L6.06,48.666z"/>
</svg>
