<?xml version="1.0" encoding="utf-8"?>
<!-- Generator: Adobe Illustrator 16.0.1, SVG Export Plug-In . SVG Version: 6.00 Build 0)  -->
<!DOCTYPE svg PUBLIC "-//W3C//DTD SVG 1.1//EN" "http://www.w3.org/Graphics/SVG/1.1/DTD/svg11.dtd">
<svg version="1.1" id="Layer_1" xmlns="http://www.w3.org/2000/svg" xmlns:xlink="http://www.w3.org/1999/xlink" x="0px" y="0px"
	 width="17px" height="20px" viewBox="0 0 17 20" enable-background="new 0 0 17 20" xml:space="preserve">
<g>
	<polygon fill="#EEEEEE" points="15.135,10 8.5,14.021 1.866,18.042 1.866,10 1.866,1.959 8.5,5.979 	"/>
	<path fill="#EEEEEE" d="M1.866,20c-0.322,0-0.644-0.087-0.933-0.262C0.355,19.389,0,18.742,0,18.042V1.959
		c0-0.7,0.355-1.347,0.933-1.696c0.577-0.35,1.289-0.35,1.866,0l13.268,8.041C16.645,8.654,17,9.301,17,10
		c0,0.7-0.355,1.348-0.934,1.695L2.799,19.738C2.51,19.913,2.188,20,1.866,20z M3.732,5.352v9.298l7.67-4.65L3.732,5.352z"/>
</g>
</svg>
