<?xml version="1.0" encoding="utf-8"?>
<!-- Generator: Adobe Illustrator 15.1.0, SVG Export Plug-In . SVG Version: 6.00 Build 0)  -->
<!DOCTYPE svg PUBLIC "-//W3C//DTD SVG 1.1//EN" "http://www.w3.org/Graphics/SVG/1.1/DTD/svg11.dtd">
<svg version="1.1" id="Layer_1" xmlns="http://www.w3.org/2000/svg" xmlns:xlink="http://www.w3.org/1999/xlink" x="0px" y="0px"
	 width="40px" height="45px" viewBox="0 0 40 45" enable-background="new 0 0 40 45" xml:space="preserve">
<g>
	<polygon fill="#FFFFFF" points="34.381,22.5 20,30.805 5.619,39.107 5.619,22.5 5.619,5.893 20,14.196 	"/>
	<path fill="#FFFFFF" d="M5.619,44.5c-0.932,0-1.862-0.24-2.696-0.722c-1.669-0.964-2.697-2.744-2.697-4.671V5.893
		c0-1.927,1.027-3.708,2.697-4.67c1.668-0.963,3.724-0.964,5.393,0L37.078,17.83c1.669,0.963,2.696,2.744,2.696,4.67
		c0,1.928-1.027,3.708-2.696,4.671L8.315,43.778C7.481,44.26,6.55,44.5,5.619,44.5z M11.011,15.234v14.532L23.595,22.5
		L11.011,15.234z"/>
</g>
</svg>
