<?xml version="1.0" encoding="utf-8"?>
<!-- Generator: Adobe Illustrator 16.0.1, SVG Export Plug-In . SVG Version: 6.00 Build 0)  -->
<!DOCTYPE svg PUBLIC "-//W3C//DTD SVG 1.1//EN" "http://www.w3.org/Graphics/SVG/1.1/DTD/svg11.dtd">
<svg version="1.1" id="Layer_1" xmlns="http://www.w3.org/2000/svg" xmlns:xlink="http://www.w3.org/1999/xlink" x="0px" y="0px"
	 width="22px" height="20px" viewBox="0 0 22 20" enable-background="new 0 0 22 20" xml:space="preserve">
<path fill="#BBBBBA" d="M11.934,19.393h2.155h7.035v-19h-7.035h-2.155H0.876v19H11.934z M14.098,2.555h4.863v14.673h-4.863V2.555z
	 M3.039,10.68H6.83l-1.236,1.219c-0.059,0.058-0.092,0.138-0.092,0.221c0,0.082,0.03,0.163,0.092,0.222l1.087,1.089
	c0.059,0.059,0.137,0.092,0.221,0.092c0.082,0,0.16-0.033,0.219-0.092l3.523-3.523c0.059-0.058,0.092-0.139,0.092-0.221
	s-0.034-0.163-0.092-0.221l-3.44-3.441c-0.12-0.119-0.317-0.122-0.439-0.002L5.614,7.139C5.554,7.196,5.521,7.275,5.521,7.36
	c0,0.083,0.03,0.161,0.092,0.223l1.189,1.189H3.039V2.555h8.886v14.673H3.039V10.68z"/>
</svg>
