<?xml version="1.0" encoding="utf-8"?>
<!-- Generator: Adobe Illustrator 16.0.1, SVG Export Plug-In . SVG Version: 6.00 Build 0)  -->
<!DOCTYPE svg PUBLIC "-//W3C//DTD SVG 1.1//EN" "http://www.w3.org/Graphics/SVG/1.1/DTD/svg11.dtd">
<svg version="1.1" id="Layer_1" xmlns="http://www.w3.org/2000/svg" xmlns:xlink="http://www.w3.org/1999/xlink" x="0px" y="0px"
	 width="17px" height="19px" viewBox="0 0 17 19" enable-background="new 0 0 17 19" xml:space="preserve">
<g>
	<g>
		<rect x="1.169" y="1.158" fill="#B7B7B7" width="4.325" height="16.684"/>
		<path fill="#B7B7B7" d="M5.494,19H1.169C0.523,19,0,18.48,0,17.842V1.158C0,0.519,0.523,0,1.169,0h4.325
			c0.646,0,1.17,0.519,1.17,1.158v16.684C6.664,18.48,6.141,19,5.494,19z M2.339,16.684h1.985V2.317H2.339V16.684z"/>
	</g>
	<g>
		<rect x="11.505" y="1.158" fill="#B7B7B7" width="4.325" height="16.684"/>
		<path fill="#B7B7B7" d="M15.83,19h-4.325c-0.646,0-1.169-0.52-1.169-1.158V1.158c0-0.64,0.523-1.158,1.169-1.158h4.325
			C16.477,0,17,0.519,17,1.158v16.684C17,18.48,16.477,19,15.83,19z M12.675,16.684h1.985V2.317h-1.985V16.684z"/>
	</g>
</g>
</svg>
