<?xml version="1.0" encoding="utf-8"?>
<!-- Generator: Adobe Illustrator 16.0.1, SVG Export Plug-In . SVG Version: 6.00 Build 0)  -->
<!DOCTYPE svg PUBLIC "-//W3C//DTD SVG 1.1//EN" "http://www.w3.org/Graphics/SVG/1.1/DTD/svg11.dtd">
<svg version="1.1" id="Layer_1" xmlns="http://www.w3.org/2000/svg" xmlns:xlink="http://www.w3.org/1999/xlink" x="0px" y="0px"
	 width="23px" height="12px" viewBox="2.875 0 23 12" enable-background="new 2.875 0 23 12" xml:space="preserve">
<g>
	<path fill="#555555" d="M10.334,0.448h2.496v11.089h-2.496V6.832h-4.19v4.705H3.647V0.448h2.496v4.239h4.19V0.448z"/>
	<path fill="#555555" d="M25.103,5.984c0,0.961-0.148,1.798-0.447,2.512c-0.299,0.715-0.723,1.307-1.271,1.777
		c-0.551,0.469-1.219,0.816-2.01,1.055c-0.789,0.234-1.674,0.352-2.654,0.352c-0.448,0-0.972-0.018-1.568-0.055
		s-1.184-0.115-1.76-0.232v-10.8c0.576-0.105,1.176-0.179,1.8-0.217c0.624-0.037,1.16-0.056,1.608-0.056
		c0.949,0,1.809,0.105,2.584,0.32c0.771,0.213,1.436,0.549,1.986,1.008s0.979,1.045,1.281,1.76
		C24.953,4.123,25.103,4.98,25.103,5.984z M17.888,9.504c0.117,0.012,0.253,0.02,0.406,0.025c0.155,0.004,0.34,0.008,0.554,0.008
		c1.247,0,2.173-0.314,2.774-0.944c0.604-0.63,0.904-1.499,0.904-2.608c0-1.161-0.287-2.043-0.863-2.639
		c-0.576-0.599-1.488-0.896-2.735-0.896c-0.171,0-0.348,0.003-0.528,0.008c-0.182,0.006-0.353,0.021-0.512,0.04V9.504z"/>
</g>
</svg>
