<?xml version="1.0" encoding="utf-8"?>
<!-- Generator: Adobe Illustrator 16.0.1, SVG Export Plug-In . SVG Version: 6.00 Build 0)  -->
<!DOCTYPE svg PUBLIC "-//W3C//DTD SVG 1.1//EN" "http://www.w3.org/Graphics/SVG/1.1/DTD/svg11.dtd">
<svg version="1.1" id="Layer_1" xmlns="http://www.w3.org/2000/svg" xmlns:xlink="http://www.w3.org/1999/xlink" x="0px" y="0px"
	 width="30px" height="20px" viewBox="0 0 30 20" enable-background="new 0 0 30 20" xml:space="preserve">
<path fill="#B2B3B3" d="M14.251,2.261c-0.556-0.348-1.24-0.348-1.796,0L7.277,5.5H3.832c-0.921,0-1.671,0.813-1.671,1.812v5.136
	c0,0.997,0.75,1.809,1.671,1.809h3.055l5.568,3.482C12.733,17.914,13.042,18,13.353,18c0.31,0,0.62-0.086,0.898-0.262
	c0.556-0.346,0.899-0.988,0.899-1.684V3.947C15.15,3.251,14.808,2.609,14.251,2.261z"/>
<path fill="#B2B3B3" d="M21.57,10.075l1.156-1.157c0.108-0.111,0.105-0.296-0.011-0.413L21.67,7.459
	c-0.12-0.117-0.306-0.122-0.417-0.011l-1.155,1.156l-1.072-1.073c-0.118-0.117-0.303-0.122-0.414-0.011l-0.918,0.92
	c-0.107,0.11-0.104,0.295,0.013,0.412l1.073,1.073l-1.157,1.157c-0.108,0.111-0.104,0.297,0.012,0.413l1.046,1.047
	c0.116,0.115,0.299,0.122,0.416,0.007l1.155-1.154l1.074,1.072c0.116,0.116,0.301,0.121,0.414,0.01l0.915-0.916
	c0.109-0.11,0.104-0.297-0.012-0.412L21.57,10.075z"/>
</svg>
