<?xml version="1.0" encoding="utf-8"?>
<!-- Generator: Adobe Illustrator 16.0.1, SVG Export Plug-In . SVG Version: 6.00 Build 0)  -->
<!DOCTYPE svg PUBLIC "-//W3C//DTD SVG 1.1//EN" "http://www.w3.org/Graphics/SVG/1.1/DTD/svg11.dtd">
<svg version="1.1" id="Layer_1" xmlns="http://www.w3.org/2000/svg" xmlns:xlink="http://www.w3.org/1999/xlink" x="0px" y="0px"
	 width="22px" height="20px" viewBox="0 0 22 20" enable-background="new 0 0 22 20" xml:space="preserve">
<path fill="#BBBBBA" d="M10.067,0.393H7.911H0.876v19h7.035h2.156h11.057v-19H10.067z M7.903,17.23H3.039V2.556h4.864V17.23z
	 M18.961,9.106H15.17l1.236-1.218c0.059-0.058,0.092-0.138,0.092-0.221c0-0.082-0.03-0.163-0.092-0.221l-1.088-1.088
	c-0.059-0.059-0.137-0.092-0.221-0.092c-0.082,0-0.16,0.033-0.219,0.092L11.356,9.88c-0.059,0.058-0.092,0.139-0.092,0.221
	s0.033,0.161,0.092,0.219l3.44,3.441c0.12,0.119,0.317,0.122,0.438,0.003l1.149-1.117c0.062-0.059,0.095-0.138,0.095-0.223
	c0-0.083-0.03-0.16-0.093-0.223l-1.188-1.189h3.763v6.219h-8.885V2.556h8.886V9.106z"/>
</svg>
