<?xml version="1.0" encoding="utf-8"?>
<!-- Generator: Adobe Illustrator 16.0.1, SVG Export Plug-In . SVG Version: 6.00 Build 0)  -->
<!DOCTYPE svg PUBLIC "-//W3C//DTD SVG 1.1//EN" "http://www.w3.org/Graphics/SVG/1.1/DTD/svg11.dtd">
<svg version="1.1" id="Layer_1" xmlns="http://www.w3.org/2000/svg" xmlns:xlink="http://www.w3.org/1999/xlink" x="0px" y="0px"
	 width="30px" height="20px" viewBox="0 0 30 20" enable-background="new 0 0 30 20" xml:space="preserve">
<g>
	<path fill="#B3B3B3" d="M3.832,13.583c-0.578,0-1.05-0.51-1.05-1.138V7.312c0-0.627,0.471-1.137,1.05-1.137h3.955
		c0.579,0,1.05,0.511,1.05,1.137v5.135c0,0.625-0.471,1.137-1.05,1.137L3.832,13.583L3.832,13.583z"/>
	<path fill="#B3B3B3" d="M7.787,6.848c0.236,0,0.428,0.207,0.428,0.463v5.134c0,0.255-0.191,0.463-0.428,0.463H3.832
		c-0.236,0-0.427-0.208-0.427-0.463V7.312c0-0.256,0.191-0.463,0.427-0.463L7.787,6.848 M7.787,5.5H3.832
		c-0.921,0-1.671,0.813-1.671,1.812v5.135c0,0.998,0.75,1.811,1.671,1.811h3.955c0.922,0,1.671-0.812,1.671-1.811V7.312
		C9.459,6.313,8.709,5.5,7.787,5.5L7.787,5.5z"/>
	<polygon fill="#B3B3B3" points="6.59,9.878 5.671,8.751 8.515,6.973 13.354,3.946 13.354,10 13.354,16.053 8.515,13.025 
		5.758,11.303 	"/>
	<path fill="#B3B3B3" d="M13.354,18c-0.311,0-0.62-0.086-0.898-0.262l-7.595-4.749c-0.423-0.267-0.729-0.707-0.847-1.222
		c-0.118-0.516-0.035-1.06,0.227-1.504l0.111-0.19l-0.026-0.032C3.968,9.603,3.812,9.014,3.897,8.438
		c0.087-0.576,0.408-1.08,0.875-1.371l7.682-4.805c0.556-0.348,1.241-0.348,1.797,0c0.558,0.348,0.899,0.99,0.899,1.685v12.108
		c0,0.695-0.342,1.338-0.899,1.686C13.974,17.914,13.663,18,13.354,18z M8.252,10.615l3.305,2.066V7.317L8.315,9.344
		C8.426,9.759,8.406,10.207,8.252,10.615z"/>
	<g>
		<path fill="#B3B3B3" d="M20.344,17.747v-1.55c1.582,0,4.291-4.484,4.291-6.197c0-1.711-2.713-6.198-4.291-6.198V2.253
			c2.368,0,5.721,5.086,5.721,7.653C26.064,12.473,22.712,17.747,20.344,17.747z M17.48,14.648v-1.551
			c1.582,0,2.859-1.388,2.859-3.101c0-1.711-1.279-3.099-2.859-3.099V5.352c2.371,0,4.291,2.081,4.291,4.648
			C21.771,12.566,19.852,14.648,17.48,14.648z"/>
		<path fill="#B3B3B3" d="M20.344,17.852c-0.052,0-0.098-0.05-0.098-0.104v-1.551c0-0.059,0.046-0.105,0.098-0.105
			c1.549,0,4.192-4.494,4.192-6.092c0-1.6-2.647-6.093-4.192-6.093c-0.052,0-0.098-0.047-0.098-0.104v-1.55
			c0-0.058,0.046-0.105,0.098-0.105c1.1,0,2.528,1.086,3.824,2.905c1.209,1.699,1.992,3.604,1.992,4.853
			C26.16,12.398,22.842,17.852,20.344,17.852z M20.439,16.297v1.342c1.021-0.062,2.351-1.143,3.574-2.912
			c1.168-1.688,1.949-3.625,1.949-4.817c0-2.562-3.268-7.408-5.523-7.545v1.342c1.674,0.169,4.289,4.632,4.289,6.297
			S22.113,16.127,20.439,16.297z M17.48,14.753c-0.055,0-0.098-0.049-0.098-0.104v-1.551c0-0.059,0.043-0.104,0.098-0.104
			c1.521,0,2.766-1.346,2.766-2.994c0-1.651-1.24-2.995-2.766-2.995c-0.055,0-0.098-0.047-0.098-0.105V5.352
			c0-0.058,0.043-0.105,0.098-0.105c2.418,0,4.387,2.133,4.387,4.752C21.869,12.62,19.9,14.753,17.48,14.753z M17.579,13.202v1.34
			c2.269-0.056,4.097-2.071,4.097-4.542c0-2.47-1.828-4.486-4.097-4.542v1.34c1.587,0.056,2.86,1.47,2.86,3.202
			C20.439,11.73,19.166,13.146,17.579,13.202z"/>
	</g>
</g>
</svg>
