<?xml version="1.0" encoding="utf-8"?>
<!-- Generator: Adobe Illustrator 15.1.0, SVG Export Plug-In . SVG Version: 6.00 Build 0)  -->
<!DOCTYPE svg PUBLIC "-//W3C//DTD SVG 1.1//EN" "http://www.w3.org/Graphics/SVG/1.1/DTD/svg11.dtd">
<svg version="1.1" id="Layer_1" xmlns="http://www.w3.org/2000/svg" xmlns:xlink="http://www.w3.org/1999/xlink" x="0px" y="0px"
	 width="18px" height="22px" viewBox="0 0 18 22" enable-background="new 0 0 18 22" xml:space="preserve">
<path fill="#35383A" d="M15.27,8.764h-0.229V6.363c0-3.351-2.727-6.078-6.079-6.078c-3.351,0-6.079,2.726-6.079,6.078v2.401H2.729
	c-1.135,0-2.056,0.921-2.056,2.056v8.84c0,1.135,0.921,2.055,2.056,2.055h12.542c1.133,0,2.055-0.92,2.055-2.055v-8.84
	C17.326,9.685,16.404,8.764,15.27,8.764z M12.053,8.764H5.874V6.363c0-1.703,1.386-3.089,3.089-3.089c1.704,0,3.09,1.386,3.09,3.089
	V8.764z"/>
</svg>
