<?xml version="1.0" encoding="utf-8"?>
<!-- Generator: Adobe Illustrator 16.0.1, SVG Export Plug-In . SVG Version: 6.00 Build 0)  -->
<!DOCTYPE svg PUBLIC "-//W3C//DTD SVG 1.1//EN" "http://www.w3.org/Graphics/SVG/1.1/DTD/svg11.dtd">
<svg version="1.1" id="Layer_1" xmlns="http://www.w3.org/2000/svg" xmlns:xlink="http://www.w3.org/1999/xlink" x="0px" y="0px"
	 width="34px" height="34px" viewBox="0 0 34 34" enable-background="new 0 0 34 34" xml:space="preserve">
<path fill="#FFFFFF" d="M26.846,10.894c-0.726,0.321-1.504,0.539-2.318,0.636c0.834-0.499,1.475-1.291,1.773-2.234
	c-0.779,0.463-1.646,0.799-2.562,0.98C22.999,9.49,21.949,9,20.788,9c-2.229,0-4.04,1.809-4.04,4.039
	c0,0.316,0.036,0.625,0.104,0.92c-3.356-0.168-6.333-1.776-8.325-4.22c-0.348,0.597-0.547,1.29-0.547,2.03
	c0,1.401,0.713,2.638,1.797,3.362c-0.661-0.021-1.284-0.203-1.83-0.505c0,0.017,0,0.033,0,0.051c0,1.957,1.394,3.589,3.239,3.96
	c-0.339,0.094-0.694,0.143-1.062,0.143c-0.262,0-0.515-0.022-0.761-0.069c0.515,1.604,2.006,2.771,3.772,2.808
	c-1.382,1.084-3.124,1.729-5.017,1.729c-0.326,0-0.646-0.021-0.964-0.059C8.943,24.331,11.066,25,13.349,25
	c7.43,0,11.492-6.154,11.492-11.493c0-0.175-0.004-0.349-0.012-0.522C25.619,12.415,26.305,11.704,26.846,10.894z"/>
</svg>
