<?xml version="1.0" encoding="utf-8"?>
<!-- Generator: Adobe Illustrator 15.1.0, SVG Export Plug-In . SVG Version: 6.00 Build 0)  -->
<!DOCTYPE svg PUBLIC "-//W3C//DTD SVG 1.1//EN" "http://www.w3.org/Graphics/SVG/1.1/DTD/svg11.dtd">
<svg version="1.1" id="Layer_1" xmlns="http://www.w3.org/2000/svg" xmlns:xlink="http://www.w3.org/1999/xlink" x="0px" y="0px"
	 width="74px" height="48px" viewBox="0 0 74 48" enable-background="new 0 0 74 48" xml:space="preserve">
<path fill="#111111" d="M32.525,31.43c1.392-1.18,8.508-4.867,8.435-6.592c-0.082-2.031-6.335-6.789-7.882-8.38
	c-2.485,4.051-1.627,9.022-1.034,15.381"/>
<path fill="#E24428" d="M0.501,3.754c0,2.156-1.289,10.626,0.267,11.882c1.826,1.472,9.823,0.237,12.346,0.054
	c0.521-3.857,0.515-8.656,0.003-12.574C9.04,2.591,4.645,3.003,0.501,3.003"/>
<path fill="#DC2E8B" d="M15.896,6.436c-0.093,2.087-1.709,10.233-0.254,11.517c1.703,1.506,9.5,0.655,11.951,0.587
	c0.668-3.713,0.873-8.359,0.546-12.176c-3.926-0.684-8.198-0.475-12.21-0.654"/>
<path fill="#52539C" d="M31.788,13.476c1.939,0,9.558,1.16,10.687-0.24c1.324-1.639,0.213-8.833,0.049-11.102
	c-3.469-0.467-7.781-0.462-11.307-0.002c-0.473,3.667-0.103,7.618-0.103,11.344"/>
<path fill="#364E9F" d="M56.781,6.273c-1.939,0-9.557-1.159-10.686,0.242c-1.326,1.639-0.216,8.831-0.051,11.102
	c3.471,0.467,7.784,0.462,11.309,0.002c0.474-3.667,0.102-7.62,0.102-11.346"/>
<path fill="#0590C4" d="M59.918,1.294c0,2.334-1.395,11.508,0.289,12.869c1.979,1.595,10.639,0.256,13.373,0.058
	c0.562-4.178,0.559-9.376,0.002-13.618c-4.415-0.568-9.178-0.122-13.664-0.122"/>
<path fill="#E32848" d="M0.474,20.087c0,2.023-1.208,9.968,0.25,11.146c1.712,1.385,9.212,0.224,11.579,0.051
	c0.489-3.615,0.483-8.117,0.002-11.792C8.48,18.998,4.36,19.386,0.474,19.386"/>
<path fill="#9354A1" d="M25.618,22.589c-1.852,0-9.122-1.106-10.2,0.229c-1.263,1.566-0.203,8.43-0.045,10.597
	c3.311,0.444,7.429,0.44,10.789,0.001c0.452-3.498,0.097-7.27,0.097-10.827"/>
<path fill="#4CBDA0" d="M43.882,20.105c0,1.941-1.157,9.559,0.24,10.686c1.642,1.327,8.834,0.215,11.104,0.051
	c0.467-3.47,0.461-7.786,0.002-11.308c-3.668-0.471-7.621-0.101-11.349-0.101"/>
<path fill="#87C441" d="M58.818,18.031c0,1.941-1.158,9.559,0.24,10.686c1.64,1.326,8.83,0.215,11.103,0.051
	c0.467-3.47,0.461-7.786,0.002-11.308c-3.667-0.471-7.62-0.101-11.345-0.101"/>
<path fill="#884F9F" d="M12.703,44.794c0-1.94,1.159-9.558-0.24-10.687c-1.642-1.325-8.834-0.215-11.104-0.049
	c-0.467,3.469-0.461,7.782,0,11.307c3.665,0.473,7.618,0.102,11.344,0.102"/>
<path fill="#3A51A2" d="M15.602,36.298c0,1.94-1.159,9.558,0.241,10.687c1.641,1.324,8.834,0.215,11.102,0.05
	c0.467-3.47,0.463-7.785,0.001-11.308c-3.667-0.473-7.618-0.102-11.344-0.102"/>
<path fill="#37896C" d="M41.566,36.203c-1.938-0.098-9.486-1.633-10.687-0.29c-1.403,1.573-0.648,8.812-0.597,11.087
	c3.442,0.641,7.752,0.846,11.292,0.561c0.653-3.64,0.479-7.604,0.663-11.326"/>
<path fill="#6ABC45" d="M56.355,45.957c0.093-1.777,1.514-8.714,0.281-9.816c-1.443-1.293-8.099-0.611-10.188-0.567
	c-0.592,3.161-0.79,7.122-0.534,10.378c3.343,0.604,6.987,0.451,10.407,0.628"/>
<path fill="#EFE80D" d="M72.079,42.773c0-1.94,1.157-9.558-0.241-10.687c-1.641-1.326-8.834-0.215-11.104-0.049
	c-0.467,3.468-0.461,7.782-0.002,11.308c3.666,0.473,7.619,0.1,11.347,0.1"/>
</svg>
