<?xml version="1.0" encoding="utf-8"?>
<!-- Generator: Adobe Illustrator 16.0.1, SVG Export Plug-In . SVG Version: 6.00 Build 0)  -->
<!DOCTYPE svg PUBLIC "-//W3C//DTD SVG 1.1//EN" "http://www.w3.org/Graphics/SVG/1.1/DTD/svg11.dtd">
<svg version="1.1" id="Layer_1" xmlns="http://www.w3.org/2000/svg" xmlns:xlink="http://www.w3.org/1999/xlink" x="0px" y="0px"
	 width="6px" height="12px" viewBox="0 0 6 12" enable-background="new 0 0 6 12" xml:space="preserve">
<path fill="#FFFFFF" d="M3.163,1.223v1.985h1.866v1.81H3.163v2.568c0,0.555-0.007,0.875,0.053,1.034
	C3.272,8.773,3.42,8.938,3.579,9.029c0.212,0.128,0.453,0.191,0.726,0.191c0.482,0,1.217-0.156,1.695-0.476v1.509
	c-0.407,0.189-0.777,0.326-1.107,0.404c-0.332,0.074-0.688,0.113-1.074,0.113c-0.438,0-0.692-0.057-1.028-0.166
	c-0.335-0.105-0.622-0.267-0.858-0.471c-0.238-0.203-0.403-0.42-0.494-0.652c-0.094-0.225-0.14-0.557-0.14-0.993V5.018H0V3.784
	C0.375,3.663,0.812,3.488,1.079,3.26c0.267-0.226,0.481-0.5,0.644-0.819c0.162-0.318,0.273-0.726,0.334-1.218H3.163z"/>
</svg>
