<?xml version="1.0" encoding="utf-8"?>
<!-- Generator: Adobe Illustrator 16.0.1, SVG Export Plug-In . SVG Version: 6.00 Build 0)  -->
<!DOCTYPE svg PUBLIC "-//W3C//DTD SVG 1.1//EN" "http://www.w3.org/Graphics/SVG/1.1/DTD/svg11.dtd">
<svg version="1.1" id="Layer_1" xmlns="http://www.w3.org/2000/svg" xmlns:xlink="http://www.w3.org/1999/xlink" x="0px" y="0px"
	 width="9px" height="8px" viewBox="0 0 9 8" enable-background="new 0 0 9 8" xml:space="preserve">
<g>
	<polygon fill="#333333" points="4.5,0.548 5.619,2.813 8.118,3.177 6.31,4.94 6.736,7.43 4.5,6.254 2.264,7.43 2.69,4.94 
		0.882,3.177 3.381,2.813 	"/>
	<path fill="#333333" d="M6.736,7.93c-0.08,0-0.16-0.02-0.232-0.058L4.5,6.818L2.497,7.872C2.329,7.961,2.125,7.945,1.97,7.834
		C1.816,7.723,1.739,7.533,1.771,7.346l0.382-2.231l-1.621-1.58C0.396,3.402,0.348,3.203,0.406,3.022
		c0.059-0.181,0.215-0.313,0.404-0.34l2.239-0.326l1.002-2.03c0.168-0.342,0.729-0.342,0.896,0l1.003,2.03l2.238,0.326
		c0.189,0.027,0.346,0.159,0.404,0.34c0.059,0.181,0.01,0.379-0.127,0.512l-1.62,1.58l0.382,2.231
		C7.262,7.533,7.184,7.723,7.03,7.834C6.943,7.897,6.84,7.93,6.736,7.93z M4.5,5.754c0.08,0,0.16,0.02,0.233,0.058l1.34,0.704
		L5.816,5.024C5.789,4.862,5.843,4.697,5.961,4.582l1.083-1.056L5.547,3.308C5.384,3.285,5.243,3.182,5.17,3.035L4.5,1.678
		L3.83,3.035c-0.073,0.147-0.213,0.25-0.376,0.273L1.956,3.526L3.04,4.582c0.118,0.115,0.171,0.28,0.144,0.442L2.928,6.516
		l1.339-0.704C4.34,5.773,4.419,5.754,4.5,5.754z"/>
</g>
</svg>
