<?xml version="1.0" encoding="utf-8"?>
<!-- Generator: Adobe Illustrator 15.1.0, SVG Export Plug-In . SVG Version: 6.00 Build 0)  -->
<!DOCTYPE svg PUBLIC "-//W3C//DTD SVG 1.1//EN" "http://www.w3.org/Graphics/SVG/1.1/DTD/svg11.dtd">
<svg version="1.1" id="Layer_1" xmlns="http://www.w3.org/2000/svg" xmlns:xlink="http://www.w3.org/1999/xlink" x="0px" y="0px"
	 width="16px" height="11px" viewBox="0 0 16 11" enable-background="new 0 0 16 11" xml:space="preserve">
<path fill="#EFEFEF" d="M14.152,1.684c-0.453,0.201-0.939,0.336-1.45,0.398c0.521-0.312,0.922-0.808,1.11-1.397
	c-0.487,0.29-1.028,0.499-1.604,0.613C11.749,0.807,11.093,0.5,10.366,0.5c-1.394,0-2.524,1.13-2.524,2.524
	c0,0.198,0.023,0.391,0.065,0.576C5.81,3.494,3.949,2.489,2.704,0.962C2.486,1.335,2.362,1.769,2.362,2.231
	c0,0.876,0.446,1.649,1.123,2.102C3.071,4.32,2.683,4.206,2.342,4.017c0,0.011,0,0.021,0,0.032c0,1.223,0.87,2.242,2.024,2.475
	c-0.212,0.06-0.435,0.091-0.664,0.091c-0.163,0-0.321-0.017-0.476-0.048C3.548,7.57,4.48,8.301,5.585,8.32
	C4.721,8.998,3.633,9.4,2.45,9.4c-0.204,0-0.405-0.012-0.603-0.035C2.964,10.082,4.29,10.5,5.717,10.5
	c4.643,0,7.182-3.848,7.182-7.183c0-0.109-0.002-0.218-0.006-0.327C13.387,2.635,13.812,2.19,14.152,1.684z"/>
</svg>
