<?xml version="1.0" encoding="utf-8"?>
<!-- Generator: Adobe Illustrator 15.1.0, SVG Export Plug-In . SVG Version: 6.00 Build 0)  -->
<!DOCTYPE svg PUBLIC "-//W3C//DTD SVG 1.1//EN" "http://www.w3.org/Graphics/SVG/1.1/DTD/svg11.dtd">
<svg version="1.1" id="Layer_1" xmlns="http://www.w3.org/2000/svg" xmlns:xlink="http://www.w3.org/1999/xlink" x="0px" y="0px"
	 width="40px" height="40px" viewBox="0 0 40 40" enable-background="new 0 0 40 40" xml:space="preserve">
<rect fill="#5E6566" width="40" height="40"/>
<path opacity="0.65" fill="#FFFFFF" d="M7,20c0-7.18,5.82-13,13-13s13,5.82,13,13s-5.82,13-13,13S7,27.18,7,20z M26.227,24.151
	c0.498-0.747,0.297-1.756-0.45-2.253l-4.151-2.768v-7.256c0-0.897-0.728-1.625-1.625-1.625s-1.625,0.728-1.625,1.625V20
	c0,0.544,0.272,1.051,0.724,1.352l4.875,3.25c0.277,0.186,0.591,0.273,0.899,0.273C25.398,24.875,25.914,24.621,26.227,24.151z"/>
</svg>
