<?xml version="1.0" encoding="utf-8"?>
<!-- Generator: Adobe Illustrator 16.0.3, SVG Export Plug-In . SVG Version: 6.00 Build 0)  -->
<!DOCTYPE svg PUBLIC "-//W3C//DTD SVG 1.1//EN" "http://www.w3.org/Graphics/SVG/1.1/DTD/svg11.dtd">
<svg version="1.1" id="Layer_1" xmlns="http://www.w3.org/2000/svg" xmlns:xlink="http://www.w3.org/1999/xlink" x="0px" y="0px"
	 width="32px" height="32px" viewBox="0 0 32 32" enable-background="new 0 0 32 32" xml:space="preserve">
<path fill="#ffffff" d="M31,8.502c-1.104,0.488-2.287,0.818-3.535,0.969c1.27-0.762,2.246-1.968,2.707-3.406
	c-1.188,0.705-2.506,1.221-3.91,1.494c-1.121-1.194-2.721-1.941-4.49-1.941c-3.397,0-6.155,2.755-6.155,6.155
	c0,0.481,0.054,0.954,0.157,1.405c-5.112-0.26-9.648-2.712-12.686-6.438C2.554,7.649,2.253,8.705,2.253,9.834
	c0,2.136,1.234,4.021,2.888,5.125c-1.011-0.032-2.639-0.31-2.639-0.771c0,0.027,0,0.052,0,0.077c0,2.982,1.971,5.475,4.79,6.038
	c-0.519,0.145-1.138,0.215-1.699,0.215c-0.396,0-0.819-0.037-1.196-0.107c0.784,2.443,3.039,4.226,5.731,4.275
	c-2.108,1.647-4.771,2.637-7.653,2.637c-0.497,0-0.994-0.039-1.474-0.092C3.723,28.98,6.958,30,10.437,30
	c11.323,0,17.515-9.379,17.515-17.521c0-0.267-0.011-0.53-0.021-0.796C29.135,10.818,30.178,9.738,31,8.502z"/>
</svg>
