<?xml version="1.0" encoding="utf-8"?>
<!-- Generator: Adobe Illustrator 16.0.3, SVG Export Plug-In . SVG Version: 6.00 Build 0)  -->
<!DOCTYPE svg PUBLIC "-//W3C//DTD SVG 1.1//EN" "http://www.w3.org/Graphics/SVG/1.1/DTD/svg11.dtd">
<svg version="1.1" id="Layer_1" xmlns="http://www.w3.org/2000/svg" xmlns:xlink="http://www.w3.org/1999/xlink" x="0px" y="0px"
	 width="23.25px" height="32px" viewBox="0 0 23.25 32" enable-background="new 0 0 23.25 32" xml:space="preserve">
<path fill="#666666" d="M21.46,13.23c0,0.205-0.001,0.322-0.001,0.322h-0.003c-0.022,1.891-0.233,7.339-1.841,8.048
	C15.55,23.396,3.23,21.868,2.988,20.608c-0.451-2.375-0.456-7.294-0.456-7.376l0,0l0,0v-0.004l0,0c0-0.082,0.004-5,0.456-7.377
	C3.23,4.593,15.55,3.064,19.615,4.861c1.607,0.709,1.818,6.158,1.841,8.048h0.003C21.459,12.909,21.46,13.025,21.46,13.23z
	 M15.564,13.499c-0.039-0.974-1.607-2.251-3.815-3.95c-0.669-0.515-1.301-1.001-1.572-1.279C10.085,8.175,9.684,8.07,9.505,8.344
	c-1.772,2.74-0.756,9.167-0.688,9.588c0.033,0.2,0.277,0.489,0.662,0.317c0.193-0.086,0.512-0.315,0.934-0.565
	C14.782,15.087,15.594,14.209,15.564,13.499z"/>
</svg>
