<?xml version="1.0" encoding="utf-8"?>
<!-- Generator: Adobe Illustrator 16.0.3, SVG Export Plug-In . SVG Version: 6.00 Build 0)  -->
<!DOCTYPE svg PUBLIC "-//W3C//DTD SVG 1.1//EN" "http://www.w3.org/Graphics/SVG/1.1/DTD/svg11.dtd">
<svg version="1.1" id="Layer_1" xmlns="http://www.w3.org/2000/svg" xmlns:xlink="http://www.w3.org/1999/xlink" x="0px" y="0px"
	 width="79.25px" height="32px" viewBox="0 0 79.25 32" enable-background="new 0 0 79.25 32" xml:space="preserve">
<g>
	<path fill="#666666" d="M18.687,2.876c-0.326-0.031-0.71-0.038-1-0.02c-4.05,0.262-9.861,2.283-11.725,4.766
		c-1.489,1.982,0.043,4.881,1.316,5.945c1.316,1.101,3.02,1.625,4.823,2.182c0.534,0.165,1.086,0.334,1.646,0.523
		c0.281,0.097,0.576,0.188,0.865,0.275c1.383,0.422,2.813,0.859,2.736,1.88c-0.085,1.121-2.249,2.036-2.959,2.337
		c-0.119,0.049-0.206,0.088-0.236,0.104c-1.203,0.489-2.896,0.751-4.897,0.751c-2.093,0-4.31-0.285-6.085-0.783
		c-0.1-0.025-0.193-0.057-0.297-0.084c-0.4-0.093-0.68-0.051-0.81,0.123c-0.071,0.1-0.1,0.205-0.082,0.314
		c0.036,0.222,0.246,0.388,0.337,0.449l0.084,0.057c1.676,1.078,3.896,1.625,6.598,1.625l0,0c0.793,0,1.64-0.049,2.511-0.141
		c2.373-0.261,6.239-1.354,7.403-2.978c0.472-0.655,0.602-1.415,0.381-2.197c-0.284-0.997-1.133-1.941-2.113-2.353
		c-0.878-0.367-1.882-0.692-2.943-1.037c-2.162-0.7-4.396-1.426-5.674-2.555c-0.748-0.662-1.143-1.429-1.139-2.215
		C7.43,9.129,7.763,8.463,8.39,7.917c1.46-1.269,3.971-2.326,6.711-2.829c0.205-0.029,0.448-0.064,0.717-0.104
		c0.855-0.123,2.028-0.291,2.95-0.453c0.408-0.069,0.7-0.229,0.845-0.457c0.106-0.17,0.129-0.37,0.064-0.594
		C19.562,3.097,19.08,2.939,18.687,2.876z"/>
	<path fill="#666666" d="M41.417,21.564c-0.176-0.084-0.69-0.066-0.69-0.066c-0.839-0.076-0.917-1.354-1.155-3.09
		c-0.615-4.44,0.387-9.133,0.899-12.83c0.125-0.917,0.719-2.095,0.562-2.813c-0.156-0.723-1.4-1.195-1.688-0.451
		c-1.117,2.896-3.751,20.797,1.2,20.482C41.624,22.729,41.598,21.654,41.417,21.564z"/>
	<path fill="#666666" d="M27.332,20.956c-0.692-1.392,0.492-6.394-0.562-7.314c-1.104-0.963-2.212,0.367-3.039,0.674
		c0.121-2.332,0.361-4.597,0.273-6.816c-0.01-0.254-0.016-2.27-0.049-3.085c-0.053-1.249-1.573-1.44-1.573-0.45
		c0,4.278-0.021,8.551-0.452,13.167c-0.102,1.08-0.578,2.654-0.669,3.726c-0.104,1.188,0.312,2.217,1.575,1.574
		c0.593-0.302,0.527-2.627,0.675-3.49c0.292-1.686,0.642-2.753,1.688-3.382c0.567,1.898-0.844,6.107,1.012,6.865
		c0.744,0.305,1.779-0.033,1.801-0.676C28.018,21.468,27.492,21.275,27.332,20.956z"/>
	<path fill="#666666" d="M60.383,21.659c-0.935,1.616,2.983,1.552,1.664-0.11C61.759,21.186,60.771,20.986,60.383,21.659z"/>
	<path fill="#666666" d="M77.079,15.472c-0.599-0.753-1.623,0.725-1.789,0.973c-0.918,1.349-2.278,4.167-2.769,3.889
		c-0.485-0.275,0.597-3.536-1.125-3.479c-1.143,0.037-1.215,2.549-0.922,3.992c0.158,0.775,0.812,1.422,1.021,1.533
		c1.986,1.08,3.795-2.312,4.402-3.48c0.412-0.789,0.848-1.459,1.127-1.943C77.413,16.29,77.275,15.72,77.079,15.472z"/>
	<path fill="#666666" d="M33.072,18.925c0.965-0.758,2.782-2.222,2.506-4.18c-0.073-0.522-0.821-1.409-1.383-1.558
		c-1.695-0.455-2.396,0.719-2.925,1.575c-0.478,0.774-1.583,2.511-1.575,4.728c0.004,1.621,0.557,2.533,1.688,3.039
		c1.062,0.477,4.272-0.687,4.213-1.344c-0.127-1.403-3.558,0.732-3.876-0.795C31.552,19.59,32.111,19.684,33.072,18.925z
		 M33.746,14.537c0.627-0.334,0.593,0.756,0.449,1.126c-0.265,0.679-1.566,1.504-2.139,1.8
		C32.443,16.562,32.955,14.957,33.746,14.537z"/>
	<path fill="#666666" d="M45.691,15.357c0.406-2.94,0.371-6.148,0.675-8.89c0.224-2.001-1.037-2.743-1.688-1.914
		c-0.371,0.478-0.07,2.31-0.787,11.479c-0.094,1.202-0.283,2.862-0.338,3.897h-0.001c0,0-0.239,2.006-0.213,2.344
		c0.001,0.028,0.021,0.055,0.054,0.072c0.229,0.206,1.211,0.29,1.211,0.29c2.847,0.011,5.938-0.485,6.041-3.116
		C50.732,17.211,48.216,14.023,45.691,15.357z M48.393,19.634c-0.256,1.101-1.549,1.692-2.711,2.013
		c0.045-0.473,0.125-1.148,0.27-1.862c0-0.002,0-0.002,0-0.002c0.297-1.347,0.479-3.19,1.431-3.071
		C47.878,16.771,48.622,18.639,48.393,19.634z"/>
	<path fill="#666666" d="M67.066,21.129c-0.851-0.036-1.227-3.061-1.221-3.994c0.008-1.377,0.99-1.237,1.773-1.553
		c0.354-0.143,1.47-0.402,1.223-0.887c-0.438-0.859-2.262,0.421-2.775-0.223c-0.18-0.225,0.08-1.378,0.224-1.998
		c0.31-1.338,1.457-3.584-0.332-3.33c-0.987,0.142-1.176,1.059-1.44,2.221c-0.117,0.503-0.304,3.152-0.441,3.33
		c-0.307,0.381-1.596,0.152-1.775,0.441c-0.805,1.279,1.646,0.932,1.775,1.127c0.166,0.252-0.332,7.381,3.883,6.196
		c0.593-0.166,1.574-1.643,0.998-2.219C68.62,19.909,67.473,21.146,67.066,21.129z"/>
	<path fill="#666666" d="M57.784,14.909c-0.412,0-0.834,0.166-1.08,0.421c-0.181,0.189-0.265,0.423-0.25,0.695
		c0.062,1.258-0.021,3.344-0.233,3.823c-0.129,0.281-0.543,0.562-0.756,0.651c-0.267,0.165-0.484,0.247-0.671,0.247l0,0
		c-0.155,0-0.293-0.062-0.392-0.178c-0.309-0.36-0.172-1.204-0.019-2.18c0.114-0.715,0.245-2.125,0.11-2.472
		c-0.064-0.174-0.664-0.526-1.199-0.526c-0.129,0-0.236,0.023-0.312,0.066c-0.311,0.195-0.582,3.229-0.573,4.252
		c0.008,1.037,0.239,2.781,1.72,2.781c0.45,0,0.982-0.162,1.584-0.479c0.028-0.017,0.062-0.021,0.096-0.021
		c0.034,0,0.07,0.009,0.102,0.026c0.061,0.032,0.1,0.096,0.102,0.166c0,0.012,0.047,1.346-0.174,2.773
		c-0.295,1.945-0.924,3.141-1.865,3.543c-1.021,0.438-1.318,0.928-1.254,1.242c0.042,0.199,0.217,0.318,0.361,0.318
		c0.018,0,0.029-0.002,0.045-0.004l0.091-0.015c2.464-0.378,3.874-1.979,4.19-4.761c0.381-3.312,0.428-3.771,0.436-3.834
		c0-0.006,0-0.014,0.001-0.021c0,0,0.019-0.136,0.022-0.168c0.051-0.438,0.143-0.957,0.238-1.505
		c0.229-1.286,0.494-3.952,0.217-4.666C58.279,15.005,58.1,14.909,57.784,14.909z"/>
</g>
</svg>
