<?xml version="1.0" encoding="utf-8"?>
<!-- Generator: Adobe Illustrator 16.0.3, SVG Export Plug-In . SVG Version: 6.00 Build 0)  -->
<!DOCTYPE svg PUBLIC "-//W3C//DTD SVG 1.1//EN" "http://www.w3.org/Graphics/SVG/1.1/DTD/svg11.dtd">
<svg version="1.1" id="Layer_1" xmlns="http://www.w3.org/2000/svg" xmlns:xlink="http://www.w3.org/1999/xlink" x="0px" y="0px"
	 width="104px" height="32px" viewBox="0 0 104 32" enable-background="new 0 0 104 32" xml:space="preserve">
<path fill="#efefef" d="M42.881,2.876c-0.326-0.031-0.71-0.038-1-0.02c-4.05,0.262-9.861,2.283-11.725,4.766
	c-1.489,1.982,0.043,4.881,1.316,5.945c1.316,1.101,3.02,1.625,4.823,2.182c0.534,0.165,1.086,0.334,1.646,0.523
	c0.281,0.097,0.576,0.188,0.865,0.275c1.383,0.422,2.813,0.859,2.736,1.88c-0.085,1.121-2.249,2.036-2.959,2.337
	c-0.119,0.049-0.206,0.088-0.236,0.104c-1.203,0.489-2.896,0.751-4.897,0.751c-2.093,0-4.31-0.285-6.085-0.783
	c-0.1-0.025-0.193-0.057-0.297-0.084c-0.4-0.093-0.68-0.051-0.81,0.123c-0.071,0.1-0.1,0.205-0.082,0.314
	c0.036,0.222,0.246,0.388,0.337,0.449l0.084,0.057c1.676,1.078,3.896,1.625,6.598,1.625l0,0c0.793,0,1.64-0.049,2.511-0.141
	c2.373-0.26,6.239-1.354,7.403-2.977c0.472-0.655,0.602-1.415,0.381-2.197c-0.284-0.997-1.133-1.941-2.113-2.353
	c-0.878-0.367-1.882-0.692-2.943-1.037c-2.162-0.7-4.396-1.426-5.674-2.555c-0.748-0.662-1.143-1.429-1.139-2.215
	c0.003-0.717,0.336-1.383,0.963-1.929c1.46-1.269,3.971-2.326,6.711-2.829c0.205-0.029,0.448-0.064,0.717-0.104
	c0.855-0.123,2.028-0.291,2.95-0.453c0.408-0.069,0.7-0.229,0.845-0.457c0.106-0.17,0.129-0.37,0.064-0.594
	C43.756,3.097,43.273,2.939,42.881,2.876z"/>
<path fill="#efefef" d="M65.611,21.564c-0.176-0.084-0.69-0.066-0.69-0.066c-0.841-0.076-0.917-1.354-1.155-3.09
	c-0.615-4.44,0.387-9.133,0.898-12.83c0.126-0.917,0.72-2.095,0.562-2.813c-0.156-0.723-1.4-1.195-1.688-0.451
	c-1.117,2.896-3.751,20.797,1.2,20.482C65.818,22.729,65.792,21.654,65.611,21.564z"/>
<path fill="#efefef" d="M51.525,20.956c-0.692-1.392,0.492-6.394-0.562-7.314c-1.104-0.963-2.212,0.367-3.039,0.674
	c0.121-2.332,0.361-4.597,0.273-6.816c-0.009-0.254-0.015-2.27-0.048-3.085c-0.053-1.249-1.574-1.44-1.574-0.45
	c0,4.278-0.02,8.551-0.452,13.167c-0.101,1.08-0.578,2.654-0.669,3.726c-0.104,1.188,0.312,2.216,1.576,1.574
	c0.592-0.302,0.527-2.627,0.674-3.49c0.292-1.686,0.641-2.754,1.686-3.383c0.568,1.898-0.843,6.107,1.012,6.865
	c0.744,0.304,1.779-0.034,1.801-0.676C52.212,21.468,51.686,21.275,51.525,20.956z"/>
<path fill="#efefef" d="M84.577,21.659c-0.935,1.616,2.983,1.552,1.664-0.11C85.953,21.186,84.965,20.986,84.577,21.659z"/>
<path fill="#efefef" d="M101.273,15.472c-0.598-0.753-1.623,0.725-1.789,0.973c-0.918,1.349-2.278,4.167-2.768,3.889
	c-0.486-0.275,0.596-3.536-1.126-3.479c-1.142,0.037-1.215,2.549-0.922,3.992c0.159,0.776,0.813,1.422,1.022,1.534
	c1.986,1.08,3.795-2.312,4.402-3.481c0.412-0.789,0.848-1.459,1.127-1.943C101.607,16.29,101.471,15.72,101.273,15.472z"/>
<path fill="#efefef" d="M57.266,18.925c0.965-0.758,2.782-2.222,2.506-4.18c-0.073-0.522-0.821-1.409-1.383-1.558
	c-1.695-0.455-2.396,0.719-2.925,1.575c-0.478,0.774-1.583,2.511-1.575,4.728c0.004,1.621,0.557,2.533,1.688,3.039
	c1.062,0.477,4.272-0.686,4.213-1.344c-0.127-1.403-3.558,0.733-3.876-0.795C55.746,19.59,56.305,19.684,57.266,18.925z
	 M57.939,14.537c0.627-0.334,0.593,0.756,0.449,1.126c-0.265,0.679-1.566,1.504-2.139,1.8
	C56.637,16.562,57.148,14.957,57.939,14.537z"/>
<path fill="#efefef" d="M69.887,15.357c0.406-2.94,0.37-6.148,0.674-8.89c0.224-2.001-1.037-2.743-1.688-1.914
	c-0.372,0.478-0.071,2.31-0.787,11.479c-0.094,1.202-0.284,2.862-0.338,3.897h-0.001c0,0-0.239,2.006-0.213,2.344
	c0.001,0.029,0.021,0.055,0.053,0.072c0.229,0.207,1.212,0.291,1.212,0.291c2.846,0.01,5.938-0.486,6.04-3.117
	C74.927,17.211,72.41,14.023,69.887,15.357z M72.586,19.634c-0.255,1.101-1.548,1.692-2.711,2.013
	c0.045-0.473,0.125-1.149,0.27-1.863c0-0.002,0-0.002,0-0.002c0.297-1.346,0.479-3.19,1.431-3.071
	C72.072,16.771,72.816,18.639,72.586,19.634z"/>
<path fill="#efefef" d="M91.262,21.129c-0.851-0.036-1.227-3.061-1.222-3.994c0.009-1.377,0.991-1.237,1.774-1.553
	c0.354-0.143,1.47-0.402,1.223-0.887c-0.438-0.859-2.262,0.421-2.775-0.223c-0.18-0.225,0.08-1.378,0.223-1.998
	c0.309-1.338,1.457-3.584-0.332-3.33c-0.987,0.142-1.176,1.059-1.441,2.221c-0.117,0.503-0.303,3.152-0.441,3.33
	c-0.306,0.381-1.596,0.152-1.775,0.441c-0.805,1.279,1.646,0.932,1.775,1.127c0.166,0.252-0.332,7.381,3.883,6.196
	c0.593-0.166,1.574-1.643,0.998-2.219C92.814,19.909,91.667,21.146,91.262,21.129z"/>
<path fill="#efefef" d="M81.979,14.909c-0.412,0-0.834,0.166-1.08,0.421c-0.18,0.189-0.265,0.423-0.25,0.695
	c0.062,1.258-0.02,3.344-0.234,3.823c-0.128,0.281-0.542,0.562-0.755,0.651c-0.267,0.165-0.485,0.247-0.671,0.247l0,0
	c-0.156,0-0.293-0.062-0.391-0.178c-0.309-0.36-0.173-1.204-0.019-2.18c0.114-0.714,0.245-2.125,0.11-2.471
	c-0.065-0.174-0.664-0.526-1.199-0.526c-0.129,0-0.237,0.023-0.313,0.066c-0.31,0.195-0.581,3.229-0.573,4.252
	c0.008,1.037,0.239,2.781,1.72,2.781c0.45,0,0.983-0.162,1.584-0.479c0.028-0.017,0.062-0.022,0.095-0.022
	c0.035,0,0.071,0.009,0.102,0.026c0.061,0.033,0.1,0.096,0.101,0.166c0.001,0.012,0.047,1.346-0.173,2.774
	c-0.295,1.946-0.924,3.14-1.865,3.543c-1.021,0.438-1.318,0.928-1.254,1.242c0.042,0.2,0.216,0.319,0.361,0.319
	c0.017,0,0.029-0.002,0.045-0.004l0.091-0.015c2.463-0.378,3.874-1.979,4.19-4.761c0.381-3.312,0.428-3.771,0.436-3.834
	c0-0.006,0-0.014,0.001-0.02c0,0,0.019-0.136,0.022-0.168c0.051-0.439,0.143-0.957,0.238-1.505c0.23-1.286,0.495-3.952,0.217-4.666
	C82.475,15.005,82.293,14.909,81.979,14.909z"/>
<path fill="#6cbc45" d="M21.46,13.23c0,0.205-0.001,0.322-0.001,0.322h-0.003c-0.022,1.891-0.233,7.339-1.841,8.048
	C15.55,23.396,3.23,21.868,2.988,20.607c-0.451-2.375-0.456-7.293-0.456-7.375l0,0l0,0v-0.004l0,0c0-0.082,0.004-5,0.456-7.377
	C3.23,4.593,15.55,3.064,19.615,4.861c1.607,0.709,1.818,6.158,1.841,8.048h0.003C21.459,12.909,21.46,13.025,21.46,13.23z
	 M15.564,13.499c-0.039-0.974-1.607-2.251-3.815-3.95c-0.669-0.515-1.301-1.001-1.572-1.279c-0.092-0.095-0.493-0.2-0.672,0.074
	c-1.772,2.74-0.756,9.167-0.688,9.588c0.033,0.2,0.277,0.489,0.662,0.317c0.193-0.086,0.512-0.315,0.934-0.565
	C14.782,15.087,15.594,14.209,15.564,13.499z"/>
</svg>
