<?xml version="1.0" encoding="utf-8"?>
<!-- Generator: Adobe Illustrator 16.0.3, SVG Export Plug-In . SVG Version: 6.00 Build 0)  -->
<!DOCTYPE svg PUBLIC "-//W3C//DTD SVG 1.1//EN" "http://www.w3.org/Graphics/SVG/1.1/DTD/svg11.dtd">
<svg version="1.1" id="Layer_1" xmlns="http://www.w3.org/2000/svg" xmlns:xlink="http://www.w3.org/1999/xlink" x="0px" y="0px"
	 width="16px" height="16px" viewBox="0 0 16 16" enable-background="new 0 0 16 16" xml:space="preserve">
<path fill="#EE4C4C" d="M15.5,8c0.001,0.163,0,0.255,0,0.255h-0.002c-0.019,1.498-0.186,5.815-1.46,6.379
	c-3.221,1.423-12.985,0.211-13.176-0.785C0.503,11.966,0.5,8.066,0.5,8.001l0,0V8V7.998l0,0c0-0.065,0.003-3.964,0.362-5.847
	c0.19-0.996,9.955-2.208,13.176-0.785c1.274,0.563,1.441,4.88,1.46,6.378H15.5C15.5,7.745,15.501,7.837,15.5,8z M8,5.553
	C6.688,3.584,4.062,4.737,4.062,6.882c0,1.451,1.312,2.485,2.297,3.266C7.385,10.958,7.672,11.132,8,11.46
	c0.328-0.328,0.603-0.52,1.641-1.312c1-0.764,2.297-1.831,2.297-3.281C11.938,4.737,9.312,3.584,8,5.553z"/>
</svg>
