<?xml version="1.0" encoding="utf-8"?>
<!-- Generator: Adobe Illustrator 15.1.0, SVG Export Plug-In . SVG Version: 6.00 Build 0)  -->
<!DOCTYPE svg PUBLIC "-//W3C//DTD SVG 1.1//EN" "http://www.w3.org/Graphics/SVG/1.1/DTD/svg11.dtd">
<svg version="1.1" id="Layer_1" xmlns="http://www.w3.org/2000/svg" xmlns:xlink="http://www.w3.org/1999/xlink" x="0px" y="0px"
	 width="229px" height="58px" viewBox="0 0 229 58" enable-background="new 0 0 229 58" xml:space="preserve">
<g>
	<path fill="#FFFFFF" d="M148.151,21.562c1.441-6.496,1.167-14.182,3.449-20.339c0.59-1.587,3.131-0.578,3.452,0.959
		c0.32,1.527-0.892,4.03-1.152,5.981c-1.046,7.857-3.097,17.84-1.839,27.277c0.491,3.69,0.993,6.615,2.363,6.57
		c0,0,1.065-0.08,1.411,0.146c0.349,0.227,0,1.231,0,1.231c-0.689,1.153-0.613,1.236-1.783,1.386
		c-8.288,1.068-5.881-11.298-6.134-19.385L148.151,21.562z"/>
	<path fill="#FFFFFF" d="M121.737,23.323c1.692-0.651,3.956-3.479,6.21-1.433c2.154,1.957-0.266,12.599,1.149,15.553
		c0.329,0.682,1.405,1.086,1.383,1.675c-0.042,1.363-2.164,2.085-3.682,1.439c-3.788-1.613-0.902-10.567-2.067-14.6
		c-2.136,1.335-3.776,5.982-4.374,9.573c-0.303,1.829-0.17,6.776-1.379,7.414c-2.582,1.362-3.43-0.822-3.221-3.344
		c0.189-2.276,2.096-7.993,2.298-10.292c0.884-9.813,0.923-18.897,0.923-27.996c0-2.105,2.872-0.235,3.225,0.957
		c0.483,1.667,0.438,5.919,0.457,6.459C122.837,13.45,121.985,18.366,121.737,23.323z"/>
	<path fill="#FFFFFF" d="M145.018,27.403c-0.227,0.685-2.628,3.89-4.604,5.503c-1.96,1.612-3.694,1.038-2.76,4.788
		c0.562,2.239,7.772,0.298,7.925,1.691c0.155,1.396-6.441,3.87-8.612,2.858c-2.314-1.078-2.472-4.838-3.451-8.138
		c-0.219-0.739-1.628-2.752-0.921-4.308c0.325-0.711,0.778,0.106,1.612-0.477c1.061-0.742,1.558-3.619,2.531-5.264
		c1.078-1.823,2.51-4.316,5.982-3.352c1.141,0.319,2.624,2.209,2.82,3.315C145.727,25.057,145.242,26.723,145.018,27.403z
		 M142.72,25.969c0.289-0.785,0.365-3.103-0.925-2.392c-1.616,0.894-2.662,4.303-3.446,6.221
		C139.515,29.169,142.181,27.416,142.72,25.969z"/>
	<path fill="#FFFFFF" d="M157.646,42.469c0.356-0.621,3.396-0.918,3.396-0.918c2.562-0.437,7.122-1.637,7.821-4.782
		c0.472-2.124-1.052-6.093-2.071-6.226c-2.69-0.348-2.681,7.332-4.141,9.096c-1.107,1.337-3.496,1.135-4.142-0.481
		c-0.556-1.382,0.855-6.564,1.151-10.048c0.544-6.428,0.86-11.896,1.381-18.905c0.137-1.848-0.278-4.992,0.228-5.505
		c1.555-1.558,3.825,1.469,3.91,1.916c0.14,0.708-0.375,1.461-0.459,2.154c-0.69,5.818-0.548,12.65-1.382,18.902
		c5.161-2.836,10.309,3.945,10.123,8.853c-0.204,5.597-6.532,6.647-12.345,6.635C161.12,43.158,157.263,43.135,157.646,42.469z"/>
	<path fill="#FFFFFF" d="M183.209,39.641c-5.045,2.78-7.33-0.156-7.363-5.27c-0.011-1.509,0.421-7.571,1.378-8.133
		c1.085-0.638,3.3,0.453,3.682,1.199c1.184,2.282-2.553,11.228,1.382,7.414c-0.113,0.112,1.086-0.523,1.378-1.192
		c0.556-1.275,0.601-4.25,0.461-5.746c-0.087-0.937-0.717-2.02-0.461-2.629c0.853-2.013,4.572-0.82,5.063,0.478
		c0.86,2.287-0.573,8.762-0.924,11.968c-0.469,4.357-0.97,10.264-1.838,14.117c-0.04,0.17-0.21,1.713-0.922,3.349
		c0.255-0.589-1.854,3.706-3.219,2.632c-0.538-0.426,0.68-10.998,0.92-13.884C182.846,42.793,183.563,40.711,183.209,39.641z"/>
	<path fill="#FFFFFF" d="M101.533,7.903c-0.195,0.099-0.434,0.429-0.648-0.081c-0.406-2.286,2.59-2.498,3.998-3.466
		c-5.117,0.974-10.566,3.121-13.824,6.063c-2.771,2.507-3.474,6.812-0.331,9.703c3.922,3.605,13.256,4.692,18.485,7.623
		c2.736,1.531,5.853,5.177,3.337,8.832c-2.346,3.397-10.326,5.709-14.993,6.241c-7.145,0.805-13.713,0.072-18.489-3.122
		c-0.941-0.627-1.57-1.189-1.498-1.386c0.385-1.065,2.215,0.363,2.165,0.347c6.498,2.073,17.362,2.187,23.319-0.347
		c0.216-0.227,6.399-2.858,6.664-5.369c0.292-2.808-4.133-4.012-7.497-5.196c-5.06-1.787-9.72-2.73-13.156-5.719
		c-2.487-2.164-5.679-7.779-2.666-11.957c3.826-5.296,15.702-9.502,23.816-10.044c1.043-0.073,2.71,0.009,3.498,0.342
		c0.174,0.076,1.802,1.344,1.668,2.083C115.119,3.857,105.03,5.684,101.533,7.903z"/>
	<path fill="#FFFFFF" d="M34.239,31.049c1.322-1.163,8.083-4.807,8.015-6.512c-0.082-2.009-6.016-6.708-7.489-8.281
		c-2.358,4.001-1.546,8.916-0.984,15.198"/>
	<path fill="#FFFFFF" d="M203.953,13.181c3.66-0.544,1.31,4.236,0.682,7.078c-0.289,1.321-0.822,3.769-0.451,4.249
		c1.049,1.369,4.776-1.353,5.671,0.47c0.506,1.035-1.772,1.583-2.496,1.887c-1.605,0.673-3.609,0.376-3.632,3.305
		c-0.012,1.989,0.788,8.155,2.499,8.493c0.352,0.072,3.178-2.596,3.852-1.89c1.182,1.228-1.239,4.365-2.039,4.72
		c-5.377,2.375-7.556-4.701-7.94-9.438c-0.059-0.75,0.342-2.53,0-3.065c-0.261-0.418-5.273-0.353-3.625-3.068
		c0.368-0.616,3.007-0.132,3.625-0.944c0.286-0.376,0.671-6.006,0.909-7.077C201.548,15.431,201.933,13.483,203.953,13.181z"/>
	<path fill="#FFFFFF" d="M193.916,39.323c1.171-0.376,1.81-0.065,2.047,0.233c2.727,3.503-5.286,3.693-3.408,0.234
		C192.699,39.532,193.067,39.593,193.916,39.323z"/>
	<path fill="#FFFFFF" d="M216.148,36.119c1.001,0.589,3.777-5.403,5.648-8.273c0.344-0.524,2.443-3.666,3.663-2.064
		c0.404,0.528,0.111,2.788-0.106,3.153c-0.594,1.011-1.461,2.454-2.299,4.134c-1.245,2.484-4.939,9.701-8.998,7.404
		c-0.431-0.241-1.884-2.295-2.094-3.266c-0.666-3.055-0.447-8.408,1.886-8.489C217.356,28.597,215.147,35.524,216.148,36.119z"/>
	<path fill="#E24829" d="M3.814,3.703c0,2.128-1.224,10.499,0.253,11.74c1.732,1.458,9.334,0.236,11.73,0.055
		c0.496-3.813,0.485-8.553,0.002-12.426c-3.872-0.52-8.047-0.11-11.985-0.11"/>
	<path fill="#DC318B" d="M18.441,6.353c-0.087,2.061-1.624,10.111-0.241,11.378c1.618,1.489,9.027,0.646,11.355,0.583
		c0.634-3.669,0.832-8.263,0.52-12.032c-3.729-0.677-7.79-0.469-11.599-0.646"/>
	<path fill="#53559C" d="M33.54,13.306c1.843,0,9.078,1.145,10.151-0.238c1.258-1.62,0.205-8.729,0.048-10.973
		c-3.298-0.46-7.394-0.456-10.742,0c-0.45,3.623-0.098,7.532-0.098,11.21"/>
	<path fill="#3750A0" d="M57.285,6.191c-1.841,0-9.076-1.145-10.149,0.237c-1.26,1.623-0.205,8.727-0.05,10.973
		c3.298,0.459,7.397,0.454,10.745,0.001c0.448-3.625,0.094-7.529,0.094-11.212"/>
	<path fill="#0C91C5" d="M60.269,1.268c0,2.307-1.329,11.374,0.272,12.719c1.881,1.573,10.107,0.25,12.708,0.056
		c0.533-4.128,0.528-9.267,0.001-13.458c-4.196-0.562-8.721-0.119-12.981-0.119"/>
	<path fill="#E22C4A" d="M3.787,19.84c0,2.001-1.148,9.851,0.238,11.013c1.629,1.369,8.755,0.223,11.003,0.051
		c0.464-3.574,0.457-8.022,0-11.651C11.394,18.768,7.48,19.15,3.787,19.15"/>
	<path fill="#9356A3" d="M27.678,22.313c-1.761,0-8.668-1.09-9.69,0.227c-1.203,1.55-0.192,8.33-0.043,10.473
		c3.147,0.438,7.06,0.436,10.25,0c0.43-3.458,0.091-7.183,0.091-10.701"/>
	<path fill="#4FBFA2" d="M45.03,19.86c0,1.918-1.104,9.446,0.227,10.557c1.56,1.311,8.394,0.215,10.551,0.052
		c0.443-3.431,0.439-7.693,0.002-11.175c-3.485-0.466-7.24-0.099-10.782-0.099"/>
	<path fill="#89C443" d="M59.221,17.809c0,1.92-1.103,9.446,0.228,10.56c1.559,1.311,8.391,0.213,10.551,0.051
		c0.443-3.43,0.437-7.693,0-11.176c-3.482-0.464-7.24-0.098-10.779-0.098"/>
	<path fill="#8851A1" d="M15.408,44.261c0-1.923,1.102-9.448-0.229-10.565C13.62,32.387,6.786,33.483,4.63,33.65
		c-0.444,3.425-0.439,7.69,0,11.176c3.479,0.463,7.238,0.099,10.778,0.099"/>
	<path fill="#3D53A2" d="M18.163,35.858c0,1.919-1.1,9.447,0.229,10.562c1.557,1.311,8.394,0.214,10.545,0.049
		c0.447-3.425,0.44-7.691,0.004-11.173c-3.486-0.464-7.24-0.099-10.778-0.099"/>
	<path fill="#3A8B6E" d="M42.831,35.767c-1.841-0.097-9.011-1.613-10.152-0.285c-1.334,1.556-0.616,8.707-0.566,10.958
		c3.27,0.63,7.366,0.834,10.728,0.551c0.622-3.595,0.452-7.514,0.629-11.191"/>
	<path fill="#6FBE46" d="M56.88,45.403c0.086-1.757,1.437-8.612,0.27-9.701c-1.373-1.278-7.694-0.603-9.678-0.561
		c-0.562,3.122-0.75,7.038-0.51,10.259c3.178,0.597,6.643,0.441,9.891,0.615"/>
	<path fill="#EDE811" d="M71.819,42.259c0-1.918,1.101-9.443-0.228-10.561c-1.562-1.309-8.393-0.21-10.551-0.044
		c-0.441,3.427-0.439,7.689,0,11.167c3.481,0.468,7.239,0.104,10.779,0.104"/>
</g>
</svg>
