<?xml version="1.0" encoding="utf-8"?>
<!-- Generator: Adobe Illustrator 15.1.0, SVG Export Plug-In . SVG Version: 6.00 Build 0)  -->
<!DOCTYPE svg PUBLIC "-//W3C//DTD SVG 1.1//EN" "http://www.w3.org/Graphics/SVG/1.1/DTD/svg11.dtd">
<svg version="1.1" id="Layer_1" xmlns="http://www.w3.org/2000/svg" xmlns:xlink="http://www.w3.org/1999/xlink" x="0px" y="0px"
	 width="25px" height="12px" viewBox="0 0 25 12" enable-background="new 0 0 25 12" xml:space="preserve">
<g>
	<path fill="#FFFFFF" d="M16.566,5.527c-0.584,0.099-1.43-0.003-1.878-0.19c0.933-0.077,1.562-0.5,1.805-1.075
		c-0.336,0.207-1.378,0.431-1.952,0.217c-0.028-0.135-0.059-0.264-0.093-0.38c-0.437-1.611-1.937-2.91-3.51-2.752
		c0.126-0.052,0.255-0.099,0.385-0.143c0.172-0.062,1.188-0.229,1.028-0.587c-0.137-0.316-1.377,0.237-1.61,0.311
		c0.309-0.115,0.818-0.315,0.874-0.67c-0.474,0.064-0.938,0.289-1.294,0.614c0.128-0.139,0.227-0.31,0.247-0.492
		C9.309,1.186,8.572,2.81,7.976,4.386C7.509,3.932,7.093,3.574,6.721,3.375C5.679,2.816,4.43,2.232,2.473,1.504
		C2.411,2.152,2.791,3.016,3.888,3.589C3.65,3.556,3.217,3.628,2.869,3.71c0.142,0.744,0.604,1.356,1.855,1.651
		C4.152,5.4,3.856,5.532,3.588,5.812c0.261,0.517,0.896,1.125,2.04,1C4.356,7.36,5.109,8.375,6.144,8.225
		C4.38,10.05,1.599,9.915,0,8.389c4.172,5.691,13.239,3.365,14.59-2.116C15.602,6.282,16.196,5.923,16.566,5.527z"/>
	<path fill="#FFFFFF" d="M20.854,11.742v-5.71h-1.215V4.023h1.203c0,0,0-0.643,0-1.822c0-1.18,0.829-1.869,2.289-1.869
		s1.846,0,1.846,0l-0.003,1.938c0,0-0.943,0-1.294,0s-0.502,0.327-0.502,0.502c0,0.175,0,1.285,0,1.285H25l-0.211,1.974h-1.553
		l-0.018,5.71H20.854z"/>
</g>
</svg>
