<?xml version="1.0" encoding="utf-8"?>
<!-- Generator: Adobe Illustrator 15.1.0, SVG Export Plug-In . SVG Version: 6.00 Build 0)  -->
<!DOCTYPE svg PUBLIC "-//W3C//DTD SVG 1.1//EN" "http://www.w3.org/Graphics/SVG/1.1/DTD/svg11.dtd">
<svg version="1.1" id="Layer_1" xmlns="http://www.w3.org/2000/svg" xmlns:xlink="http://www.w3.org/1999/xlink" x="0px" y="0px"
	 width="13px" height="11px" viewBox="0 0 13 11" enable-background="new 0 0 13 11" xml:space="preserve">
<g>
	<g>
		<path fill="#ffffff" d="M6.5,10.106c-0.046,0-0.092-0.014-0.131-0.044C6.172,9.924,5.984,9.786,5.802,9.656
			C3.303,7.86,2.049,6.959,1.426,5.132C1.063,3.982,1.191,2.906,1.785,2.096C2.336,1.344,3.231,0.894,4.18,0.894
			c0.962,0,1.804,0.47,2.319,1.276c0.516-0.807,1.354-1.276,2.318-1.276c0.949,0,1.843,0.451,2.395,1.202
			c0.594,0.811,0.721,1.887,0.36,3.031c-0.623,1.83-1.876,2.732-4.375,4.527c-0.182,0.131-0.371,0.269-0.568,0.408
			C6.592,10.093,6.545,10.106,6.5,10.106z"/>
		<path fill="#ffffff" d="M8.818,1.118c1.646,0,3.31,1.511,2.541,3.942C10.718,6.945,9.414,7.78,6.5,9.881
			C3.586,7.78,2.281,6.945,1.64,5.061C0.872,2.629,2.533,1.118,4.18,1.118c0.92,0,1.836,0.472,2.32,1.519
			C6.983,1.59,7.898,1.118,8.818,1.118 M8.818,0.67c-0.932,0-1.756,0.406-2.318,1.114C5.938,1.076,5.112,0.67,4.18,0.67
			c-1.02,0-1.981,0.483-2.575,1.293C0.967,2.833,0.829,3.98,1.212,5.195c0,0.004,0.001,0.007,0.002,0.01
			C1.86,7.1,3.134,8.016,5.671,9.838c0.182,0.131,0.37,0.267,0.567,0.408c0.078,0.056,0.17,0.084,0.262,0.084
			s0.185-0.028,0.261-0.086c0.197-0.141,0.386-0.277,0.568-0.408c2.537-1.823,3.811-2.739,4.455-4.632
			c0.001-0.002,0.002-0.006,0.004-0.01c0.383-1.215,0.243-2.361-0.393-3.231C10.8,1.154,9.839,0.67,8.818,0.67L8.818,0.67z"/>
	</g>
</g>
</svg>
