<?xml version="1.0" encoding="utf-8"?>
<!-- Generator: Adobe Illustrator 15.1.0, SVG Export Plug-In . SVG Version: 6.00 Build 0)  -->
<!DOCTYPE svg PUBLIC "-//W3C//DTD SVG 1.1//EN" "http://www.w3.org/Graphics/SVG/1.1/DTD/svg11.dtd">
<svg version="1.1" id="Layer_1" xmlns="http://www.w3.org/2000/svg" xmlns:xlink="http://www.w3.org/1999/xlink" x="0px" y="0px"
	 width="21px" height="21px" viewBox="0 0 21 21" enable-background="new 0 0 21 21" xml:space="preserve">
<g>
	<g>
		<path fill="#303030" d="M14.608,4.903H1.461c-0.807,0-1.46,0.654-1.461,1.461v13.148c0,0.807,0.654,1.461,1.461,1.461h13.147
			c0.808,0,1.461-0.654,1.461-1.461V6.364C16.069,5.558,15.415,4.903,14.608,4.903z M2.191,19.513c-0.404,0-0.73-0.327-0.73-0.73
			c0-0.402,0.327-0.73,0.73-0.73s0.731,0.327,0.731,0.73C2.922,19.187,2.596,19.513,2.191,19.513z M2.191,16.591
			c-0.404,0-0.73-0.327-0.73-0.731c0-0.403,0.327-0.73,0.73-0.73s0.731,0.327,0.731,0.73C2.922,16.264,2.596,16.591,2.191,16.591z
			 M2.191,13.669c-0.404,0-0.73-0.327-0.73-0.731c0-0.402,0.327-0.73,0.73-0.73s0.731,0.327,0.731,0.73S2.596,13.669,2.191,13.669z
			 M2.191,10.748c-0.404,0-0.73-0.327-0.73-0.731c0-0.403,0.327-0.73,0.73-0.73s0.731,0.327,0.731,0.73
			C2.922,10.421,2.596,10.748,2.191,10.748z M2.191,7.825c-0.404,0-0.73-0.327-0.73-0.731c0-0.402,0.327-0.729,0.73-0.729
			s0.731,0.327,0.731,0.729C2.922,7.498,2.596,7.825,2.191,7.825z M11.688,19.513H4.383v-5.844h7.305V19.513z M11.688,12.208H4.383
			V6.364h7.305V12.208z M13.877,19.513c-0.403,0-0.729-0.327-0.729-0.73c0-0.402,0.325-0.73,0.729-0.73
			c0.405,0,0.731,0.327,0.731,0.73C14.608,19.187,14.281,19.513,13.877,19.513z M13.877,16.591c-0.403,0-0.729-0.327-0.729-0.731
			c0-0.403,0.325-0.73,0.729-0.73c0.405,0,0.731,0.327,0.731,0.73C14.608,16.264,14.281,16.591,13.877,16.591z M13.877,13.669
			c-0.403,0-0.729-0.327-0.729-0.731c0-0.402,0.325-0.73,0.729-0.73c0.405,0,0.731,0.327,0.731,0.73S14.281,13.669,13.877,13.669z
			 M13.877,10.748c-0.403,0-0.729-0.327-0.729-0.731c0-0.403,0.325-0.73,0.729-0.73c0.405,0,0.731,0.327,0.731,0.73
			C14.608,10.421,14.281,10.748,13.877,10.748z M13.877,7.825c-0.403,0-0.729-0.327-0.729-0.731c0-0.402,0.325-0.729,0.729-0.729
			c0.405,0,0.731,0.327,0.731,0.729C14.608,7.498,14.281,7.825,13.877,7.825z"/>
	</g>
	<g>
		<g>
			<path fill="#303030" d="M15.789,2.144h1.813V0.136h1.476v2.008h1.812V3.5h-1.812v2.008h-1.476V3.5h-1.813V2.144z"/>
			<path fill="#303030" d="M19.078,5.617h-1.476c-0.061,0-0.109-0.049-0.109-0.109V3.609h-1.704c-0.06,0-0.109-0.049-0.109-0.109
				V2.144c0-0.061,0.05-0.109,0.109-0.109h1.704V0.136c0-0.061,0.049-0.109,0.109-0.109h1.476c0.061,0,0.109,0.049,0.109,0.109
				v1.898h1.703C20.951,2.034,21,2.083,21,2.144V3.5c0,0.061-0.049,0.109-0.109,0.109h-1.703v1.898
				C19.188,5.568,19.139,5.617,19.078,5.617z M17.712,5.398h1.257V3.5c0-0.061,0.049-0.109,0.109-0.109h1.703V2.253h-1.703
				c-0.061,0-0.109-0.049-0.109-0.109V0.245h-1.257v1.898c0,0.061-0.05,0.109-0.109,0.109h-1.704v1.138h1.704
				c0.06,0,0.109,0.049,0.109,0.109V5.398z"/>
		</g>
	</g>
</g>
</svg>
