<?xml version="1.0" encoding="utf-8"?>
<!-- Generator: Adobe Illustrator 15.1.0, SVG Export Plug-In . SVG Version: 6.00 Build 0)  -->
<!DOCTYPE svg PUBLIC "-//W3C//DTD SVG 1.1//EN" "http://www.w3.org/Graphics/SVG/1.1/DTD/svg11.dtd">
<svg version="1.1" id="Layer_1" xmlns="http://www.w3.org/2000/svg" xmlns:xlink="http://www.w3.org/1999/xlink" x="0px" y="0px"
	 width="24px" height="20px" viewBox="0 0 24 20" enable-background="new 0 0 24 20" xml:space="preserve">
<path fill="#FFFFFF" d="M24,10.048c0-0.517-0.18-0.987-0.469-1.369c-0.109-0.276-0.272-0.536-0.496-0.76l-7.116-7.117
	c-0.87-0.869-2.278-0.869-3.147,0c-0.87,0.87-0.87,2.279,0,3.148l3.822,3.823H2.273C1.018,7.774,0,8.792,0,10.048
	c0,1.257,1.018,2.274,2.273,2.274h14.223l-3.727,3.727c-0.868,0.869-0.868,2.279,0,3.148c0.871,0.869,2.278,0.869,3.148,0
	l7.116-7.117c0.153-0.153,0.271-0.329,0.37-0.512C23.771,11.166,24,10.635,24,10.048z"/>
</svg>
