<?xml version="1.0" encoding="utf-8"?>
<!-- Generator: Adobe Illustrator 16.0.3, SVG Export Plug-In . SVG Version: 6.00 Build 0)  -->
<!DOCTYPE svg PUBLIC "-//W3C//DTD SVG 1.1//EN" "http://www.w3.org/Graphics/SVG/1.1/DTD/svg11.dtd">
<svg version="1.1" id="Layer_1" xmlns="http://www.w3.org/2000/svg" xmlns:xlink="http://www.w3.org/1999/xlink" x="0px" y="0px"
	 width="32px" height="32px" viewBox="0 0 32 32" enable-background="new 0 0 32 32" xml:space="preserve">
<path fill="#666766" d="M16.06,0.999c-0.646,0-1.234,0.225-1.71,0.587c-0.347,0.136-0.67,0.34-0.951,0.619l-8.896,8.896
	c-1.085,1.088-1.085,2.849,0,3.936c1.087,1.086,2.85,1.086,3.938,0l4.776-4.779V28.16c0,1.57,1.274,2.838,2.842,2.838
	c1.57,0,2.842-1.275,2.842-2.838V10.379l4.66,4.658c1.086,1.085,2.85,1.085,3.936,0c1.086-1.088,1.086-2.848,0-3.935l-8.893-8.898
	c-0.192-0.191-0.412-0.339-0.64-0.462C17.458,1.285,16.794,0.999,16.06,0.999z"/>
</svg>
