<?xml version="1.0" encoding="utf-8"?>
<!-- Generator: Adobe Illustrator 15.1.0, SVG Export Plug-In . SVG Version: 6.00 Build 0)  -->
<!DOCTYPE svg PUBLIC "-//W3C//DTD SVG 1.1//EN" "http://www.w3.org/Graphics/SVG/1.1/DTD/svg11.dtd">
<svg version="1.1" id="Layer_1" xmlns="http://www.w3.org/2000/svg" xmlns:xlink="http://www.w3.org/1999/xlink" x="0px" y="0px"
	 width="24px" height="20px" viewBox="0 0 24 20" enable-background="new 0 0 24 20" xml:space="preserve">
<path fill="#FFFFFF" d="M0,9.952c0,0.517,0.179,0.987,0.469,1.368c0.109,0.277,0.272,0.537,0.496,0.761l7.116,7.117
	c0.87,0.868,2.279,0.868,3.148,0c0.869-0.869,0.869-2.279,0-3.148l-3.823-3.821h14.32c1.256,0,2.271-1.02,2.271-2.274
	c0-1.256-1.02-2.274-2.271-2.274H7.504l3.726-3.727c0.868-0.869,0.868-2.279,0-3.148c-0.87-0.869-2.278-0.869-3.148,0L0.965,7.92
	c-0.154,0.153-0.271,0.329-0.37,0.511C0.229,8.834,0,9.365,0,9.952z"/>
</svg>
