<?xml version="1.0" encoding="utf-8"?>
<!-- Generator: Adobe Illustrator 16.0.3, SVG Export Plug-In . SVG Version: 6.00 Build 0)  -->
<!DOCTYPE svg PUBLIC "-//W3C//DTD SVG 1.1//EN" "http://www.w3.org/Graphics/SVG/1.1/DTD/svg11.dtd">
<svg version="1.1" id="Layer_1" xmlns="http://www.w3.org/2000/svg" xmlns:xlink="http://www.w3.org/1999/xlink" x="0px" y="0px"
	 width="32px" height="32px" viewBox="0 0 32 32" enable-background="new 0 0 32 32" xml:space="preserve">
<path fill="#666766" d="M31,16.062c0-0.646-0.225-1.234-0.587-1.71c-0.136-0.347-0.34-0.671-0.619-0.951l-8.896-8.897
	c-1.088-1.085-2.849-1.085-3.936,0c-1.086,1.087-1.086,2.85,0,3.937l4.779,4.777H3.838C2.268,13.217,1,14.491,1,16.059
	c0,1.57,1.275,2.843,2.838,2.843h17.781l-4.658,4.659c-1.085,1.087-1.085,2.85,0,3.936c1.088,1.086,2.848,1.086,3.935,0l8.898-8.893
	c0.191-0.192,0.339-0.412,0.462-0.64C30.714,17.46,31,16.796,31,16.062z"/>
</svg>
