<?xml version="1.0" encoding="utf-8"?>
<!-- Generator: Adobe Illustrator 16.0.3, SVG Export Plug-In . SVG Version: 6.00 Build 0)  -->
<!DOCTYPE svg PUBLIC "-//W3C//DTD SVG 1.1//EN" "http://www.w3.org/Graphics/SVG/1.1/DTD/svg11.dtd">
<svg version="1.1" id="Layer_1" xmlns="http://www.w3.org/2000/svg" xmlns:xlink="http://www.w3.org/1999/xlink" x="0px" y="0px"
	 width="32px" height="32px" viewBox="0 0 32 32" enable-background="new 0 0 32 32" xml:space="preserve">
<path fill="#666766" d="M15.938,30.998c0.646,0,1.234-0.226,1.71-0.588c0.347-0.136,0.67-0.34,0.951-0.619l8.896-8.896
	c1.085-1.088,1.085-2.849,0-3.937c-1.087-1.085-2.85-1.085-3.938,0l-4.776,4.779V3.836c0-1.57-1.274-2.838-2.842-2.838
	c-1.57,0-2.842,1.275-2.842,2.838v17.781l-4.66-4.658c-1.086-1.085-2.85-1.085-3.936,0c-1.086,1.088-1.086,2.848,0,3.935
	l8.893,8.897c0.192,0.191,0.412,0.34,0.64,0.463C14.54,30.711,15.204,30.998,15.938,30.998z"/>
</svg>
