<?xml version="1.0" encoding="utf-8"?>
<!-- Generator: Adobe Illustrator 16.0.3, SVG Export Plug-In . SVG Version: 6.00 Build 0)  -->
<!DOCTYPE svg PUBLIC "-//W3C//DTD SVG 1.1//EN" "http://www.w3.org/Graphics/SVG/1.1/DTD/svg11.dtd">
<svg version="1.1" id="Layer_1" xmlns="http://www.w3.org/2000/svg" xmlns:xlink="http://www.w3.org/1999/xlink" x="0px" y="0px"
	 width="32px" height="32px" viewBox="0 0 32 32" enable-background="new 0 0 32 32" xml:space="preserve">
<path fill="#666666" d="M16,30.26L16,30.26C8.18,30.258,1.917,27.32,1.652,27.197C1.255,27.006,1,26.604,1,26.162
	c0-3.021,4.045-5.434,10.396-6.271v-1.254c-2.102-1.746-3.338-4.535-3.338-7.584c0-5.135,3.562-9.312,7.94-9.312
	s7.94,4.177,7.94,9.312c0,3.052-1.237,5.838-3.338,7.584v1.254C26.955,20.727,31,23.141,31,26.162c0,0.439-0.253,0.844-0.652,1.033
	C30.084,27.32,23.82,30.26,16,30.26z"/>
</svg>
