<?xml version="1.0" encoding="utf-8"?>
<!-- Generator: Adobe Illustrator 15.1.0, SVG Export Plug-In . SVG Version: 6.00 Build 0)  -->
<!DOCTYPE svg PUBLIC "-//W3C//DTD SVG 1.1//EN" "http://www.w3.org/Graphics/SVG/1.1/DTD/svg11.dtd">
<svg version="1.1" id="Layer_1" xmlns="http://www.w3.org/2000/svg" xmlns:xlink="http://www.w3.org/1999/xlink" x="0px" y="0px"
	 width="50px" height="50px" viewBox="0 0 50 50" enable-background="new 0 0 50 50" xml:space="preserve">
<rect fill="#E2E2E2" width="50" height="50"/>
<g>
	<path fill="#ABABAB" d="M8.964,44.98V19.399c0,0-0.086-14.419,16.115-14.419c15.737,0,16.288,12.868,16.288,14.574
		s0,25.426,0,25.426H8.964z"/>
</g>
<g>
	<g>
		<circle fill="#E2E2E2" cx="17.319" cy="21.208" r="1.185"/>
		<path fill="#E2E2E2" d="M17.319,23.208c-1.103,0-2-0.897-2-2c0-1.103,0.897-2,2-2c1.103,0,2,0.897,2,2
			C19.319,22.311,18.421,23.208,17.319,23.208z M17.319,20.838c-0.204,0-0.37,0.167-0.37,0.37c0,0.408,0.74,0.408,0.74,0
			C17.688,21.004,17.523,20.838,17.319,20.838z"/>
	</g>
	<g>
		<circle fill="#E2E2E2" cx="33.019" cy="21.208" r="1.185"/>
		<path fill="#E2E2E2" d="M33.019,23.208c-1.104,0-2-0.897-2-2c0-1.103,0.896-2,2-2s2,0.897,2,2
			C35.019,22.311,34.122,23.208,33.019,23.208z M33.019,20.838c-0.204,0-0.369,0.167-0.369,0.37c0,0.408,0.738,0.408,0.738,0
			C33.388,21.004,33.223,20.838,33.019,20.838z"/>
	</g>
</g>
<g>
	<rect x="21.797" y="38.522" fill="#E2E2E2" stroke="#E2E2E2" width="6.718" height="0.588"/>
	<rect x="21.297" y="38.022" fill="#E2E2E2" stroke="#E2E2E2" width="7.718" height="1.588"/>
</g>
</svg>
