<?xml version="1.0" encoding="utf-8"?>
<!-- Generator: Adobe Illustrator 16.0.1, SVG Export Plug-In . SVG Version: 6.00 Build 0)  -->
<!DOCTYPE svg PUBLIC "-//W3C//DTD SVG 1.1//EN" "http://www.w3.org/Graphics/SVG/1.1/DTD/svg11.dtd">
<svg version="1.1" id="Layer_1" xmlns="http://www.w3.org/2000/svg" xmlns:xlink="http://www.w3.org/1999/xlink" x="0px" y="0px"
	 width="138px" height="138px" viewBox="0 0 138 138" enable-background="new 0 0 138 138" xml:space="preserve">
<g>
	<rect fill="#E2E2E2" width="138" height="138"/>
	<g>
		<g>
			<circle fill="#E2E2E2" cx="47.8" cy="58.534" r="3.271"/>
			<path fill="#E2E2E2" d="M47.8,64.054c-3.044,0-5.521-2.475-5.521-5.52s2.477-5.52,5.521-5.52c3.044,0,5.52,2.476,5.52,5.521
				S50.842,64.054,47.8,64.054z M47.8,57.513c-0.562,0-1.021,0.461-1.021,1.021c0,1.127,2.042,1.127,2.042,0
				C48.819,57.971,48.364,57.513,47.8,57.513z"/>
		</g>
		<g>
			<circle fill="#E2E2E2" cx="91.134" cy="58.534" r="3.271"/>
			<path fill="#E2E2E2" d="M91.134,64.054c-3.046,0-5.521-2.475-5.521-5.52s2.475-5.521,5.521-5.521c3.05,0,5.521,2.476,5.521,5.521
				S94.177,64.054,91.134,64.054z M91.134,57.513c-0.565,0-1.019,0.461-1.019,1.021c0,1.127,2.037,1.127,2.037,0
				C92.152,57.971,91.693,57.513,91.134,57.513z"/>
		</g>
	</g>
	<g>
		<rect x="60.159" y="106.318" fill="#E2E2E2" stroke="#E2E2E2" stroke-width="2.76" width="18.544" height="1.623"/>
		<rect x="58.779" y="104.939" fill="#E2E2E2" stroke="#E2E2E2" stroke-width="2.76" width="21.304" height="4.383"/>
	</g>
	<g>
		<ellipse fill="#ABABAB" cx="69" cy="49.268" rx="27.104" ry="32.567"/>
		<path fill="#ABABAB" d="M13.742,109.531c0-11.95,24.74-21.643,55.258-21.643c30.518,0,55.26,9.691,55.26,21.643
			c0,0-24.742,11.77-55.26,11.77C38.482,121.298,13.742,109.531,13.742,109.531z"/>
		<rect x="55.211" y="70.954" fill="#ABABAB" width="27.578" height="21.769"/>
	</g>
</g>
</svg>
