<?xml version="1.0" encoding="utf-8"?>
<!-- Generator: Adobe Illustrator 16.0.3, SVG Export Plug-In . SVG Version: 6.00 Build 0)  -->
<!DOCTYPE svg PUBLIC "-//W3C//DTD SVG 1.1//EN" "http://www.w3.org/Graphics/SVG/1.1/DTD/svg11.dtd">
<svg version="1.1" id="Layer_1" xmlns="http://www.w3.org/2000/svg" xmlns:xlink="http://www.w3.org/1999/xlink" x="0px" y="0px"
	 width="32px" height="32px" viewBox="0 0 32 32" enable-background="new 0 0 32 32" xml:space="preserve">
<path fill="#666666" d="M10.888,31c-0.101,0-0.196-0.036-0.269-0.109L6.05,26.318c-0.07-0.067-0.111-0.164-0.109-0.264
	c0-0.103,0.039-0.197,0.112-0.269l9.833-9.698L6.131,6.334c-0.071-0.07-0.11-0.166-0.11-0.267c0-0.102,0.042-0.198,0.114-0.27
	l4.832-4.692C11.06,1.019,11.16,1,11.229,1c0.059,0,0.17,0.015,0.268,0.111l14.454,14.446c0.068,0.071,0.107,0.164,0.107,0.266
	c0,0.1-0.039,0.195-0.107,0.265l-14.8,14.805C11.083,30.961,10.985,31,10.888,31z"/>
</svg>
