<?xml version="1.0" encoding="utf-8"?>
<!-- Generator: Adobe Illustrator 16.0.1, SVG Export Plug-In . SVG Version: 6.00 Build 0)  -->
<!DOCTYPE svg PUBLIC "-//W3C//DTD SVG 1.1//EN" "http://www.w3.org/Graphics/SVG/1.1/DTD/svg11.dtd">
<svg version="1.1" id="Layer_1" xmlns="http://www.w3.org/2000/svg" xmlns:xlink="http://www.w3.org/1999/xlink" x="0px" y="0px"
	 width="14px" height="20px" viewBox="0 0 14 20" enable-background="new 0 0 14 20" xml:space="preserve">
<path fill="#BBBBBA" d="M3.642,19.85c-0.066,0-0.129-0.024-0.176-0.072l-3-3.002c-0.046-0.045-0.073-0.109-0.072-0.175
	c0-0.066,0.026-0.129,0.074-0.175l6.457-6.368L0.519,3.653C0.472,3.607,0.447,3.544,0.447,3.478c0-0.067,0.027-0.13,0.075-0.177
	L3.695,0.22c0.06-0.058,0.126-0.07,0.172-0.07c0.039,0,0.112,0.01,0.176,0.073l9.491,9.486c0.046,0.047,0.072,0.108,0.072,0.175
	c0,0.065-0.026,0.128-0.072,0.174l-9.718,9.721C3.771,19.824,3.707,19.85,3.642,19.85z"/>
</svg>
