<?xml version="1.0" encoding="utf-8"?>
<!-- Generator: Adobe Illustrator 15.1.0, SVG Export Plug-In . SVG Version: 6.00 Build 0)  -->
<!DOCTYPE svg PUBLIC "-//W3C//DTD SVG 1.1//EN" "http://www.w3.org/Graphics/SVG/1.1/DTD/svg11.dtd">
<svg version="1.1" id="Layer_1" xmlns="http://www.w3.org/2000/svg" xmlns:xlink="http://www.w3.org/1999/xlink" x="0px" y="0px"
	 width="14px" height="15px" viewBox="0 0 14 15" enable-background="new 0 0 14 15" xml:space="preserve">
<path fill="#666666" d="M0.05,7.5c0-3.838,3.111-6.95,6.95-6.95c3.838,0,6.95,3.111,6.95,6.95c0,3.838-3.112,6.95-6.95,6.95
	C3.162,14.45,0.05,11.338,0.05,7.5z M10.328,9.72c0.267-0.4,0.159-0.938-0.24-1.204l-2.219-1.48V3.156
	c0-0.48-0.39-0.869-0.869-0.869c-0.48,0-0.869,0.389-0.869,0.869V7.5c0,0.291,0.146,0.562,0.387,0.724L9.124,9.96
	c0.148,0.1,0.315,0.146,0.481,0.146C9.886,10.106,10.161,9.971,10.328,9.72z"/>
</svg>
