<?xml version="1.0" encoding="utf-8"?>
<!-- Generator: Adobe Illustrator 15.1.0, SVG Export Plug-In . SVG Version: 6.00 Build 0)  -->
<!DOCTYPE svg PUBLIC "-//W3C//DTD SVG 1.1//EN" "http://www.w3.org/Graphics/SVG/1.1/DTD/svg11.dtd">
<svg version="1.1" id="Layer_1" xmlns="http://www.w3.org/2000/svg" xmlns:xlink="http://www.w3.org/1999/xlink" x="0px" y="0px"
	 width="100px" height="100px" viewBox="-43 -42.5 100 100" enable-background="new -43 -42.5 100 100" xml:space="preserve">
<path fill="#FFFFFF" d="M-42.5,7.499C-42.5-19.84-20.34-42,6.999-42C34.333-42,56.5-19.84,56.5,7.499
	C56.5,34.833,34.333,57,6.999,57C-20.34,57-42.5,34.833-42.5,7.499z M30.702,23.309c1.899-2.853,1.134-6.685-1.711-8.576
	L13.188,4.191v-27.631c0-3.418-2.778-6.187-6.19-6.187c-3.418,0-6.19,2.768-6.19,6.187V7.499c0,2.073,1.037,4.006,2.758,5.154
	L22.127,25.02c1.057,0.709,2.246,1.043,3.429,1.043C27.552,26.062,29.514,25.096,30.702,23.309z"/>
</svg>
