<?xml version="1.0" encoding="utf-8"?>
<!-- Generator: Adobe Illustrator 15.1.0, SVG Export Plug-In . SVG Version: 6.00 Build 0)  -->
<!DOCTYPE svg PUBLIC "-//W3C//DTD SVG 1.1//EN" "http://www.w3.org/Graphics/SVG/1.1/DTD/svg11.dtd">
<svg version="1.1" id="Layer_1" xmlns="http://www.w3.org/2000/svg" xmlns:xlink="http://www.w3.org/1999/xlink" x="0px" y="0px"
	 width="9px" height="15px" viewBox="0 0 9 15" enable-background="new 0 0 9 15" xml:space="preserve">
<g>
	<path fill="#666766" d="M0,7.462c0,0.394,0.136,0.752,0.355,1.043c0.082,0.21,0.207,0.408,0.375,0.578l5.391,5.419
		c0.658,0.662,1.727,0.662,2.385,0c0.659-0.662,0.659-1.734,0-2.396L5.609,9.193l0,0L3.943,7.462l1.74-1.73l0,0l2.821-2.838
		c0.658-0.662,0.658-1.735,0-2.397c-0.659-0.661-1.726-0.661-2.385,0l-5.392,5.42c-0.117,0.117-0.205,0.25-0.279,0.39
		C0.173,6.61,0,7.015,0,7.462z"/>
</g>
</svg>
