<?xml version="1.0" encoding="utf-8"?>
<!-- Generator: Adobe Illustrator 16.0.3, SVG Export Plug-In . SVG Version: 6.00 Build 0)  -->
<!DOCTYPE svg PUBLIC "-//W3C//DTD SVG 1.1//EN" "http://www.w3.org/Graphics/SVG/1.1/DTD/svg11.dtd">
<svg version="1.1" id="Layer_1" xmlns="http://www.w3.org/2000/svg" xmlns:xlink="http://www.w3.org/1999/xlink" x="0px" y="0px"
	 width="32px" height="32px" viewBox="0 0 32 32" enable-background="new 0 0 32 32" xml:space="preserve">
<g>
	<g>
		<path fill="#666666" d="M14.669,31c-0.055,0-0.111-0.006-0.167-0.012C7.68,30.109,2.534,24.556,2.534,18.068
			c0-7.221,6.202-13.092,13.83-13.092c0.303,0,0.596,0.012,0.885,0.038V2.155c0-0.479,0.309-0.906,0.777-1.078
			c0.467-0.172,0.998-0.052,1.34,0.304l9.787,10.218c0.221,0.235,0.338,0.545,0.311,0.855c-0.018,0.318-0.184,0.61-0.439,0.81
			l-9.777,7.669c-0.371,0.282-0.873,0.347-1.297,0.154c-0.435-0.19-0.703-0.599-0.703-1.047v-4.729
			c-0.312-0.042-0.602-0.063-0.886-0.063c-3.961,0-7.185,3.052-7.185,6.81c0,3.22,2.415,6.014,5.736,6.663
			c0.646,0.122,1.069,0.705,0.955,1.327C15.769,30.6,15.254,31,14.669,31z"/>
	</g>
</g>
</svg>
