<?xml version="1.0" encoding="utf-8"?>
<!-- Generator: Adobe Illustrator 16.0.3, SVG Export Plug-In . SVG Version: 6.00 Build 0)  -->
<!DOCTYPE svg PUBLIC "-//W3C//DTD SVG 1.1//EN" "http://www.w3.org/Graphics/SVG/1.1/DTD/svg11.dtd">
<svg version="1.1" id="Layer_1" xmlns="http://www.w3.org/2000/svg" xmlns:xlink="http://www.w3.org/1999/xlink" x="0px" y="0px"
	 width="32px" height="32px" viewBox="0 0 32 32" enable-background="new 0 0 32 32" xml:space="preserve">
<g>
	<g>
		<g>
			<path fill="#676767" d="M16.066,16.105c-0.09,0-0.178-0.021-0.262-0.062L1.343,9.079C1.132,8.979,1,8.764,1,8.533V4.928
				C1,4.593,1.27,4.32,1.607,4.32h28.787C30.73,4.32,31,4.592,31,4.928v3.614c0,0.233-0.132,0.444-0.342,0.546l-14.324,6.956
				C16.25,16.084,16.158,16.105,16.066,16.105z"/>
		</g>
	</g>
	<g>
		<g>
			<path fill="#676767" d="M30.395,27.68H1.607C1.27,27.68,1,27.408,1,27.073v-14.47c0-0.209,0.107-0.401,0.285-0.514
				c0.176-0.109,0.398-0.124,0.586-0.033l14.207,6.85l14.049-6.827c0.189-0.09,0.413-0.079,0.588,0.032
				C30.893,12.223,31,12.418,31,12.627v14.445C31,27.407,30.73,27.68,30.395,27.68z"/>
		</g>
	</g>
</g>
</svg>
