<?xml version="1.0" encoding="utf-8"?>
<!-- Generator: Adobe Illustrator 16.0.1, SVG Export Plug-In . SVG Version: 6.00 Build 0)  -->
<!DOCTYPE svg PUBLIC "-//W3C//DTD SVG 1.1//EN" "http://www.w3.org/Graphics/SVG/1.1/DTD/svg11.dtd">
<svg version="1.1" id="Layer_1" xmlns="http://www.w3.org/2000/svg" xmlns:xlink="http://www.w3.org/1999/xlink" x="0px" y="0px"
	 width="13px" height="10px" viewBox="0 0 13 10" enable-background="new 0 0 13 10" xml:space="preserve">
<g>
	<g>
		<polygon fill="#888888" points="0.203,1.496 0.203,0.208 12.797,0.208 12.797,1.5 6.531,4.543 		"/>
		<path fill="#888888" d="M12.594,0.417v0.952L6.531,4.313l-6.125-2.95V0.417H12.594 M13,0H0v1.627l6.531,3.146L13,1.632V0L13,0z"/>
	</g>
	<g>
		<path fill="#888888" d="M0.203,9.792V3.795l6.245,3.01c0.027,0.014,0.058,0.02,0.087,0.02s0.06-0.006,0.087-0.02l6.175-2.999
			v5.986H0.203z"/>
		<path fill="#888888" d="M0.406,4.123l5.956,2.871c0.055,0.026,0.113,0.04,0.173,0.04s0.119-0.014,0.174-0.04l5.885-2.858v5.448
			H0.406V4.123 M0,3.467V10h13V3.477l-6.465,3.14L0,3.467L0,3.467z"/>
	</g>
</g>
</svg>
