<?xml version="1.0" encoding="utf-8"?>
<!-- Generator: Adobe Illustrator 16.0.3, SVG Export Plug-In . SVG Version: 6.00 Build 0)  -->
<!DOCTYPE svg PUBLIC "-//W3C//DTD SVG 1.1//EN" "http://www.w3.org/Graphics/SVG/1.1/DTD/svg11.dtd">
<svg version="1.1" id="Layer_1" xmlns="http://www.w3.org/2000/svg" xmlns:xlink="http://www.w3.org/1999/xlink" x="0px" y="0px"
	 width="32px" height="32px" viewBox="0 0 32 32" enable-background="new 0 0 32 32" xml:space="preserve">
<g>
	<path fill="#666766" d="M14.21,11.935l-0.695-2.064c-0.043-0.127-0.137-0.231-0.259-0.286c-0.124-0.055-0.263-0.057-0.386-0.004
		L1.294,14.485C1.116,14.561,1,14.735,1,14.929v2.143c0,0.194,0.116,0.368,0.294,0.443l11.576,4.903
		c0.06,0.025,0.124,0.039,0.188,0.039c0.067,0,0.135-0.015,0.198-0.043c0.123-0.054,0.216-0.158,0.259-0.285l0.695-2.063
		c0.082-0.241-0.039-0.504-0.274-0.601l-8.428-3.464l8.428-3.467C14.172,12.438,14.292,12.175,14.21,11.935z"/>
	<path fill="#666766" d="M30.706,14.485L19.13,9.58c-0.124-0.053-0.264-0.051-0.386,0.004c-0.123,0.055-0.217,0.159-0.26,0.286
		l-0.695,2.064c-0.081,0.241,0.039,0.503,0.273,0.6l8.428,3.467l-8.428,3.464c-0.234,0.097-0.354,0.359-0.273,0.601l0.695,2.063
		c0.043,0.127,0.137,0.231,0.26,0.285c0.062,0.028,0.13,0.043,0.197,0.043c0.064,0,0.128-0.014,0.188-0.039l11.576-4.903
		C30.884,17.44,31,17.267,31,17.072v-2.143C31,14.735,30.884,14.561,30.706,14.485z"/>
</g>
</svg>
