<?xml version="1.0" encoding="utf-8"?>
<!-- Generator: Adobe Illustrator 15.1.0, SVG Export Plug-In . SVG Version: 6.00 Build 0)  -->
<!DOCTYPE svg PUBLIC "-//W3C//DTD SVG 1.1//EN" "http://www.w3.org/Graphics/SVG/1.1/DTD/svg11.dtd">
<svg version="1.1" id="Layer_1" xmlns="http://www.w3.org/2000/svg" xmlns:xlink="http://www.w3.org/1999/xlink" x="0px" y="0px"
	 width="10px" height="10px" viewBox="0 0 10 10" enable-background="new 0 0 10 10" xml:space="preserve">
<g>
	<path fill="#01549F" d="M10,9c0,0.553-0.447,1-1,1H1c-0.552,0-1-0.447-1-1V1c0-0.552,0.448-1,1-1h8c0.553,0,1,0.448,1,1V9z
		 M5.588,7.857L5.596,5.16h0.733L6.43,4.228H5.568c0,0,0-0.524,0-0.606c0-0.083,0.072-0.237,0.238-0.237s0.608,0,0.608,0
		l0.002-0.916c0,0-0.185,0-0.872,0c-0.688,0-1.08,0.325-1.08,0.882s0,0.86,0,0.86H3.896V5.16H4.47v2.697H5.588z"/>
</g>
</svg>
