<?xml version="1.0" encoding="utf-8"?>
<!-- Generator: Adobe Illustrator 15.1.0, SVG Export Plug-In . SVG Version: 6.00 Build 0)  -->
<!DOCTYPE svg PUBLIC "-//W3C//DTD SVG 1.1//EN" "http://www.w3.org/Graphics/SVG/1.1/DTD/svg11.dtd">
<svg version="1.1" id="Layer_1" xmlns="http://www.w3.org/2000/svg" xmlns:xlink="http://www.w3.org/1999/xlink" x="0px" y="0px"
	 width="17px" height="18px" viewBox="0 0 17 18" enable-background="new 0 0 17 18" xml:space="preserve">
<g>
	<g>
		<path d="M0.364,0.375C0.203,0.548,0.111,0.766,0.083,0.992C0.03,1.121,0,1.263,0,1.413v4.778c0,0.583,0.441,1.057,0.985,1.057
			c0.545,0,0.986-0.473,0.986-1.057V3.624L7.808,9.88c0.394,0.421,1.03,0.421,1.424,0c0.394-0.421,0.394-1.105,0-1.527L3.427,2.13
			H5.76c0.544,0,0.985-0.473,0.985-1.057S6.304,0.017,5.76,0.017H1.303c-0.097,0-0.188,0.02-0.276,0.047
			C0.786,0.077,0.549,0.178,0.364,0.375z"/>
		<path d="M16.665,0.391C16.504,0.218,16.3,0.12,16.09,0.089C15.969,0.032,15.837,0,15.696,0H11.24
			c-0.545,0-0.986,0.473-0.986,1.057s0.441,1.057,0.986,1.057h2.394L7.799,8.37c-0.394,0.422-0.394,1.105,0,1.527
			s1.03,0.422,1.424,0l5.806-6.223v2.501c0,0.583,0.441,1.057,0.985,1.057S16.999,6.758,17,6.174l-0.001-4.778
			C17,1.293,16.981,1.195,16.955,1.101C16.943,0.843,16.849,0.588,16.665,0.391z"/>
	</g>
	<g>
		<path d="M16.635,17.625c0.162-0.174,0.253-0.392,0.282-0.617c0.053-0.129,0.082-0.271,0.083-0.421V11.81
			c-0.001-0.584-0.442-1.058-0.986-1.058s-0.985,0.474-0.985,1.058v2.566L9.191,8.12c-0.393-0.421-1.03-0.421-1.424,0
			c-0.393,0.421-0.393,1.105,0,1.527l5.806,6.223H11.24c-0.545,0-0.986,0.473-0.986,1.057s0.441,1.057,0.986,1.057h4.457
			c0.096,0,0.188-0.02,0.275-0.047C16.214,17.923,16.451,17.822,16.635,17.625z"/>
		<path d="M0.334,17.608c0.162,0.174,0.365,0.272,0.576,0.303C1.03,17.968,1.163,18,1.303,18H5.76c0.544,0,0.985-0.474,0.985-1.057
			c0-0.584-0.441-1.057-0.985-1.057H3.365L9.201,9.63C9.594,9.208,9.594,8.525,9.2,8.104c-0.393-0.422-1.03-0.422-1.424,0
			l-5.805,6.224v-2.502c-0.001-0.583-0.441-1.057-0.986-1.057C0.441,10.769,0,11.242,0,11.825v4.778
			c0,0.104,0.019,0.201,0.044,0.296C0.056,17.157,0.15,17.412,0.334,17.608z"/>
	</g>
</g>
</svg>
