<?xml version="1.0" encoding="utf-8"?>
<!-- Generator: Adobe Illustrator 15.1.0, SVG Export Plug-In . SVG Version: 6.00 Build 0)  -->
<!DOCTYPE svg PUBLIC "-//W3C//DTD SVG 1.1//EN" "http://www.w3.org/Graphics/SVG/1.1/DTD/svg11.dtd">
<svg version="1.1" id="Layer_1" xmlns="http://www.w3.org/2000/svg" xmlns:xlink="http://www.w3.org/1999/xlink" x="0px" y="0px"
	 width="16px" height="17px" viewBox="0 0 16 17" enable-background="new 0 0 16 17" xml:space="preserve">
<path fill="#AEADAE" d="M14.503,8.003l-0.032-0.649c0.502-0.214,0.998-0.47,1.485-0.765c-0.039-0.306-0.138-0.6-0.21-0.899
	c-0.574-0.078-1.157-0.104-1.711-0.088c-0.073-0.204-0.183-0.394-0.271-0.59c-0.099-0.193-0.222-0.373-0.33-0.559
	c0.351-0.43,0.664-0.882,0.96-1.371c-0.177-0.253-0.402-0.465-0.604-0.696c-0.545,0.199-1.071,0.446-1.556,0.717
	c-0.161-0.145-0.344-0.264-0.515-0.397c-0.177-0.124-0.368-0.229-0.552-0.343c0.112-0.541,0.181-1.089,0.216-1.659
	c-0.273-0.142-0.573-0.227-0.86-0.337C10.133,0.795,9.781,1.26,9.48,1.726c-0.21-0.056-0.428-0.072-0.641-0.11
	C8.625,1.581,8.407,1.587,8.191,1.571C8.038,1.026,7.845,0.522,7.611,0C7.305,0.006,7,0.054,6.696,0.103
	c-0.15,0.55-0.245,1.129-0.294,1.686C6.188,1.835,5.986,1.912,5.783,1.988C5.576,2.055,5.383,2.155,5.188,2.249
	C4.801,1.842,4.387,1.472,3.941,1.127C3.673,1.28,3.421,1.457,3.179,1.646c0.126,0.557,0.31,1.11,0.525,1.629
	c-0.166,0.14-0.31,0.301-0.455,0.463C3.097,3.893,2.974,4.072,2.844,4.245C2.312,4.063,1.775,3.929,1.22,3.829
	C1.052,4.087,0.914,4.362,0.785,4.643c0.368,0.435,0.79,0.841,1.221,1.199C1.923,6.043,1.871,6.253,1.818,6.463
	c-0.062,0.208-0.09,0.423-0.122,0.638C1.142,7.189,0.597,7.319,0.064,7.49C0.043,7.796,0.034,8.103,0.059,8.41
	c0.537,0.213,1.077,0.379,1.637,0.495c0.032,0.214,0.06,0.43,0.122,0.637c0.053,0.211,0.105,0.422,0.188,0.622
	c-0.437,0.33-0.88,0.707-1.268,1.104c0.135,0.276,0.258,0.562,0.426,0.818c0.58-0.063,1.129-0.165,1.68-0.325
	c0.13,0.173,0.253,0.353,0.406,0.507c0.145,0.161,0.289,0.324,0.455,0.465c-0.234,0.495-0.45,1.031-0.611,1.563
	c0.247,0.185,0.488,0.376,0.756,0.528c0.483-0.324,0.925-0.671,1.338-1.066c0.195,0.093,0.388,0.194,0.595,0.26
	c0.203,0.076,0.406,0.153,0.619,0.199c0.023,0.547,0.083,1.124,0.188,1.67C6.895,15.93,7.198,15.995,7.505,16
	c0.275-0.52,0.505-1.021,0.687-1.564c0.216-0.016,0.434-0.011,0.648-0.045c0.213-0.038,0.431-0.054,0.641-0.11
	c0.273,0.475,0.588,0.94,0.941,1.393c0.29-0.101,0.584-0.2,0.865-0.324c0.004-0.589-0.033-1.152-0.119-1.706
	c0.184-0.114,0.375-0.219,0.552-0.344c0.171-0.132,0.354-0.251,0.515-0.396c0.465,0.292,0.959,0.557,1.481,0.794
	c0.209-0.226,0.424-0.446,0.614-0.688c-0.271-0.522-0.562-1.004-0.896-1.456c0.108-0.188,0.231-0.366,0.33-0.561
	c0.089-0.196,0.198-0.386,0.271-0.588c0.547,0.042,1.108,0.047,1.681,0.013c0.081-0.296,0.166-0.594,0.225-0.896
	c-0.481-0.338-0.972-0.627-1.47-0.87L14.503,8.003z M8.001,10.472c-1.366,0-2.472-1.106-2.472-2.471
	c0-1.365,1.106-2.472,2.472-2.472c1.364,0,2.472,1.106,2.472,2.472C10.473,9.365,9.365,10.472,8.001,10.472z"/>
</svg>
