<?xml version="1.0" encoding="utf-8"?>
<!-- Generator: Adobe Illustrator 15.1.0, SVG Export Plug-In . SVG Version: 6.00 Build 0)  -->
<!DOCTYPE svg PUBLIC "-//W3C//DTD SVG 1.1//EN" "http://www.w3.org/Graphics/SVG/1.1/DTD/svg11.dtd">
<svg version="1.1" id="Layer_1" xmlns="http://www.w3.org/2000/svg" xmlns:xlink="http://www.w3.org/1999/xlink" x="0px" y="0px"
	 width="24px" height="31px" viewBox="0 0 24 31" enable-background="new 0 0 24 31" xml:space="preserve">
<path fill="#EFEFEF" d="M22.202,14.367c-0.091-0.238-0.233-0.462-0.428-0.654l-6.118-6.119c-0.746-0.747-1.959-0.747-2.705,0
	c-0.748,0.749-0.748,1.959,0,2.707l3.286,3.288H5.779v-9.75c0-1.052-0.853-1.905-1.905-1.905c-1.052,0-1.905,0.853-1.905,1.905
	V27.16c0,1.053,0.853,1.906,1.905,1.906c1.052,0,1.905-0.854,1.905-1.906v-9.664h10.374l-3.204,3.205
	c-0.747,0.746-0.747,1.959,0,2.705c0.748,0.746,1.959,0.746,2.708,0l6.118-6.119c0.134-0.133,0.233-0.283,0.318-0.441
	c0.315-0.342,0.512-0.797,0.512-1.302C22.604,15.099,22.45,14.694,22.202,14.367z"/>
</svg>
