<?xml version="1.0" encoding="utf-8"?>
<!-- Generator: Adobe Illustrator 15.1.0, SVG Export Plug-In . SVG Version: 6.00 Build 0)  -->
<!DOCTYPE svg PUBLIC "-//W3C//DTD SVG 1.1//EN" "http://www.w3.org/Graphics/SVG/1.1/DTD/svg11.dtd">
<svg version="1.1" id="Layer_1" xmlns="http://www.w3.org/2000/svg" xmlns:xlink="http://www.w3.org/1999/xlink" x="0px" y="0px"
	 width="19px" height="15px" viewBox="0 0 19 15" enable-background="new 0 0 19 15" xml:space="preserve">
<path fill="#FFFFFF" d="M18.638,7.537c0-0.394-0.136-0.752-0.356-1.042c-0.083-0.21-0.207-0.409-0.378-0.579l-5.419-5.419
	c-0.662-0.662-1.736-0.662-2.397,0c-0.662,0.662-0.662,1.735,0,2.397l2.911,2.911H2.093c-0.956,0-1.73,0.776-1.73,1.732
	c0,0.957,0.774,1.731,1.73,1.731h10.831l-2.837,2.838c-0.661,0.661-0.661,1.735,0,2.397c0.662,0.661,1.735,0.661,2.397,0l5.419-5.42
	c0.118-0.117,0.207-0.25,0.282-0.389C18.464,8.388,18.638,7.984,18.638,7.537z"/>
</svg>
