<?xml version="1.0" encoding="utf-8"?>
<!-- Generator: Adobe Illustrator 15.1.0, SVG Export Plug-In . SVG Version: 6.00 Build 0)  -->
<!DOCTYPE svg PUBLIC "-//W3C//DTD SVG 1.1//EN" "http://www.w3.org/Graphics/SVG/1.1/DTD/svg11.dtd">
<svg version="1.1" id="Layer_1" xmlns="http://www.w3.org/2000/svg" xmlns:xlink="http://www.w3.org/1999/xlink" x="0px" y="0px"
	 width="24px" height="31px" viewBox="0 0 24 31" enable-background="new 0 0 24 31" xml:space="preserve">
<path fill="#EFEFEF" d="M16.867,14.725c-0.065-0.162-0.16-0.316-0.292-0.448l-4.187-4.184c-0.51-0.511-1.338-0.511-1.85,0
	c-0.512,0.511-0.511,1.339,0,1.851l2.249,2.248h-7.45V4.951c0-0.76-0.616-1.377-1.377-1.377c-0.76,0-1.377,0.617-1.377,1.377v21.098
	c0,0.762,0.617,1.377,1.377,1.377c0.761,0,1.377-0.615,1.377-1.377v-9.184h7.392l-2.19,2.191c-0.51,0.512-0.51,1.34,0,1.852
	c0.511,0.51,1.341,0.51,1.851,0l4.184-4.186c0.093-0.092,0.159-0.193,0.219-0.305c0.216-0.232,0.353-0.546,0.353-0.89
	C17.143,15.225,17.036,14.948,16.867,14.725z"/>
</svg>
