<?xml version="1.0" encoding="utf-8"?>
<!-- Generator: Adobe Illustrator 16.0.3, SVG Export Plug-In . SVG Version: 6.00 Build 0)  -->
<!DOCTYPE svg PUBLIC "-//W3C//DTD SVG 1.1//EN" "http://www.w3.org/Graphics/SVG/1.1/DTD/svg11.dtd">
<svg version="1.1" id="Layer_1" xmlns="http://www.w3.org/2000/svg" xmlns:xlink="http://www.w3.org/1999/xlink" x="0px" y="0px"
	 width="38.334px" height="32px" viewBox="0 0 38.334 32" enable-background="new 0 0 38.334 32" xml:space="preserve">
<g>
	<path fill="#666666" d="M12.313,6.581h4.234v18.811h-4.234v-7.982h-7.11v7.982H0.969V6.581h4.234v7.194h7.11V6.581z"/>
	<path fill="#666666" d="M37.364,15.973c0,1.627-0.254,3.049-0.76,4.26c-0.506,1.215-1.226,2.218-2.157,3.013
		c-0.933,0.8-2.067,1.396-3.406,1.793s-2.841,0.597-4.506,0.597c-0.76,0-1.646-0.031-2.659-0.093
		c-1.014-0.066-2.008-0.194-2.986-0.397V6.826c0.979-0.181,1.994-0.302,3.055-0.366c1.059-0.062,1.968-0.095,2.728-0.095
		c1.61,0,3.07,0.181,4.383,0.543c1.312,0.362,2.438,0.932,3.379,1.709c0.941,0.777,1.665,1.773,2.171,2.986
		C37.11,12.816,37.364,14.272,37.364,15.973z M25.124,21.941c0.198,0.022,0.431,0.036,0.693,0.045
		c0.261,0.009,0.574,0.013,0.935,0.013c2.118,0,3.688-0.534,4.709-1.604c1.022-1.064,1.535-2.54,1.535-4.423
		c0-1.972-0.488-3.465-1.467-4.477c-0.977-1.014-2.524-1.522-4.641-1.522c-0.289,0-0.588,0.007-0.896,0.016
		c-0.308,0.009-0.597,0.031-0.868,0.066V21.941z"/>
</g>
</svg>
