<?xml version="1.0" encoding="utf-8"?>
<!-- Generator: Adobe Illustrator 16.0.1, SVG Export Plug-In . SVG Version: 6.00 Build 0)  -->
<!DOCTYPE svg PUBLIC "-//W3C//DTD SVG 1.1//EN" "http://www.w3.org/Graphics/SVG/1.1/DTD/svg11.dtd">
<svg version="1.1" id="Layer_1" xmlns="http://www.w3.org/2000/svg" xmlns:xlink="http://www.w3.org/1999/xlink" x="0px" y="0px"
	 width="98px" height="77px" viewBox="0 0 98 77" enable-background="new 0 0 98 77" xml:space="preserve">
<g>
	<g>
		<g>
			<path fill="#676767" d="M49.22,38.843c-0.294,0-0.585-0.066-0.86-0.197L1.121,15.893C0.432,15.564,0,14.86,0,14.107V2.331
				c0-1.096,0.883-1.982,1.982-1.982h94.036C97.121,0.349,98,1.235,98,2.331v11.807c0,0.764-0.432,1.449-1.117,1.784L50.092,38.646
				C49.815,38.776,49.518,38.843,49.22,38.843z"/>
		</g>
	</g>
	<g>
		<g>
			<path fill="#676767" d="M96.018,76.651H1.982C0.883,76.651,0,75.765,0,74.669V27.404c0-0.678,0.35-1.311,0.931-1.676
				c0.577-0.362,1.304-0.406,1.915-0.108l46.407,22.373l45.894-22.299c0.618-0.294,1.349-0.257,1.922,0.108
				C97.649,26.16,98,26.801,98,27.482v47.187C98,75.765,97.121,76.651,96.018,76.651z"/>
		</g>
	</g>
</g>
</svg>
