<?xml version="1.0" encoding="utf-8"?>
<!-- Generator: Adobe Illustrator 16.0.1, SVG Export Plug-In . SVG Version: 6.00 Build 0)  -->
<!DOCTYPE svg PUBLIC "-//W3C//DTD SVG 1.1//EN" "http://www.w3.org/Graphics/SVG/1.1/DTD/svg11.dtd">
<svg version="1.1" id="Layer_1" xmlns="http://www.w3.org/2000/svg" xmlns:xlink="http://www.w3.org/1999/xlink" x="0px" y="0px"
	 width="25px" height="46px" viewBox="0 0 25 46" enable-background="new 0 0 25 46" xml:space="preserve">
<g>
	<path fill="#EFEFEF" d="M10.523,5.053h3.951c0.259,0,0.471-0.213,0.471-0.462c0-0.261-0.212-0.473-0.471-0.473h-3.951
		c-0.251,0-0.467,0.212-0.467,0.473C10.057,4.84,10.272,5.053,10.523,5.053z M12.498,39.683c-1.131,0-2.053,0.925-2.053,2.06
		c0,1.132,0.922,2.054,2.053,2.054c1.137,0,2.057-0.922,2.057-2.054C14.555,40.607,13.635,39.683,12.498,39.683z M2.417,37.92
		h20.167V8.096H2.417V37.92z M25,41.939c0,2.192-1.786,3.968-3.977,3.968H3.979C1.787,45.907,0,44.132,0,41.939V4.066
		c0-2.191,1.787-3.974,3.979-3.974h17.044c2.19,0,3.977,1.782,3.977,3.974V41.939z"/>
</g>
</svg>
