<?xml version="1.0" encoding="utf-8"?>
<!-- Generator: Adobe Illustrator 16.0.3, SVG Export Plug-In . SVG Version: 6.00 Build 0)  -->
<!DOCTYPE svg PUBLIC "-//W3C//DTD SVG 1.1//EN" "http://www.w3.org/Graphics/SVG/1.1/DTD/svg11.dtd">
<svg version="1.1" id="Layer_1" xmlns="http://www.w3.org/2000/svg" xmlns:xlink="http://www.w3.org/1999/xlink" x="0px" y="0px"
	 width="32px" height="32px" viewBox="0 0 32 32" enable-background="new 0 0 32 32" xml:space="preserve">
<g>
	<path fill="#666666" d="M14.706,4.248h2.587c0.169,0,0.309-0.139,0.309-0.302c0-0.171-0.14-0.31-0.309-0.31h-2.587
		c-0.165,0-0.308,0.139-0.308,0.31C14.398,4.109,14.541,4.248,14.706,4.248z M15.999,26.924c-0.74,0-1.346,0.605-1.346,1.35
		c0,0.74,0.604,1.347,1.346,1.347c0.745,0,1.347-0.604,1.347-1.347C17.346,27.529,16.743,26.924,15.999,26.924z M9.396,25.77h13.207
		V6.241H9.396V25.77z M24.186,28.4c0,1.435-1.17,2.6-2.604,2.6H10.42c-1.437,0-2.605-1.163-2.605-2.6V3.602
		C7.813,2.167,8.983,1,10.42,1h11.161c1.435,0,2.604,1.167,2.604,2.602V28.4L24.186,28.4z"/>
</g>
</svg>
