<?xml version="1.0" encoding="utf-8"?>
<!-- Generator: Adobe Illustrator 16.0.1, SVG Export Plug-In . SVG Version: 6.00 Build 0)  -->
<!DOCTYPE svg PUBLIC "-//W3C//DTD SVG 1.1//EN" "http://www.w3.org/Graphics/SVG/1.1/DTD/svg11.dtd">
<svg version="1.1" id="Layer_1" xmlns="http://www.w3.org/2000/svg" xmlns:xlink="http://www.w3.org/1999/xlink" x="0px" y="0px"
	 width="27px" height="40px" viewBox="0 0 27 40" enable-background="new 0 0 27 40" xml:space="preserve">
<g>
	<path fill="#454545" d="M13.5,0.152C6.056,0.152,0,6.208,0,13.652c0,4.27,2.889,7.889,3.013,8.043
		c0.839,1.033,1.575,3.109,1.575,4.443v0.945c0,2.361,1.921,4.281,4.282,4.281h9.025c2.36,0,4.281-1.92,4.281-4.281v-0.77
		c0-1.328,0.748-3.381,1.603-4.393C23.91,21.764,27,18.042,27,13.652C27,6.208,20.943,0.152,13.5,0.152z M21.769,20.229
		c-1.245,1.477-2.221,4.15-2.221,6.086v0.77c0,0.912-0.742,1.654-1.653,1.654H8.87c-0.912,0-1.654-0.742-1.654-1.654v-0.945
		c0-1.928-0.95-4.607-2.161-6.098c-0.024-0.03-2.427-3.039-2.427-6.389C2.627,7.657,7.505,2.78,13.5,2.78
		s10.872,4.877,10.872,10.872C24.372,17.069,21.792,20.2,21.769,20.229z"/>
	<path fill="#454545" d="M19.044,33.01H7.956c-0.726,0-1.314,0.59-1.314,1.314c0,0.727,0.588,1.314,1.314,1.314h11.088
		c0.726,0,1.313-0.588,1.313-1.314C20.357,33.6,19.77,33.01,19.044,33.01z"/>
	<path fill="#454545" d="M17.58,37.221H9.419c-0.726,0-1.314,0.588-1.314,1.314c0,0.725,0.588,1.312,1.314,1.312h8.161
		c0.726,0,1.314-0.588,1.314-1.312C18.895,37.809,18.306,37.221,17.58,37.221z"/>
	<path fill="#454545" d="M17.27,14.683l-5.19-2.996c-0.301-0.174-0.672-0.174-0.974,0c-0.301,0.174-0.486,0.495-0.486,0.843v5.993
		c0,0.348,0.186,0.669,0.486,0.843c0.151,0.087,0.319,0.13,0.487,0.13s0.336-0.043,0.487-0.13l5.19-2.997
		c0.301-0.174,0.486-0.495,0.486-0.843S17.57,14.856,17.27,14.683z"/>
</g>
</svg>
