<?xml version="1.0" encoding="utf-8"?>
<!-- Generator: Adobe Illustrator 16.0.1, SVG Export Plug-In . SVG Version: 6.00 Build 0)  -->
<!DOCTYPE svg PUBLIC "-//W3C//DTD SVG 1.1//EN" "http://www.w3.org/Graphics/SVG/1.1/DTD/svg11.dtd">
<svg version="1.1" id="Layer_1" xmlns="http://www.w3.org/2000/svg" xmlns:xlink="http://www.w3.org/1999/xlink" x="0px" y="0px"
	 width="39px" height="39px" viewBox="0 0 39 39" enable-background="new 0 0 39 39" xml:space="preserve">
<g>
	<path fill="#454545" d="M19.5,0C8.73,0,0,8.73,0,19.5S8.73,39,19.5,39S39,30.27,39,19.5S30.27,0,19.5,0z M19.5,35.344
		c-8.736,0-15.844-7.107-15.844-15.844S10.764,3.656,19.5,3.656S35.344,10.764,35.344,19.5S28.236,35.344,19.5,35.344z"/>
	<path fill="#454545" d="M26.371,10.875l-7.623,2.042c-0.443,0.119-0.79,0.465-0.906,0.905c-0.12,0.444,0.006,0.914,0.332,1.238
		l5.579,5.578c0.323,0.324,0.795,0.45,1.234,0.331c0.225-0.06,0.417-0.174,0.574-0.331c0.159-0.154,0.276-0.354,0.334-0.573
		l2.044-7.621c0.117-0.441-0.01-0.913-0.336-1.237C27.282,10.884,26.812,10.756,26.371,10.875z"/>
	<path fill="#454545" d="M15.246,17.988c-0.243-0.243-0.57-0.376-0.906-0.376c-0.11,0-0.222,0.015-0.332,0.044
		c-0.22,0.06-0.417,0.175-0.573,0.332c-0.157,0.156-0.272,0.352-0.331,0.574l-2.045,7.62c-0.116,0.443,0.011,0.914,0.335,1.235
		c0.24,0.244,0.565,0.376,0.899,0.376c0.112,0,0.225-0.015,0.335-0.045l7.62-2.04c0.444-0.119,0.79-0.464,0.906-0.904
		c0.119-0.443-0.007-0.914-0.331-1.24L15.246,17.988z M19.934,24.53l-7.64,2.044c-0.007,0-0.02-0.001-0.041-0.022
		c-0.015-0.015-0.021-0.038-0.016-0.055l2.046-7.625c0.001-0.005,0.004-0.012,0.017-0.024c0.007-0.007,0.017-0.013,0.027-0.016
		c0.005-0.001,0.009-0.002,0.014-0.002c0.007,0,0.026,0.002,0.044,0.02l5.575,5.573c0.019,0.018,0.025,0.041,0.018,0.068
		C19.973,24.51,19.956,24.524,19.934,24.53z"/>
</g>
</svg>
