<?xml version="1.0" encoding="utf-8"?>
<!-- Generator: Adobe Illustrator 15.1.0, SVG Export Plug-In . SVG Version: 6.00 Build 0)  -->
<!DOCTYPE svg PUBLIC "-//W3C//DTD SVG 1.1//EN" "http://www.w3.org/Graphics/SVG/1.1/DTD/svg11.dtd">
<svg version="1.1" id="Layer_1" xmlns="http://www.w3.org/2000/svg" xmlns:xlink="http://www.w3.org/1999/xlink" x="0px" y="0px"
	 width="8px" height="7px" viewBox="0 0 8 7" enable-background="new 0 0 8 7" xml:space="preserve">
<path fill="#DB1F48" d="M5.23,3.5l2.014-2.016c0.341-0.34,0.341-0.891,0-1.23c-0.339-0.339-0.89-0.339-1.23,0L4,2.27L1.984,0.254
	c-0.339-0.339-0.891-0.339-1.23,0c-0.339,0.34-0.339,0.891,0,1.23L2.77,3.5L0.754,5.516c-0.339,0.34-0.339,0.891,0,1.229
	c0.339,0.342,0.891,0.342,1.23,0L4,4.73l2.014,2.014c0.341,0.342,0.892,0.342,1.23,0c0.341-0.338,0.341-0.889,0-1.229L5.23,3.5z"/>
</svg>
