<?xml version="1.0" encoding="utf-8"?>
<!-- Generator: Adobe Illustrator 15.1.0, SVG Export Plug-In . SVG Version: 6.00 Build 0)  -->
<!DOCTYPE svg PUBLIC "-//W3C//DTD SVG 1.1//EN" "http://www.w3.org/Graphics/SVG/1.1/DTD/svg11.dtd">
<svg version="1.1" id="Layer_1" xmlns="http://www.w3.org/2000/svg" xmlns:xlink="http://www.w3.org/1999/xlink" x="0px" y="0px"
	 width="18px" height="18px" viewBox="0 0 18 18" enable-background="new 0 0 18 18" xml:space="preserve">
<path d="M8.999,0C4.037,0,0,4.037,0,9.001C0,13.959,4.037,18,8.999,18S18,13.959,18,9.001C18,4.037,13.961,0,8.999,0z M9.83,15.806
	v-3.799H8.172v3.799c-3.126-0.377-5.601-2.854-5.979-5.975h3.803V8.172H2.192c0.377-3.126,2.853-5.604,5.979-5.98v3.805H9.83V2.192
	c3.126,0.378,5.599,2.854,5.976,5.979h-3.8v1.659h3.8C15.428,12.951,12.955,15.427,9.83,15.806z"/>
</svg>
