<?xml version="1.0" encoding="utf-8"?>
<!-- Generator: Adobe Illustrator 15.1.0, SVG Export Plug-In . SVG Version: 6.00 Build 0)  -->
<!DOCTYPE svg PUBLIC "-//W3C//DTD SVG 1.1//EN" "http://www.w3.org/Graphics/SVG/1.1/DTD/svg11.dtd">
<svg version="1.1" id="Layer_1" xmlns="http://www.w3.org/2000/svg" xmlns:xlink="http://www.w3.org/1999/xlink" x="0px" y="0px"
	 width="54px" height="22px" viewBox="0 0 24 22" enable-background="new 0 0 24 22" xml:space="preserve">
<path fill="#35383A" d="M21.948,8.951h-9.384V8.938H12.51V6.385c0-3.45-2.806-6.256-6.256-6.256c-1.665,0-3.217,0.578-4.371,1.628
	C0.669,2.863,0,4.397,0,6.076c0,0.85,0.688,1.539,1.538,1.539c0.849,0,1.538-0.689,1.538-1.539c0-1.885,1.599-2.871,3.179-2.871
	c1.753,0,3.179,1.427,3.179,3.18v2.566C8.303,8.953,7.387,9.87,7.387,11.002v8.818c0,1.133,0.918,2.051,2.051,2.051h12.51
	c1.133,0,2.052-0.918,2.052-2.051v-8.818C24,9.869,23.081,8.951,21.948,8.951z"/>
</svg>
