<?xml version="1.0" encoding="utf-8"?>
<!-- Generator: Adobe Illustrator 16.0.1, SVG Export Plug-In . SVG Version: 6.00 Build 0)  -->
<!DOCTYPE svg PUBLIC "-//W3C//DTD SVG 1.1//EN" "http://www.w3.org/Graphics/SVG/1.1/DTD/svg11.dtd">
<svg version="1.1" id="Layer_1" xmlns="http://www.w3.org/2000/svg" xmlns:xlink="http://www.w3.org/1999/xlink" x="0px" y="0px"
	 width="68.334px" height="25px" viewBox="0 0 68.334 25" enable-background="new 0 0 68.334 25" xml:space="preserve">
<path fill="#EEEEEE" d="M16.572,1.491c-0.099-0.344-0.523-0.482-0.869-0.538c-0.287-0.027-0.625-0.033-0.881-0.017
	C11.26,1.166,6.147,2.944,4.506,5.128C3.198,6.872,4.544,9.422,5.666,10.36c1.157,0.967,2.656,1.429,4.243,1.919
	c0.47,0.145,0.956,0.295,1.448,0.462c0.246,0.083,0.507,0.163,0.76,0.24c1.217,0.373,2.476,0.757,2.407,1.655
	c-0.075,0.985-1.978,1.79-2.603,2.056c-0.105,0.045-0.182,0.076-0.209,0.092c-1.058,0.433-2.547,0.66-4.308,0.66
	c-1.842,0-3.792-0.25-5.354-0.688c-0.086-0.022-0.171-0.049-0.26-0.075c-0.354-0.08-0.6-0.045-0.713,0.109
	c-0.063,0.086-0.088,0.18-0.072,0.277c0.032,0.192,0.215,0.34,0.295,0.396l0.075,0.05c1.475,0.948,3.427,1.43,5.805,1.43l0,0
	c0.699,0,1.442-0.041,2.209-0.125c2.088-0.228,5.489-1.188,6.514-2.616c0.414-0.577,0.529-1.245,0.334-1.933
	c-0.249-0.879-0.996-1.71-1.859-2.072c-0.772-0.322-1.655-0.608-2.589-0.912C9.888,10.668,7.92,10.03,6.796,9.036
	C6.138,8.454,5.792,7.78,5.794,7.087c0.002-0.629,0.295-1.216,0.847-1.696c1.285-1.116,3.494-2.046,5.905-2.488
	c0.179-0.026,0.393-0.057,0.629-0.091c0.753-0.108,1.785-0.256,2.596-0.398c0.359-0.062,0.617-0.201,0.744-0.402
	C16.61,1.862,16.628,1.687,16.572,1.491z"/>
<path fill="#EEEEEE" d="M33.876,0.459c0.254-0.656,1.348-0.239,1.485,0.396c0.138,0.632-0.384,1.668-0.495,2.475
	c-0.45,3.251-1.331,7.38-0.792,11.287c0.211,1.527,0.278,2.652,1.019,2.719c0,0,0.452-0.016,0.606,0.061
	c0.159,0.078,0.183,1.021-0.769,1.082C30.577,18.758,32.894,3.007,33.876,0.459z"/>
<path fill="#EEEEEE" d="M20.142,11.018c0.728-0.27,1.702-1.44,2.673-0.594c0.927,0.81-0.115,5.212,0.495,6.436
	c0.14,0.281,0.603,0.449,0.594,0.692c-0.02,0.564-0.931,0.862-1.584,0.597c-1.631-0.668-0.389-4.371-0.891-6.041
	c-0.919,0.552-1.226,1.494-1.481,2.979c-0.131,0.759-0.072,2.806-0.594,3.067c-1.11,0.563-1.477-0.34-1.387-1.385
	c0.082-0.94,0.502-2.324,0.59-3.275c0.38-4.061,0.396-7.819,0.396-11.584c0-0.871,1.341-0.702,1.386,0.396
	c0.03,0.719,0.034,2.491,0.043,2.715C20.458,6.974,20.248,8.967,20.142,11.018z"/>
<path fill="#EEEEEE" d="M53.85,17.38c1.16,1.463-2.287,1.521-1.465,0.099C52.727,16.887,53.596,17.061,53.85,17.38z"/>
<path fill="#EEEEEE" d="M63.068,16.311c0.43,0.246,1.627-2.233,2.432-3.421c0.146-0.218,1.053-1.518,1.574-0.854
	c0.174,0.218,0.295,0.719-0.043,1.304c-0.246,0.427-0.629,1.017-0.99,1.712c-0.535,1.027-2.127,4.014-3.873,3.062
	c-0.186-0.102-0.762-0.666-0.9-1.353c-0.258-1.27-0.193-3.479,0.811-3.512C63.59,13.199,62.641,16.066,63.068,16.311z"/>
<path fill="#EEEEEE" d="M28.357,15.072c-0.845,0.666-1.336,0.585-1.188,1.289c0.281,1.346,3.298-0.535,3.41,0.699
	c0.054,0.58-2.772,1.601-3.707,1.183c-0.996-0.445-1.481-1.246-1.485-2.675c-0.006-1.949,0.968-3.479,1.387-4.159
	c0.463-0.754,1.08-1.785,2.574-1.386c0.491,0.132,1.149,0.911,1.215,1.371C30.806,13.117,29.206,14.404,28.357,15.072z
	 M29.347,12.201c0.125-0.325,0.156-1.284-0.396-0.989c-0.695,0.368-1.146,1.78-1.485,2.574
	C27.969,13.523,29.116,12.799,29.347,12.201z"/>
<path fill="#EEEEEE" d="M39.459,11.934c0.359-2.588,0.327-5.41,0.595-7.821c0.195-1.761-0.913-2.414-1.485-1.684
	c-0.329,0.42-0.064,2.032-0.692,10.1c-0.083,1.058-0.251,2.518-0.298,3.431c-0.001,0-0.001,0-0.001,0s-0.21,1.763-0.188,2.062
	c0.002,0.024,0.021,0.047,0.047,0.062c0.205,0.182,1.067,0.257,1.067,0.257c2.501,0.007,5.226-0.428,5.314-2.743
	C43.895,13.564,41.682,10.759,39.459,11.934z M41.836,15.695c-0.223,0.968-1.359,1.488-2.384,1.77
	c0.038-0.414,0.108-1.012,0.237-1.64c0,0,0,0,0-0.001c0.26-1.184,0.418-2.807,1.256-2.702
	C41.385,13.177,42.039,14.818,41.836,15.695z"/>
<path fill="#EEEEEE" d="M57.289,6.468c1.574-0.225,0.562,1.752,0.293,2.929c-0.125,0.546-0.354,1.561-0.193,1.758
	c0.453,0.566,2.057-0.561,2.439,0.195c0.217,0.428-0.762,0.655-1.074,0.78c-0.689,0.277-1.555,0.155-1.561,1.367
	c-0.006,0.823,0.326,3.483,1.074,3.515c0.355,0.016,1.367-1.072,1.658-0.781c0.508,0.509-0.357,1.808-0.879,1.953
	c-3.707,1.043-3.27-5.229-3.416-5.452c-0.111-0.173-2.27,0.133-1.562-0.992c0.16-0.254,1.297-0.054,1.562-0.39
	c0.123-0.156,0.287-2.486,0.391-2.93C56.258,7.398,56.42,6.592,57.289,6.468z"/>
<path fill="#EEEEEE" d="M45.959,24.872c-0.129,0-0.283-0.104-0.318-0.281c-0.059-0.276,0.203-0.708,1.104-1.094
	c0.826-0.354,1.379-1.401,1.643-3.116c0.191-1.257,0.15-2.431,0.15-2.441c-0.002-0.062-0.037-0.115-0.088-0.146
	c-0.027-0.016-0.059-0.023-0.09-0.023c-0.027,0-0.057,0.008-0.082,0.021c-0.529,0.279-0.998,0.422-1.395,0.422
	c-1.301,0-1.506-1.533-1.514-2.447c-0.006-0.897,0.234-3.567,0.506-3.741c0.068-0.038,0.162-0.059,0.275-0.059
	c0.471,0,0.998,0.311,1.057,0.464c0.117,0.304,0.004,1.544-0.098,2.173c-0.137,0.857-0.256,1.601,0.016,1.918
	c0.086,0.102,0.205,0.153,0.346,0.153l0,0c0.16,0,0.354-0.069,0.588-0.216c0.188-0.081,0.551-0.326,0.664-0.573
	c0.189-0.422,0.26-2.257,0.207-3.363c-0.014-0.24,0.061-0.445,0.221-0.612c0.215-0.226,0.588-0.37,0.949-0.37
	c0.277,0,0.438,0.085,0.469,0.164c0.246,0.627,0.016,2.973-0.189,4.105c-0.086,0.48-0.168,0.936-0.211,1.323
	c-0.004,0.028-0.02,0.146-0.02,0.146c-0.002,0.006-0.002,0.012-0.002,0.017c-0.006,0.056-0.049,0.458-0.383,3.372
	c-0.279,2.447-1.521,3.855-3.688,4.188l-0.08,0.013C45.984,24.87,45.973,24.872,45.959,24.872z"/>
</svg>
