<?xml version="1.0" encoding="utf-8"?>
<!-- Generator: Adobe Illustrator 16.0.1, SVG Export Plug-In . SVG Version: 6.00 Build 0)  -->
<!DOCTYPE svg PUBLIC "-//W3C//DTD SVG 1.1//EN" "http://www.w3.org/Graphics/SVG/1.1/DTD/svg11.dtd">
<svg version="1.1" id="Layer_1" xmlns="http://www.w3.org/2000/svg" xmlns:xlink="http://www.w3.org/1999/xlink" x="0px" y="0px"
	 width="79px" height="25px" viewBox="0 0 79 25" enable-background="new 0 0 79 25" xml:space="preserve">
<g>
	<path fill="#EEEEEE" d="M28.326,1.491c-0.099-0.344-0.523-0.482-0.869-0.538c-0.287-0.027-0.625-0.033-0.881-0.017
		c-3.562,0.23-8.674,2.008-10.315,4.192c-1.309,1.744,0.038,4.294,1.159,5.232c1.157,0.967,2.656,1.429,4.243,1.919
		c0.47,0.145,0.956,0.295,1.448,0.462c0.246,0.083,0.507,0.163,0.76,0.24c1.217,0.372,2.476,0.757,2.407,1.655
		c-0.075,0.985-1.978,1.79-2.603,2.055c-0.105,0.045-0.182,0.077-0.209,0.092c-1.058,0.433-2.547,0.66-4.308,0.66
		c-1.842,0-3.792-0.25-5.354-0.688c-0.086-0.023-0.171-0.049-0.26-0.075c-0.354-0.081-0.6-0.045-0.713,0.109
		c-0.063,0.086-0.088,0.18-0.072,0.278c0.032,0.192,0.215,0.339,0.295,0.395l0.075,0.05c1.475,0.948,3.427,1.43,5.805,1.43l0,0
		c0.699,0,1.442-0.042,2.209-0.126c2.088-0.227,5.489-1.188,6.514-2.616c0.414-0.577,0.529-1.245,0.334-1.933
		c-0.249-0.878-0.996-1.71-1.859-2.071c-0.772-0.322-1.655-0.608-2.589-0.912c-1.901-0.616-3.868-1.254-4.992-2.248
		c-0.659-0.582-1.005-1.256-1.002-1.949c0.002-0.629,0.295-1.216,0.847-1.696c1.285-1.116,3.494-2.046,5.905-2.488
		c0.179-0.026,0.393-0.057,0.629-0.091c0.753-0.108,1.785-0.256,2.596-0.398c0.359-0.062,0.617-0.201,0.744-0.402
		C28.364,1.862,28.383,1.687,28.326,1.491z"/>
	<path fill="#EEEEEE" d="M45.631,0.459c0.254-0.656,1.348-0.239,1.485,0.396c0.138,0.632-0.383,1.668-0.495,2.475
		c-0.45,3.251-1.331,7.38-0.792,11.287c0.211,1.527,0.278,2.652,1.018,2.719c0,0,0.453-0.015,0.607,0.061
		c0.159,0.078,0.183,1.021-0.768,1.082C42.331,18.758,44.648,3.007,45.631,0.459z"/>
	<path fill="#EEEEEE" d="M31.896,11.018c0.728-0.27,1.702-1.44,2.673-0.594c0.927,0.81-0.115,5.212,0.495,6.436
		c0.14,0.281,0.603,0.449,0.594,0.692c-0.02,0.564-0.931,0.862-1.584,0.596c-1.631-0.667-0.389-4.37-0.891-6.04
		c-0.919,0.552-1.226,1.494-1.481,2.979c-0.131,0.758-0.072,2.805-0.594,3.068c-1.11,0.563-1.477-0.341-1.387-1.386
		c0.082-0.94,0.502-2.324,0.59-3.275c0.38-4.061,0.396-7.819,0.396-11.584c0-0.871,1.341-0.702,1.386,0.396
		c0.03,0.719,0.034,2.491,0.043,2.715C32.212,6.974,32.002,8.967,31.896,11.018z"/>
	<path fill="#EEEEEE" d="M65.604,17.38c1.16,1.463-2.287,1.521-1.465,0.099C64.481,16.887,65.35,17.06,65.604,17.38z"/>
	<path fill="#EEEEEE" d="M74.822,16.311c0.43,0.245,1.627-2.234,2.432-3.422c0.147-0.218,1.052-1.518,1.575-0.854
		c0.174,0.218,0.294,0.719-0.044,1.304c-0.245,0.426-0.628,1.016-0.99,1.712c-0.535,1.027-2.126,4.013-3.873,3.062
		c-0.185-0.101-0.762-0.666-0.901-1.352c-0.258-1.27-0.193-3.479,0.812-3.512C75.344,13.199,74.394,16.066,74.822,16.311z"/>
	<path fill="#EEEEEE" d="M40.111,15.072c-0.845,0.666-1.336,0.585-1.188,1.29c0.281,1.345,3.298-0.536,3.41,0.699
		c0.053,0.579-2.772,1.6-3.707,1.182c-0.996-0.445-1.481-1.246-1.485-2.675c-0.006-1.949,0.968-3.478,1.387-4.159
		c0.463-0.754,1.08-1.785,2.573-1.386c0.492,0.132,1.15,0.911,1.216,1.371C42.56,13.117,40.96,14.404,40.111,15.072z M41.101,12.201
		c0.126-0.325,0.157-1.284-0.396-0.989c-0.695,0.368-1.146,1.78-1.485,2.574C39.723,13.524,40.87,12.799,41.101,12.201z"/>
	<path fill="#EEEEEE" d="M51.214,11.934c0.359-2.588,0.327-5.41,0.595-7.821c0.195-1.761-0.912-2.414-1.485-1.684
		c-0.329,0.42-0.064,2.032-0.692,10.1c-0.083,1.058-0.251,2.518-0.298,3.431c-0.001,0-0.001,0-0.001,0s-0.21,1.763-0.188,2.062
		c0.002,0.024,0.02,0.046,0.047,0.062c0.204,0.182,1.067,0.257,1.067,0.257c2.501,0.007,5.225-0.428,5.313-2.743
		C55.648,13.564,53.435,10.759,51.214,11.934z M53.59,15.696c-0.223,0.967-1.36,1.488-2.384,1.769
		c0.038-0.414,0.109-1.012,0.237-1.64c0,0,0,0,0-0.001c0.26-1.184,0.419-2.807,1.256-2.702
		C53.138,13.177,53.793,14.819,53.59,15.696z"/>
	<path fill="#EEEEEE" d="M69.044,6.468c1.573-0.225,0.562,1.752,0.293,2.929c-0.125,0.546-0.354,1.561-0.195,1.758
		c0.453,0.566,2.057-0.561,2.44,0.195c0.218,0.428-0.762,0.655-1.073,0.78c-0.691,0.277-1.555,0.155-1.562,1.367
		c-0.005,0.823,0.327,3.483,1.074,3.515c0.357,0.015,1.367-1.073,1.659-0.781c0.508,0.508-0.358,1.807-0.878,1.952
		c-3.708,1.044-3.271-5.229-3.417-5.451c-0.112-0.173-2.269,0.133-1.562-0.992c0.16-0.254,1.296-0.054,1.562-0.39
		c0.123-0.156,0.288-2.486,0.391-2.93C68.012,7.398,68.174,6.592,69.044,6.468z"/>
	<path fill="#EEEEEE" d="M7.375,9.172l-6.09-3.516c-0.265-0.153-0.591-0.153-0.856,0C0.163,5.809,0,6.091,0,6.397v7.032
		c0,0.306,0.163,0.589,0.428,0.742c0.132,0.076,0.28,0.114,0.428,0.114c0.147,0,0.296-0.038,0.428-0.114l6.09-3.517
		c0.265-0.153,0.428-0.436,0.428-0.742C7.803,9.607,7.639,9.325,7.375,9.172z"/>
	<path fill="#EEEEEE" d="M57.713,24.872c-0.129,0-0.283-0.105-0.319-0.281c-0.057-0.276,0.204-0.708,1.104-1.094
		c0.827-0.354,1.38-1.402,1.642-3.116c0.192-1.257,0.152-2.431,0.151-2.442c-0.002-0.061-0.036-0.115-0.088-0.146
		c-0.027-0.016-0.058-0.023-0.089-0.023c-0.028,0-0.057,0.007-0.082,0.021c-0.529,0.28-0.998,0.422-1.395,0.422
		c-1.301,0-1.506-1.533-1.513-2.447c-0.006-0.898,0.234-3.568,0.506-3.741c0.067-0.038,0.162-0.059,0.274-0.059
		c0.472,0,0.998,0.311,1.058,0.464c0.116,0.304,0.003,1.545-0.098,2.174c-0.138,0.857-0.256,1.6,0.016,1.918
		c0.086,0.101,0.205,0.153,0.345,0.153l0,0c0.161,0,0.353-0.07,0.587-0.216c0.188-0.081,0.552-0.326,0.664-0.573
		c0.191-0.422,0.261-2.257,0.207-3.363c-0.012-0.24,0.062-0.445,0.222-0.612c0.215-0.226,0.587-0.37,0.949-0.37
		c0.277,0,0.438,0.085,0.468,0.164c0.246,0.627,0.016,2.973-0.188,4.106c-0.086,0.48-0.168,0.935-0.212,1.323
		c-0.003,0.028-0.02,0.146-0.02,0.146C61.9,17.285,61.9,17.291,61.9,17.296c-0.006,0.056-0.048,0.458-0.382,3.372
		c-0.28,2.447-1.521,3.856-3.688,4.188l-0.079,0.012C57.738,24.87,57.726,24.872,57.713,24.872z"/>
</g>
</svg>
