<?xml version="1.0" encoding="utf-8"?>
<!-- Generator: Adobe Illustrator 15.1.0, SVG Export Plug-In . SVG Version: 6.00 Build 0)  -->
<!DOCTYPE svg PUBLIC "-//W3C//DTD SVG 1.1//EN" "http://www.w3.org/Graphics/SVG/1.1/DTD/svg11.dtd">
<svg version="1.1" id="Layer_1" xmlns="http://www.w3.org/2000/svg" xmlns:xlink="http://www.w3.org/1999/xlink" x="0px" y="0px"
	 width="40px" height="53px" viewBox="0 0 40 53" enable-background="new 0 0 40 53" xml:space="preserve">
<g>
	<path fill="#EFEFEF" d="M18.337,10.294c-1.664,0-3.232,0.207-4.71,0.622c-1.48,0.415-3.116,1.085-4.917,2.009L5.802,5.101
		c1.8-1.154,3.923-2.043,6.372-2.669C14.619,1.81,17.021,1.5,19.373,1.5c2.958,0,5.392,0.393,7.308,1.176
		c1.914,0.785,3.429,1.776,4.539,2.979c1.106,1.199,1.878,2.514,2.318,3.946c0.439,1.432,0.66,2.792,0.66,4.086
		c0,1.293-0.198,2.483-0.589,3.568c-0.398,1.084-0.894,2.088-1.491,3.011c-0.601,0.924-1.292,1.801-2.077,2.633
		c-0.786,0.83-1.55,1.615-2.284,2.352c-0.55,0.555-1.131,1.144-1.729,1.768c-0.602,0.623-1.145,1.283-1.627,1.975
		c-0.483,0.694-0.892,1.418-1.212,2.184c-0.326,0.762-0.481,1.535-0.481,2.322c0,0.18,0,0.463,0,0.829
		c0,0.365,0.021,0.688,0.07,0.972h-9.142c-0.095-0.464-0.152-0.982-0.176-1.557c-0.022-0.576-0.034-1.074-0.034-1.49
		c0-1.289,0.16-2.457,0.482-3.5c0.323-1.037,0.751-2.006,1.283-2.909c0.53-0.9,1.14-1.742,1.836-2.527
		c0.692-0.784,1.407-1.548,2.146-2.286c1.059-1.061,2.03-2.115,2.91-3.149c0.875-1.042,1.314-2.227,1.314-3.568
		c0-1.109-0.428-2.055-1.281-2.838C21.258,10.687,19.999,10.294,18.337,10.294z M24.774,45.128c0,2.034-0.656,3.602-1.972,4.712
		c-1.318,1.108-2.804,1.66-4.466,1.66c-1.664,0-3.15-0.552-4.468-1.66c-1.315-1.11-1.976-2.678-1.976-4.712
		c0-2.029,0.66-3.598,1.976-4.708c1.317-1.108,2.804-1.66,4.468-1.66c1.662,0,3.147,0.552,4.466,1.66
		C24.118,41.53,24.774,43.099,24.774,45.128z"/>
</g>
</svg>
