<?xml version="1.0" encoding="utf-8"?>
<!-- Generator: Adobe Illustrator 15.1.0, SVG Export Plug-In . SVG Version: 6.00 Build 0)  -->
<!DOCTYPE svg PUBLIC "-//W3C//DTD SVG 1.1//EN" "http://www.w3.org/Graphics/SVG/1.1/DTD/svg11.dtd">
<svg version="1.1" id="Layer_1" xmlns="http://www.w3.org/2000/svg" xmlns:xlink="http://www.w3.org/1999/xlink" x="0px" y="0px"
	 width="74px" height="73px" viewBox="0 0 74 73" enable-background="new 0 0 74 73" xml:space="preserve">
<g>
	<path fill="#D0D0D0" d="M66.863-0.003H7.137c-3.665,0-6.633,2.972-6.637,6.639v59.729c0,3.667,2.972,6.639,6.637,6.639h59.727
		c3.669,0,6.637-2.972,6.637-6.639V6.636C73.5,2.969,70.527-0.003,66.863-0.003z M10.452,66.363c-1.834,0-3.315-1.483-3.315-3.317
		c0-1.828,1.485-3.315,3.315-3.315c1.831,0,3.32,1.482,3.32,3.315C13.772,64.884,12.292,66.363,10.452,66.363z M10.452,53.09
		c-1.834,0-3.315-1.484-3.315-3.32c0-1.834,1.485-3.317,3.315-3.317c1.831,0,3.32,1.483,3.32,3.317
		C13.772,51.605,12.292,53.09,10.452,53.09z M10.452,39.816c-1.834,0-3.315-1.483-3.315-3.32c0-1.83,1.485-3.318,3.315-3.318
		c1.831,0,3.32,1.484,3.32,3.318C13.772,38.328,12.292,39.816,10.452,39.816z M10.452,26.548c-1.834,0-3.315-1.484-3.315-3.32
		c0-1.834,1.485-3.318,3.315-3.318c1.831,0,3.32,1.484,3.32,3.318C13.772,25.063,12.292,26.548,10.452,26.548z M10.452,13.27
		c-1.834,0-3.315-1.483-3.315-3.32c0-1.83,1.485-3.313,3.315-3.313c1.831,0,3.32,1.483,3.32,3.313
		C13.772,11.786,12.292,13.27,10.452,13.27z M53.593,66.363H20.41V39.816h33.183V66.363z M53.593,33.183H20.41V6.636h33.183V33.183z
		 M63.541,66.363c-1.833,0-3.311-1.483-3.311-3.317c0-1.828,1.478-3.315,3.311-3.315c1.841,0,3.322,1.482,3.322,3.315
		C66.863,64.884,65.377,66.363,63.541,66.363z M63.541,53.09c-1.833,0-3.311-1.484-3.311-3.32c0-1.834,1.478-3.317,3.311-3.317
		c1.841,0,3.322,1.483,3.322,3.317C66.863,51.605,65.377,53.09,63.541,53.09z M63.541,39.816c-1.833,0-3.311-1.483-3.311-3.32
		c0-1.83,1.478-3.318,3.311-3.318c1.841,0,3.322,1.484,3.322,3.318C66.863,38.328,65.377,39.816,63.541,39.816z M63.541,26.548
		c-1.833,0-3.311-1.484-3.311-3.32c0-1.834,1.478-3.318,3.311-3.318c1.841,0,3.322,1.484,3.322,3.318
		C66.863,25.063,65.377,26.548,63.541,26.548z M63.541,13.27c-1.833,0-3.311-1.483-3.311-3.32c0-1.83,1.478-3.313,3.311-3.313
		c1.841,0,3.322,1.483,3.322,3.313C66.863,11.786,65.377,13.27,63.541,13.27z"/>
</g>
</svg>
