<?xml version="1.0" encoding="utf-8"?>
<!-- Generator: Adobe Illustrator 16.0.3, SVG Export Plug-In . SVG Version: 6.00 Build 0)  -->
<!DOCTYPE svg PUBLIC "-//W3C//DTD SVG 1.1//EN" "http://www.w3.org/Graphics/SVG/1.1/DTD/svg11.dtd">
<svg version="1.1" id="Layer_1" xmlns="http://www.w3.org/2000/svg" xmlns:xlink="http://www.w3.org/1999/xlink" x="0px" y="0px"
	 width="32px" height="32px" viewBox="0 0 32 32" enable-background="new 0 0 32 32" xml:space="preserve">
<g>
	<path fill="#666666" d="M28.271,0.999H3.729C2.223,0.999,1.002,2.219,1,3.727v24.544c0,1.508,1.221,2.73,2.729,2.73h24.543
		c1.51,0,2.729-1.223,2.729-2.73V3.727C31,2.219,29.777,0.999,28.271,0.999z M5.09,28.27c-0.753,0-1.361-0.607-1.361-1.361
		c0-0.752,0.609-1.363,1.361-1.363s1.364,0.609,1.364,1.363C6.455,27.664,5.848,28.27,5.09,28.27z M5.09,22.816
		c-0.753,0-1.361-0.609-1.361-1.365c0-0.752,0.609-1.361,1.361-1.361s1.364,0.609,1.364,1.361
		C6.455,22.207,5.848,22.816,5.09,22.816z M5.09,17.361c-0.753,0-1.361-0.609-1.361-1.365c0-0.752,0.609-1.364,1.361-1.364
		s1.364,0.61,1.364,1.364C6.454,16.75,5.848,17.361,5.09,17.361z M5.09,11.91c-0.753,0-1.361-0.61-1.361-1.365
		c0-0.753,0.609-1.362,1.361-1.362s1.364,0.609,1.364,1.362C6.455,11.298,5.848,11.91,5.09,11.91z M5.09,6.453
		c-0.753,0-1.361-0.609-1.361-1.364c0-0.752,0.609-1.361,1.361-1.361s1.364,0.609,1.364,1.361C6.455,5.842,5.848,6.453,5.09,6.453z
		 M22.818,28.27H9.184V17.361H22.82V28.27H22.818z M22.818,14.635H9.184V3.725H22.82v10.91H22.818z M26.907,28.27
		c-0.753,0-1.36-0.607-1.36-1.361c0-0.752,0.607-1.363,1.36-1.363c0.757,0,1.364,0.609,1.364,1.363
		C28.271,27.664,27.662,28.27,26.907,28.27z M26.907,22.816c-0.753,0-1.36-0.609-1.36-1.365c0-0.752,0.607-1.361,1.36-1.361
		c0.757,0,1.364,0.609,1.364,1.361C28.271,22.207,27.662,22.816,26.907,22.816z M26.907,17.361c-0.753,0-1.36-0.609-1.36-1.365
		c0-0.752,0.607-1.364,1.36-1.364c0.757,0,1.364,0.61,1.364,1.364C28.271,16.75,27.662,17.361,26.907,17.361z M26.907,11.91
		c-0.753,0-1.36-0.61-1.36-1.365c0-0.753,0.607-1.362,1.36-1.362c0.757,0,1.364,0.609,1.364,1.362
		C28.271,11.298,27.662,11.91,26.907,11.91z M26.907,6.453c-0.753,0-1.36-0.609-1.36-1.364c0-0.752,0.607-1.361,1.36-1.361
		c0.757,0,1.364,0.609,1.364,1.361C28.271,5.842,27.662,6.453,26.907,6.453z"/>
</g>
</svg>
