<?xml version="1.0" encoding="utf-8"?>
<!-- Generator: Adobe Illustrator 15.1.0, SVG Export Plug-In . SVG Version: 6.00 Build 0)  -->
<!DOCTYPE svg PUBLIC "-//W3C//DTD SVG 1.1//EN" "http://www.w3.org/Graphics/SVG/1.1/DTD/svg11.dtd">
<svg version="1.1" id="Layer_1" xmlns="http://www.w3.org/2000/svg" xmlns:xlink="http://www.w3.org/1999/xlink" x="0px" y="0px"
	 width="16px" height="16px" viewBox="0 0 16 16" enable-background="new 0 0 16 16" xml:space="preserve">
<path fill="#FFFFFF" d="M8,0C3.581,0,0,3.582,0,8s3.581,8,8,8c4.418,0,8-3.582,8-8S12.418,0,8,0z M11.564,8.827l-5.091,2.938
	c-0.147,0.086-0.312,0.129-0.477,0.129s-0.33-0.043-0.478-0.129c-0.295-0.17-0.477-0.484-0.477-0.826V5.061
	c0-0.341,0.182-0.656,0.477-0.827c0.295-0.17,0.66-0.17,0.955,0l5.091,2.939C11.859,7.344,12.042,7.659,12.042,8
	S11.859,8.656,11.564,8.827z"/>
</svg>
