<?xml version="1.0" encoding="utf-8"?>
<!-- Generator: Adobe Illustrator 15.1.0, SVG Export Plug-In . SVG Version: 6.00 Build 0)  -->
<!DOCTYPE svg PUBLIC "-//W3C//DTD SVG 1.1//EN" "http://www.w3.org/Graphics/SVG/1.1/DTD/svg11.dtd">
<svg version="1.1" id="Layer_1" xmlns="http://www.w3.org/2000/svg" xmlns:xlink="http://www.w3.org/1999/xlink" x="0px" y="0px"
	 width="14px" height="11px" viewBox="0 0 14 11" enable-background="new 0 0 14 11" xml:space="preserve">
<path fill="#FFFFFF" d="M13.701,5.528c0-0.289-0.1-0.552-0.262-0.766c-0.062-0.154-0.152-0.299-0.276-0.424L9.188,0.364
	c-0.484-0.485-1.271-0.485-1.757,0c-0.486,0.485-0.485,1.271,0,1.758l2.134,2.135H1.568c-0.701,0-1.27,0.569-1.27,1.271
	c0,0.701,0.568,1.269,1.27,1.269H9.51L7.43,8.878c-0.485,0.485-0.485,1.272,0,1.758c0.485,0.486,1.272,0.485,1.757,0l3.976-3.975
	c0.086-0.086,0.151-0.185,0.206-0.285C13.574,6.15,13.701,5.855,13.701,5.528z"/>
</svg>
