<?xml version="1.0" encoding="utf-8"?>
<!-- Generator: Adobe Illustrator 15.1.0, SVG Export Plug-In . SVG Version: 6.00 Build 0)  -->
<!DOCTYPE svg PUBLIC "-//W3C//DTD SVG 1.1//EN" "http://www.w3.org/Graphics/SVG/1.1/DTD/svg11.dtd">
<svg version="1.1" id="Layer_1" xmlns="http://www.w3.org/2000/svg" xmlns:xlink="http://www.w3.org/1999/xlink" x="0px" y="0px"
	 width="14px" height="11px" viewBox="0 0 14 11" enable-background="new 0 0 14 11" xml:space="preserve">
<path fill="#FFFFFF" d="M0.299,5.472c0,0.289,0.1,0.551,0.262,0.766c0.061,0.154,0.152,0.299,0.276,0.424l3.975,3.974
	c0.485,0.485,1.272,0.485,1.758,0s0.485-1.272,0-1.758L4.435,6.743h7.997c0.701,0,1.27-0.569,1.27-1.271
	c0-0.701-0.568-1.269-1.27-1.269H4.489l2.08-2.081c0.485-0.485,0.485-1.272,0-1.758s-1.272-0.485-1.758,0L0.837,4.339
	C0.751,4.425,0.686,4.523,0.631,4.624C0.426,4.85,0.299,5.145,0.299,5.472z"/>
</svg>
