<?xml version="1.0" encoding="utf-8"?>
<!-- Generator: Adobe Illustrator 15.1.0, SVG Export Plug-In . SVG Version: 6.00 Build 0)  -->
<!DOCTYPE svg PUBLIC "-//W3C//DTD SVG 1.1//EN" "http://www.w3.org/Graphics/SVG/1.1/DTD/svg11.dtd">
<svg version="1.1" id="Layer_1" xmlns="http://www.w3.org/2000/svg" xmlns:xlink="http://www.w3.org/1999/xlink" x="0px" y="0px"
	 width="11px" height="11px" viewBox="0 0 11 11" enable-background="new 0 0 11 11" xml:space="preserve">
<g>
	<g>
		<path fill="#64BD56" d="M0.799,4.25h3.34V0.549h2.72V4.25h3.342v2.5H6.859v3.701H4.14V6.75H0.8L0.799,4.25L0.799,4.25z"/>
		<path fill="#64BD56" d="M6.859,11H4.14c-0.303,0-0.549-0.246-0.549-0.549V7.299H0.799c-0.303,0-0.549-0.246-0.549-0.549v-2.5
			c0-0.303,0.246-0.549,0.549-0.549H3.59V0.549C3.59,0.246,3.836,0,4.14,0h2.719c0.304,0,0.55,0.246,0.55,0.549v3.152h2.792
			c0.303,0,0.549,0.246,0.549,0.549v2.5c0,0.303-0.246,0.549-0.549,0.549H7.409v3.152C7.409,10.754,7.163,11,6.859,11z M4.689,9.9
			h1.622V6.75c0-0.303,0.246-0.549,0.551-0.549h2.791V4.799H6.859c-0.303,0-0.549-0.246-0.549-0.549V1.099H4.689V4.25
			c0,0.303-0.246,0.549-0.549,0.549H1.349v1.402H4.14c0.303,0,0.549,0.246,0.549,0.549V9.9z"/>
	</g>
</g>
</svg>
