<?xml version="1.0" encoding="utf-8"?>
<!-- Generator: Adobe Illustrator 15.1.0, SVG Export Plug-In . SVG Version: 6.00 Build 0)  -->
<!DOCTYPE svg PUBLIC "-//W3C//DTD SVG 1.1//EN" "http://www.w3.org/Graphics/SVG/1.1/DTD/svg11.dtd">
<svg version="1.1" id="Layer_1" xmlns="http://www.w3.org/2000/svg" xmlns:xlink="http://www.w3.org/1999/xlink" x="0px" y="0px"
	 width="69px" height="50px" viewBox="0 0 69 50" enable-background="new 0 0 69 50" xml:space="preserve">
<path fill="#F8F8F8" d="M67.566,11.736c-1.365-0.781-3.104-0.308-3.887,1.057L53.17,31.162l-5.294-5.294
	c-0.976-0.976-2.647-0.884-3.735,0.204c-1.09,1.088-1.181,2.762-0.205,3.736l7.984,7.985c0.866,0.865,2.281,0.886,3.35,0.118
	c0.512-0.24,0.957-0.63,1.26-1.157L68.625,15.62C69.404,14.256,68.932,12.517,67.566,11.736z"/>
<path fill="#F8F8F8" d="M17.54,0.666v12.132h11.39v7.536H17.54v12.309c0,2.783,0.146,4.57,0.442,5.359
	c0.293,0.791,0.843,1.42,1.644,1.893c1.062,0.638,2.276,0.955,3.645,0.955c2.429,0,4.847-0.791,7.251-2.371v7.57
	c-2.052,0.967-3.909,1.646-5.57,2.035c-1.663,0.389-3.462,0.582-5.395,0.582c-2.193,0-4.134-0.277-5.819-0.83
	c-1.687-0.555-3.124-1.346-4.315-2.369c-1.191-1.027-2.017-2.117-2.476-3.273c-0.46-1.153-0.69-2.829-0.69-5.022V20.334H0.951
	v-6.793c1.886-0.613,3.502-1.49,4.845-2.635C7.141,9.763,8.22,8.389,9.033,6.785c0.814-1.603,1.374-3.643,1.68-6.119H17.54z"/>
</svg>
