<?xml version="1.0" encoding="utf-8"?>
<!-- Generator: Adobe Illustrator 15.1.0, SVG Export Plug-In . SVG Version: 6.00 Build 0)  -->
<!DOCTYPE svg PUBLIC "-//W3C//DTD SVG 1.1//EN" "http://www.w3.org/Graphics/SVG/1.1/DTD/svg11.dtd">
<svg version="1.1" id="Layer_1" xmlns="http://www.w3.org/2000/svg" xmlns:xlink="http://www.w3.org/1999/xlink" x="0px" y="0px"
	 width="97px" height="50px" viewBox="0 0 97 50" enable-background="new 0 0 97 50" xml:space="preserve">
<path fill="#F8F8F8" d="M60.531,6.411c-2.174,0.964-4.508,1.615-6.959,1.908c2.501-1.5,4.424-3.874,5.328-6.704
	c-2.342,1.389-4.936,2.397-7.694,2.94c-2.211-2.355-5.36-3.826-8.846-3.826c-6.692,0-12.118,5.425-12.118,12.117
	c0,0.95,0.107,1.874,0.313,2.762c-10.07-0.505-19-5.33-24.976-12.661c-1.043,1.79-1.641,3.872-1.641,6.092
	c0,4.204,2.139,7.913,5.391,10.086c-1.987-0.063-3.855-0.608-5.489-1.516c-0.001,0.05-0.001,0.102-0.001,0.152
	c0,5.872,4.177,10.769,9.72,11.882c-1.017,0.277-2.087,0.426-3.192,0.426c-0.781,0-1.54-0.075-2.28-0.217
	c1.541,4.812,6.017,8.316,11.319,8.414c-4.147,3.25-9.372,5.188-15.049,5.188c-0.978,0-1.943-0.058-2.891-0.17
	c5.362,3.438,11.732,5.444,18.575,5.444c22.289,0,34.479-18.465,34.479-34.478c0-0.525-0.013-1.048-0.035-1.568
	C56.854,10.975,58.907,8.841,60.531,6.411z"/>
<path fill="#F8F8F8" d="M93.566,11.736c-1.365-0.781-3.104-0.308-3.887,1.057L79.17,31.162l-5.294-5.294
	c-0.976-0.976-2.647-0.884-3.735,0.204c-1.09,1.088-1.181,2.762-0.205,3.736l7.984,7.985c0.866,0.865,2.281,0.886,3.35,0.118
	c0.512-0.24,0.957-0.63,1.26-1.157L94.625,15.62C95.404,14.256,94.932,12.517,93.566,11.736z"/>
</svg>
