<?xml version="1.0" encoding="utf-8"?>
<!-- Generator: Adobe Illustrator 15.1.0, SVG Export Plug-In . SVG Version: 6.00 Build 0)  -->
<!DOCTYPE svg PUBLIC "-//W3C//DTD SVG 1.1//EN" "http://www.w3.org/Graphics/SVG/1.1/DTD/svg11.dtd">
<svg version="1.1" id="Layer_1" xmlns="http://www.w3.org/2000/svg" xmlns:xlink="http://www.w3.org/1999/xlink" x="0px" y="0px"
	 width="69px" height="50px" viewBox="0 0 69 50" enable-background="new 0 0 69 50" xml:space="preserve">
<path fill="#F8F8F8" d="M59.566,11.736c-1.365-0.781-3.104-0.308-3.887,1.057L45.17,31.162l-5.294-5.294
	c-0.976-0.976-2.647-0.884-3.735,0.204c-1.09,1.088-1.181,2.762-0.205,3.736l7.984,7.985c0.866,0.865,2.281,0.886,3.35,0.118
	c0.512-0.24,0.957-0.63,1.26-1.157L60.625,15.62C61.404,14.256,60.932,12.517,59.566,11.736z"/>
<path fill="#F8F8F8" d="M6.06,48.666V24.642H0.951v-8.45h5.06c0,0,0-2.703,0-7.665c0-4.962,3.489-7.86,9.629-7.86
	c6.14,0,7.764,0,7.764,0L23.39,8.822c0,0-3.967,0-5.441,0c-1.474,0-2.111,1.376-2.111,2.113c0,0.736,0,5.403,0,5.403H23.5
	l-0.883,8.304h-6.535l-0.072,24.02L6.06,48.666z"/>
</svg>
