<?xml version="1.0" encoding="utf-8"?>
<!-- Generator: Adobe Illustrator 15.1.0, SVG Export Plug-In . SVG Version: 6.00 Build 0)  -->
<!DOCTYPE svg PUBLIC "-//W3C//DTD SVG 1.1//EN" "http://www.w3.org/Graphics/SVG/1.1/DTD/svg11.dtd">
<svg version="1.1" id="Layer_1" xmlns="http://www.w3.org/2000/svg" xmlns:xlink="http://www.w3.org/1999/xlink" x="0px" y="0px"
	 width="97px" height="50px" viewBox="0 0 97 50" enable-background="new 0 0 97 50" xml:space="preserve">
<path fill="#F8F8F8" d="M60.531,6.411c-2.174,0.964-4.508,1.615-6.959,1.908c2.501-1.5,4.424-3.874,5.328-6.704
	c-2.342,1.389-4.936,2.397-7.694,2.94c-2.211-2.355-5.36-3.826-8.846-3.826c-6.692,0-12.118,5.425-12.118,12.117
	c0,0.95,0.107,1.874,0.313,2.762c-10.07-0.505-19-5.33-24.976-12.661c-1.043,1.79-1.641,3.872-1.641,6.092
	c0,4.204,2.139,7.913,5.391,10.086c-1.987-0.063-3.855-0.608-5.489-1.516c-0.001,0.05-0.001,0.102-0.001,0.152
	c0,5.872,4.177,10.769,9.72,11.882c-1.017,0.277-2.087,0.426-3.192,0.426c-0.781,0-1.54-0.075-2.28-0.217
	c1.541,4.812,6.017,8.316,11.319,8.414c-4.147,3.25-9.372,5.188-15.049,5.188c-0.978,0-1.943-0.058-2.891-0.17
	c5.362,3.438,11.732,5.444,18.575,5.444c22.289,0,34.479-18.465,34.479-34.478c0-0.525-0.013-1.048-0.035-1.568
	C56.854,10.975,58.907,8.841,60.531,6.411z"/>
<g>
	<g>
		<path fill="#F8F8F8" d="M69.583,21.806h8.308v-9.202h6.764v9.202h8.309v6.219h-8.309v9.199h-6.764v-9.199h-8.308V21.806z"/>
		<path fill="#F8F8F8" d="M84.654,38.59h-6.764c-0.755,0-1.365-0.611-1.365-1.365v-7.836h-6.941c-0.754,0-1.365-0.611-1.365-1.363
			v-6.219c0-0.755,0.611-1.366,1.365-1.366h6.941v-7.836c0-0.754,0.61-1.366,1.365-1.366h6.764c0.756,0,1.367,0.611,1.367,1.366
			v7.836h6.94c0.754,0,1.365,0.611,1.365,1.366v6.219c0,0.752-0.611,1.363-1.365,1.363h-6.94v7.836
			C86.021,37.979,85.409,38.59,84.654,38.59z M79.255,35.859h4.034v-7.836c0-0.756,0.611-1.366,1.365-1.366h6.941v-3.485h-6.941
			c-0.754,0-1.365-0.611-1.365-1.366V13.97h-4.034v7.836c0,0.755-0.61,1.366-1.364,1.366h-6.94v3.485h6.94
			c0.754,0,1.364,0.61,1.364,1.366V35.859z"/>
	</g>
</g>
</svg>
