<?xml version="1.0" encoding="utf-8"?>
<!-- Generator: Adobe Illustrator 15.1.0, SVG Export Plug-In . SVG Version: 6.00 Build 0)  -->
<!DOCTYPE svg PUBLIC "-//W3C//DTD SVG 1.1//EN" "http://www.w3.org/Graphics/SVG/1.1/DTD/svg11.dtd">
<svg version="1.1" id="Layer_1" xmlns="http://www.w3.org/2000/svg" xmlns:xlink="http://www.w3.org/1999/xlink" x="0px" y="0px"
	 width="69px" height="50px" viewBox="0 0 69 50" enable-background="new 0 0 69 50" xml:space="preserve">
<g>
	<g>
		<path fill="#F8F8F8" d="M43.583,21.806h8.308v-9.202h6.764v9.202h8.31v6.219h-8.31v9.199h-6.764v-9.199h-8.308V21.806z"/>
		<path fill="#F8F8F8" d="M58.654,38.59h-6.764c-0.756,0-1.365-0.611-1.365-1.365v-7.836h-6.941c-0.754,0-1.365-0.611-1.365-1.363
			v-6.218c0-0.755,0.611-1.366,1.365-1.366h6.941v-7.836c0-0.754,0.609-1.366,1.365-1.366h6.764c0.756,0,1.367,0.611,1.367,1.366
			v7.836h6.939c0.754,0,1.365,0.611,1.365,1.366v6.218c0,0.752-0.611,1.363-1.365,1.363h-6.939v7.836
			C60.021,37.979,59.409,38.59,58.654,38.59z M53.255,35.859h4.034v-7.836c0-0.756,0.611-1.366,1.365-1.366h6.941v-3.485h-6.941
			c-0.754,0-1.365-0.611-1.365-1.366V13.97h-4.034v7.836c0,0.755-0.61,1.366-1.364,1.366h-6.939v3.485h6.939
			c0.754,0,1.364,0.61,1.364,1.366V35.859z"/>
	</g>
</g>
<path fill="#F8F8F8" d="M17.54,0.666v12.132h11.39v7.536H17.54v12.309c0,2.783,0.146,4.57,0.442,5.359
	c0.293,0.791,0.843,1.42,1.644,1.893c1.062,0.639,2.276,0.955,3.645,0.955c2.429,0,4.847-0.791,7.251-2.371v7.57
	c-2.052,0.967-3.909,1.646-5.57,2.035c-1.663,0.389-3.462,0.582-5.395,0.582c-2.193,0-4.134-0.277-5.819-0.83
	c-1.687-0.555-3.124-1.346-4.315-2.369c-1.191-1.027-2.017-2.117-2.476-3.273c-0.46-1.152-0.69-2.828-0.69-5.021V20.334H0.951
	v-6.793c1.886-0.613,3.502-1.49,4.845-2.635C7.141,9.763,8.22,8.389,9.033,6.785c0.814-1.603,1.374-3.643,1.68-6.119H17.54z"/>
</svg>
