<?xml version="1.0" encoding="utf-8"?>
<!-- Generator: Adobe Illustrator 15.1.0, SVG Export Plug-In . SVG Version: 6.00 Build 0)  -->
<!DOCTYPE svg PUBLIC "-//W3C//DTD SVG 1.1//EN" "http://www.w3.org/Graphics/SVG/1.1/DTD/svg11.dtd">
<svg version="1.1" id="Layer_1" xmlns="http://www.w3.org/2000/svg" xmlns:xlink="http://www.w3.org/1999/xlink" x="0px" y="0px"
	 width="71px" height="71px" viewBox="0 0 71 71" enable-background="new 0 0 71 71" xml:space="preserve">
<path fill="#FFFFFF" d="M0.5,35.5c0-19.33,15.67-35,35-35c19.331,0,35,15.67,35,35s-15.669,35-35,35C16.17,70.5,0.5,54.83,0.5,35.5z
	 M52.266,46.677c1.34-2.01,0.799-4.727-1.214-6.067l-11.177-7.45V13.625c0-2.416-1.959-4.375-4.375-4.375s-4.375,1.959-4.375,4.375
	V35.5c0,1.463,0.731,2.829,1.948,3.641l13.125,8.75c0.747,0.498,1.589,0.735,2.423,0.735C50.035,48.626,51.423,47.941,52.266,46.677
	z"/>
</svg>
