<?xml version="1.0" encoding="utf-8"?>
<!-- Generator: Adobe Illustrator 15.1.0, SVG Export Plug-In . SVG Version: 6.00 Build 0)  -->
<!DOCTYPE svg PUBLIC "-//W3C//DTD SVG 1.1//EN" "http://www.w3.org/Graphics/SVG/1.1/DTD/svg11.dtd">
<svg version="1.1" id="Layer_1" xmlns="http://www.w3.org/2000/svg" xmlns:xlink="http://www.w3.org/1999/xlink" x="0px" y="0px"
	 width="94px" height="94px" viewBox="0 0 94 94" enable-background="new 0 0 94 94" xml:space="preserve">
<g>
	<path fill="#FFFFFF" d="M85.328,32.483H52.449L75.252,9.68c0.9-0.901,0.53-2.733-0.828-4.092c-1.357-1.359-3.189-1.729-4.092-0.827
		L47.221,27.872L20.826,1.478c-1.01-1.009-2.93-0.727-4.288,0.631c-1.357,1.359-1.642,3.278-0.632,4.289l26.085,26.085H8.672
		c-4.064,0-7.359,3.359-7.359,7.502v45.639c0,4.146,3.295,7.505,7.359,7.505h76.656c4.064,0,7.357-3.359,7.357-7.505V39.985
		C92.688,35.842,89.393,32.483,85.328,32.483z M70.143,79.95c0,3.294-2.668,5.964-5.963,5.964H14.731
		c-3.294,0-5.964-2.67-5.964-5.964V45.659c0-3.293,2.67-5.963,5.964-5.963h49.447c3.295,0,5.965,2.67,5.965,5.963V79.95
		L70.143,79.95z M81.587,62.909c-2.206,0-3.991-1.787-3.991-3.991c0-2.205,1.785-3.993,3.991-3.993c2.204,0,3.992,1.788,3.992,3.993
		C85.579,61.122,83.791,62.909,81.587,62.909z M81.587,47.729c-2.206,0-3.991-1.788-3.991-3.993c0-2.206,1.785-3.993,3.991-3.993
		c2.204,0,3.992,1.787,3.992,3.993C85.579,45.941,83.791,47.729,81.587,47.729z"/>
	<path fill="#FFFFFF" d="M85.328,93.5H8.672c-4.264,0-7.731-3.532-7.731-7.876V39.985c0-4.342,3.468-7.875,7.731-7.875h32.42
		L15.644,6.661c-1.154-1.153-0.87-3.313,0.631-4.814C17.13,0.991,18.215,0.5,19.252,0.5c0.735,0,1.37,0.247,1.838,0.715
		l26.131,26.13L70.068,4.498c0.394-0.394,0.938-0.602,1.574-0.602c1.012,0,2.149,0.534,3.045,1.43
		c0.707,0.708,1.19,1.562,1.362,2.406c0.183,0.9-0.009,1.686-0.536,2.212L53.35,32.11h31.979c4.263,0,7.73,3.533,7.73,7.875v45.639
		C93.061,89.968,89.591,93.5,85.328,93.5z M8.672,32.856c-3.853,0-6.986,3.198-6.986,7.129v45.639c0,3.933,3.134,7.131,6.986,7.131
		h76.656c3.852,0,6.986-3.198,6.986-7.131V39.985c0-3.931-3.135-7.129-6.986-7.129H52.449c-0.151,0-0.288-0.091-0.346-0.23
		c-0.057-0.139-0.024-0.299,0.08-0.406L74.988,9.417c0.345-0.345,0.463-0.891,0.332-1.537c-0.144-0.703-0.555-1.422-1.16-2.028
		c-0.758-0.758-1.699-1.21-2.518-1.21c-0.304,0-0.73,0.066-1.049,0.383l-23.11,23.111c-0.145,0.146-0.382,0.146-0.527,0
		L20.562,1.742c-0.324-0.325-0.777-0.496-1.311-0.496c-0.828,0-1.744,0.421-2.45,1.127c-1.211,1.211-1.494,2.898-0.632,3.761
		l26.086,26.085c0.106,0.107,0.138,0.267,0.08,0.406c-0.058,0.14-0.193,0.23-0.345,0.23L8.672,32.856L8.672,32.856z M64.18,86.288
		H14.731c-3.494,0-6.336-2.845-6.336-6.338V45.659c0-3.494,2.842-6.336,6.336-6.336h49.447c3.494,0,6.338,2.843,6.338,6.336V79.95
		C70.516,83.443,67.673,86.288,64.18,86.288z M14.731,40.069c-3.083,0-5.591,2.508-5.591,5.59V79.95
		c0,3.083,2.508,5.591,5.591,5.591h49.447c3.083,0,5.592-2.508,5.592-5.591V45.659c0-3.083-2.509-5.59-5.592-5.59H14.731z
		 M81.587,63.283c-2.407,0-4.366-1.958-4.366-4.365c0-2.406,1.959-4.366,4.366-4.366c2.406,0,4.364,1.96,4.364,4.366
		C85.951,61.325,83.993,63.283,81.587,63.283z M81.587,55.299c-1.997,0-3.62,1.623-3.62,3.619c0,1.995,1.623,3.618,3.62,3.618
		c1.995,0,3.619-1.623,3.619-3.618C85.206,56.922,83.582,55.299,81.587,55.299z M81.587,48.102c-2.407,0-4.366-1.958-4.366-4.365
		c0-2.407,1.959-4.365,4.366-4.365c2.406,0,4.364,1.958,4.364,4.365C85.951,46.144,83.993,48.102,81.587,48.102z M81.587,40.117
		c-1.997,0-3.62,1.624-3.62,3.62c0,1.996,1.623,3.621,3.62,3.621c1.995,0,3.619-1.625,3.619-3.621
		C85.206,41.741,83.582,40.117,81.587,40.117z"/>
</g>
</svg>
