<?xml version="1.0" encoding="utf-8"?>
<!-- Generator: Adobe Illustrator 15.1.0, SVG Export Plug-In . SVG Version: 6.00 Build 0)  -->
<!DOCTYPE svg PUBLIC "-//W3C//DTD SVG 1.1//EN" "http://www.w3.org/Graphics/SVG/1.1/DTD/svg11.dtd">
<svg version="1.1" id="Layer_1" xmlns="http://www.w3.org/2000/svg" xmlns:xlink="http://www.w3.org/1999/xlink" x="0px" y="0px"
	 width="75px" height="66px" viewBox="0 0 75 66" enable-background="new 0 0 75 66" xml:space="preserve">
<g>
	<g>
		<path fill="#FFFFFF" d="M37.502,63.514c-0.306,0-0.611-0.094-0.87-0.279c-1.298-0.938-2.548-1.836-3.752-2.7
			C16.325,48.634,8.016,42.662,3.896,30.565C1.49,22.947,2.337,15.814,6.271,10.446c3.654-4.984,9.585-7.96,15.867-7.96
			c6.375,0,11.947,3.111,15.364,8.449c3.417-5.338,8.988-8.449,15.361-8.449c6.281,0,12.214,2.976,15.865,7.96
			c3.936,5.368,4.781,12.501,2.388,20.087c-4.13,12.125-12.435,18.095-28.978,29.99c-1.209,0.867-2.464,1.77-3.767,2.709
			C38.111,63.42,37.807,63.514,37.502,63.514z"/>
		<path fill="#FFFFFF" d="M52.863,3.973c10.908,0,21.919,10.009,16.835,26.113c-4.253,12.487-12.899,18.02-32.196,31.941
			C18.2,48.105,9.555,42.573,5.302,30.086C0.217,13.98,11.228,3.972,22.137,3.973c6.094,0,12.157,3.124,15.365,10.053
			C40.708,7.095,46.77,3.973,52.863,3.973 M52.863,1c-6.168,0-11.637,2.687-15.362,7.377C33.776,3.687,28.306,1,22.137,1
			C15.384,1,9.005,4.202,5.072,9.567c-4.221,5.759-5.146,13.364-2.604,21.414c0.007,0.021,0.014,0.042,0.021,0.063
			c4.273,12.547,12.712,18.612,29.524,30.695c1.203,0.864,2.453,1.764,3.75,2.698C36.282,64.812,36.892,65,37.502,65
			c0.609,0,1.221-0.188,1.739-0.562c1.302-0.938,2.557-1.84,3.764-2.709C59.807,49.65,68.24,43.588,72.512,31.044
			c0.008-0.021,0.016-0.042,0.021-0.063c2.541-8.049,1.615-15.653-2.605-21.413C65.996,4.203,59.616,1,52.863,1L52.863,1z"/>
	</g>
</g>
</svg>
