<?xml version="1.0" encoding="UTF-8" standalone="no"?>
<!-- Created with Inkscape (http://www.inkscape.org/) -->
<svg
   xmlns:dc="http://purl.org/dc/elements/1.1/"
   xmlns:cc="http://creativecommons.org/ns#"
   xmlns:rdf="http://www.w3.org/1999/02/22-rdf-syntax-ns#"
   xmlns:svg="http://www.w3.org/2000/svg"
   xmlns="http://www.w3.org/2000/svg"
   xmlns:sodipodi="http://sodipodi.sourceforge.net/DTD/sodipodi-0.dtd"
   xmlns:inkscape="http://www.inkscape.org/namespaces/inkscape"
   id="svg2473"
   sodipodi:version="0.32"
   inkscape:version="0.46"
   width="2400"
   height="2400"
   version="1.0"
   sodipodi:docname="PAPERCLIP.svg"
   inkscape:output_extension="org.inkscape.output.svg.inkscape">
  <metadata
     id="metadata2478">
    <rdf:RDF>
      <cc:Work
         rdf:about="">
        <dc:format>image/svg+xml</dc:format>
        <dc:type
           rdf:resource="http://purl.org/dc/dcmitype/StillImage" />
      </cc:Work>
    </rdf:RDF>
  </metadata>
  <defs
     id="defs2476">
    <inkscape:perspective
       sodipodi:type="inkscape:persp3d"
       inkscape:vp_x="0 : 526.18109 : 1"
       inkscape:vp_y="0 : 1000 : 0"
       inkscape:vp_z="744.09448 : 526.18109 : 1"
       inkscape:persp3d-origin="372.04724 : 350.78739 : 1"
       id="perspective2480" />
  </defs>
  <sodipodi:namedview
     inkscape:window-height="718"
     inkscape:window-width="1366"
     inkscape:pageshadow="2"
     inkscape:pageopacity="0.0"
     guidetolerance="10.0"
     gridtolerance="10.0"
     objecttolerance="10.0"
     borderopacity="1.0"
     bordercolor="#666666"
     pagecolor="#ffffff"
     id="base"
     showgrid="false"
     inkscape:zoom="0.1925"
     inkscape:cx="1200"
     inkscape:cy="1200"
     inkscape:window-x="-8"
     inkscape:window-y="-8"
     inkscape:current-layer="svg2473" />
  <path
     style="fill:#000000"
     d="M 1160.2662,2214.4159 C 1072.4668,2209.7193 993.51939,2190.0076 935.34089,2158.2561 C 903.70779,2140.992 881.25789,2124.1408 858.20639,2100.3581 C 815.54599,2056.3443 791.77229,2005.7233 781.03259,1936.0324 C 779.45209,1925.7769 779.31639,1873.2557 779.02749,1160.0324 C 778.74659,466.76166 778.86579,394.00107 780.29909,384.03247 C 787.99569,330.4997 818.14729,284.68263 869.77849,248.06339 C 922.52649,210.65209 998.10829,184.65764 1074.7662,177.56304 C 1104.6179,174.80031 1147.1504,175.2655 1172.7662,178.63489 C 1279.0086,192.60952 1369.4506,249.34448 1406.9379,325.53247 C 1416.1031,344.15952 1421.8459,362.31336 1425.444,384.03247 C 1427.192,394.5845 1427.2662,418.28596 1427.2662,966.03247 C 1427.2662,1510.6861 1427.1832,1537.5793 1425.4674,1548.885 C 1418.6687,1593.6825 1402.0041,1629.0916 1374.7662,1656.6151 C 1354.609,1676.9837 1332.9602,1690.5914 1303.9182,1701.1476 C 1256.6905,1718.314 1185.9523,1721.8703 1127.2182,1710.0312 C 1032.5971,1690.9582 978.64379,1636.3319 971.65979,1552.5324 C 970.83129,1542.5911 970.77329,1440.4446 971.43979,1165.0324 L 972.34499,791.03247 L 974.71419,785.03247 C 979.77889,772.20582 995.51399,760.59663 1012.8014,756.93207 C 1023.9683,754.56493 1039.9155,755.42147 1050.2281,758.94231 C 1066.2791,764.42231 1078.5855,775.65092 1082.5149,788.40156 C 1084.1514,793.71167 1084.2323,815.53879 1083.9364,1171.5324 C 1083.5895,1588.8185 1083.1086,1555.8201 1089.8288,1575.8786 C 1094.0257,1588.4053 1099.7752,1597.75 1108.6893,1606.5324 C 1128.9305,1626.4744 1157.7324,1633.7156 1210.7662,1632.196 C 1244.9116,1631.2176 1261.0156,1627.5034 1276.9009,1616.9429 C 1297.9027,1602.9809 1310.1393,1577.7671 1313.704,1541.1087 C 1314.4396,1533.5445 1314.7644,1356.8618 1314.7603,966.60879 C 1314.754,358.81069 1315.0624,395.51236 1309.8034,376.80475 C 1299.1875,339.04143 1269.4098,305.83804 1227.2154,284.71562 C 1187.7453,264.95702 1145.3991,257.53414 1095.1615,261.56786 C 1031.0972,266.71177 970.60179,288.76204 934.26619,320.21345 C 913.19419,338.45305 899.90409,359.70258 893.45389,385.4687 L 891.30999,394.03247 L 890.98629,1144.0324 C 890.75559,1678.4714 890.97609,1898.631 891.75359,1910.0324 C 893.61909,1937.3884 897.11449,1956.3614 904.35339,1978.4227 C 933.63059,2067.6485 1015.4491,2118.3875 1146.2662,2128.4427 C 1172.5257,2130.4611 1179.6722,2130.6142 1199.2662,2129.578 C 1299.5133,2124.2766 1366.5331,2105.8779 1416.7169,2069.882 C 1429.1489,2060.9647 1450.4548,2039.6167 1458.9829,2027.5324 C 1479.4748,1998.4953 1491.7113,1962.5486 1495.857,1919.2086 C 1496.6984,1910.412 1496.6961,1758.5902 1495.848,1326.2086 C 1494.8613,823.16889 1494.9001,744.3952 1496.1363,740.29245 C 1500.5768,725.55522 1514.54,713.88778 1533.7662,708.84954 C 1542.3527,706.59945 1558.9438,706.61837 1568.2016,708.8888 C 1584.1049,712.78901 1597.9189,723.00411 1604.0047,735.36431 L 1607.2662,741.98839 L 1607.4764,825.01043 C 1609.1923,1502.8614 1609.6623,1906.7064 1608.7486,1918.0324 C 1605.2847,1960.9696 1596.196,1995.5001 1579.2625,2030.0576 C 1533.8707,2122.6927 1437.3716,2182.0209 1294.7662,2204.9677 C 1266.7151,2209.4815 1231.4132,2212.9737 1203.2662,2214.0192 C 1195.0162,2214.3257 1185.3412,2214.7209 1181.7662,2214.8974 C 1178.1912,2215.0739 1168.5162,2214.8573 1160.2662,2214.4159 z"
     id="path2484" />
</svg>
