<?xml version="1.0" encoding="utf-8"?>
<!-- Generator: Adobe Illustrator 15.1.0, SVG Export Plug-In . SVG Version: 6.00 Build 0)  -->
<!DOCTYPE svg PUBLIC "-//W3C//DTD SVG 1.1//EN" "http://www.w3.org/Graphics/SVG/1.1/DTD/svg11.dtd">
<svg version="1.1" id="Layer_1" xmlns="http://www.w3.org/2000/svg" xmlns:xlink="http://www.w3.org/1999/xlink" x="0px" y="0px"
	 width="14px" height="15px" viewBox="0 0 14 15" enable-background="new 0 0 14 15" xml:space="preserve">
<g>
	<g>
		<rect x="0.963" y="0.914" fill="#5377BB" width="3.561" height="13.171"/>
		<path fill="#5377BB" d="M4.524,15H0.963C0.431,15,0,14.59,0,14.085V0.914C0,0.409,0.431,0,0.963,0h3.561
			c0.532,0,0.963,0.41,0.963,0.915v13.171C5.488,14.59,5.057,15,4.524,15z M1.927,13.171h1.634V1.829H1.927V13.171z"/>
	</g>
	<g>
		<rect x="9.475" y="0.914" fill="#5377BB" width="3.562" height="13.171"/>
		<path fill="#5377BB" d="M13.036,15H9.475c-0.531,0-0.964-0.41-0.964-0.915V0.914C8.511,0.409,8.943,0,9.475,0h3.562
			C13.569,0,14,0.409,14,0.914v13.171C14,14.59,13.569,15,13.036,15z M10.438,13.171h1.635V1.829h-1.635V13.171z"/>
	</g>
</g>
</svg>
