<?xml version="1.0" encoding="utf-8"?>
<!-- Generator: Adobe Illustrator 15.1.0, SVG Export Plug-In . SVG Version: 6.00 Build 0)  -->
<!DOCTYPE svg PUBLIC "-//W3C//DTD SVG 1.1//EN" "http://www.w3.org/Graphics/SVG/1.1/DTD/svg11.dtd">
<svg version="1.1" id="Layer_1" xmlns="http://www.w3.org/2000/svg" xmlns:xlink="http://www.w3.org/1999/xlink" x="0px" y="0px"
	 width="31px" height="12px" viewBox="0 0 31 12" enable-background="new 0 0 31 12" xml:space="preserve">
<g>
	<path fill="#555555" d="M6.884,0.448H9.38v11.089H6.884V6.832H2.693v4.705H0.197V0.448h2.496v4.239h4.191V0.448z"/>
	<path fill="#555555" d="M21.652,5.984c0,0.961-0.148,1.798-0.447,2.512c-0.299,0.715-0.723,1.307-1.271,1.777
		c-0.551,0.469-1.219,0.819-2.01,1.055c-0.789,0.234-1.674,0.352-2.655,0.352c-0.448,0-0.971-0.018-1.568-0.055
		c-0.597-0.037-1.184-0.115-1.76-0.232v-10.8c0.576-0.105,1.176-0.179,1.8-0.217c0.624-0.037,1.16-0.056,1.608-0.056
		c0.95,0,1.809,0.105,2.584,0.32c0.771,0.213,1.436,0.549,1.989,1.008s0.981,1.045,1.281,1.76S21.652,4.98,21.652,5.984z
		 M14.437,9.504c0.117,0.012,0.253,0.02,0.407,0.025c0.155,0.004,0.339,0.008,0.553,0.008c1.248,0,2.173-0.314,2.775-0.944
		c0.604-0.63,0.904-1.499,0.904-2.608c0-1.161-0.287-2.043-0.863-2.639c-0.576-0.599-1.488-0.896-2.736-0.896
		c-0.171,0-0.347,0.003-0.528,0.008c-0.182,0.006-0.353,0.021-0.512,0.04V9.504z"/>
</g>
</svg>
