<?xml version="1.0" encoding="utf-8"?>
<!-- Generator: Adobe Illustrator 15.1.0, SVG Export Plug-In . SVG Version: 6.00 Build 0)  -->
<!DOCTYPE svg PUBLIC "-//W3C//DTD SVG 1.1//EN" "http://www.w3.org/Graphics/SVG/1.1/DTD/svg11.dtd">
<svg version="1.1" id="Layer_1" xmlns="http://www.w3.org/2000/svg" xmlns:xlink="http://www.w3.org/1999/xlink" x="0px" y="0px"
	 width="31px" height="12px" viewBox="0 0 31 12" enable-background="new 0 0 31 12" xml:space="preserve">
<g>
	<g>
		<path fill="#B2B3B3" d="M24.4,3.13l1.57,1.64l1.73-1.656l1.277,1.336l-1.731,1.66l1.567,1.64l-1.174,1.123L26.074,7.23
			l-1.735,1.658l-1.278-1.338l1.734-1.657l-1.568-1.642L24.4,3.13z"/>
		<path fill="#B2B3B3" d="M24.081,9.135l-1.278-1.338C22.66,7.648,22.658,7.418,22.8,7.281l1.478-1.413l-1.311-1.371
			c-0.144-0.149-0.142-0.381-0.003-0.517l1.175-1.123c0.141-0.135,0.37-0.125,0.516,0.025l1.312,1.369l1.479-1.411
			c0.143-0.136,0.373-0.125,0.518,0.025l1.279,1.336c0.142,0.149,0.142,0.38,0.001,0.516l-1.479,1.414L29.076,7.5
			c0.143,0.146,0.14,0.381,0.001,0.52l-1.175,1.119c-0.143,0.135-0.373,0.125-0.514-0.025l-1.312-1.367l-1.479,1.41
			C24.452,9.295,24.223,9.281,24.081,9.135z M23.578,7.578l0.763,0.797l1.476-1.411c0.146-0.138,0.373-0.126,0.52,0.022l1.312,1.369
			l0.66-0.627l-1.312-1.372c-0.145-0.148-0.145-0.379-0.003-0.519l1.479-1.413l-0.764-0.797L26.23,5.043
			c-0.145,0.139-0.375,0.124-0.52-0.025L24.4,3.646l-0.659,0.629l1.313,1.371c0.141,0.148,0.145,0.381,0,0.52L23.578,7.578
			L23.578,7.578z"/>
	</g>
</g>
<g>
	<path fill="#B2B3B3" d="M6.884,0.448H9.38v11.089H6.884V6.832H2.693v4.705H0.197V0.448h2.496v4.239h4.191V0.448z"/>
	<path fill="#B2B3B3" d="M21.652,5.984c0,0.961-0.148,1.798-0.447,2.512c-0.299,0.715-0.723,1.307-1.271,1.777
		c-0.551,0.469-1.219,0.818-2.01,1.055c-0.789,0.234-1.674,0.352-2.655,0.352c-0.448,0-0.971-0.018-1.568-0.055
		c-0.597-0.037-1.184-0.115-1.76-0.232v-10.8c0.576-0.105,1.176-0.179,1.8-0.217c0.624-0.037,1.16-0.056,1.608-0.056
		c0.95,0,1.809,0.105,2.584,0.32c0.771,0.213,1.436,0.549,1.988,1.008s0.98,1.045,1.281,1.76C21.503,4.123,21.652,4.98,21.652,5.984
		z M14.437,9.504c0.117,0.012,0.253,0.02,0.407,0.025c0.155,0.004,0.339,0.008,0.553,0.008c1.248,0,2.173-0.314,2.775-0.944
		c0.604-0.63,0.904-1.499,0.904-2.608c0-1.161-0.287-2.043-0.863-2.639c-0.576-0.599-1.488-0.896-2.736-0.896
		c-0.171,0-0.347,0.003-0.528,0.008c-0.182,0.006-0.353,0.021-0.512,0.04V9.504z"/>
</g>
</svg>
