<?xml version="1.0" encoding="utf-8"?>
<!-- Generator: Adobe Illustrator 16.0.3, SVG Export Plug-In . SVG Version: 6.00 Build 0)  -->
<!DOCTYPE svg PUBLIC "-//W3C//DTD SVG 1.1//EN" "http://www.w3.org/Graphics/SVG/1.1/DTD/svg11.dtd">
<svg version="1.1" id="Layer_1" xmlns="http://www.w3.org/2000/svg" xmlns:xlink="http://www.w3.org/1999/xlink" x="0px" y="0px"
	 width="32px" height="32px" viewBox="0 0 32 32" enable-background="new 0 0 32 32" xml:space="preserve">
<g>
	<path fill="#666666" d="M29.609,2.052h-17.15h-0.316H2.389C1.621,2.052,1,2.675,1,3.443V28.56c0,0.769,0.621,1.389,1.389,1.389
		h9.754h0.317h17.149c0.77,0,1.391-0.62,1.391-1.389V3.443C31,2.675,30.379,2.052,29.609,2.052z M3.781,4.834h6.971v22.337H3.781
		V4.834z M13.851,27.171V4.834h14.37v10.127h-6.482l1.633-1.612c0.08-0.076,0.123-0.181,0.123-0.29c0-0.111-0.041-0.215-0.12-0.294
		l-1.437-1.438c-0.076-0.078-0.184-0.121-0.291-0.121s-0.215,0.043-0.291,0.121l-4.657,4.659c-0.076,0.076-0.121,0.182-0.121,0.291
		s0.045,0.214,0.121,0.29l4.551,4.547c0.158,0.16,0.416,0.162,0.578,0.007l1.521-1.478c0.078-0.078,0.125-0.184,0.125-0.293
		c0-0.107-0.043-0.217-0.121-0.293l-1.574-1.574h6.447v9.69H13.851V27.171z"/>
</g>
</svg>
