<?xml version="1.0" encoding="utf-8"?>
<!-- Generator: Adobe Illustrator 16.0.1, SVG Export Plug-In . SVG Version: 6.00 Build 0)  -->
<!DOCTYPE svg PUBLIC "-//W3C//DTD SVG 1.1//EN" "http://www.w3.org/Graphics/SVG/1.1/DTD/svg11.dtd">
<svg version="1.1" id="Layer_1" xmlns="http://www.w3.org/2000/svg" xmlns:xlink="http://www.w3.org/1999/xlink" x="0px" y="0px"
	 width="19px" height="20px" viewBox="0 0 19 20" enable-background="new 0 0 19 20" xml:space="preserve">
<g>
	<g>
		<path fill="#E2E2E2" d="M18.021,10.031c0-0.336-0.119-0.649-0.31-0.904c-0.073-0.181-0.177-0.35-0.329-0.501l-4.697-4.697
			c-0.574-0.575-1.502-0.572-2.076,0.001c-0.576,0.577-0.573,1.502-0.002,2.077l2.522,2.521L3.175,8.53
			c-0.832,0-1.504,0.674-1.501,1.504c0,0.825,0.674,1.501,1.501,1.501l9.894-0.008l-2.463,2.465c-0.571,0.57-0.57,1.503,0.006,2.078
			c0.565,0.572,1.502,0.576,2.074,0.003l4.698-4.697c0.103-0.104,0.181-0.224,0.247-0.338C17.87,10.771,18.021,10.421,18.021,10.031
			z"/>
	</g>
	<g>
		<path fill="#E2E2E2" d="M2.579,18.104c-0.884,0-1.601-0.718-1.601-1.602V3.498c0-0.884,0.717-1.601,1.601-1.601
			c0.884,0,1.601,0.717,1.601,1.601v13.004C4.18,17.386,3.463,18.104,2.579,18.104z"/>
	</g>
</g>
</svg>
