<?xml version="1.0" encoding="utf-8"?>
<!-- Generator: Adobe Illustrator 16.0.3, SVG Export Plug-In . SVG Version: 6.00 Build 0)  -->
<!DOCTYPE svg PUBLIC "-//W3C//DTD SVG 1.1//EN" "http://www.w3.org/Graphics/SVG/1.1/DTD/svg11.dtd">
<svg version="1.1" id="Layer_1" xmlns="http://www.w3.org/2000/svg" xmlns:xlink="http://www.w3.org/1999/xlink" x="0px" y="0px"
	 width="46.875px" height="32px" viewBox="0 0 46.875 32" enable-background="new 0 0 46.875 32" xml:space="preserve">
<g>
	<path fill="#666666" d="M23.604,1.489c-1.041-0.653-2.328-0.653-3.367,0l-9.708,6.072H4.07c-1.726,0-3.133,1.524-3.133,3.397v9.629
		c0,1.872,1.407,3.396,3.133,3.396h5.735l10.435,6.526C20.762,30.839,21.343,31,21.925,31c0.579,0,1.16-0.161,1.68-0.484
		c1.045-0.652,1.687-1.858,1.687-3.162V4.65C25.291,3.345,24.652,2.141,23.604,1.489z"/>
	<path fill="#666666" d="M37.885,15.997c0-4.911-3.691-8.91-8.223-8.91c-0.104,0-0.186,0.089-0.186,0.196v2.903
		c0,0.109,0.08,0.196,0.186,0.196c2.857,0,5.186,2.52,5.186,5.616c0,3.092-2.334,5.616-5.186,5.616
		c-0.104,0-0.186,0.084-0.186,0.194v2.906c0,0.104,0.08,0.196,0.186,0.196C34.201,24.912,37.893,20.913,37.885,15.997z"/>
	<path fill="#666666" d="M42.203,6.721c-2.43-3.409-5.107-5.446-7.17-5.446c-0.096,0-0.186,0.089-0.186,0.197v2.907
		c0,0.107,0.09,0.196,0.186,0.196c2.898,0,7.859,8.424,7.859,11.424c0,2.998-4.957,11.424-7.859,11.424
		c-0.096,0-0.186,0.088-0.186,0.197v2.907c0,0.1,0.09,0.193,0.186,0.193c4.686,0,10.904-10.225,10.904-14.9
		C45.938,13.479,44.469,9.907,42.203,6.721z"/>
</g>
</svg>
