<?xml version="1.0" encoding="utf-8"?>
<!-- Generator: Adobe Illustrator 15.1.0, SVG Export Plug-In . SVG Version: 6.00 Build 0)  -->
<!DOCTYPE svg PUBLIC "-//W3C//DTD SVG 1.1//EN" "http://www.w3.org/Graphics/SVG/1.1/DTD/svg11.dtd">
<svg version="1.1" id="Layer_1" xmlns="http://www.w3.org/2000/svg" xmlns:xlink="http://www.w3.org/1999/xlink" x="0px" y="0px"
	 width="30px" height="20px" viewBox="0 0 30 20" enable-background="new 0 0 30 20" xml:space="preserve">
<g>
	<path fill="#B2B3B3" d="M3.832,13.583c-0.578,0-1.049-0.511-1.049-1.136V7.312c0-0.627,0.471-1.137,1.049-1.137h3.956
		c0.579,0,1.05,0.51,1.05,1.137v5.136c0,0.624-0.471,1.136-1.05,1.136H3.832L3.832,13.583z"/>
	<path fill="#B2B3B3" d="M7.787,6.848c0.236,0,0.428,0.207,0.428,0.463v5.136c0,0.253-0.192,0.461-0.428,0.461H3.832
		c-0.236,0-0.427-0.208-0.427-0.461V7.312c0-0.256,0.191-0.463,0.427-0.463H7.787 M7.787,5.5H3.832
		c-0.921,0-1.671,0.813-1.671,1.812v5.136c0,0.998,0.75,1.809,1.671,1.809h3.956c0.921,0,1.671-0.811,1.671-1.809V7.312
		C9.459,6.313,8.709,5.5,7.787,5.5L7.787,5.5z"/>
	<polygon fill="#B2B3B3" points="6.589,9.878 5.671,8.751 8.514,6.973 13.353,3.946 13.353,10 13.353,16.053 8.514,13.026 
		5.757,11.303 	"/>
	<path fill="#B2B3B3" d="M13.353,18c-0.311,0-0.62-0.086-0.898-0.261l-7.595-4.75c-0.423-0.266-0.729-0.706-0.847-1.221
		c-0.117-0.514-0.035-1.058,0.227-1.505l0.111-0.19l-0.026-0.032C3.968,9.603,3.811,9.015,3.897,8.438
		c0.087-0.576,0.408-1.08,0.875-1.371l7.683-4.806c0.556-0.348,1.24-0.348,1.796,0c0.557,0.348,0.899,0.99,0.899,1.686v12.108
		c0,0.695-0.343,1.338-0.899,1.683C13.973,17.914,13.663,18,13.353,18z M8.252,10.615l3.304,2.067V7.317l-3.24,2.027
		C8.425,9.759,8.406,10.207,8.252,10.615z"/>
	<g>
		<g>
			<path fill="#B2B3B3" d="M18.829,7.118l1.285,1.284l1.355-1.356l1.047,1.046L21.159,9.45l1.284,1.284l-0.919,0.92l-1.284-1.285
				l-1.357,1.358l-1.047-1.047l1.357-1.359l-1.284-1.285L18.829,7.118z"/>
			<path fill="#B2B3B3" d="M18.68,11.927l-1.046-1.047c-0.117-0.116-0.121-0.302-0.012-0.413l1.157-1.157l-1.073-1.073
				c-0.117-0.117-0.12-0.302-0.012-0.412l0.918-0.92c0.111-0.111,0.295-0.106,0.414,0.011l1.072,1.073l1.156-1.156
				c0.111-0.111,0.297-0.106,0.417,0.011l1.046,1.046c0.116,0.117,0.119,0.302,0.01,0.413L21.57,9.46l1.073,1.072
				c0.117,0.116,0.12,0.302,0.012,0.413l-0.916,0.917c-0.113,0.111-0.297,0.106-0.414-0.011l-1.074-1.072l-1.156,1.155
				C18.979,12.049,18.796,12.042,18.68,11.927z M18.25,10.69l0.625,0.625l1.153-1.156c0.115-0.112,0.297-0.107,0.415,0.01
				l1.073,1.071l0.516-0.513l-1.073-1.074c-0.117-0.117-0.122-0.301-0.011-0.414l1.156-1.156l-0.623-0.624l-1.156,1.157
				c-0.113,0.112-0.299,0.104-0.414-0.012l-1.074-1.073L18.32,8.046l1.075,1.074c0.115,0.115,0.123,0.302,0.011,0.414L18.25,10.69
				L18.25,10.69z"/>
		</g>
	</g>
</g>
</svg>
