<?xml version="1.0" encoding="utf-8"?>
<!-- Generator: Adobe Illustrator 15.1.0, SVG Export Plug-In . SVG Version: 6.00 Build 0)  -->
<!DOCTYPE svg PUBLIC "-//W3C//DTD SVG 1.1//EN" "http://www.w3.org/Graphics/SVG/1.1/DTD/svg11.dtd">
<svg version="1.1" id="Layer_1" xmlns="http://www.w3.org/2000/svg" xmlns:xlink="http://www.w3.org/1999/xlink" x="0px" y="0px"
	 width="19px" height="20px" viewBox="0 0 19 20" enable-background="new 0 0 19 20" xml:space="preserve">
<path fill="#B7B7B7" d="M7.792,8.219c0.149-0.15,0.234-0.339,0.262-0.535C8.101,7.57,8.129,7.448,8.129,7.316V3.165
	c0-0.508-0.411-0.917-0.918-0.917s-0.918,0.41-0.918,0.917v2.23l-4.4-4.399c-0.367-0.368-0.961-0.368-1.326,0
	C0.2,1.363,0.2,1.958,0.566,2.323l4.372,4.37H2.763c-0.507,0-0.917,0.413-0.917,0.919C1.845,8.117,2.256,8.53,2.763,8.53h4.151
	c0.091,0.001,0.177-0.016,0.258-0.04C7.397,8.479,7.619,8.39,7.792,8.219z"/>
<path fill="#B7B7B7" d="M7.804,11.779c-0.15-0.147-0.339-0.233-0.535-0.262c-0.114-0.047-0.236-0.076-0.368-0.076H2.75
	c-0.508,0-0.917,0.412-0.917,0.918c0,0.509,0.411,0.918,0.917,0.918h2.23l-4.399,4.399c-0.368,0.367-0.368,0.962,0,1.326
	c0.367,0.367,0.961,0.367,1.327,0.002l4.37-4.372v2.176c0,0.506,0.413,0.916,0.919,0.916c0.504,0.002,0.917-0.41,0.917-0.916v-4.151
	c0.001-0.091-0.017-0.177-0.041-0.259C8.064,12.175,7.975,11.954,7.804,11.779z"/>
<path fill="#B7B7B7" d="M11.238,11.781c-0.148,0.148-0.234,0.339-0.262,0.535C10.93,12.43,10.9,12.551,10.9,12.684v4.151
	c0,0.508,0.412,0.917,0.918,0.917c0.508,0,0.918-0.41,0.918-0.917v-2.229l4.399,4.398c0.367,0.367,0.962,0.367,1.326-0.001
	c0.367-0.366,0.367-0.961,0.002-1.327l-4.373-4.369h2.177c0.506,0,0.916-0.412,0.916-0.92c0.002-0.504-0.41-0.918-0.916-0.918
	h-4.152c-0.09,0-0.176,0.018-0.258,0.041C11.633,11.521,11.412,11.609,11.238,11.781z"/>
<path fill="#B7B7B7" d="M11.227,8.22c0.148,0.148,0.338,0.234,0.534,0.262c0.114,0.047,0.235,0.076,0.368,0.076h4.15
	c0.509,0,0.918-0.412,0.918-0.918c0-0.508-0.41-0.918-0.918-0.918H14.05l4.399-4.4c0.367-0.367,0.367-0.961-0.001-1.326
	c-0.366-0.367-0.962-0.367-1.327-0.002l-4.369,4.373V3.191c0-0.506-0.413-0.916-0.92-0.916c-0.504-0.002-0.918,0.41-0.918,0.916
	v4.152c0,0.09,0.018,0.176,0.041,0.258C10.966,7.826,11.055,8.046,11.227,8.22z"/>
</svg>
