<?xml version="1.0" encoding="utf-8"?>
<!-- Generator: Adobe Illustrator 15.1.0, SVG Export Plug-In . SVG Version: 6.00 Build 0)  -->
<!DOCTYPE svg PUBLIC "-//W3C//DTD SVG 1.1//EN" "http://www.w3.org/Graphics/SVG/1.1/DTD/svg11.dtd">
<svg version="1.1" id="Layer_1" xmlns="http://www.w3.org/2000/svg" xmlns:xlink="http://www.w3.org/1999/xlink" x="0px" y="0px"
	 width="17px" height="19px" viewBox="0 0 17 19" enable-background="new 0 0 17 19" xml:space="preserve">
<g>
	<polygon fill="#B2B3B3" points="14.682,9.5 8.5,13.086 2.318,16.672 2.318,9.5 2.318,2.329 8.5,5.914 	"/>
	<path fill="#B2B3B3" d="M2.318,19c-0.4,0-0.801-0.104-1.159-0.312C0.442,18.272,0,17.504,0,16.672V2.329
		c0-0.832,0.442-1.601,1.159-2.017s1.601-0.417,2.318,0l12.364,7.171C16.559,7.899,17,8.668,17,9.5s-0.441,1.602-1.159,2.017
		L3.478,18.688C3.119,18.896,2.718,19,2.318,19z M4.636,6.362v6.275l5.41-3.138L4.636,6.362z"/>
</g>
</svg>
