<?xml version="1.0" encoding="utf-8"?>
<!-- Generator: Adobe Illustrator 15.1.0, SVG Export Plug-In . SVG Version: 6.00 Build 0)  -->
<!DOCTYPE svg PUBLIC "-//W3C//DTD SVG 1.1//EN" "http://www.w3.org/Graphics/SVG/1.1/DTD/svg11.dtd">
<svg version="1.1" id="Layer_1" xmlns="http://www.w3.org/2000/svg" xmlns:xlink="http://www.w3.org/1999/xlink" x="0px" y="0px"
	 width="19px" height="20px" viewBox="0 0 19 20" enable-background="new 0 0 19 20" xml:space="preserve">
<g>
	<g>
		<path fill="#B7B7B7" d="M0.407,0.417c-0.18,0.192-0.283,0.435-0.314,0.685C0.033,1.246,0,1.404,0,1.57v5.308
			c0,0.648,0.493,1.174,1.102,1.174s1.102-0.526,1.102-1.174V4.027l6.522,6.952c0.439,0.469,1.152,0.469,1.592,0
			c0.438-0.469,0.438-1.229,0-1.696L3.829,2.367h2.608c0.608,0,1.102-0.526,1.102-1.174S7.046,0.019,6.438,0.018H1.457
			c-0.108,0-0.21,0.021-0.309,0.052C0.878,0.085,0.613,0.198,0.407,0.417z"/>
		<path fill="#B7B7B7" d="M18.626,0.435c-0.181-0.192-0.408-0.302-0.644-0.336C17.848,0.036,17.699,0,17.543,0h-4.98
			c-0.607,0-1.103,0.526-1.103,1.174s0.494,1.174,1.103,1.174h2.677L8.716,9.3c-0.439,0.468-0.439,1.228,0,1.696
			c0.439,0.468,1.152,0.469,1.593,0l6.487-6.915V6.86c0,0.648,0.493,1.174,1.103,1.174c0.608,0,1.101-0.525,1.102-1.174
			l-0.001-5.309C19,1.437,18.979,1.328,18.95,1.223C18.938,0.936,18.831,0.653,18.626,0.435z"/>
	</g>
	<g>
		<path fill="#B7B7B7" d="M18.592,19.583c0.182-0.192,0.283-0.435,0.315-0.687c0.059-0.144,0.092-0.301,0.093-0.467v-5.31
			c-0.001-0.647-0.494-1.175-1.104-1.175c-0.608,0-1.102,0.525-1.102,1.175v2.853l-6.521-6.952c-0.439-0.468-1.151-0.468-1.592,0
			c-0.439,0.468-0.439,1.228,0,1.696l6.488,6.915h-2.606c-0.608,0-1.104,0.525-1.104,1.175c0,0.648,0.494,1.174,1.104,1.174h4.98
			c0.107,0,0.21-0.021,0.309-0.054C18.121,19.915,18.387,19.802,18.592,19.583z"/>
		<path fill="#B7B7B7" d="M0.374,19.564c0.181,0.192,0.407,0.303,0.643,0.336C1.151,19.964,1.3,20,1.456,20h4.981
			c0.608,0,1.102-0.525,1.102-1.174c0-0.649-0.493-1.176-1.102-1.176H3.761l6.522-6.95c0.439-0.469,0.439-1.228,0-1.696
			c-0.439-0.468-1.152-0.469-1.592,0l-6.488,6.915v-2.778c0-0.648-0.493-1.175-1.102-1.175S0,12.491,0,13.141v5.309
			c0,0.115,0.021,0.224,0.049,0.328C0.062,19.062,0.168,19.348,0.374,19.564z"/>
	</g>
</g>
</svg>
