<?xml version="1.0" encoding="utf-8"?>
<!-- Generator: Adobe Illustrator 15.1.0, SVG Export Plug-In . SVG Version: 6.00 Build 0)  -->
<!DOCTYPE svg PUBLIC "-//W3C//DTD SVG 1.1//EN" "http://www.w3.org/Graphics/SVG/1.1/DTD/svg11.dtd">
<svg version="1.1" id="Layer_1" xmlns="http://www.w3.org/2000/svg" xmlns:xlink="http://www.w3.org/1999/xlink" x="0px" y="0px"
	 width="14px" height="15px" viewBox="0 0 14 15" enable-background="new 0 0 14 15" xml:space="preserve">
<g>
	<polygon fill="#5377BB" points="12.091,7.664 7,10.494 1.909,13.325 1.909,7.664 1.909,2.002 7,4.833 	"/>
	<path fill="#5377BB" d="M1.909,15.163c-0.33,0-0.659-0.082-0.955-0.246C0.364,14.589,0,13.981,0,13.325V2.002
		C0,1.345,0.364,0.738,0.955,0.41s1.318-0.329,1.909,0l10.182,5.662C13.637,6.399,14,7.006,14,7.664
		c0,0.657-0.363,1.263-0.954,1.592L2.864,14.917C2.568,15.081,2.239,15.163,1.909,15.163z M3.818,5.187v4.954l4.455-2.477
		L3.818,5.187z"/>
</g>
</svg>
