<?xml version="1.0" encoding="utf-8"?>
<!-- Generator: Adobe Illustrator 15.1.0, SVG Export Plug-In . SVG Version: 6.00 Build 0)  -->
<!DOCTYPE svg PUBLIC "-//W3C//DTD SVG 1.1//EN" "http://www.w3.org/Graphics/SVG/1.1/DTD/svg11.dtd">
<svg version="1.1" id="Layer_1" xmlns="http://www.w3.org/2000/svg" xmlns:xlink="http://www.w3.org/1999/xlink" x="0px" y="0px"
	 width="30px" height="20px" viewBox="0 0 30 20" enable-background="new 0 0 30 20" xml:space="preserve">
<g>
	<path fill="#B2B3B3" d="M2.089,14.479c-0.723,0-1.312-0.638-1.312-1.42V6.639c0-0.784,0.588-1.421,1.312-1.421h4.944
		c0.724,0,1.312,0.638,1.312,1.421v6.419c0,0.781-0.588,1.42-1.312,1.42H2.089L2.089,14.479z"/>
	<path fill="#B2B3B3" d="M7.033,6.06c0.295,0,0.535,0.259,0.535,0.579v6.419c0,0.317-0.24,0.577-0.535,0.577H2.089
		c-0.295,0-0.534-0.26-0.534-0.577V6.639c0-0.32,0.239-0.579,0.534-0.579H7.033 M7.033,4.375H2.089C0.937,4.375,0,5.391,0,6.639
		v6.419c0,1.248,0.937,2.262,2.089,2.262h4.944c1.152,0,2.089-1.014,2.089-2.262V6.639C9.123,5.391,8.186,4.375,7.033,4.375
		L7.033,4.375z"/>
	<polygon fill="#B2B3B3" points="5.535,9.848 4.388,8.439 7.942,6.216 13.991,2.433 13.991,10 13.991,17.566 7.942,13.783 
		4.496,11.628 	"/>
	<path fill="#B2B3B3" d="M13.991,20c-0.388,0-0.775-0.107-1.123-0.326l-9.494-5.938c-0.529-0.332-0.911-0.883-1.058-1.525
		c-0.146-0.643-0.044-1.322,0.283-1.882l0.139-0.238l-0.033-0.04C2.259,9.503,2.063,8.768,2.171,8.047
		c0.109-0.72,0.51-1.35,1.093-1.714l9.603-6.007c0.695-0.435,1.551-0.435,2.246,0c0.696,0.435,1.124,1.238,1.124,2.107v15.135
		c0,0.869-0.428,1.672-1.124,2.104C14.766,19.893,14.378,20,13.991,20z M7.614,10.77l4.131,2.584V6.646L7.694,9.18
		C7.831,9.699,7.806,10.259,7.614,10.77z"/>
	<g>
		<path fill="#B2B3B3" d="M22.729,19.684v-1.937c1.977,0,5.363-5.606,5.363-7.747c0-2.139-3.389-7.748-5.363-7.748V0.316
			c2.961,0,7.15,6.358,7.15,9.567S25.689,19.684,22.729,19.684z M19.152,15.811v-1.937c1.976,0,3.576-1.733,3.576-3.874
			c0-2.139-1.603-3.874-3.576-3.874V4.189c2.962,0,5.363,2.602,5.363,5.811S22.114,15.811,19.152,15.811z"/>
		<path fill="#B2B3B3" d="M22.729,19.814c-0.065,0-0.121-0.061-0.121-0.131v-1.938c0-0.072,0.056-0.131,0.121-0.131
			c1.935,0,5.242-5.618,5.242-7.616c0-1.999-3.31-7.616-5.242-7.616c-0.065,0-0.121-0.059-0.121-0.131V0.316
			c0-0.072,0.056-0.131,0.121-0.131c1.375,0,3.162,1.357,4.781,3.631C29.021,5.94,30,8.321,30,9.883
			C30,13,25.852,19.814,22.729,19.814z M22.85,17.872v1.677c1.279-0.081,2.938-1.429,4.469-3.641
			c1.459-2.11,2.439-4.532,2.439-6.025c0-3.204-4.084-9.261-6.908-9.432v1.677c2.092,0.212,5.362,5.79,5.362,7.872
			S24.941,17.659,22.85,17.872z M19.152,15.941c-0.066,0-0.12-0.061-0.12-0.131v-1.938c0-0.073,0.054-0.132,0.12-0.132
			c1.904,0,3.455-1.68,3.455-3.742c0-2.064-1.551-3.743-3.455-3.743c-0.066,0-0.12-0.059-0.12-0.131V4.189
			c0-0.072,0.054-0.131,0.12-0.131c3.022,0,5.482,2.666,5.482,5.941C24.637,13.275,22.177,15.941,19.152,15.941z M19.273,14.002
			v1.676c2.834-0.068,5.121-2.59,5.121-5.678s-2.287-5.608-5.121-5.678v1.675C21.257,6.067,22.85,7.835,22.85,10
			C22.85,12.164,21.257,13.934,19.273,14.002z"/>
	</g>
</g>
</svg>
