<?xml version="1.0" encoding="utf-8"?>
<!-- Generator: Adobe Illustrator 15.1.0, SVG Export Plug-In . SVG Version: 6.00 Build 0)  -->
<!DOCTYPE svg PUBLIC "-//W3C//DTD SVG 1.1//EN" "http://www.w3.org/Graphics/SVG/1.1/DTD/svg11.dtd">
<svg version="1.1" id="Layer_1" xmlns="http://www.w3.org/2000/svg" xmlns:xlink="http://www.w3.org/1999/xlink" x="0px" y="0px"
	 width="26px" height="26px" viewBox="0 0 26 26" enable-background="new 0 0 26 26" xml:space="preserve">
<g>
	<g>
		<path fill="#0092C1" d="M18.087,6.053H1.809C0.81,6.053,0.001,6.865,0,7.867v16.318C0,25.188,0.81,26,1.809,26h16.278
			c0.999,0,1.81-0.812,1.81-1.814V7.867C19.896,6.865,19.085,6.053,18.087,6.053z M2.712,24.186c-0.5,0-0.904-0.404-0.904-0.906
			c0-0.498,0.405-0.905,0.904-0.905s0.905,0.405,0.905,0.905C3.618,23.781,3.214,24.186,2.712,24.186z M2.712,20.561
			c-0.5,0-0.904-0.406-0.904-0.908c0-0.5,0.405-0.906,0.904-0.906s0.905,0.406,0.905,0.906C3.618,20.154,3.214,20.561,2.712,20.561z
			 M2.712,16.934c-0.5,0-0.904-0.406-0.904-0.908c0-0.5,0.405-0.905,0.904-0.905s0.905,0.405,0.905,0.905
			C3.617,16.527,3.214,16.934,2.712,16.934z M2.712,13.308c-0.5,0-0.904-0.406-0.904-0.908c0-0.501,0.405-0.906,0.904-0.906
			s0.905,0.405,0.905,0.906C3.618,12.902,3.214,13.308,2.712,13.308z M2.712,9.68c-0.5,0-0.904-0.405-0.904-0.907
			c0-0.5,0.405-0.905,0.904-0.905s0.905,0.405,0.905,0.905C3.618,9.274,3.214,9.68,2.712,9.68z M14.471,24.186H5.426v-7.252h9.043
			v7.252H14.471z M14.471,15.12H5.426V7.867h9.043v7.253H14.471z M17.182,24.186c-0.5,0-0.902-0.404-0.902-0.906
			c0-0.498,0.402-0.905,0.902-0.905c0.502,0,0.905,0.405,0.905,0.905C18.087,23.781,17.682,24.186,17.182,24.186z M17.182,20.561
			c-0.5,0-0.902-0.406-0.902-0.908c0-0.5,0.402-0.906,0.902-0.906c0.502,0,0.905,0.406,0.905,0.906
			C18.087,20.154,17.682,20.561,17.182,20.561z M17.182,16.934c-0.5,0-0.902-0.406-0.902-0.908c0-0.5,0.402-0.905,0.902-0.905
			c0.502,0,0.905,0.405,0.905,0.905C18.087,16.527,17.682,16.934,17.182,16.934z M17.182,13.308c-0.5,0-0.902-0.406-0.902-0.908
			c0-0.501,0.402-0.906,0.902-0.906c0.502,0,0.905,0.405,0.905,0.906C18.087,12.902,17.682,13.308,17.182,13.308z M17.182,9.68
			c-0.5,0-0.902-0.405-0.902-0.907c0-0.5,0.402-0.905,0.902-0.905c0.502,0,0.905,0.405,0.905,0.905
			C18.087,9.274,17.682,9.68,17.182,9.68z"/>
	</g>
	<g>
		<g>
			<path fill="#0092C1" d="M19.549,2.627h2.244V0.135h1.827v2.492h2.244v1.684H23.62v2.492h-1.827V4.312h-2.244V2.627z"/>
			<path fill="#0092C1" d="M23.62,6.939h-1.827c-0.075,0-0.136-0.061-0.136-0.136V4.447h-2.108c-0.074,0-0.136-0.061-0.136-0.136
				V2.627c0-0.075,0.062-0.136,0.136-0.136h2.108V0.135C21.657,0.061,21.718,0,21.793,0h1.827c0.075,0,0.136,0.061,0.136,0.135
				v2.356h2.108C25.939,2.492,26,2.553,26,2.627v1.684c0,0.075-0.061,0.136-0.136,0.136h-2.108v2.356
				C23.756,6.878,23.695,6.939,23.62,6.939z M21.93,6.667h1.555V4.312c0-0.075,0.062-0.136,0.137-0.136h2.109V2.763h-2.11
				c-0.075,0-0.136-0.061-0.136-0.136V0.271h-1.557v2.356c0,0.075-0.061,0.136-0.136,0.136h-2.108v1.413h2.108
				c0.075,0,0.136,0.061,0.136,0.136v2.355H21.93z"/>
		</g>
	</g>
</g>
</svg>
