<?xml version="1.0" encoding="utf-8"?>
<!-- Generator: Adobe Illustrator 15.1.0, SVG Export Plug-In . SVG Version: 6.00 Build 0)  -->
<!DOCTYPE svg PUBLIC "-//W3C//DTD SVG 1.1//EN" "http://www.w3.org/Graphics/SVG/1.1/DTD/svg11.dtd">
<svg version="1.1" id="Layer_1" xmlns="http://www.w3.org/2000/svg" xmlns:xlink="http://www.w3.org/1999/xlink" x="0px" y="0px"
	 width="30px" height="20px" viewBox="0 0 30 20" enable-background="new 0 0 30 20" xml:space="preserve">
<path fill="#B2B3B3" d="M2.089,14.479c-0.723,0-1.312-0.638-1.312-1.42V6.639c0-0.784,0.588-1.421,1.312-1.421h4.944
	c0.724,0,1.312,0.638,1.312,1.421v6.419c0,0.781-0.588,1.42-1.312,1.42H2.089L2.089,14.479z"/>
<path fill="#B2B3B3" d="M7.033,6.06c0.295,0,0.535,0.259,0.535,0.579v6.419c0,0.317-0.24,0.577-0.535,0.577H2.089
	c-0.295,0-0.534-0.26-0.534-0.577V6.639c0-0.32,0.239-0.579,0.534-0.579H7.033 M7.033,4.375H2.089C0.937,4.375,0,5.391,0,6.639
	v6.419c0,1.248,0.937,2.262,2.089,2.262h4.944c1.152,0,2.089-1.014,2.089-2.262V6.639C9.123,5.391,8.186,4.375,7.033,4.375
	L7.033,4.375z"/>
<polygon fill="#B2B3B3" points="5.535,9.848 4.388,8.439 7.942,6.216 13.991,2.433 13.991,10 13.991,17.566 7.942,13.783 
	4.496,11.628 "/>
<path fill="#B2B3B3" d="M13.991,20c-0.388,0-0.775-0.107-1.123-0.326l-9.494-5.938c-0.529-0.332-0.911-0.883-1.058-1.525
	c-0.146-0.643-0.044-1.322,0.283-1.882l0.139-0.238l-0.033-0.04C2.259,9.503,2.063,8.768,2.171,8.047
	c0.109-0.72,0.51-1.35,1.093-1.714l9.603-6.007c0.695-0.435,1.551-0.435,2.246,0c0.696,0.435,1.124,1.238,1.124,2.107v15.135
	c0,0.869-0.428,1.672-1.124,2.104C14.766,19.893,14.378,20,13.991,20z M7.614,10.77l4.131,2.584V6.646L7.694,9.18
	C7.831,9.699,7.806,10.259,7.614,10.77z"/>
<g>
	<g>
		<path fill="#B2B3B3" d="M20.837,6.397l1.606,1.605l1.695-1.696l1.309,1.308L23.75,9.312l1.605,1.605l-1.148,1.149l-1.605-1.606
			l-1.697,1.698l-1.309-1.309l1.697-1.698l-1.605-1.606L20.837,6.397z"/>
		<path fill="#B2B3B3" d="M20.65,12.408L19.343,11.1c-0.146-0.146-0.151-0.377-0.014-0.516l1.446-1.446l-1.342-1.341
			c-0.146-0.146-0.15-0.378-0.014-0.516l1.148-1.149c0.139-0.139,0.369-0.133,0.517,0.013l1.341,1.341l1.445-1.445
			c0.139-0.139,0.371-0.133,0.52,0.014l1.308,1.308c0.146,0.146,0.149,0.377,0.012,0.516l-1.446,1.446l1.342,1.34
			c0.146,0.146,0.15,0.378,0.014,0.517l-1.146,1.146c-0.141,0.139-0.371,0.133-0.517-0.014l-1.342-1.34l-1.445,1.444
			C21.025,12.561,20.796,12.553,20.65,12.408z M20.113,10.863l0.781,0.781l1.443-1.445c0.143-0.14,0.371-0.134,0.518,0.012
			l1.342,1.34l0.645-0.642L23.5,9.567c-0.146-0.146-0.152-0.377-0.014-0.518l1.445-1.445l-0.779-0.78L22.707,8.27
			c-0.141,0.14-0.373,0.131-0.518-0.014l-1.342-1.342l-0.646,0.644L21.546,8.9c0.144,0.144,0.153,0.378,0.013,0.518L20.113,10.863
			L20.113,10.863z"/>
	</g>
</g>
</svg>
