<?xml version="1.0" encoding="utf-8"?>
<!-- Generator: Adobe Illustrator 16.0.3, SVG Export Plug-In . SVG Version: 6.00 Build 0)  -->
<!DOCTYPE svg PUBLIC "-//W3C//DTD SVG 1.1//EN" "http://www.w3.org/Graphics/SVG/1.1/DTD/svg11.dtd">
<svg version="1.1" id="Layer_1" xmlns="http://www.w3.org/2000/svg" xmlns:xlink="http://www.w3.org/1999/xlink" x="0px" y="0px"
	 width="38.334px" height="32px" viewBox="0 0 38.334 32" enable-background="new 0 0 38.334 32" xml:space="preserve">
<g>
	<path fill="#666666" d="M35.529,16.111l1.734-1.736c0.157-0.167,0.155-0.444-0.021-0.62l-1.566-1.569
		c-0.18-0.176-0.46-0.183-0.625-0.017l-1.729,1.734l-1.608-1.609c-0.174-0.175-0.454-0.183-0.621-0.017l-1.377,1.38
		c-0.157,0.165-0.155,0.442,0.022,0.618l1.605,1.609l-1.732,1.735c-0.159,0.166-0.156,0.445,0.02,0.62l1.57,1.569
		c0.173,0.174,0.447,0.184,0.624,0.012l1.729-1.73l1.611,1.607c0.171,0.174,0.451,0.182,0.621,0.016l1.369-1.374
		c0.164-0.161,0.154-0.444-0.018-0.618L35.529,16.111z"/>
	<path fill="#666666" d="M23.624,1.489c-1.043-0.652-2.329-0.652-3.366,0l-9.707,6.072H4.088c-1.726,0-3.133,1.524-3.133,3.398
		v9.629c0,1.872,1.407,3.396,3.133,3.396h5.735l10.435,6.525c0.521,0.329,1.102,0.49,1.685,0.49c0.58,0,1.159-0.161,1.682-0.484
		c1.043-0.654,1.685-1.858,1.685-3.162V4.649C25.309,3.345,24.67,2.141,23.624,1.489z"/>
</g>
</svg>
