<?xml version="1.0" encoding="utf-8"?>
<!-- Generator: Adobe Illustrator 15.1.0, SVG Export Plug-In . SVG Version: 6.00 Build 0)  -->
<!DOCTYPE svg PUBLIC "-//W3C//DTD SVG 1.1//EN" "http://www.w3.org/Graphics/SVG/1.1/DTD/svg11.dtd">
<svg version="1.1" id="Layer_1" xmlns="http://www.w3.org/2000/svg" xmlns:xlink="http://www.w3.org/1999/xlink" x="0px" y="0px"
	 width="19px" height="20px" viewBox="0 0 19 20" enable-background="new 0 0 19 20" xml:space="preserve">
<path fill="#B7B7B7" d="M0.614,1.031c-0.15,0.15-0.235,0.338-0.262,0.535C0.304,1.68,0.276,1.802,0.276,1.934v4.152
	c0,0.508,0.411,0.917,0.918,0.917c0.507,0,0.918-0.411,0.918-0.917v-2.23l4.4,4.399c0.367,0.368,0.961,0.368,1.326,0
	c0.367-0.367,0.367-0.961,0.001-1.327l-4.372-4.37h2.175c0.507,0,0.917-0.412,0.917-0.92C6.56,1.133,6.149,0.72,5.642,0.72H1.491
	C1.4,0.719,1.314,0.736,1.233,0.76C1.008,0.771,0.787,0.86,0.614,1.031z"/>
<path fill="#B7B7B7" d="M0.601,18.941c0.15,0.148,0.339,0.234,0.535,0.263c0.114,0.047,0.236,0.075,0.368,0.075h4.151
	c0.508,0,0.917-0.411,0.917-0.918c0-0.508-0.411-0.918-0.917-0.918h-2.23l4.399-4.398c0.368-0.367,0.368-0.961,0-1.326
	c-0.367-0.367-0.961-0.367-1.327-0.002l-4.37,4.372v-2.175c0-0.506-0.413-0.916-0.919-0.916c-0.504-0.002-0.917,0.41-0.917,0.916
	v4.15c-0.001,0.09,0.017,0.177,0.041,0.259C0.341,18.548,0.431,18.77,0.601,18.941z"/>
<path fill="#B7B7B7" d="M18.386,18.969c0.148-0.148,0.234-0.339,0.263-0.535c0.047-0.113,0.076-0.234,0.076-0.367v-4.151
	c0-0.508-0.412-0.917-0.918-0.917c-0.509,0-0.918,0.41-0.918,0.917v2.229l-4.4-4.398c-0.367-0.367-0.961-0.367-1.326,0.001
	c-0.367,0.366-0.367,0.961-0.002,1.327l4.373,4.369h-2.176c-0.506,0-0.916,0.412-0.916,0.92c-0.002,0.504,0.41,0.918,0.916,0.918
	h4.151c0.091,0,0.177-0.018,0.259-0.041C17.991,19.229,18.212,19.141,18.386,18.969z"/>
<path fill="#B7B7B7" d="M18.398,1.058c-0.149-0.148-0.34-0.234-0.535-0.262c-0.114-0.047-0.235-0.076-0.368-0.076h-4.151
	c-0.508,0-0.917,0.412-0.917,0.918c0,0.508,0.41,0.918,0.917,0.918h2.23l-4.399,4.401c-0.366,0.367-0.366,0.961,0.001,1.326
	c0.366,0.367,0.961,0.367,1.327,0.002l4.369-4.373v2.176c0,0.506,0.413,0.916,0.92,0.916c0.504,0.002,0.918-0.41,0.918-0.916V1.935
	c0-0.09-0.019-0.176-0.041-0.258C18.658,1.452,18.568,1.231,18.398,1.058z"/>
</svg>
