<?xml version="1.0" encoding="utf-8"?>
<!-- Generator: Adobe Illustrator 16.0.1, SVG Export Plug-In . SVG Version: 6.00 Build 0)  -->
<!DOCTYPE svg PUBLIC "-//W3C//DTD SVG 1.1//EN" "http://www.w3.org/Graphics/SVG/1.1/DTD/svg11.dtd">
<svg version="1.1" id="Layer_1" xmlns="http://www.w3.org/2000/svg" xmlns:xlink="http://www.w3.org/1999/xlink" x="0px" y="0px"
	 width="22px" height="20px" viewBox="0 0 22 20" enable-background="new 0 0 22 20" xml:space="preserve">
<path fill="#B7B7B7" d="M20.27,0.5H8.589H8.373H1.73c-0.522,0-0.946,0.424-0.946,0.946v17.106c0,0.523,0.424,0.947,0.946,0.947
	h6.642h0.216H20.27c0.523,0,0.946-0.424,0.946-0.947V1.446C21.216,0.924,20.793,0.5,20.27,0.5z M2.677,2.393h4.749v15.214H2.677
	V2.393z M19.322,17.606H9.536v-6.601h4.481l-1.111,1.097c-0.055,0.053-0.084,0.123-0.085,0.199c0,0.074,0.029,0.146,0.083,0.2
	l0.98,0.979c0.052,0.052,0.123,0.081,0.197,0.081s0.146-0.029,0.198-0.081l3.172-3.173c0.053-0.052,0.082-0.124,0.082-0.198
	s-0.029-0.146-0.082-0.198l-3.099-3.097c-0.108-0.108-0.284-0.109-0.394-0.003l-1.035,1.006c-0.055,0.053-0.085,0.124-0.085,0.199
	c-0.001,0.075,0.028,0.147,0.081,0.2l1.073,1.073H9.536V2.393h9.787V17.606z"/>
</svg>
