<?xml version="1.0" encoding="utf-8"?>
<!-- Generator: Adobe Illustrator 16.0.1, SVG Export Plug-In . SVG Version: 6.00 Build 0)  -->
<!DOCTYPE svg PUBLIC "-//W3C//DTD SVG 1.1//EN" "http://www.w3.org/Graphics/SVG/1.1/DTD/svg11.dtd">
<svg version="1.1" id="Layer_1" xmlns="http://www.w3.org/2000/svg" xmlns:xlink="http://www.w3.org/1999/xlink" x="0px" y="0px"
	 width="22px" height="20px" viewBox="0 0 22 20" enable-background="new 0 0 22 20" xml:space="preserve">
<path fill="#B7B7B7" d="M20.27,0.5H8.589H8.373H1.73c-0.523,0-0.946,0.424-0.946,0.947v17.106c0,0.523,0.423,0.946,0.946,0.946
	h6.643h0.216H20.27c0.523,0,0.946-0.423,0.946-0.946V1.447C21.216,0.924,20.793,0.5,20.27,0.5z M2.678,2.394h4.748v15.214H2.678
	V2.394z M9.536,17.607V2.394h9.786v6.898h-4.414l1.112-1.098c0.054-0.052,0.083-0.123,0.084-0.198c0-0.075-0.029-0.146-0.082-0.2
	l-0.979-0.979c-0.052-0.053-0.124-0.082-0.198-0.082s-0.146,0.029-0.199,0.082l-3.171,3.173c-0.052,0.052-0.083,0.124-0.083,0.198
	s0.031,0.146,0.083,0.198l3.099,3.097c0.107,0.108,0.283,0.11,0.394,0.003l1.035-1.006c0.054-0.052,0.085-0.124,0.085-0.2
	c0-0.073-0.029-0.146-0.082-0.199l-1.073-1.072h4.391v6.6H9.536z"/>
</svg>
