<?xml version="1.0" encoding="utf-8"?>
<!-- Generator: Adobe Illustrator 16.0.3, SVG Export Plug-In . SVG Version: 6.00 Build 0)  -->
<!DOCTYPE svg PUBLIC "-//W3C//DTD SVG 1.1//EN" "http://www.w3.org/Graphics/SVG/1.1/DTD/svg11.dtd">
<svg version="1.1" id="Layer_1" xmlns="http://www.w3.org/2000/svg" xmlns:xlink="http://www.w3.org/1999/xlink" x="0px" y="0px"
	 width="32px" height="32px" viewBox="0 0 32 32" enable-background="new 0 0 32 32" xml:space="preserve">
<g>
	<path fill="#666666" d="M11.254,1H4.425c-1.02,0-1.846,0.82-1.846,1.829v26.342C2.579,30.18,3.405,31,4.425,31h6.829
		c1.021,0,1.847-0.82,1.847-1.829V2.829C13.101,1.819,12.274,1,11.254,1z"/>
	<path fill="#666666" d="M27.574,1h-6.83c-1.02,0-1.846,0.818-1.846,1.829v26.342c0,1.009,0.826,1.829,1.846,1.829h6.83
		c1.021,0,1.847-0.82,1.847-1.829V2.829C29.421,1.819,28.596,1,27.574,1z"/>
</g>
</svg>
