<?xml version="1.0" encoding="utf-8"?>
<!-- Generator: Adobe Illustrator 15.1.0, SVG Export Plug-In . SVG Version: 6.00 Build 0)  -->
<!DOCTYPE svg PUBLIC "-//W3C//DTD SVG 1.1//EN" "http://www.w3.org/Graphics/SVG/1.1/DTD/svg11.dtd">
<svg version="1.1" id="Layer_1" xmlns="http://www.w3.org/2000/svg" xmlns:xlink="http://www.w3.org/1999/xlink" x="0px" y="0px"
	 width="16px" height="21px" viewBox="0 0 16 21" enable-background="new 0 0 16 21" xml:space="preserve">
<path fill="#FFFFFF" d="M13.797,20.834H2.203c-1.049,0-1.9-0.852-1.9-1.9v-8.173c0-1.05,0.852-1.9,1.9-1.9h0.048V5.962
	c0-3.195,2.601-5.796,5.796-5.796c1.543,0,2.98,0.536,4.051,1.509c1.125,1.024,1.746,2.446,1.746,4.003
	c0,0.787-0.639,1.425-1.426,1.425s-1.426-0.638-1.426-1.425c0-1.747-1.48-2.661-2.945-2.661c-1.624,0-2.945,1.321-2.945,2.945V8.86
	h8.695c1.049,0,1.9,0.851,1.9,1.9v8.174C15.697,19.982,14.846,20.834,13.797,20.834z"/>
</svg>
