<?xml version="1.0" encoding="utf-8"?>
<!-- Generator: Adobe Illustrator 16.0.3, SVG Export Plug-In . SVG Version: 6.00 Build 0)  -->
<!DOCTYPE svg PUBLIC "-//W3C//DTD SVG 1.1//EN" "http://www.w3.org/Graphics/SVG/1.1/DTD/svg11.dtd">
<svg version="1.1" id="Layer_1" xmlns="http://www.w3.org/2000/svg" xmlns:xlink="http://www.w3.org/1999/xlink" x="0px" y="0px"
	 width="73px" height="93px" viewBox="10 -10 73 93" enable-background="new 10 -10 73 93" xml:space="preserve">
<path fill="#EEEEEE" d="M44.012-7.061l-32.643,32.66c-1.146,1.146-1.158,2.996-0.031,4.151L21.939,40.67
	c0.551,0.568,1.308,0.893,2.102,0.898c0.792,0.006,1.553-0.305,2.113-0.867L37.46,29.394v48.577c0,1.633,1.326,2.959,2.959,2.959
	h12.165c1.634,0,2.959-1.326,2.959-2.959V29.14l11.562,11.727c0.557,0.562,1.309,0.881,2.097,0.883
	c0.791,0.002,1.545-0.309,2.104-0.867l10.327-10.325c0.556-0.555,0.867-1.308,0.867-2.092c0-0.785-0.312-1.537-0.867-2.093
	L48.194-7.063C47.64-7.619,46.886-7.93,46.102-7.93S44.566-7.617,44.012-7.061z"/>
</svg>
