<?xml version="1.0" encoding="utf-8"?>
<!-- Generator: Adobe Illustrator 16.0.3, SVG Export Plug-In . SVG Version: 6.00 Build 0)  -->
<!DOCTYPE svg PUBLIC "-//W3C//DTD SVG 1.1//EN" "http://www.w3.org/Graphics/SVG/1.1/DTD/svg11.dtd">
<svg version="1.1" id="Layer_1" xmlns="http://www.w3.org/2000/svg" xmlns:xlink="http://www.w3.org/1999/xlink" x="0px" y="0px"
	 width="93px" height="73px" viewBox="0 0 93 73" enable-background="new 0 0 93 73" xml:space="preserve">
<path fill="#EEEEEE" d="M2.939,38.988L35.6,71.631c1.146,1.146,2.996,1.158,4.151,0.031l10.92-10.602
	c0.568-0.551,0.892-1.308,0.897-2.102c0.006-0.792-0.305-1.553-0.866-2.113L39.395,45.54h48.576c1.633,0,2.959-1.326,2.959-2.959
	V30.416c0-1.634-1.326-2.959-2.959-2.959h-48.83l11.727-11.562c0.562-0.557,0.881-1.309,0.883-2.097
	c0.002-0.791-0.309-1.545-0.867-2.104L40.559,1.367C40.004,0.812,39.251,0.5,38.467,0.5c-0.785,0-1.537,0.312-2.093,0.867
	L2.938,34.806C2.382,35.36,2.07,36.114,2.07,36.898S2.384,38.434,2.939,38.988z"/>
</svg>
