<?xml version="1.0" encoding="utf-8"?>
<!-- Generator: Adobe Illustrator 16.0.3, SVG Export Plug-In . SVG Version: 6.00 Build 0)  -->
<!DOCTYPE svg PUBLIC "-//W3C//DTD SVG 1.1//EN" "http://www.w3.org/Graphics/SVG/1.1/DTD/svg11.dtd">
<svg version="1.1" id="Layer_1" xmlns="http://www.w3.org/2000/svg" xmlns:xlink="http://www.w3.org/1999/xlink" x="0px" y="0px"
	 width="93px" height="73px" viewBox="0 0 93 73" enable-background="new 0 0 93 73" xml:space="preserve">
<path fill="#EEEEEE" d="M90.061,34.011L57.401,1.368c-1.146-1.146-2.996-1.158-4.152-0.031l-10.92,10.601
	c-0.568,0.551-0.892,1.308-0.898,2.102c-0.005,0.792,0.306,1.553,0.867,2.113l11.308,11.306H5.03c-1.634,0-2.959,1.326-2.959,2.959
	v12.165c0,1.634,1.325,2.959,2.959,2.959h48.829L42.133,57.104c-0.563,0.556-0.881,1.308-0.883,2.096
	c-0.002,0.791,0.309,1.545,0.867,2.104l10.325,10.328c0.554,0.556,1.307,0.867,2.091,0.867c0.785,0,1.538-0.312,2.093-0.867
	l33.436-33.438c0.556-0.555,0.868-1.309,0.868-2.093C90.929,35.317,90.616,34.565,90.061,34.011z"/>
</svg>
