<?xml version="1.0" encoding="utf-8"?>
<!-- Generator: Adobe Illustrator 15.1.0, SVG Export Plug-In . SVG Version: 6.00 Build 0)  -->
<!DOCTYPE svg PUBLIC "-//W3C//DTD SVG 1.1//EN" "http://www.w3.org/Graphics/SVG/1.1/DTD/svg11.dtd">
<svg version="1.1" id="Layer_1" xmlns="http://www.w3.org/2000/svg" xmlns:xlink="http://www.w3.org/1999/xlink" x="0px" y="0px"
	 width="9px" height="9px" viewBox="0 0 9 9" enable-background="new 0 0 9 9" xml:space="preserve">
<path fill="#231F20" d="M5.906,4.5l2.303-2.304c0.388-0.388,0.388-1.018,0-1.405c-0.389-0.389-1.018-0.389-1.406,0L4.5,3.094
	L2.197,0.791c-0.389-0.389-1.018-0.389-1.406,0c-0.388,0.388-0.388,1.018,0,1.405l2.303,2.303L0.791,6.804
	c-0.388,0.388-0.388,1.018,0,1.405c0.389,0.389,1.018,0.389,1.406,0L4.5,5.906l2.303,2.303c0.389,0.389,1.018,0.389,1.406,0
	c0.388-0.388,0.388-1.018,0-1.405L5.906,4.5z"/>
</svg>
