<?xml version="1.0" encoding="utf-8"?>
<!-- Generator: Adobe Illustrator 15.1.0, SVG Export Plug-In . SVG Version: 6.00 Build 0)  -->
<!DOCTYPE svg PUBLIC "-//W3C//DTD SVG 1.1//EN" "http://www.w3.org/Graphics/SVG/1.1/DTD/svg11.dtd">
<svg version="1.1" id="Layer_1" xmlns="http://www.w3.org/2000/svg" xmlns:xlink="http://www.w3.org/1999/xlink" x="0px" y="0px"
	 width="22px" height="22px" viewBox="0 0 22 22" enable-background="new 0 0 22 22" xml:space="preserve">
<path fill="#303030" d="M14.866,11l6.333-6.333c1.067-1.068,1.067-2.798,0-3.866c-1.068-1.068-2.798-1.068-3.866,0L11,7.134
	L4.666,0.801c-1.067-1.068-2.798-1.068-3.866,0c-1.067,1.067-1.067,2.798,0,3.866L7.133,11L0.8,17.333
	c-1.067,1.068-1.067,2.799,0,3.867c1.068,1.067,2.798,1.067,3.866-0.001L11,14.866l6.333,6.334c1.068,1.067,2.798,1.067,3.866,0
	c1.067-1.068,1.067-2.799,0-3.867L14.866,11z"/>
</svg>
