<?xml version="1.0" encoding="utf-8"?>
<!-- Generator: Adobe Illustrator 15.1.0, SVG Export Plug-In . SVG Version: 6.00 Build 0)  -->
<!DOCTYPE svg PUBLIC "-//W3C//DTD SVG 1.1//EN" "http://www.w3.org/Graphics/SVG/1.1/DTD/svg11.dtd">
<svg version="1.1" id="Layer_1" xmlns="http://www.w3.org/2000/svg" xmlns:xlink="http://www.w3.org/1999/xlink" x="0px" y="0px"
	 width="40px" height="40px" viewBox="-9 -9 40 40" enable-background="new -9 -9 40 40" xml:space="preserve">
<path fill="#303030" d="M18.03,11L29.545-0.515c1.939-1.941,1.939-5.086,0-7.029c-1.942-1.941-5.089-1.941-7.029,0L11,3.971
	L-0.516-7.544c-1.94-1.941-5.087-1.941-7.03,0c-1.94,1.941-1.94,5.088,0,7.029L3.969,11L-7.546,22.514
	c-1.94,1.94-1.94,5.089,0,7.031c1.942,1.94,5.088,1.94,7.03-0.002L11,18.029l11.515,11.516c1.94,1.94,5.087,1.94,7.029,0
	c1.939-1.942,1.939-5.091,0-7.031L18.03,11z"/>
</svg>
