<?xml version="1.0" encoding="utf-8"?>
<!-- Generator: Adobe Illustrator 16.0.3, SVG Export Plug-In . SVG Version: 6.00 Build 0)  -->
<!DOCTYPE svg PUBLIC "-//W3C//DTD SVG 1.1//EN" "http://www.w3.org/Graphics/SVG/1.1/DTD/svg11.dtd">
<svg version="1.1" id="Layer_1" xmlns="http://www.w3.org/2000/svg" xmlns:xlink="http://www.w3.org/1999/xlink" x="0px" y="0px"
	 width="73px" height="93px" viewBox="10 -10 73 93" enable-background="new 10 -10 73 93" xml:space="preserve">
<path fill="#EEEEEE" d="M48.989,80.061L81.632,47.4c1.146-1.145,1.158-2.996,0.031-4.15L71.062,32.33
	c-0.551-0.568-1.308-0.893-2.102-0.898c-0.792-0.006-1.553,0.305-2.113,0.867L55.541,43.605V-4.971c0-1.633-1.326-2.959-2.959-2.959
	H40.417c-1.634,0-2.959,1.326-2.959,2.959v48.83L25.896,32.133c-0.557-0.562-1.309-0.881-2.097-0.883
	c-0.791-0.002-1.545,0.309-2.104,0.867L11.368,42.441c-0.556,0.555-0.867,1.309-0.867,2.092c0,0.785,0.312,1.537,0.867,2.094
	l33.438,33.436c0.555,0.557,1.309,0.867,2.092,0.867S48.435,80.617,48.989,80.061z"/>
</svg>
