<?xml version="1.0" encoding="utf-8"?>
<!-- Generator: Adobe Illustrator 15.1.0, SVG Export Plug-In . SVG Version: 6.00 Build 0)  -->
<!DOCTYPE svg PUBLIC "-//W3C//DTD SVG 1.1//EN" "http://www.w3.org/Graphics/SVG/1.1/DTD/svg11.dtd">
<svg version="1.1" id="Layer_1" xmlns="http://www.w3.org/2000/svg" xmlns:xlink="http://www.w3.org/1999/xlink" x="0px" y="0px"
	 width="9px" height="11px" viewBox="0 0 9 11" enable-background="new 0 0 9 11" xml:space="preserve">
<path fill-rule="evenodd" clip-rule="evenodd" fill="#AEADAE" d="M9.012,4.089L5.407,7.072V4.867
	C5.158,4.802,4.902,4.757,4.633,4.757c-1.71,0-3.096,1.386-3.096,3.097c0,1.496,1.062,2.744,2.473,3.033
	c-2.268-0.308-4.021-2.23-4.021-4.582c0-2.565,2.08-4.645,4.645-4.645c0.266,0,0.521,0.035,0.774,0.078V0.112L9.012,4.089z
	 M5.407,10.853c-0.051,0.01-0.099,0.028-0.149,0.035c0.051-0.011,0.099-0.031,0.149-0.045V10.853z"/>
</svg>
