<?xml version="1.0" encoding="utf-8"?>
<!-- Generator: Adobe Illustrator 15.1.0, SVG Export Plug-In . SVG Version: 6.00 Build 0)  -->
<!DOCTYPE svg PUBLIC "-//W3C//DTD SVG 1.1//EN" "http://www.w3.org/Graphics/SVG/1.1/DTD/svg11.dtd">
<svg version="1.1" id="Layer_1" xmlns="http://www.w3.org/2000/svg" xmlns:xlink="http://www.w3.org/1999/xlink" x="0px" y="0px"
	 width="26px" height="33px" viewBox="12.5 16 26 33" enable-background="new 12.5 16 26 33" xml:space="preserve">
<g>
	<path fill="#787878" d="M15.737,48.75V35.236h-2.945v-4.753h2.917c0,0,0-1.52,0-4.312s2.011-4.421,5.551-4.421s4.475,0,4.475,0
		l-0.007,4.587c0,0-2.287,0-3.137,0s-1.218,0.774-1.218,1.188c0,0.415,0,3.04,0,3.04h4.418l-0.51,4.671h-3.767l-0.043,13.512
		L15.737,48.75z"/>
	<g>
		<g>
			<path fill="#787878" d="M29.679,19.727h2.863v-3.028h2.332v3.028h2.863v2.046h-2.863v3.028h-2.332v-3.028h-2.863V19.727z"/>
			<path fill="#787878" d="M34.874,25.25h-2.332c-0.26,0-0.471-0.201-0.471-0.449v-2.579h-2.393c-0.26,0-0.47-0.201-0.47-0.449
				v-2.046c0-0.248,0.211-0.449,0.47-0.449h2.393v-2.579c0-0.248,0.211-0.449,0.471-0.449h2.332c0.26,0,0.471,0.201,0.471,0.449
				v2.578h2.393c0.26,0,0.471,0.201,0.471,0.449v2.046c0,0.248-0.211,0.449-0.471,0.449h-2.393V24.8
				C35.345,25.049,35.134,25.25,34.874,25.25z M33.013,24.352h1.391v-2.579c0-0.249,0.211-0.45,0.471-0.45h2.393v-1.146h-2.393
				c-0.26,0-0.471-0.201-0.471-0.45v-2.579h-1.391v2.579c0,0.249-0.211,0.45-0.471,0.45h-2.393v1.146h2.393
				c0.26,0,0.471,0.201,0.471,0.45V24.352z"/>
		</g>
	</g>
</g>
</svg>
