<?xml version="1.0" encoding="utf-8"?>
<!-- Generator: Adobe Illustrator 15.1.0, SVG Export Plug-In . SVG Version: 6.00 Build 0)  -->
<!DOCTYPE svg PUBLIC "-//W3C//DTD SVG 1.1//EN" "http://www.w3.org/Graphics/SVG/1.1/DTD/svg11.dtd">
<svg version="1.1" id="Layer_1" xmlns="http://www.w3.org/2000/svg" xmlns:xlink="http://www.w3.org/1999/xlink" x="0px" y="0px"
	 width="16px" height="21px" viewBox="0 0 16 21" enable-background="new 0 0 16 21" xml:space="preserve">
<g>
	<path fill="#63BC56" d="M2.478,20.646c-1.164,0-2.11-0.946-2.11-2.11v-7.787c0-1.078,0.812-1.969,1.855-2.095V6.177
		c0-3.21,2.612-5.822,5.822-5.822c1.544,0,2.986,0.538,4.062,1.515c1.136,1.034,1.761,2.467,1.761,4.036
		c0,0.914-0.743,1.658-1.657,1.658s-1.658-0.744-1.658-1.658c0-1.467-1.261-2.235-2.507-2.235c-1.382,0-2.507,1.125-2.507,2.507
		v2.461h7.984c1.164,0,2.108,0.947,2.108,2.11v7.787c0,1.164-0.944,2.11-2.108,2.11H2.478z"/>
	<path fill="#231F20" d="M8.045,0.654c1.471,0,2.84,0.51,3.859,1.438c1.072,0.976,1.662,2.331,1.662,3.813
		c0,0.75-0.606,1.358-1.356,1.358s-1.358-0.608-1.358-1.358c0-1.665-1.412-2.535-2.807-2.535c-1.547,0-2.807,1.259-2.807,2.807
		v2.761h8.284c1,0,1.812,0.811,1.812,1.811v7.787c0,1-0.812,1.812-1.812,1.812H2.478c-1,0-1.811-0.812-1.811-1.812v-7.787
		c0-1,0.811-1.811,1.811-1.811h0.045V6.177C2.522,3.132,5,0.654,8.045,0.654 M8.045,0.054c-3.376,0-6.123,2.747-6.123,6.123v2.232
		C0.846,8.67,0.067,9.62,0.067,10.749v7.787c0,1.329,1.082,2.409,2.411,2.409h11.045c1.328,0,2.41-1.08,2.41-2.409v-7.787
		c0-1.329-1.082-2.411-2.41-2.411H5.838V6.177c0-1.217,0.99-2.207,2.207-2.207c1.062,0,2.207,0.605,2.207,1.935
		c0,1.08,0.878,1.958,1.958,1.958c1.079,0,1.957-0.878,1.957-1.958c0-1.654-0.66-3.166-1.858-4.257
		C11.178,0.62,9.664,0.054,8.045,0.054L8.045,0.054z"/>
</g>
</svg>
