<?xml version="1.0" encoding="utf-8"?>
<!-- Generator: Adobe Illustrator 15.1.0, SVG Export Plug-In . SVG Version: 6.00 Build 0)  -->
<!DOCTYPE svg PUBLIC "-//W3C//DTD SVG 1.1//EN" "http://www.w3.org/Graphics/SVG/1.1/DTD/svg11.dtd">
<svg version="1.1" id="Layer_1" xmlns="http://www.w3.org/2000/svg" xmlns:xlink="http://www.w3.org/1999/xlink" x="0px" y="0px"
	 width="7.619px" height="10px" viewBox="0 0 7.619 10" enable-background="new 0 0 7.619 10" xml:space="preserve">
<g>
	<path fill="#63BC56" d="M1.167,9.855c-0.558,0-1.01-0.453-1.01-1.01V5.117c0-0.518,0.389-0.943,0.889-1.003V2.932
		c0-1.537,1.25-2.787,2.787-2.787c0.737,0,1.43,0.258,1.942,0.727C6.319,1.366,6.62,2.052,6.62,2.803
		c0,0.438-0.355,0.795-0.793,0.795c-0.438,0-0.795-0.357-0.795-0.796c0-0.7-0.604-1.069-1.199-1.069
		c-0.662,0-1.201,0.539-1.201,1.201v1.178h3.822c0.558,0,1.01,0.453,1.01,1.01V8.85c0,0.558-0.452,1.01-1.01,1.01H1.167V9.855z"/>
	<path fill="#231F20" d="M3.831,0.287c0.705,0,1.359,0.245,1.85,0.688C6.193,1.441,6.477,2.091,6.477,2.8
		c0,0.359-0.291,0.65-0.647,0.65c-0.359,0-0.65-0.292-0.65-0.65c0-0.797-0.676-1.213-1.344-1.213c-0.74,0-1.344,0.603-1.344,1.345
		v1.32h3.965c0.479,0,0.865,0.389,0.865,0.867v3.729c0,0.479-0.388,0.866-0.865,0.866H1.167c-0.479,0-0.866-0.389-0.866-0.866V5.119
		c0-0.479,0.388-0.867,0.866-0.867h0.021v-1.32C1.188,1.473,2.374,0.287,3.831,0.287 M3.831,0C2.216,0,0.9,1.314,0.9,2.932v1.067
		c-0.515,0.125-0.888,0.58-0.888,1.12v3.729C0.013,9.482,0.53,10,1.167,10h5.287c0.635,0,1.152-0.518,1.152-1.152V5.119
		c0-0.637-0.52-1.154-1.152-1.154H2.775V2.932c0-0.584,0.474-1.058,1.056-1.058c0.511,0,1.059,0.29,1.059,0.926
		c0,0.517,0.42,0.937,0.938,0.937S6.765,3.316,6.765,2.8c0-0.792-0.314-1.515-0.891-2.038C5.331,0.271,4.607,0,3.831,0L3.831,0z"/>
</g>
</svg>
