<?xml version="1.0" encoding="utf-8"?>
<!-- Generator: Adobe Illustrator 15.1.0, SVG Export Plug-In . SVG Version: 6.00 Build 0)  -->
<!DOCTYPE svg PUBLIC "-//W3C//DTD SVG 1.1//EN" "http://www.w3.org/Graphics/SVG/1.1/DTD/svg11.dtd">
<svg version="1.1" id="Layer_1" xmlns="http://www.w3.org/2000/svg" xmlns:xlink="http://www.w3.org/1999/xlink" x="0px" y="0px"
	 width="7.619px" height="10px" viewBox="4.19 5.5 7.619 10" enable-background="new 4.19 5.5 7.619 10" xml:space="preserve">
<g>
	<path fill="#63BC56" d="M5.357,15.356c-0.557,0-1.01-0.453-1.01-1.01v-3.728c0-0.516,0.389-0.943,0.888-1.003V8.431
		c0-1.537,1.25-2.787,2.787-2.787c0.739,0,1.43,0.258,1.944,0.726c0.544,0.495,0.843,1.181,0.843,1.932
		c0,0.438-0.355,0.793-0.793,0.793S9.222,8.738,9.222,8.301c0-0.702-0.604-1.07-1.2-1.07c-0.661,0-1.2,0.539-1.2,1.2v1.178h3.822
		c0.557,0,1.009,0.453,1.009,1.01v3.728c0,0.557-0.452,1.01-1.009,1.01H5.357z"/>
	<path fill="#231F20" d="M8.021,5.787c0.704,0,1.359,0.245,1.848,0.688c0.513,0.467,0.796,1.116,0.796,1.825
		c0,0.359-0.291,0.65-0.649,0.65c-0.359,0-0.65-0.292-0.65-0.65c0-0.797-0.676-1.213-1.344-1.213c-0.74,0-1.344,0.603-1.344,1.344
		v1.321h3.966c0.479,0,0.866,0.389,0.866,0.867v3.728c0,0.479-0.388,0.867-0.866,0.867H5.357c-0.479,0-0.867-0.389-0.867-0.867
		v-3.728c0-0.479,0.388-0.867,0.867-0.867h0.021V8.431C5.378,6.973,6.564,5.787,8.021,5.787 M8.021,5.5
		c-1.616,0-2.931,1.315-2.931,2.931v1.068c-0.515,0.125-0.888,0.58-0.888,1.12v3.728c0,0.636,0.518,1.153,1.154,1.153h5.288
		c0.635,0,1.153-0.518,1.153-1.153v-3.728c0-0.636-0.519-1.154-1.153-1.154H6.965V8.431c0-0.583,0.474-1.057,1.056-1.057
		c0.509,0,1.057,0.29,1.057,0.926c0,0.517,0.42,0.937,0.938,0.937c0.517,0,0.937-0.42,0.937-0.937c0-0.792-0.316-1.515-0.89-2.038
		C9.521,5.771,8.797,5.5,8.021,5.5L8.021,5.5z"/>
</g>
</svg>
