<?xml version="1.0" encoding="utf-8"?>
<!-- Generator: Adobe Illustrator 15.1.0, SVG Export Plug-In . SVG Version: 6.00 Build 0)  -->
<!DOCTYPE svg PUBLIC "-//W3C//DTD SVG 1.1//EN" "http://www.w3.org/Graphics/SVG/1.1/DTD/svg11.dtd">
<svg version="1.1" id="Layer_1" xmlns="http://www.w3.org/2000/svg" xmlns:xlink="http://www.w3.org/1999/xlink" x="0px" y="0px"
	 width="50px" height="41px" viewBox="0 0 50 41" enable-background="new 0 0 50 41" xml:space="preserve">
<path fill="#0092C1" d="M31.279,7.019H18.721c-0.771,0-1.395,0.625-1.396,1.396v12.559c0,0.771,0.625,1.396,1.396,1.396h12.558
	c0.771,0,1.396-0.625,1.396-1.396V8.415C32.675,7.644,32.05,7.019,31.279,7.019z M19.418,20.974c-0.386,0-0.697-0.312-0.697-0.697
	c0-0.385,0.312-0.698,0.697-0.698c0.385,0,0.698,0.312,0.698,0.698C20.116,20.663,19.804,20.974,19.418,20.974z M19.418,18.183
	c-0.386,0-0.697-0.312-0.697-0.698c0-0.386,0.312-0.698,0.697-0.698c0.385,0,0.698,0.312,0.698,0.698
	C20.116,17.871,19.804,18.183,19.418,18.183z M19.418,15.392c-0.386,0-0.697-0.312-0.697-0.698c0-0.385,0.312-0.698,0.697-0.698
	c0.385,0,0.698,0.312,0.698,0.698C20.116,15.079,19.804,15.392,19.418,15.392z M19.418,12.602c-0.386,0-0.697-0.312-0.697-0.698
	c0-0.386,0.312-0.698,0.697-0.698c0.385,0,0.698,0.312,0.698,0.698C20.116,12.29,19.804,12.602,19.418,12.602z M19.418,9.81
	c-0.386,0-0.697-0.312-0.697-0.698c0-0.385,0.312-0.697,0.697-0.697c0.385,0,0.698,0.312,0.698,0.697
	C20.116,9.498,19.804,9.81,19.418,9.81z M28.489,20.974h-6.977v-5.582h6.977V20.974z M28.489,13.997h-6.977V8.415h6.977V13.997z
	 M30.581,20.974c-0.386,0-0.696-0.312-0.696-0.697c0-0.385,0.311-0.698,0.696-0.698c0.387,0,0.698,0.312,0.698,0.698
	C31.279,20.663,30.967,20.974,30.581,20.974z M30.581,18.183c-0.386,0-0.696-0.312-0.696-0.698c0-0.386,0.311-0.698,0.696-0.698
	c0.387,0,0.698,0.312,0.698,0.698C31.279,17.871,30.967,18.183,30.581,18.183z M30.581,15.392c-0.386,0-0.696-0.312-0.696-0.698
	c0-0.385,0.311-0.698,0.696-0.698c0.387,0,0.698,0.312,0.698,0.698C31.279,15.079,30.967,15.392,30.581,15.392z M30.581,12.602
	c-0.386,0-0.696-0.312-0.696-0.698c0-0.386,0.311-0.698,0.696-0.698c0.387,0,0.698,0.312,0.698,0.698
	C31.279,12.29,30.967,12.602,30.581,12.602z M30.581,9.81c-0.386,0-0.696-0.312-0.696-0.698c0-0.385,0.311-0.697,0.696-0.697
	c0.387,0,0.698,0.312,0.698,0.697C31.279,9.498,30.967,9.81,30.581,9.81z"/>
</svg>
