<?xml version="1.0" encoding="utf-8"?>
<!-- Generator: Adobe Illustrator 15.1.0, SVG Export Plug-In . SVG Version: 6.00 Build 0)  -->
<!DOCTYPE svg PUBLIC "-//W3C//DTD SVG 1.1//EN" "http://www.w3.org/Graphics/SVG/1.1/DTD/svg11.dtd">
<svg version="1.1" id="Layer_1" xmlns="http://www.w3.org/2000/svg" xmlns:xlink="http://www.w3.org/1999/xlink" x="0px" y="0px"
	 width="16px" height="21px" viewBox="0 0 16 21" enable-background="new 0 0 16 21" xml:space="preserve">
<g>
	<path fill="#F0E84B" d="M2.545,20.123c-1.152,0-2.089-0.938-2.089-2.089v-7.689c0-1.096,0.848-1.998,1.923-2.083V6.466
		c0-3.082,2.507-5.589,5.589-5.589s5.591,2.507,5.591,5.589v1.792c1.104,0.054,1.985,0.969,1.985,2.086v7.689
		c0,1.152-0.937,2.089-2.089,2.089L2.545,20.123L2.545,20.123z M10.355,8.256v-1.79c0-1.316-1.07-2.388-2.389-2.388
		c-1.317,0-2.389,1.071-2.389,2.388v1.79H10.355z"/>
	<path d="M7.968,1.177c2.917,0,5.29,2.373,5.29,5.289v2.09h0.197c0.99,0,1.789,0.801,1.789,1.789v7.689
		c0,0.989-0.799,1.789-1.789,1.789H2.545c-0.988,0-1.789-0.8-1.789-1.789v-7.689c0-0.988,0.801-1.789,1.789-1.789h0.134v-2.09
		C2.679,3.55,5.052,1.177,7.968,1.177 M5.279,8.556h5.377v-2.09c0-1.482-1.205-2.688-2.688-2.688c-1.482,0-2.688,1.206-2.688,2.688
		L5.279,8.556 M7.968,0.577c-3.247,0-5.889,2.642-5.889,5.889v1.536c-1.095,0.217-1.923,1.186-1.923,2.343v7.689
		c0,1.317,1.072,2.389,2.389,2.389h10.91c1.316,0,2.389-1.071,2.389-2.389v-7.689c0-1.18-0.859-2.163-1.986-2.355V6.466
		C13.857,3.219,11.216,0.577,7.968,0.577L7.968,0.577z M5.879,7.956v-1.49c0-1.151,0.937-2.087,2.088-2.087
		c1.151,0,2.09,0.937,2.09,2.087v1.49H5.879L5.879,7.956z"/>
</g>
</svg>
