<?xml version="1.0" encoding="utf-8"?>
<!-- Generator: Adobe Illustrator 15.1.0, SVG Export Plug-In . SVG Version: 6.00 Build 0)  -->
<!DOCTYPE svg PUBLIC "-//W3C//DTD SVG 1.1//EN" "http://www.w3.org/Graphics/SVG/1.1/DTD/svg11.dtd">
<svg version="1.1" id="Layer_1" xmlns="http://www.w3.org/2000/svg" xmlns:xlink="http://www.w3.org/1999/xlink" x="0px" y="0px"
	 width="6px" height="12px" viewBox="0 0 6 12" enable-background="new 0 0 6 12" xml:space="preserve">
<path fill="#FFFFFF" d="M3.163,1.223v1.985H5.03v1.81H3.163v2.568c0,0.555-0.007,0.875,0.053,1.034
	C3.272,8.774,3.42,8.938,3.579,9.03c0.212,0.127,0.453,0.19,0.725,0.19c0.483,0,1.218-0.156,1.696-0.473v1.509
	c-0.407,0.191-0.777,0.326-1.108,0.404c-0.331,0.077-0.689,0.116-1.073,0.116c-0.438,0-0.695-0.057-1.031-0.166
	c-0.335-0.108-0.622-0.267-0.858-0.471C1.692,9.936,1.527,9.719,1.436,9.487C1.344,9.258,1.298,8.926,1.298,8.489V5.018H0V3.784
	C0.375,3.663,0.812,3.488,1.079,3.26c0.267-0.226,0.481-0.5,0.644-0.819c0.162-0.318,0.273-0.726,0.334-1.218H3.163z"/>
</svg>
