<?xml version="1.0" encoding="utf-8"?>
<!-- Generator: Adobe Illustrator 15.1.0, SVG Export Plug-In . SVG Version: 6.00 Build 0)  -->
<!DOCTYPE svg PUBLIC "-//W3C//DTD SVG 1.1//EN" "http://www.w3.org/Graphics/SVG/1.1/DTD/svg11.dtd">
<svg version="1.1" id="Layer_1" xmlns="http://www.w3.org/2000/svg" xmlns:xlink="http://www.w3.org/1999/xlink" x="0px" y="0px"
	 width="34px" height="34px" viewBox="-2.5 -7 34 34" enable-background="new -2.5 -7 34 34" xml:space="preserve">
<path fill="#FFFFFF" d="M26.74,10.224c-0.862,0.146-2.114-0.005-2.775-0.279c1.378-0.114,2.309-0.733,2.666-1.576
	c-0.495,0.303-2.035,0.632-2.882,0.318c-0.043-0.198-0.089-0.386-0.137-0.556c-0.646-2.362-2.864-4.267-5.188-4.036
	c0.188-0.075,0.377-0.144,0.568-0.208c0.254-0.09,1.755-0.335,1.52-0.86c-0.201-0.464-2.035,0.347-2.38,0.456
	c0.456-0.17,1.209-0.463,1.292-0.984c-0.699,0.095-1.386,0.423-1.914,0.9c0.19-0.203,0.337-0.453,0.367-0.721
	c-1.861,1.182-2.95,3.563-3.831,5.875c-0.689-0.666-1.304-1.19-1.855-1.482c-1.538-0.82-3.384-1.676-6.277-2.745
	c-0.089,0.95,0.471,2.217,2.092,3.057C7.655,7.335,7.015,7.442,6.501,7.562c0.21,1.091,0.895,1.987,2.741,2.42
	c-0.846,0.055-1.283,0.249-1.68,0.66c0.385,0.759,1.324,1.649,3.015,1.466c-1.879,0.806-0.767,2.294,0.762,2.072
	c-2.606,2.676-6.717,2.479-9.079,0.242c6.165,8.343,19.563,4.932,21.561-3.104C25.314,11.33,26.195,10.805,26.74,10.224z"/>
</svg>
