<?xml version="1.0" encoding="utf-8"?>
<!-- Generator: Adobe Illustrator 15.1.0, SVG Export Plug-In . SVG Version: 6.00 Build 0)  -->
<!DOCTYPE svg PUBLIC "-//W3C//DTD SVG 1.1//EN" "http://www.w3.org/Graphics/SVG/1.1/DTD/svg11.dtd">
<svg version="1.1" id="Layer_1" xmlns="http://www.w3.org/2000/svg" xmlns:xlink="http://www.w3.org/1999/xlink" x="0px" y="0px"
	 width="45px" height="45px" viewBox="0 0 45 45" enable-background="new 0 0 45 45" xml:space="preserve">
<g>
	<path fill="#676867" d="M31.171,11.712H12.389c-1.152,0-2.087,0.937-2.088,2.093v18.829c0,1.154,0.936,2.095,2.088,2.095h18.782
		c1.152,0,2.088-0.939,2.088-2.095V13.805C33.259,12.649,32.323,11.712,31.171,11.712z M13.432,32.634
		c-0.576,0-1.043-0.469-1.043-1.047c0-0.573,0.467-1.047,1.043-1.047c0.574,0,1.043,0.469,1.043,1.047S14.009,32.634,13.432,32.634z
		 M13.432,28.45c-0.576,0-1.043-0.472-1.043-1.05c0-0.575,0.467-1.045,1.043-1.045c0.574,0,1.043,0.47,1.043,1.045
		C14.475,27.979,14.009,28.45,13.432,28.45z M13.432,24.266c-0.576,0-1.043-0.468-1.043-1.047c0-0.576,0.467-1.044,1.043-1.044
		c0.574,0,1.043,0.469,1.043,1.044C14.475,23.796,14.009,24.266,13.432,24.266z M13.432,20.083c-0.576,0-1.043-0.469-1.043-1.047
		s0.467-1.047,1.043-1.047c0.574,0,1.043,0.469,1.043,1.047C14.475,19.617,14.009,20.083,13.432,20.083z M13.432,15.897
		c-0.576,0-1.043-0.468-1.043-1.047c0-0.577,0.467-1.045,1.043-1.045c0.574,0,1.043,0.468,1.043,1.045
		C14.475,15.429,14.009,15.897,13.432,15.897z M26.997,32.634H16.562v-8.368h10.437v8.368H26.997z M26.997,22.173H16.562v-8.368
		h10.437v8.368H26.997z M30.126,32.634c-0.576,0-1.041-0.469-1.041-1.047c0-0.573,0.465-1.047,1.041-1.047
		c0.578,0,1.045,0.469,1.045,1.047S30.702,32.634,30.126,32.634z M30.126,28.45c-0.576,0-1.041-0.472-1.041-1.05
		c0-0.575,0.465-1.045,1.041-1.045c0.578,0,1.045,0.47,1.045,1.045C31.171,27.979,30.702,28.45,30.126,28.45z M30.126,24.266
		c-0.576,0-1.041-0.468-1.041-1.047c0-0.576,0.465-1.044,1.041-1.044c0.578,0,1.045,0.469,1.045,1.044
		C31.171,23.796,30.702,24.266,30.126,24.266z M30.126,20.083c-0.576,0-1.041-0.469-1.041-1.047s0.465-1.047,1.041-1.047
		c0.578,0,1.045,0.469,1.045,1.047C31.171,19.617,30.702,20.083,30.126,20.083z M30.126,15.897c-0.576,0-1.041-0.468-1.041-1.047
		c0-0.577,0.465-1.045,1.041-1.045c0.578,0,1.045,0.468,1.045,1.045C31.171,15.429,30.702,15.897,30.126,15.897z"/>
	<g>
		<path fill="#676867" d="M33.415,7.738h2.59V4.861h2.106v2.875h2.59V9.68h-2.59v2.876h-2.106V9.681h-2.59V7.738z"/>
		<path fill="#676867" d="M38.111,12.712h-2.106c-0.086,0-0.155-0.07-0.155-0.156v-2.72h-2.435c-0.086,0-0.156-0.07-0.156-0.157
			V7.738c0-0.086,0.07-0.156,0.156-0.156h2.435v-2.72c-0.002-0.086,0.069-0.156,0.155-0.156h2.106c0.087,0,0.156,0.07,0.156,0.156
			v2.719h2.434c0.087,0,0.156,0.07,0.156,0.157v1.943c0,0.087-0.069,0.157-0.156,0.157h-2.434v2.719
			C38.268,12.643,38.198,12.712,38.111,12.712z M36.16,12.398h1.796V9.681c0-0.086,0.069-0.156,0.155-0.156h2.435v-1.63h-2.435
			c-0.086,0-0.155-0.07-0.155-0.157V5.019H36.16v2.719c0,0.087-0.069,0.157-0.155,0.157H33.57v1.63h2.435
			c0.086,0,0.155,0.07,0.155,0.156V12.398z"/>
	</g>
</g>
</svg>
