<?xml version="1.0" encoding="utf-8"?>
<!-- Generator: Adobe Illustrator 15.1.0, SVG Export Plug-In . SVG Version: 6.00 Build 0)  -->
<!DOCTYPE svg PUBLIC "-//W3C//DTD SVG 1.1//EN" "http://www.w3.org/Graphics/SVG/1.1/DTD/svg11.dtd">
<svg version="1.1" id="Layer_1" xmlns="http://www.w3.org/2000/svg" xmlns:xlink="http://www.w3.org/1999/xlink" x="0px" y="0px"
	 width="7.619px" height="10px" viewBox="0 0 7.619 10" enable-background="new 0 0 7.619 10" xml:space="preserve">
<g>
	<path fill="#F0E84B" d="M1.06,9.85c-0.581,0-1.053-0.473-1.053-1.054V4.922c0-0.552,0.427-1.007,0.969-1.049V2.967
		c0-1.553,1.264-2.816,2.816-2.816c1.552,0,2.816,1.264,2.816,2.816V3.87C7.165,3.896,7.61,4.357,7.61,4.921v3.875
		c0,0.581-0.473,1.054-1.053,1.054H1.06L1.06,9.85z M4.995,3.869V2.967c0-0.662-0.539-1.203-1.203-1.203
		c-0.664,0-1.203,0.541-1.203,1.203v0.902H4.995z"/>
	<path d="M3.792,0.302c1.47,0,2.666,1.196,2.666,2.665V4.02H6.56c0.498,0,0.9,0.403,0.9,0.901v3.874c0,0.499-0.402,0.902-0.9,0.902
		h-5.5c-0.498,0-0.902-0.403-0.902-0.902V4.921c0-0.498,0.404-0.901,0.902-0.901h0.066V2.967C1.128,1.498,2.324,0.302,3.792,0.302
		 M2.438,4.021h2.709V2.967c0-0.746-0.607-1.354-1.355-1.354c-0.746,0-1.354,0.607-1.354,1.354L2.438,4.021 M3.792,0
		C2.158,0,0.826,1.331,0.826,2.967v0.774C0.274,3.85-0.143,4.339-0.143,4.922v3.874C-0.143,9.46,0.397,10,1.061,10H6.56
		c0.662,0,1.203-0.54,1.203-1.204V4.922c0-0.595-0.434-1.09-1.002-1.188V2.967C6.761,1.331,5.429,0,3.792,0L3.792,0z M2.74,3.718
		V2.967c0-0.58,0.473-1.052,1.053-1.052c0.58,0,1.052,0.472,1.052,1.052v0.751H2.74L2.74,3.718z"/>
</g>
</svg>
