<?xml version="1.0" encoding="utf-8"?>
<!-- Generator: Adobe Illustrator 15.1.0, SVG Export Plug-In . SVG Version: 6.00 Build 0)  -->
<!DOCTYPE svg PUBLIC "-//W3C//DTD SVG 1.1//EN" "http://www.w3.org/Graphics/SVG/1.1/DTD/svg11.dtd">
<svg version="1.1" id="Layer_1" xmlns="http://www.w3.org/2000/svg" xmlns:xlink="http://www.w3.org/1999/xlink" x="0px" y="0px"
	 width="34px" height="34px" viewBox="0 0 34 34" enable-background="new 0 0 34 34" xml:space="preserve">
<path fill="#787878" d="M14.368,26.994V16.989h-2.181v-3.518h2.159c0,0,0-1.125,0-3.193c0-2.066,1.49-3.272,4.11-3.272
	c2.621,0,3.313,0,3.313,0l-0.006,3.396c0,0-1.693,0-2.322,0s-0.901,0.574-0.901,0.88c0,0.307,0,2.25,0,2.25h3.271l-0.375,3.458
	h-2.793l-0.031,10.005L14.368,26.994L14.368,26.994z"/>
<g>
	<g>
		<path fill="#787878" d="M25.076,4.917h2.271v-2.4h1.85v2.401h2.271v1.624h-2.271v2.401h-1.85V6.542h-2.271V4.917z"/>
		<path fill="#787878" d="M29.195,9.299h-1.85c-0.207,0-0.375-0.16-0.375-0.356V6.898h-1.896c-0.207,0-0.373-0.16-0.373-0.356V4.917
			c0-0.196,0.167-0.356,0.373-0.356h1.896V2.517c0-0.196,0.168-0.356,0.375-0.356h1.85c0.205,0,0.373,0.16,0.373,0.356v2.045h1.896
			c0.206,0,0.373,0.16,0.373,0.356V6.54c0,0.197-0.167,0.356-0.373,0.356h-1.896v2.046C29.568,9.14,29.4,9.299,29.195,9.299z
			 M27.723,8.586h1.104V6.542c0-0.198,0.168-0.357,0.374-0.357h1.896v-0.91H29.2c-0.206,0-0.374-0.159-0.374-0.357V2.874h-1.104
			v2.045c0,0.198-0.171,0.357-0.375,0.357H25.45v0.909h1.897c0.203,0,0.375,0.159,0.375,0.357V8.586L27.723,8.586z"/>
	</g>
</g>
</svg>
