<?xml version="1.0" encoding="utf-8"?>
<!-- Generator: Adobe Illustrator 15.1.0, SVG Export Plug-In . SVG Version: 6.00 Build 0)  -->
<!DOCTYPE svg PUBLIC "-//W3C//DTD SVG 1.1//EN" "http://www.w3.org/Graphics/SVG/1.1/DTD/svg11.dtd">
<svg version="1.1" id="Layer_1" xmlns="http://www.w3.org/2000/svg" xmlns:xlink="http://www.w3.org/1999/xlink" x="0px" y="0px"
	 width="7.619px" height="10px" viewBox="4.19 5.5 7.619 10" enable-background="new 4.19 5.5 7.619 10" xml:space="preserve">
<g>
	<path fill="#F0E84B" d="M5.251,15.349c-0.581,0-1.053-0.472-1.053-1.053v-3.874c0-0.552,0.427-1.007,0.969-1.049V8.467
		c0-1.553,1.263-2.816,2.816-2.816s2.817,1.263,2.817,2.816V9.37c0.557,0.027,1.001,0.488,1.001,1.051v3.875
		c0,0.581-0.473,1.053-1.053,1.053H5.251L5.251,15.349z M9.187,9.369V8.467c0-0.663-0.539-1.203-1.203-1.203
		c-0.664,0-1.204,0.54-1.204,1.203v0.902H9.187z"/>
	<path d="M7.984,5.802c1.469,0,2.666,1.196,2.666,2.665v1.053h0.1c0.499,0,0.901,0.403,0.901,0.901v3.874
		c0,0.499-0.402,0.902-0.901,0.902H5.251c-0.498,0-0.902-0.403-0.902-0.902v-3.874c0-0.498,0.404-0.901,0.902-0.901h0.067V8.467
		C5.319,6.998,6.515,5.802,7.984,5.802 M6.629,9.521h2.71V8.467c0-0.747-0.607-1.354-1.355-1.354c-0.747,0-1.354,0.608-1.354,1.354
		L6.629,9.521 M7.984,5.5c-1.636,0-2.967,1.331-2.967,2.967v0.774c-0.552,0.109-0.969,0.598-0.969,1.181v3.874
		c0,0.664,0.54,1.204,1.204,1.204h5.498c0.663,0,1.203-0.54,1.203-1.204v-3.874c0-0.595-0.433-1.09-1.001-1.187V8.467
		C10.951,6.831,9.62,5.5,7.984,5.5L7.984,5.5z M6.931,9.218V8.467c0-0.58,0.472-1.052,1.052-1.052s1.053,0.472,1.053,1.052v0.751
		H6.931L6.931,9.218z"/>
</g>
</svg>
