<?xml version="1.0" encoding="utf-8"?>
<!-- Generator: Adobe Illustrator 15.1.0, SVG Export Plug-In . SVG Version: 6.00 Build 0)  -->
<!DOCTYPE svg PUBLIC "-//W3C//DTD SVG 1.1//EN" "http://www.w3.org/Graphics/SVG/1.1/DTD/svg11.dtd">
<svg version="1.1" id="Layer_1" xmlns="http://www.w3.org/2000/svg" xmlns:xlink="http://www.w3.org/1999/xlink" x="0px" y="0px"
	 width="30px" height="30px" viewBox="0 0 30 30" enable-background="new 0 0 30 30" xml:space="preserve">
<g>
	<g>
		<path fill="#676867" d="M20.869,6.984H2.087C0.935,6.984,0.001,7.921,0,9.077v18.83C0,29.062,0.935,30,2.087,30h18.782
			c1.153,0,2.087-0.938,2.087-2.093V9.077C22.956,7.921,22.021,6.984,20.869,6.984z M3.13,27.907c-0.577,0-1.043-0.468-1.043-1.046
			c0-0.576,0.467-1.046,1.043-1.046c0.575,0,1.044,0.468,1.044,1.046C4.174,27.44,3.708,27.907,3.13,27.907z M3.13,23.723
			c-0.577,0-1.043-0.469-1.043-1.047c0-0.579,0.467-1.046,1.043-1.046c0.575,0,1.044,0.467,1.044,1.046
			C4.174,23.254,3.708,23.723,3.13,23.723z M3.13,19.538c-0.577,0-1.043-0.468-1.043-1.047c0-0.577,0.467-1.046,1.043-1.046
			c0.575,0,1.044,0.468,1.044,1.046C4.174,19.068,3.708,19.538,3.13,19.538z M3.13,15.354c-0.577,0-1.043-0.468-1.043-1.047
			c0-0.578,0.467-1.046,1.043-1.046c0.575,0,1.044,0.468,1.044,1.046C4.174,14.887,3.708,15.354,3.13,15.354z M3.13,11.169
			c-0.577,0-1.043-0.468-1.043-1.047c0-0.577,0.467-1.045,1.043-1.045c0.575,0,1.044,0.468,1.044,1.045
			C4.174,10.701,3.708,11.169,3.13,11.169z M16.696,27.907H6.261v-8.369h10.436V27.907z M16.696,17.446H6.261V9.077h10.436V17.446z
			 M19.824,27.907c-0.577,0-1.041-0.468-1.041-1.046c0-0.576,0.464-1.046,1.041-1.046c0.579,0,1.045,0.468,1.045,1.046
			C20.869,27.44,20.401,27.907,19.824,27.907z M19.824,23.723c-0.577,0-1.041-0.469-1.041-1.047c0-0.579,0.464-1.046,1.041-1.046
			c0.579,0,1.045,0.467,1.045,1.046C20.869,23.254,20.401,23.723,19.824,23.723z M19.824,19.538c-0.577,0-1.041-0.468-1.041-1.047
			c0-0.577,0.464-1.046,1.041-1.046c0.579,0,1.045,0.468,1.045,1.046C20.869,19.068,20.401,19.538,19.824,19.538z M19.824,15.354
			c-0.577,0-1.041-0.468-1.041-1.047c0-0.578,0.464-1.046,1.041-1.046c0.579,0,1.045,0.468,1.045,1.046
			C20.869,14.887,20.401,15.354,19.824,15.354z M19.824,11.169c-0.577,0-1.041-0.468-1.041-1.047c0-0.577,0.464-1.045,1.041-1.045
			c0.579,0,1.045,0.468,1.045,1.045C20.869,10.701,20.401,11.169,19.824,11.169z"/>
	</g>
	<g>
		<g>
			<path fill="#676867" d="M22.556,3.032h2.59V0.156h2.107v2.875h2.59v1.943h-2.59v2.876h-2.107V4.975h-2.59V3.032z"/>
			<path fill="#676867" d="M27.253,8.007h-2.107c-0.086,0-0.156-0.07-0.156-0.156V5.131h-2.434c-0.086,0-0.155-0.07-0.155-0.157
				V3.032c0-0.086,0.069-0.156,0.155-0.156h2.434V0.156C24.989,0.07,25.06,0,25.146,0h2.107c0.087,0,0.156,0.07,0.156,0.156v2.719
				h2.434C29.93,2.875,30,2.945,30,3.032v1.943c0,0.087-0.07,0.157-0.157,0.157h-2.434v2.719C27.409,7.937,27.34,8.007,27.253,8.007
				z M25.302,7.693h1.795V4.975c0-0.086,0.07-0.156,0.156-0.156h2.434v-1.63h-2.434c-0.086,0-0.156-0.07-0.156-0.157V0.313h-1.795
				v2.719c0,0.087-0.07,0.157-0.156,0.157h-2.434v1.63h2.434c0.086,0,0.156,0.07,0.156,0.156V7.693z"/>
		</g>
	</g>
</g>
</svg>
