<?xml version="1.0" encoding="utf-8"?>
<!-- Generator: Adobe Illustrator 15.1.0, SVG Export Plug-In . SVG Version: 6.00 Build 0)  -->
<!DOCTYPE svg PUBLIC "-//W3C//DTD SVG 1.1//EN" "http://www.w3.org/Graphics/SVG/1.1/DTD/svg11.dtd">
<svg version="1.1" id="Layer_1" xmlns="http://www.w3.org/2000/svg" xmlns:xlink="http://www.w3.org/1999/xlink" x="0px" y="0px"
	 width="50px" height="41px" viewBox="0 0 50 41" enable-background="new 0 0 50 41" xml:space="preserve">
<g>
	<g>
		<path fill="#666766" d="M18.478,30.946c-0.11-0.037-0.262-0.075-0.457-0.116c-0.194-0.04-0.42-0.061-0.676-0.061
			c-0.147,0-0.303,0.016-0.468,0.045s-0.28,0.055-0.346,0.076V35.5H15.2v-5.478c0.256-0.096,0.577-0.186,0.962-0.27
			c0.385-0.085,0.812-0.127,1.281-0.127c0.088,0,0.191,0.006,0.308,0.017s0.235,0.025,0.352,0.044s0.231,0.04,0.341,0.066
			c0.11,0.025,0.198,0.049,0.264,0.071L18.478,30.946z"/>
		<path fill="#666766" d="M24.835,32.618c0,0.455-0.066,0.869-0.198,1.243s-0.319,0.692-0.561,0.957
			c-0.242,0.264-0.534,0.469-0.875,0.615c-0.341,0.147-0.717,0.221-1.127,0.221s-0.785-0.073-1.122-0.221
			c-0.337-0.146-0.627-0.352-0.869-0.615c-0.242-0.265-0.431-0.583-0.566-0.957s-0.204-0.788-0.204-1.243s0.068-0.867,0.204-1.237
			s0.326-0.688,0.572-0.952c0.246-0.264,0.537-0.467,0.875-0.61c0.337-0.143,0.708-0.215,1.111-0.215s0.775,0.072,1.116,0.215
			c0.341,0.144,0.633,0.347,0.875,0.61c0.242,0.265,0.431,0.582,0.567,0.952C24.768,31.751,24.835,32.163,24.835,32.618z
			 M23.472,32.618c0-0.572-0.123-1.024-0.369-1.358s-0.588-0.501-1.028-0.501s-0.783,0.167-1.028,0.501
			c-0.246,0.334-0.369,0.786-0.369,1.358c0,0.579,0.123,1.038,0.369,1.375c0.246,0.337,0.588,0.506,1.028,0.506
			s0.783-0.169,1.028-0.506S23.472,33.197,23.472,32.618z"/>
		<path fill="#666766" d="M28.212,35.61c-0.396-0.008-0.725-0.052-0.984-0.133c-0.261-0.08-0.468-0.195-0.621-0.346
			c-0.154-0.15-0.263-0.338-0.325-0.562s-0.093-0.479-0.093-0.765v-6.622l1.33-0.22v6.589c0,0.162,0.014,0.297,0.039,0.407
			s0.071,0.203,0.138,0.28c0.065,0.077,0.155,0.136,0.27,0.176c0.113,0.041,0.258,0.072,0.435,0.094L28.212,35.61z"/>
		<path fill="#666766" d="M31.479,35.61c-0.396-0.008-0.725-0.052-0.985-0.133c-0.26-0.08-0.467-0.195-0.621-0.346
			s-0.262-0.338-0.324-0.562s-0.094-0.479-0.094-0.765v-6.622l1.331-0.22v6.589c0,0.162,0.013,0.297,0.038,0.407
			c0.026,0.11,0.072,0.203,0.138,0.28c0.066,0.077,0.156,0.136,0.27,0.176c0.114,0.041,0.259,0.072,0.435,0.094L31.479,35.61z"/>
		<path fill="#666766" d="M34.186,34.543c0.352,0,0.608-0.042,0.77-0.127c0.161-0.084,0.242-0.229,0.242-0.434
			c0-0.191-0.086-0.349-0.259-0.474c-0.172-0.124-0.456-0.26-0.852-0.407c-0.242-0.088-0.465-0.181-0.666-0.28
			c-0.202-0.099-0.376-0.214-0.522-0.347c-0.147-0.132-0.263-0.291-0.347-0.479c-0.084-0.187-0.127-0.416-0.127-0.688
			c0-0.527,0.194-0.943,0.583-1.248c0.39-0.305,0.917-0.457,1.585-0.457c0.337,0,0.66,0.032,0.968,0.094
			c0.308,0.062,0.539,0.123,0.693,0.182l-0.242,1.078c-0.147-0.066-0.334-0.127-0.562-0.182s-0.491-0.082-0.792-0.082
			c-0.271,0-0.491,0.046-0.66,0.137c-0.169,0.092-0.253,0.233-0.253,0.424c0,0.096,0.017,0.18,0.05,0.253s0.09,0.142,0.171,0.204
			c0.08,0.062,0.187,0.124,0.318,0.187s0.294,0.127,0.484,0.192c0.315,0.117,0.583,0.233,0.803,0.347s0.401,0.242,0.545,0.385
			c0.143,0.144,0.247,0.307,0.313,0.489c0.065,0.184,0.099,0.404,0.099,0.66c0,0.551-0.203,0.967-0.61,1.249
			s-0.988,0.423-1.743,0.423c-0.506,0-0.914-0.042-1.222-0.126s-0.524-0.152-0.648-0.203l0.23-1.111
			c0.198,0.081,0.435,0.157,0.71,0.23C33.521,34.507,33.833,34.543,34.186,34.543z"/>
	</g>
</g>
<g>
	<g>
		<path fill="#666766" d="M30.432,14.62c0,3.586-2.906,6.492-6.493,6.492c-3.585,0-6.492-2.906-6.492-6.492
			c0-3.585,2.907-6.492,6.492-6.492C27.525,8.127,30.432,11.035,30.432,14.62z M23.938,10.324c-2.373,0-4.296,1.923-4.296,4.296
			c0,2.373,1.923,4.296,4.296,4.296c2.374,0,4.297-1.923,4.297-4.296C28.235,12.247,26.312,10.324,23.938,10.324z"/>
		<g>
			<path fill="#666766" d="M29.873,11.458c-2.778,0-4.111-0.919-4.292-1.056c-0.44-0.33-0.53-0.952-0.201-1.392
				c0.326-0.437,0.941-0.527,1.38-0.21c0.06,0.04,1.842,1.19,5.847,0.368c0.534-0.11,1.063,0.236,1.175,0.774
				c0.11,0.538-0.236,1.063-0.774,1.174C31.808,11.363,30.766,11.458,29.873,11.458z"/>
		</g>
	</g>
</g>
</svg>
