<?xml version="1.0" encoding="utf-8"?>
<!-- Generator: Adobe Illustrator 15.1.0, SVG Export Plug-In . SVG Version: 6.00 Build 0)  -->
<!DOCTYPE svg PUBLIC "-//W3C//DTD SVG 1.1//EN" "http://www.w3.org/Graphics/SVG/1.1/DTD/svg11.dtd">
<svg version="1.1" id="Layer_1" xmlns="http://www.w3.org/2000/svg" xmlns:xlink="http://www.w3.org/1999/xlink" x="0px" y="0px"
	 width="34px" height="34px" viewBox="0 0 34 34" enable-background="new 0 0 34 34" xml:space="preserve">
<g>
	<path fill="#787878" d="M14.075,28.979V17.861h-2.422v-3.909h2.399c0,0,0-1.25,0-3.547c0-2.297,1.655-3.637,4.567-3.637
		c2.912,0,3.682,0,3.682,0l-0.006,3.773c0,0-1.882,0-2.58,0c-0.699,0-1.003,0.637-1.003,0.978c0,0.34,0,2.5,0,2.5h3.636
		l-0.419,3.842h-3.102l-0.034,11.115L14.075,28.979z"/>
	<g>
		<g>
			<path fill="#787878" d="M25.076,4.917h2.271V2.517h1.85v2.401h2.271v1.624h-2.271v2.401h-1.85V6.542h-2.271V4.917z"/>
			<path fill="#787878" d="M29.196,9.299h-1.85c-0.207,0-0.375-0.16-0.375-0.356V6.898h-1.896c-0.207,0-0.373-0.16-0.373-0.356
				V4.917c0-0.196,0.167-0.356,0.373-0.356h1.896V2.517c0-0.196,0.168-0.356,0.375-0.356h1.85c0.205,0,0.373,0.16,0.373,0.356v2.045
				h1.898c0.206,0,0.373,0.16,0.373,0.356V6.54c0,0.197-0.167,0.356-0.373,0.356h-1.898v2.046
				C29.569,9.14,29.401,9.299,29.196,9.299z M27.722,8.586h1.103V6.542c0-0.198,0.168-0.357,0.374-0.357h1.898V5.275h-1.898
				c-0.206,0-0.374-0.159-0.374-0.357V2.874h-1.103v2.045c0,0.198-0.169,0.357-0.375,0.357h-1.897v0.909h1.897
				c0.206,0,0.375,0.159,0.375,0.357V8.586z"/>
		</g>
	</g>
</g>
</svg>
