<?xml version="1.0" encoding="utf-8"?>
<!-- Generator: Adobe Illustrator 15.1.0, SVG Export Plug-In . SVG Version: 6.00 Build 0)  -->
<!DOCTYPE svg PUBLIC "-//W3C//DTD SVG 1.1//EN" "http://www.w3.org/Graphics/SVG/1.1/DTD/svg11.dtd">
<svg version="1.1" id="Layer_1" xmlns="http://www.w3.org/2000/svg" xmlns:xlink="http://www.w3.org/1999/xlink" x="0px" y="0px"
	 width="50px" height="41px" viewBox="0 0 50 41" enable-background="new 0 0 50 41" xml:space="preserve">
<path fill="#666766" d="M31.904,7.019H19.346c-0.771,0-1.395,0.625-1.396,1.396v12.559c0,0.771,0.625,1.396,1.396,1.396h12.558
	c0.771,0,1.396-0.625,1.396-1.396V8.415C33.3,7.644,32.675,7.019,31.904,7.019z M20.043,20.974c-0.386,0-0.697-0.312-0.697-0.697
	c0-0.385,0.312-0.698,0.697-0.698c0.385,0,0.698,0.312,0.698,0.698C20.741,20.663,20.429,20.974,20.043,20.974z M20.043,18.183
	c-0.386,0-0.697-0.312-0.697-0.698c0-0.386,0.312-0.698,0.697-0.698c0.385,0,0.698,0.312,0.698,0.698
	C20.741,17.871,20.429,18.183,20.043,18.183z M20.043,15.392c-0.386,0-0.697-0.312-0.697-0.698c0-0.385,0.312-0.698,0.697-0.698
	c0.385,0,0.698,0.312,0.698,0.698C20.741,15.079,20.429,15.392,20.043,15.392z M20.043,12.602c-0.386,0-0.697-0.312-0.697-0.698
	c0-0.386,0.312-0.698,0.697-0.698c0.385,0,0.698,0.312,0.698,0.698C20.741,12.29,20.429,12.602,20.043,12.602z M20.043,9.81
	c-0.386,0-0.697-0.312-0.697-0.698c0-0.385,0.312-0.697,0.697-0.697c0.385,0,0.698,0.312,0.698,0.697
	C20.741,9.498,20.429,9.81,20.043,9.81z M29.114,20.974h-6.977v-5.582h6.977V20.974z M29.114,13.997h-6.977V8.415h6.977V13.997z
	 M31.206,20.974c-0.386,0-0.696-0.312-0.696-0.697c0-0.385,0.311-0.698,0.696-0.698c0.387,0,0.698,0.312,0.698,0.698
	C31.904,20.663,31.592,20.974,31.206,20.974z M31.206,18.183c-0.386,0-0.696-0.312-0.696-0.698c0-0.386,0.311-0.698,0.696-0.698
	c0.387,0,0.698,0.312,0.698,0.698C31.904,17.871,31.592,18.183,31.206,18.183z M31.206,15.392c-0.386,0-0.696-0.312-0.696-0.698
	c0-0.385,0.311-0.698,0.696-0.698c0.387,0,0.698,0.312,0.698,0.698C31.904,15.079,31.592,15.392,31.206,15.392z M31.206,12.602
	c-0.386,0-0.696-0.312-0.696-0.698c0-0.386,0.311-0.698,0.696-0.698c0.387,0,0.698,0.312,0.698,0.698
	C31.904,12.29,31.592,12.602,31.206,12.602z M31.206,9.81c-0.386,0-0.696-0.312-0.696-0.698c0-0.385,0.311-0.697,0.696-0.697
	c0.387,0,0.698,0.312,0.698,0.697C31.904,9.498,31.592,9.81,31.206,9.81z"/>
</svg>
