<?xml version="1.0" encoding="utf-8"?>
<!-- Generator: Adobe Illustrator 15.1.0, SVG Export Plug-In . SVG Version: 6.00 Build 0)  -->
<!DOCTYPE svg PUBLIC "-//W3C//DTD SVG 1.1//EN" "http://www.w3.org/Graphics/SVG/1.1/DTD/svg11.dtd">
<svg version="1.1" id="Layer_1" xmlns="http://www.w3.org/2000/svg" xmlns:xlink="http://www.w3.org/1999/xlink" x="0px" y="0px"
	 width="34px" height="29px" viewBox="16.5 14 34 29" enable-background="new 16.5 14 34 29" xml:space="preserve">
<g>
	<path fill="#787878" d="M45.23,32.244c-1.004,0.17-2.46-0.006-3.23-0.324c1.604-0.133,2.687-0.854,3.104-1.835
		c-0.576,0.353-2.369,0.736-3.356,0.37c-0.05-0.23-0.103-0.449-0.159-0.647c-0.752-2.75-3.334-4.967-6.039-4.698
		c0.217-0.088,0.438-0.169,0.662-0.243c0.295-0.105,2.043-0.391,1.768-1.001c-0.234-0.54-2.368,0.404-2.77,0.53
		c0.531-0.198,1.407-0.539,1.504-1.145c-0.814,0.11-1.613,0.492-2.227,1.048c0.221-0.237,0.391-0.528,0.426-0.84
		c-2.167,1.376-3.434,4.148-4.46,6.84c-0.802-0.775-1.518-1.386-2.159-1.726c-1.792-0.954-3.941-1.951-7.309-3.195
		c-0.104,1.107,0.549,2.581,2.435,3.559c-0.408-0.056-1.154,0.068-1.752,0.208c0.244,1.27,1.041,2.314,3.192,2.818
		c-0.984,0.065-1.494,0.29-1.956,0.768c0.448,0.883,1.542,1.92,3.51,1.707c-2.188,0.937-0.893,2.67,0.888,2.412
		c-3.036,3.115-7.821,2.885-10.571,0.281c7.177,9.713,22.775,5.742,25.1-3.613C43.57,33.532,44.595,32.92,45.23,32.244z"/>
	<g>
		<g>
			<path fill="#787878" d="M41.741,17.727h2.863v-3.028h2.332v3.028H49.8v2.046h-2.863v3.028h-2.332v-3.028h-2.863V17.727z"/>
			<path fill="#787878" d="M46.936,23.25h-2.332c-0.26,0-0.47-0.201-0.47-0.449v-2.579h-2.393c-0.261,0-0.471-0.201-0.471-0.449
				v-2.046c0-0.248,0.21-0.449,0.471-0.449h2.393v-2.579c0-0.248,0.211-0.449,0.47-0.449h2.332c0.261,0,0.471,0.201,0.471,0.449
				v2.578h2.393c0.26,0,0.471,0.201,0.471,0.449v2.046c0,0.248-0.211,0.449-0.471,0.449h-2.393V22.8
				C47.407,23.049,47.196,23.25,46.936,23.25z M45.074,22.352h1.391v-2.579c0-0.249,0.211-0.45,0.471-0.45h2.393v-1.146h-2.393
				c-0.261,0-0.471-0.201-0.471-0.45v-2.579h-1.391v2.579c0,0.249-0.211,0.45-0.471,0.45h-2.393v1.146h2.393
				c0.261,0,0.471,0.201,0.471,0.45V22.352z"/>
		</g>
	</g>
</g>
</svg>
