<?xml version="1.0" encoding="utf-8"?>
<!-- Generator: Adobe Illustrator 15.1.0, SVG Export Plug-In . SVG Version: 6.00 Build 0)  -->
<!DOCTYPE svg PUBLIC "-//W3C//DTD SVG 1.1//EN" "http://www.w3.org/Graphics/SVG/1.1/DTD/svg11.dtd">
<svg version="1.1" id="Layer_1" xmlns="http://www.w3.org/2000/svg" xmlns:xlink="http://www.w3.org/1999/xlink" x="0px" y="0px"
	 width="18px" height="12px" viewBox="0 0 18 12" enable-background="new 0 0 18 12" xml:space="preserve">
<path fill="#FFFFFF" d="M17.701,5.535c-0.613,0.104-1.502-0.004-1.972-0.2c0.979-0.081,1.64-0.525,1.895-1.129
	c-0.352,0.217-1.447,0.453-2.05,0.228c-0.03-0.142-0.062-0.277-0.097-0.399c-0.46-1.692-2.036-3.056-3.688-2.891
	c0.133-0.054,0.268-0.104,0.404-0.15c0.181-0.065,1.248-0.24,1.08-0.616c-0.143-0.332-1.446,0.249-1.691,0.326
	c0.324-0.121,0.86-0.331,0.918-0.704c-0.497,0.068-0.984,0.303-1.36,0.645c0.136-0.146,0.239-0.325,0.261-0.517
	c-1.324,0.847-2.098,2.553-2.724,4.209C8.187,3.86,7.75,3.484,7.359,3.275C6.264,2.688,4.952,2.074,2.896,1.309
	C2.832,1.99,3.231,2.897,4.383,3.499c-0.249-0.034-0.705,0.042-1.07,0.128c0.149,0.781,0.635,1.425,1.949,1.735
	C4.661,5.402,4.35,5.54,4.068,5.834c0.274,0.543,0.942,1.182,2.143,1.051C4.875,7.461,5.666,8.528,6.753,8.369
	C4.9,10.286,1.978,10.145,0.299,8.542c4.382,5.977,13.907,3.534,15.326-2.223C16.688,6.328,17.312,5.951,17.701,5.535z"/>
</svg>
