<?xml version="1.0" encoding="utf-8"?>
<!-- Generator: Adobe Illustrator 15.1.0, SVG Export Plug-In . SVG Version: 6.00 Build 0)  -->
<!DOCTYPE svg PUBLIC "-//W3C//DTD SVG 1.1//EN" "http://www.w3.org/Graphics/SVG/1.1/DTD/svg11.dtd">
<svg version="1.1" id="Layer_1" xmlns="http://www.w3.org/2000/svg" xmlns:xlink="http://www.w3.org/1999/xlink" x="0px" y="0px"
	 width="29px" height="20px" viewBox="14 9.5 29 20" enable-background="new 14 9.5 29 20" xml:space="preserve">
<path fill="#FFFFFF" d="M42.75,18.745c-1.004,0.169-2.46-0.006-3.23-0.325c1.604-0.132,2.687-0.853,3.104-1.834
	c-0.576,0.353-2.369,0.736-3.356,0.371c-0.05-0.231-0.103-0.45-0.159-0.648c-0.752-2.75-3.334-4.967-6.039-4.698
	c0.217-0.088,0.438-0.169,0.662-0.243c0.295-0.105,2.043-0.391,1.768-1.001c-0.234-0.54-2.368,0.404-2.77,0.53
	c0.531-0.198,1.407-0.539,1.504-1.145c-0.814,0.11-1.613,0.492-2.227,1.048c0.221-0.237,0.391-0.528,0.426-0.84
	c-2.167,1.376-3.435,4.148-4.461,6.84c-0.802-0.775-1.518-1.386-2.158-1.726c-1.792-0.954-3.941-1.951-7.309-3.195
	c-0.104,1.107,0.548,2.581,2.435,3.559c-0.408-0.056-1.154,0.068-1.752,0.208c0.244,1.27,1.041,2.315,3.192,2.819
	c-0.984,0.065-1.494,0.29-1.956,0.768c0.449,0.883,1.543,1.92,3.51,1.707c-2.188,0.937-0.893,2.67,0.887,2.412
	c-3.035,3.115-7.82,2.885-10.57,0.281c7.177,9.713,22.775,5.742,25.1-3.613C41.09,20.032,42.114,19.42,42.75,18.745z"/>
</svg>
