<?xml version="1.0" encoding="utf-8"?>
<!-- Generator: Adobe Illustrator 15.1.0, SVG Export Plug-In . SVG Version: 6.00 Build 0)  -->
<!DOCTYPE svg PUBLIC "-//W3C//DTD SVG 1.1//EN" "http://www.w3.org/Graphics/SVG/1.1/DTD/svg11.dtd">
<svg version="1.1" id="Layer_1" xmlns="http://www.w3.org/2000/svg" xmlns:xlink="http://www.w3.org/1999/xlink" x="0px" y="0px"
	 width="40px" height="53px" viewBox="30 39.5 40 53" enable-background="new 30 39.5 40 53" xml:space="preserve">
<path fill="#EFEFEF" d="M67.028,39.41H33.697c-1.842,0-3.332,1.479-3.332,3.299v46.202c0,1.27,0.733,2.423,1.89,2.97
	c0.455,0.212,0.951,0.33,1.442,0.33c0.743,0,1.476-0.245,2.085-0.724l14.581-11.553l14.584,11.553
	c0.604,0.478,1.341,0.724,2.083,0.724c0.492,0,0.984-0.108,1.442-0.33c1.157-0.547,1.893-1.7,1.893-2.97V42.709
	C70.362,40.886,68.87,39.41,67.028,39.41z"/>
</svg>
