<?xml version="1.0" encoding="utf-8"?>
<!-- Generator: Adobe Illustrator 15.1.0, SVG Export Plug-In . SVG Version: 6.00 Build 0)  -->
<!DOCTYPE svg PUBLIC "-//W3C//DTD SVG 1.1//EN" "http://www.w3.org/Graphics/SVG/1.1/DTD/svg11.dtd">
<svg version="1.1" id="Layer_1" xmlns="http://www.w3.org/2000/svg" xmlns:xlink="http://www.w3.org/1999/xlink" x="0px" y="0px"
	 width="50px" height="41px" viewBox="0 0 50 41" enable-background="new 0 0 50 41" xml:space="preserve">
<g>
	<path fill="#666766" d="M14.045,34.543c0.352,0,0.608-0.042,0.77-0.127c0.161-0.084,0.242-0.229,0.242-0.434
		c0-0.191-0.086-0.349-0.258-0.474c-0.172-0.124-0.457-0.26-0.853-0.407c-0.242-0.088-0.464-0.181-0.666-0.28
		c-0.202-0.099-0.376-0.214-0.522-0.347c-0.147-0.132-0.262-0.291-0.347-0.479c-0.084-0.187-0.126-0.416-0.126-0.688
		c0-0.527,0.194-0.943,0.583-1.248s0.917-0.457,1.584-0.457c0.337,0,0.66,0.032,0.968,0.094c0.308,0.062,0.539,0.123,0.693,0.182
		l-0.242,1.078c-0.146-0.066-0.333-0.127-0.561-0.182c-0.228-0.055-0.492-0.082-0.792-0.082c-0.271,0-0.492,0.046-0.66,0.137
		c-0.169,0.092-0.253,0.233-0.253,0.424c0,0.096,0.016,0.18,0.049,0.253s0.09,0.142,0.17,0.204c0.081,0.062,0.187,0.124,0.319,0.187
		c0.132,0.062,0.293,0.127,0.484,0.192c0.315,0.117,0.583,0.233,0.803,0.347c0.22,0.113,0.402,0.242,0.544,0.385
		c0.143,0.144,0.248,0.307,0.314,0.489c0.066,0.184,0.099,0.404,0.099,0.66c0,0.551-0.203,0.967-0.61,1.249
		s-0.988,0.423-1.744,0.423c-0.506,0-0.913-0.042-1.221-0.126c-0.308-0.084-0.524-0.152-0.649-0.203l0.231-1.111
		c0.198,0.081,0.434,0.157,0.709,0.23C13.38,34.507,13.693,34.543,14.045,34.543z"/>
	<path fill="#666766" d="M19.545,29.604c0.44,0,0.81,0.056,1.111,0.165c0.301,0.11,0.541,0.265,0.72,0.463
		c0.18,0.197,0.308,0.438,0.385,0.72c0.077,0.283,0.115,0.593,0.115,0.93v3.487c-0.205,0.044-0.515,0.097-0.929,0.159
		c-0.415,0.062-0.882,0.094-1.402,0.094c-0.345,0-0.66-0.033-0.946-0.099c-0.286-0.066-0.53-0.173-0.731-0.319
		s-0.359-0.337-0.473-0.572c-0.114-0.234-0.17-0.524-0.17-0.869c0-0.33,0.064-0.608,0.192-0.836
		c0.128-0.227,0.303-0.412,0.522-0.556c0.22-0.143,0.475-0.245,0.765-0.308s0.592-0.094,0.908-0.094c0.146,0,0.3,0.01,0.462,0.027
		c0.161,0.019,0.333,0.05,0.517,0.094v-0.22c0-0.154-0.019-0.301-0.055-0.44c-0.037-0.139-0.101-0.262-0.192-0.368
		c-0.092-0.106-0.213-0.188-0.363-0.247s-0.339-0.089-0.566-0.089c-0.308,0-0.59,0.022-0.847,0.066
		c-0.257,0.044-0.466,0.096-0.627,0.154l-0.165-1.078c0.168-0.059,0.414-0.117,0.737-0.176S19.178,29.604,19.545,29.604z
		 M19.655,34.565c0.411,0,0.722-0.022,0.935-0.066v-1.474c-0.074-0.022-0.18-0.044-0.319-0.066s-0.293-0.033-0.462-0.033
		c-0.146,0-0.295,0.011-0.445,0.033c-0.15,0.022-0.286,0.062-0.407,0.121s-0.218,0.142-0.292,0.247
		c-0.073,0.106-0.11,0.24-0.11,0.401c0,0.315,0.099,0.534,0.297,0.655C19.05,34.505,19.318,34.565,19.655,34.565z"/>
	<path fill="#666766" d="M24.845,35.5c-0.368-0.755-0.746-1.622-1.132-2.602c-0.387-0.979-0.738-2.029-1.055-3.151h1.419
		c0.081,0.322,0.175,0.669,0.282,1.039c0.106,0.371,0.221,0.741,0.342,1.111s0.247,0.729,0.375,1.078s0.249,0.662,0.359,0.94
		c0.11-0.278,0.229-0.592,0.354-0.94s0.249-0.708,0.37-1.078s0.237-0.74,0.348-1.111c0.11-0.37,0.206-0.717,0.287-1.039h1.376
		c-0.316,1.122-0.668,2.173-1.055,3.151c-0.387,0.979-0.765,1.847-1.133,2.602H24.845z"/>
	<path fill="#666766" d="M28.697,32.651c0-0.507,0.075-0.95,0.226-1.331c0.15-0.382,0.351-0.699,0.6-0.952s0.535-0.443,0.858-0.571
		c0.322-0.129,0.652-0.193,0.99-0.193c0.792,0,1.409,0.246,1.854,0.737c0.443,0.491,0.665,1.225,0.665,2.2
		c0,0.073-0.002,0.156-0.005,0.247c-0.004,0.092-0.01,0.175-0.017,0.248h-3.796c0.037,0.462,0.2,0.819,0.49,1.072
		c0.289,0.253,0.709,0.38,1.26,0.38c0.322,0,0.617-0.029,0.885-0.088s0.479-0.121,0.633-0.188l0.176,1.089
		c-0.073,0.037-0.174,0.075-0.302,0.116c-0.129,0.04-0.275,0.076-0.44,0.109s-0.343,0.061-0.533,0.083
		c-0.191,0.021-0.386,0.032-0.583,0.032c-0.507,0-0.946-0.075-1.32-0.225c-0.374-0.15-0.683-0.359-0.924-0.628
		c-0.242-0.268-0.422-0.583-0.539-0.945C28.756,33.481,28.697,33.084,28.697,32.651z M32.559,32.057
		c0-0.183-0.025-0.357-0.077-0.522c-0.051-0.165-0.126-0.308-0.225-0.429c-0.1-0.121-0.221-0.216-0.363-0.286
		c-0.144-0.069-0.313-0.104-0.512-0.104c-0.205,0-0.385,0.039-0.539,0.115c-0.153,0.077-0.284,0.179-0.391,0.303
		c-0.106,0.125-0.188,0.268-0.247,0.429c-0.06,0.162-0.1,0.327-0.121,0.495H32.559z"/>
	<path fill="#666766" d="M36.739,34.543c0.352,0,0.608-0.042,0.77-0.127c0.161-0.084,0.242-0.229,0.242-0.434
		c0-0.191-0.086-0.349-0.259-0.474c-0.172-0.124-0.456-0.26-0.852-0.407c-0.242-0.088-0.464-0.181-0.666-0.28
		c-0.202-0.099-0.376-0.214-0.522-0.347c-0.146-0.132-0.263-0.291-0.347-0.479c-0.084-0.187-0.126-0.416-0.126-0.688
		c0-0.527,0.194-0.943,0.583-1.248s0.916-0.457,1.584-0.457c0.337,0,0.66,0.032,0.968,0.094c0.308,0.062,0.539,0.123,0.693,0.182
		l-0.242,1.078c-0.147-0.066-0.334-0.127-0.562-0.182s-0.491-0.082-0.792-0.082c-0.271,0-0.491,0.046-0.66,0.137
		c-0.168,0.092-0.253,0.233-0.253,0.424c0,0.096,0.017,0.18,0.05,0.253s0.09,0.142,0.171,0.204c0.08,0.062,0.187,0.124,0.318,0.187
		s0.294,0.127,0.484,0.192c0.315,0.117,0.583,0.233,0.803,0.347s0.401,0.242,0.545,0.385c0.143,0.144,0.247,0.307,0.313,0.489
		c0.065,0.184,0.099,0.404,0.099,0.66c0,0.551-0.203,0.967-0.61,1.249s-0.988,0.423-1.743,0.423c-0.506,0-0.913-0.042-1.222-0.126
		c-0.308-0.084-0.524-0.152-0.648-0.203l0.23-1.111c0.198,0.081,0.435,0.157,0.71,0.23C36.073,34.507,36.387,34.543,36.739,34.543z"
		/>
</g>
<path fill="#666766" d="M30.422,6.895h-9.594c-0.53,0-0.959,0.43-0.959,0.959v13.431c0,0.369,0.211,0.704,0.544,0.864
	c0.131,0.063,0.274,0.095,0.415,0.095c0.214,0,0.425-0.071,0.6-0.21l4.197-3.358l4.198,3.358c0.174,0.139,0.386,0.21,0.6,0.21
	c0.142,0,0.283-0.031,0.415-0.095c0.333-0.16,0.545-0.495,0.545-0.864V7.854C31.382,7.324,30.952,6.895,30.422,6.895z"/>
</svg>
