<?xml version="1.0" encoding="utf-8"?>
<!-- Generator: Adobe Illustrator 15.1.0, SVG Export Plug-In . SVG Version: 6.00 Build 0)  -->
<!DOCTYPE svg PUBLIC "-//W3C//DTD SVG 1.1//EN" "http://www.w3.org/Graphics/SVG/1.1/DTD/svg11.dtd">
<svg version="1.1" id="Layer_1" xmlns="http://www.w3.org/2000/svg" xmlns:xlink="http://www.w3.org/1999/xlink" x="0px" y="0px"
	 width="21px" height="26px" viewBox="0 0 21 26" enable-background="new 0 0 21 26" xml:space="preserve">
<path fill="#808285" d="M19.25,0H1.75C0.784,0,0,0.728,0,1.625v22.75C0,25,0.386,25.569,0.992,25.84C1.233,25.947,1.492,26,1.75,26
	c0.39,0,0.777-0.121,1.093-0.355l7.657-5.688l7.656,5.688C18.474,25.879,18.86,26,19.25,26c0.258,0,0.517-0.053,0.758-0.16
	C20.614,25.569,21,25,21,24.375V1.625C21,0.728,20.217,0,19.25,0z"/>
<path fill="#808285" d="M19.25,0H1.75C0.784,0,0,0.728,0,1.625v22.75C0,25,0.386,25.569,0.992,25.84C1.233,25.947,1.492,26,1.75,26
	c0.39,0,0.777-0.121,1.093-0.355l7.657-5.688l7.656,5.688C18.474,25.879,18.86,26,19.25,26c0.258,0,0.517-0.053,0.758-0.16
	C20.614,25.569,21,25,21,24.375V1.625C21,0.728,20.217,0,19.25,0z"/>
</svg>
