<?xml version="1.0" encoding="utf-8"?>
<!-- Generator: Adobe Illustrator 15.1.0, SVG Export Plug-In . SVG Version: 6.00 Build 0)  -->
<!DOCTYPE svg PUBLIC "-//W3C//DTD SVG 1.1//EN" "http://www.w3.org/Graphics/SVG/1.1/DTD/svg11.dtd">
<svg version="1.1" id="Layer_1" xmlns="http://www.w3.org/2000/svg" xmlns:xlink="http://www.w3.org/1999/xlink" x="0px" y="0px"
	 width="50px" height="41px" viewBox="0 0 50 41" enable-background="new 0 0 50 41" xml:space="preserve">
<path fill="#8D539A" d="M29.796,6.895h-9.594c-0.53,0-0.959,0.43-0.959,0.959v13.431c0,0.369,0.211,0.704,0.544,0.863
	c0.131,0.062,0.274,0.096,0.415,0.096c0.214,0,0.425-0.071,0.6-0.21l4.197-3.358l4.198,3.358c0.174,0.139,0.386,0.21,0.6,0.21
	c0.142,0,0.283-0.031,0.415-0.096c0.333-0.159,0.545-0.494,0.545-0.863V7.854C30.756,7.324,30.326,6.895,29.796,6.895z"/>
</svg>
