<?xml version="1.0" encoding="utf-8"?>
<!-- Generator: Adobe Illustrator 15.1.0, SVG Export Plug-In . SVG Version: 6.00 Build 0)  -->
<!DOCTYPE svg PUBLIC "-//W3C//DTD SVG 1.1//EN" "http://www.w3.org/Graphics/SVG/1.1/DTD/svg11.dtd">
<svg version="1.1" id="Layer_1" xmlns="http://www.w3.org/2000/svg" xmlns:xlink="http://www.w3.org/1999/xlink" x="0px" y="0px"
	 width="45px" height="45px" viewBox="0 0 45 45" enable-background="new 0 0 45 45" xml:space="preserve">
<path fill="#303030" d="M31.25,9.5h-17.5c-0.966,0-1.75,0.728-1.75,1.625v22.75c0,0.625,0.386,1.193,0.992,1.465
	c0.241,0.107,0.5,0.16,0.758,0.16c0.39,0,0.777-0.121,1.093-0.355l7.657-5.688l7.656,5.688c0.318,0.234,0.703,0.355,1.094,0.355
	c0.258,0,0.518-0.053,0.758-0.16C32.614,35.068,33,34.5,33,33.875v-22.75C33,10.228,32.217,9.5,31.25,9.5z"/>
</svg>
