<?xml version="1.0" encoding="utf-8"?>
<!-- Generator: Adobe Illustrator 15.1.0, SVG Export Plug-In . SVG Version: 6.00 Build 0)  -->
<!DOCTYPE svg PUBLIC "-//W3C//DTD SVG 1.1//EN" "http://www.w3.org/Graphics/SVG/1.1/DTD/svg11.dtd">
<svg version="1.1" id="Layer_1" xmlns="http://www.w3.org/2000/svg" xmlns:xlink="http://www.w3.org/1999/xlink" x="0px" y="0px"
	 width="40px" height="53px" viewBox="0 0 40 53" enable-background="new 0 0 40 53" xml:space="preserve">
<path fill="#EFEFEF" d="M36.662,0.1H3.332C1.49,0.1,0,1.578,0,3.398v46.202c0,1.271,0.732,2.423,1.89,2.97
	c0.455,0.212,0.951,0.33,1.442,0.33c0.742,0,1.476-0.245,2.085-0.725l14.581-11.553l14.584,11.553
	c0.604,0.479,1.341,0.725,2.082,0.725c0.492,0,0.984-0.107,1.443-0.33C39.264,52.023,40,50.871,40,49.601V3.398
	C39.996,1.575,38.505,0.1,36.662,0.1z"/>
</svg>
