<?xml version="1.0" encoding="utf-8"?>
<!-- Generator: Adobe Illustrator 15.0.2, SVG Export Plug-In . SVG Version: 6.00 Build 0)  -->
<!DOCTYPE svg PUBLIC "-//W3C//DTD SVG 1.1//EN" "http://www.w3.org/Graphics/SVG/1.1/DTD/svg11.dtd">
<svg version="1.1" id="Layer_1" xmlns="http://www.w3.org/2000/svg" xmlns:xlink="http://www.w3.org/1999/xlink" x="0px" y="0px"
	 width="12px" height="12px" viewBox="0 0 12 12" enable-background="new 0 0 12 12" xml:space="preserve">
<g>
	<path fill="#767676" d="M9.538,4.582c0,2.532-2.134,4.583-4.769,4.583C2.136,9.165,0,7.114,0,4.582C0,2.052,2.136,0,4.77,0
		S9.538,2.052,9.538,4.582z M4.77,1.631c-1.697,0-3.073,1.322-3.073,2.951c0,1.631,1.376,2.954,3.073,2.954s3.074-1.323,3.074-2.954
		C7.844,2.953,6.467,1.631,4.77,1.631z"/>
	<polygon fill="#767676" points="10.798,12 7.076,8.425 8.277,7.271 12,10.846 	"/>
</g>
</svg>
