<?xml version="1.0" encoding="utf-8"?>
<!-- Generator: Adobe Illustrator 16.0.1, SVG Export Plug-In . SVG Version: 6.00 Build 0)  -->
<!DOCTYPE svg PUBLIC "-//W3C//DTD SVG 1.1//EN" "http://www.w3.org/Graphics/SVG/1.1/DTD/svg11.dtd">
<svg version="1.1" id="Layer_1" xmlns="http://www.w3.org/2000/svg" xmlns:xlink="http://www.w3.org/1999/xlink" x="0px" y="0px"
	 width="18px" height="18px" viewBox="0 0 18 18" enable-background="new 0 0 18 18" xml:space="preserve">
<path fill="#333333" d="M17.381,14.938l-4.916-4.917c0.619-0.999,0.979-2.178,0.979-3.441c0-3.606-2.924-6.53-6.529-6.53
	c-3.606,0-6.53,2.924-6.53,6.53c0,3.607,2.923,6.53,6.53,6.53c0.911,0,1.778-0.187,2.566-0.523c0.009,0.011,0.017,0.023,0.027,0.033
	l5.096,5.096c0.156,0.156,0.361,0.234,0.564,0.234c0.207,0,0.41-0.078,0.566-0.234l1.646-1.646c0.148-0.15,0.234-0.353,0.234-0.565
	S17.529,15.089,17.381,14.938z M2.707,6.58c0-2.323,1.883-4.207,4.207-4.207c2.323,0,4.207,1.884,4.207,4.207
	c0,2.324-1.884,4.209-4.207,4.209C4.59,10.789,2.707,8.904,2.707,6.58z"/>
</svg>
