<?xml version="1.0" encoding="utf-8"?>
<!-- Generator: Adobe Illustrator 16.0.1, SVG Export Plug-In . SVG Version: 6.00 Build 0)  -->
<!DOCTYPE svg PUBLIC "-//W3C//DTD SVG 1.1//EN" "http://www.w3.org/Graphics/SVG/1.1/DTD/svg11.dtd">
<svg version="1.1" id="Layer_1" xmlns="http://www.w3.org/2000/svg" xmlns:xlink="http://www.w3.org/1999/xlink" x="0px" y="0px"
	 width="46px" height="46px" viewBox="-14 -14 46 46" enable-background="new -14 -14 46 46" xml:space="preserve">
<path fill="#555555" d="M28.758,23.096L17.346,11.685c1.437-2.321,2.273-5.059,2.273-7.99c0-8.372-6.79-15.16-15.158-15.16
	c-8.371,0-15.161,6.789-15.161,15.16c0,8.376,6.788,15.159,15.161,15.159c2.116,0,4.128-0.434,5.957-1.213
	c0.021,0.023,0.041,0.051,0.063,0.077l11.829,11.829c0.361,0.362,0.839,0.544,1.311,0.544c0.48,0,0.952-0.182,1.313-0.544
	l3.822-3.819c0.342-0.351,0.543-0.82,0.543-1.312C29.3,23.922,29.103,23.447,28.758,23.096z M-5.308,3.694
	c0-5.393,4.371-9.768,9.767-9.768c5.393,0,9.767,4.375,9.767,9.768c0,5.395-4.374,9.771-9.767,9.771
	C-0.937,13.465-5.308,9.089-5.308,3.694z"/>
</svg>
