<?xml version="1.0" encoding="utf-8"?>
<!-- Generator: Adobe Illustrator 16.0.3, SVG Export Plug-In . SVG Version: 6.00 Build 0)  -->
<!DOCTYPE svg PUBLIC "-//W3C//DTD SVG 1.1//EN" "http://www.w3.org/Graphics/SVG/1.1/DTD/svg11.dtd">
<svg version="1.1" id="Layer_1" xmlns="http://www.w3.org/2000/svg" xmlns:xlink="http://www.w3.org/1999/xlink" x="0px" y="0px"
	 width="32px" height="32px" viewBox="0 0 32 32" enable-background="new 0 0 32 32" xml:space="preserve">
<path fill="#666666" d="M30.047,25.951l-8.238-8.238c1.039-1.676,1.643-3.652,1.643-5.77C23.45,5.9,18.549,1,12.507,1
	C6.464,1,1.562,5.901,1.562,11.943c0,6.048,4.899,10.943,10.944,10.943c1.528,0,2.979-0.312,4.302-0.875
	c0.015,0.018,0.028,0.036,0.045,0.055l8.539,8.541C25.652,30.869,25.998,31,26.34,31c0.346,0,0.688-0.131,0.947-0.393l2.759-2.758
	c0.247-0.252,0.392-0.592,0.392-0.947C30.439,26.547,30.297,26.204,30.047,25.951z M5.454,11.943c0-3.894,3.156-7.052,7.051-7.052
	c3.894,0,7.052,3.159,7.052,7.052c0,3.896-3.158,7.054-7.052,7.054C8.61,18.997,5.454,15.839,5.454,11.943z"/>
</svg>
