<?xml version="1.0" encoding="utf-8"?>
<!-- Generator: Adobe Illustrator 15.1.0, SVG Export Plug-In . SVG Version: 6.00 Build 0)  -->
<!DOCTYPE svg PUBLIC "-//W3C//DTD SVG 1.1//EN" "http://www.w3.org/Graphics/SVG/1.1/DTD/svg11.dtd">
<svg version="1.1" id="Layer_1" xmlns="http://www.w3.org/2000/svg" xmlns:xlink="http://www.w3.org/1999/xlink" x="0px" y="0px"
	 width="29px" height="12px" viewBox="0 0 29 12" enable-background="new 0 0 29 12" xml:space="preserve">
<path fill="#FFFFFF" d="M24.641,12V5.994h-1.276V3.882h1.265c0,0,0-0.675,0-1.917C24.628,0.725,25.502,0,27.036,0
	c1.536,0,1.938,0,1.938,0l-0.004,2.042c0,0-0.988,0-1.357,0c-0.368,0-0.527,0.342-0.527,0.526c0,0.183,0,1.351,0,1.351H29
	l-0.221,2.076h-1.633L27.126,12H24.641z"/>
<path fill="#FFFFFF" d="M17.398,5.534c-0.614,0.104-1.498-0.005-1.972-0.2c0.979-0.083,1.642-0.526,1.896-1.128
	c-0.352,0.216-1.445,0.453-2.051,0.229c-0.03-0.143-0.062-0.279-0.096-0.4c-0.459-1.692-2.036-3.055-3.688-2.891
	c0.133-0.053,0.269-0.104,0.404-0.149c0.181-0.064,1.247-0.239,1.079-0.614c-0.141-0.334-1.446,0.247-1.69,0.324
	C11.604,0.581,12.142,0.373,12.198,0c-0.495,0.068-0.98,0.303-1.358,0.644c0.137-0.146,0.238-0.325,0.261-0.517
	C9.776,0.975,9.003,2.68,8.376,4.336C7.886,3.86,7.448,3.484,7.058,3.275c-1.094-0.586-2.406-1.2-4.461-1.965
	C2.535,1.99,2.932,2.898,4.085,3.498C3.834,3.465,3.377,3.54,3.014,3.626C3.16,4.408,3.646,5.052,4.962,5.363
	c-0.6,0.039-0.911,0.177-1.191,0.47c0.273,0.543,0.943,1.183,2.142,1.051c-1.337,0.577-0.548,1.644,0.54,1.484
	C4.602,10.285,1.678,10.143,0,8.542c4.381,5.978,13.903,3.534,15.322-2.224C16.389,6.327,17.012,5.95,17.398,5.534z"/>
</svg>
