<?xml version="1.0" encoding="utf-8"?>
<!-- Generator: Adobe Illustrator 16.0.3, SVG Export Plug-In . SVG Version: 6.00 Build 0)  -->
<!DOCTYPE svg PUBLIC "-//W3C//DTD SVG 1.1//EN" "http://www.w3.org/Graphics/SVG/1.1/DTD/svg11.dtd">
<svg version="1.1" id="Layer_1" xmlns="http://www.w3.org/2000/svg" xmlns:xlink="http://www.w3.org/1999/xlink" x="0px" y="0px"
	 width="32px" height="32px" viewBox="0 0 32 32" enable-background="new 0 0 32 32" xml:space="preserve">
<path fill="#666666" d="M3.562,18.716c0.499-0.809,1.135-1.622,1.893-2.417c0.764-0.8,1.693-1.529,2.762-2.167
	c0.941-0.563,2.018-1.146,3.522-1.595c1.257-0.373,2.69-0.617,4.263-0.722V5.61c0-0.234,0.134-0.447,0.345-0.549
	c0.208-0.102,0.458-0.076,0.642,0.066l13.443,10.467c0.148,0.116,0.236,0.295,0.235,0.485c0,0.189-0.089,0.367-0.239,0.482
	L16.983,26.874C16.877,26.958,16.745,27,16.612,27c-0.092,0-0.184-0.021-0.269-0.062C16.133,26.835,16,26.621,16,26.39v-6.872
	c-0.33,0.008-0.709,0.021-1.138,0.036c-0.712,0.027-1.515,0.106-2.387,0.234c-0.855,0.125-1.554,0.312-2.565,0.58
	c-0.954,0.253-1.902,0.61-2.814,1.06c-1.086,0.536-1.883,1.034-2.582,1.617c-0.786,0.657-1.472,1.475-2.044,2.433
	c-0.148,0.251-0.45,0.361-0.724,0.266c-0.272-0.096-0.443-0.366-0.409-0.655C1.633,22.741,2.359,20.657,3.562,18.716z"/>
</svg>
