<?xml version="1.0" encoding="utf-8"?>
<!-- Generator: Adobe Illustrator 15.1.0, SVG Export Plug-In . SVG Version: 6.00 Build 0)  -->
<!DOCTYPE svg PUBLIC "-//W3C//DTD SVG 1.1//EN" "http://www.w3.org/Graphics/SVG/1.1/DTD/svg11.dtd">
<svg version="1.1" id="Layer_1" xmlns="http://www.w3.org/2000/svg" xmlns:xlink="http://www.w3.org/1999/xlink" x="0px" y="0px"
	 width="115px" height="30px" viewBox="0 0 115 30" enable-background="new 0 0 115 30" xml:space="preserve">
<g>
	<path fill="#FFFFFF" d="M74.907,11.151c0.745-3.36,0.604-7.336,1.785-10.521c0.304-0.821,1.619-0.299,1.785,0.496
		c0.165,0.79-0.461,2.085-0.596,3.094c-0.541,4.064-1.602,9.228-0.951,14.11c0.253,1.909,0.514,3.422,1.223,3.399
		c0,0,0.55-0.042,0.729,0.075c0.181,0.118,0,0.638,0,0.638c-0.356,0.596-0.317,0.639-0.922,0.716
		c-4.287,0.553-3.042-5.844-3.173-10.027L74.907,11.151z"/>
	<path fill="#FFFFFF" d="M61.244,12.062c0.875-0.337,2.046-1.8,3.212-0.741c1.115,1.012-0.138,6.517,0.595,8.045
		c0.169,0.353,0.726,0.562,0.715,0.867c-0.022,0.704-1.119,1.077-1.904,0.743c-1.96-0.833-0.468-5.465-1.07-7.551
		c-1.104,0.69-1.953,3.095-2.263,4.952c-0.156,0.946-0.087,3.505-0.712,3.835c-1.336,0.705-1.775-0.425-1.666-1.73
		c0.097-1.177,1.083-4.135,1.188-5.324c0.457-5.076,0.478-9.775,0.478-14.481c0-1.089,1.485-0.122,1.667,0.495
		c0.25,0.862,0.227,3.062,0.236,3.341C61.812,6.955,61.372,9.498,61.244,12.062z"/>
	<path fill="#FFFFFF" d="M73.286,14.173c-0.117,0.354-1.359,2.013-2.381,2.847c-1.015,0.834-1.912,0.536-1.428,2.476
		c0.29,1.158,4.02,0.154,4.099,0.875c0.08,0.722-3.332,2.002-4.455,1.479c-1.197-0.558-1.278-2.502-1.785-4.209
		c-0.114-0.383-0.842-1.424-0.476-2.229c0.167-0.368,0.402,0.055,0.833-0.247c0.549-0.384,0.806-1.872,1.31-2.723
		c0.557-0.943,1.298-2.233,3.094-1.734c0.591,0.165,1.358,1.143,1.46,1.715C73.653,12.959,73.403,13.821,73.286,14.173z
		 M72.097,13.431c0.15-0.406,0.189-1.605-0.478-1.237c-0.836,0.462-1.377,2.226-1.783,3.218
		C70.44,15.086,71.818,14.179,72.097,13.431z"/>
	<path fill="#FFFFFF" d="M79.818,21.966c0.185-0.321,1.757-0.475,1.757-0.475c1.326-0.226,3.685-0.846,4.046-2.474
		c0.244-1.098-0.544-3.151-1.071-3.22c-1.392-0.18-1.387,3.793-2.142,4.705c-0.573,0.692-1.808,0.587-2.142-0.249
		c-0.288-0.715,0.442-3.396,0.596-5.198c0.281-3.325,0.445-6.153,0.713-9.779c0.071-0.956-0.144-2.582,0.119-2.848
		c0.803-0.806,1.978,0.76,2.022,0.991c0.072,0.366-0.195,0.756-0.237,1.114c-0.358,3.01-0.283,6.544-0.715,9.778
		c2.67-1.467,5.331,2.041,5.236,4.58c-0.105,2.895-3.379,3.438-6.386,3.431C81.615,22.322,79.62,22.311,79.818,21.966z"/>
	<path fill="#FFFFFF" d="M93.041,20.503c-2.609,1.438-3.791-0.081-3.809-2.725c-0.006-0.781,0.218-3.917,0.713-4.208
		c0.562-0.33,1.707,0.234,1.904,0.62c0.613,1.18-1.32,5.808,0.715,3.835c-0.058,0.058,0.562-0.27,0.714-0.617
		c0.286-0.659,0.31-2.198,0.238-2.972c-0.046-0.485-0.372-1.045-0.238-1.36c0.44-1.041,2.365-0.424,2.618,0.247
		c0.446,1.183-0.296,4.533-0.477,6.19c-0.243,2.255-0.502,5.31-0.951,7.303c-0.021,0.088-0.109,0.886-0.477,1.733
		c0.132-0.305-0.959,1.917-1.665,1.361c-0.278-0.221,0.352-5.689,0.476-7.181C92.853,22.134,93.224,21.057,93.041,20.503z"/>
	<path fill="#FFFFFF" d="M50.793,4.086c-0.101,0.051-0.224,0.222-0.335-0.042c-0.21-1.182,1.34-1.292,2.068-1.793
		c-2.647,0.504-5.466,1.614-7.151,3.136c-1.433,1.297-1.797,3.524-0.171,5.019c2.029,1.865,6.857,2.427,9.562,3.943
		c1.415,0.792,3.027,2.679,1.726,4.569c-1.213,1.758-5.341,2.953-7.755,3.228c-3.696,0.416-7.094,0.038-9.564-1.615
		c-0.487-0.324-0.812-0.615-0.775-0.716c0.199-0.551,1.146,0.188,1.12,0.179c3.361,1.073,8.981,1.131,12.062-0.179
		c0.112-0.118,3.31-1.479,3.447-2.778c0.151-1.452-2.138-2.075-3.878-2.688c-2.618-0.924-5.028-1.412-6.805-2.958
		c-1.287-1.119-2.938-4.024-1.379-6.185c1.979-2.739,8.122-4.915,12.319-5.195c0.54-0.038,1.402,0.004,1.81,0.177
		c0.09,0.039,0.932,0.695,0.862,1.077C57.82,1.993,52.602,2.938,50.793,4.086z"/>
	<path fill="#FFFFFF" d="M15.984,16.059c0.684-0.602,4.181-2.487,4.146-3.369c-0.042-1.039-3.112-3.47-3.874-4.284
		c-1.22,2.07-0.8,4.612-0.509,7.862"/>
	<path fill="#FFFFFF" d="M103.771,6.816c1.894-0.282,0.678,2.191,0.353,3.661c-0.15,0.683-0.425,1.95-0.234,2.198
		c0.544,0.708,2.471-0.7,2.934,0.243c0.262,0.535-0.917,0.819-1.291,0.976c-0.83,0.348-1.867,0.195-1.878,1.709
		c-0.006,1.03,0.408,4.219,1.292,4.394c0.182,0.037,1.644-1.342,1.993-0.977c0.611,0.635-0.641,2.258-1.055,2.441
		c-2.781,1.228-3.908-2.431-4.107-4.882c-0.031-0.388,0.176-1.309,0-1.586c-0.136-0.216-2.728-0.182-1.876-1.587
		c0.191-0.318,1.556-0.068,1.876-0.488c0.148-0.195,0.346-3.107,0.47-3.661C102.528,7.98,102.726,6.972,103.771,6.816z"/>
	<path fill="#FFFFFF" d="M98.58,20.339c0.606-0.195,0.936-0.034,1.058,0.121c1.411,1.812-2.733,1.91-1.762,0.121
		C97.95,20.447,98.141,20.478,98.58,20.339z"/>
	<path fill="#FFFFFF" d="M110.08,18.682c0.517,0.305,1.954-2.795,2.922-4.28c0.177-0.271,1.263-1.896,1.894-1.068
		c0.209,0.273,0.058,1.442-0.054,1.631c-0.308,0.523-0.756,1.27-1.189,2.139c-0.644,1.285-2.556,5.018-4.655,3.83
		c-0.222-0.126-0.974-1.188-1.083-1.69c-0.344-1.58-0.231-4.349,0.975-4.391C110.705,14.79,109.562,18.374,110.08,18.682z"/>
	<path fill-rule="evenodd" clip-rule="evenodd" fill="#E24629" d="M0.246,1.913c0,1.101-0.633,5.431,0.131,6.073
		c0.896,0.754,4.828,0.122,6.068,0.028c0.256-1.972,0.251-4.424,0.001-6.427c-2.003-0.269-4.163-0.057-6.2-0.057"/>
	<path fill-rule="evenodd" clip-rule="evenodd" fill="#DC308B" d="M7.812,3.284c-0.045,1.066-0.84,5.23-0.125,5.886
		c0.837,0.77,4.67,0.334,5.874,0.301c0.328-1.898,0.43-4.274,0.269-6.224c-1.929-0.35-4.029-0.242-6-0.334"/>
	<path fill-rule="evenodd" clip-rule="evenodd" fill="#53549C" d="M15.622,6.881c0.953,0,4.696,0.592,5.251-0.123
		c0.651-0.838,0.106-4.516,0.025-5.676c-1.706-0.238-3.825-0.236-5.556,0c-0.233,1.874-0.051,3.896-0.051,5.799"/>
	<path fill-rule="evenodd" clip-rule="evenodd" fill="#374F9F" d="M27.905,3.2c-0.953,0-4.695-0.592-5.25,0.123
		c-0.652,0.839-0.106,4.514-0.026,5.676C24.335,9.237,26.455,9.234,28.187,9c0.232-1.875,0.049-3.895,0.049-5.8"/>
	<path fill-rule="evenodd" clip-rule="evenodd" fill="#0690C5" d="M29.448,0.654c0,1.193-0.687,5.883,0.141,6.579
		c0.973,0.814,5.228,0.13,6.573,0.029c0.276-2.135,0.273-4.793,0.001-6.961c-2.171-0.291-4.511-0.062-6.715-0.062"/>
	<path fill-rule="evenodd" clip-rule="evenodd" fill="#E22B49" d="M0.232,10.261c0,1.035-0.594,5.095,0.123,5.697
		c0.843,0.708,4.529,0.115,5.692,0.026c0.24-1.849,0.236-4.15,0-6.027c-1.88-0.251-3.905-0.053-5.815-0.053"/>
	<path fill-rule="evenodd" clip-rule="evenodd" fill="#9355A2" d="M12.59,11.54c-0.911,0-4.484-0.564-5.013,0.117
		c-0.622,0.802-0.099,4.31-0.022,5.417c1.628,0.228,3.652,0.226,5.302,0c0.222-1.788,0.047-3.715,0.047-5.535"/>
	<path fill-rule="evenodd" clip-rule="evenodd" fill="#4DBEA1" d="M21.566,10.271c0,0.992-0.571,4.886,0.117,5.461
		c0.807,0.678,4.342,0.111,5.458,0.027c0.229-1.775,0.227-3.98,0.001-5.781c-1.803-0.241-3.745-0.051-5.577-0.051"/>
	<path fill-rule="evenodd" clip-rule="evenodd" fill="#88C442" d="M28.906,9.21c0,0.993-0.57,4.886,0.118,5.462
		c0.806,0.678,4.34,0.11,5.458,0.026c0.229-1.774,0.226-3.979,0-5.781c-1.802-0.24-3.745-0.051-5.576-0.051"/>
	<path fill-rule="evenodd" clip-rule="evenodd" fill="#8850A0" d="M6.243,22.892c0-0.993,0.57-4.886-0.119-5.464
		c-0.806-0.677-4.341-0.109-5.456-0.023c-0.23,1.771-0.227,3.978,0,5.78c1.8,0.24,3.744,0.052,5.575,0.052"/>
	<path fill-rule="evenodd" clip-rule="evenodd" fill="#3C52A2" d="M7.668,18.547c0,0.992-0.569,4.886,0.118,5.463
		c0.806,0.677,4.342,0.11,5.455,0.025c0.231-1.772,0.228-3.979,0.002-5.779c-1.803-0.241-3.745-0.051-5.575-0.051"/>
	<path fill-rule="evenodd" clip-rule="evenodd" fill="#388A6D" d="M20.428,18.499c-0.952-0.05-4.661-0.834-5.251-0.148
		c-0.69,0.805-0.319,4.505-0.293,5.668c1.691,0.327,3.81,0.432,5.549,0.286c0.322-1.86,0.234-3.887,0.326-5.789"/>
	<path fill-rule="evenodd" clip-rule="evenodd" fill="#6DBD46" d="M27.696,23.484c0.044-0.909,0.743-4.454,0.139-5.018
		c-0.71-0.661-3.98-0.312-5.006-0.29c-0.291,1.615-0.388,3.641-0.264,5.306c1.644,0.309,3.436,0.229,5.116,0.319"/>
	<path fill-rule="evenodd" clip-rule="evenodd" fill="#EEE80E" d="M35.423,21.858c0-0.993,0.569-4.885-0.118-5.463
		c-0.808-0.677-4.341-0.109-5.458-0.023c-0.228,1.772-0.227,3.977,0,5.777c1.801,0.242,3.745,0.053,5.576,0.053"/>
</g>
</svg>
