<?xml version="1.0" encoding="utf-8"?>
<!-- Generator: Adobe Illustrator 15.1.0, SVG Export Plug-In . SVG Version: 6.00 Build 0)  -->
<!DOCTYPE svg PUBLIC "-//W3C//DTD SVG 1.1//EN" "http://www.w3.org/Graphics/SVG/1.1/DTD/svg11.dtd">
<svg version="1.1" id="Layer_1" xmlns="http://www.w3.org/2000/svg" xmlns:xlink="http://www.w3.org/1999/xlink" x="0px" y="0px"
	 width="115px" height="30px" viewBox="0 0 115 30" enable-background="new 0 0 115 30" xml:space="preserve">
<g>
	<path fill="#FFFFFF" d="M74.907,11.151c0.745-3.36,0.604-7.336,1.784-10.521c0.305-0.821,1.619-0.299,1.785,0.496
		c0.166,0.79-0.461,2.085-0.596,3.094c-0.541,4.064-1.602,9.228-0.951,14.11c0.254,1.909,0.514,3.422,1.223,3.398
		c0,0,0.551-0.041,0.729,0.076c0.181,0.117,0,0.637,0,0.637c-0.356,0.597-0.317,0.64-0.922,0.717
		c-4.287,0.553-3.042-5.844-3.173-10.027L74.907,11.151z"/>
	<path fill="#FFFFFF" d="M61.244,12.062c0.875-0.337,2.046-1.8,3.212-0.741c1.114,1.012-0.138,6.517,0.595,8.045
		c0.17,0.353,0.727,0.562,0.715,0.866c-0.021,0.705-1.119,1.078-1.904,0.744c-1.959-0.834-0.467-5.466-1.069-7.552
		c-1.104,0.69-1.953,3.095-2.263,4.952c-0.156,0.946-0.088,3.505-0.713,3.835c-1.336,0.705-1.774-0.425-1.666-1.729
		c0.098-1.178,1.084-4.135,1.188-5.324c0.457-5.076,0.478-9.775,0.478-14.481c0-1.089,1.485-0.122,1.668,0.495
		c0.25,0.862,0.227,3.062,0.236,3.341C61.812,6.955,61.372,9.498,61.244,12.062z"/>
	<path fill="#FFFFFF" d="M73.286,14.173c-0.117,0.354-1.359,2.013-2.382,2.847c-1.014,0.834-1.911,0.537-1.428,2.477
		c0.291,1.158,4.021,0.154,4.1,0.875c0.08,0.722-3.332,2.002-4.455,1.479c-1.197-0.558-1.278-2.502-1.785-4.209
		c-0.113-0.383-0.842-1.424-0.477-2.229c0.168-0.368,0.402,0.055,0.834-0.247c0.549-0.384,0.806-1.872,1.31-2.723
		c0.558-0.943,1.298-2.233,3.095-1.734c0.59,0.165,1.357,1.143,1.459,1.715C73.652,12.959,73.402,13.821,73.286,14.173z
		 M72.098,13.431c0.149-0.406,0.188-1.605-0.479-1.237c-0.836,0.462-1.377,2.226-1.783,3.218
		C70.439,15.086,71.818,14.179,72.098,13.431z"/>
	<path fill="#FFFFFF" d="M79.818,21.966c0.185-0.321,1.757-0.475,1.757-0.475c1.325-0.226,3.685-0.847,4.046-2.474
		c0.244-1.099-0.544-3.151-1.071-3.221c-1.392-0.18-1.387,3.793-2.142,4.705c-0.573,0.691-1.809,0.587-2.143-0.249
		c-0.287-0.715,0.442-3.396,0.596-5.198c0.281-3.325,0.445-6.153,0.714-9.779c0.071-0.956-0.144-2.582,0.118-2.848
		c0.804-0.806,1.979,0.76,2.022,0.991c0.072,0.366-0.194,0.756-0.237,1.114c-0.357,3.01-0.283,6.544-0.715,9.778
		c2.67-1.467,5.332,2.041,5.236,4.58c-0.105,2.896-3.379,3.438-6.386,3.432C81.615,22.322,79.62,22.311,79.818,21.966z"/>
	<path fill="#FFFFFF" d="M93.041,20.503c-2.609,1.438-3.791-0.081-3.809-2.726c-0.006-0.78,0.218-3.917,0.713-4.208
		c0.562-0.33,1.707,0.234,1.904,0.62c0.612,1.18-1.32,5.808,0.715,3.835c-0.059,0.058,0.562-0.271,0.713-0.617
		c0.287-0.659,0.311-2.198,0.238-2.972c-0.045-0.485-0.371-1.045-0.238-1.36c0.44-1.041,2.365-0.424,2.619,0.247
		c0.445,1.183-0.297,4.532-0.478,6.19c-0.243,2.254-0.502,5.31-0.951,7.303c-0.021,0.088-0.108,0.886-0.477,1.732
		c0.132-0.305-0.959,1.917-1.665,1.361c-0.278-0.221,0.352-5.689,0.476-7.182C92.854,22.134,93.225,21.057,93.041,20.503z"/>
	<path fill="#FFFFFF" d="M50.793,4.086c-0.101,0.051-0.224,0.222-0.335-0.042c-0.21-1.182,1.34-1.292,2.068-1.793
		c-2.647,0.504-5.466,1.614-7.151,3.136c-1.433,1.297-1.797,3.524-0.171,5.019c2.029,1.865,6.857,2.427,9.562,3.943
		c1.415,0.792,3.027,2.678,1.726,4.569c-1.213,1.758-5.341,2.953-7.755,3.229c-3.696,0.416-7.094,0.037-9.564-1.615
		c-0.487-0.324-0.812-0.615-0.775-0.717c0.199-0.551,1.146,0.188,1.12,0.18c3.361,1.072,8.981,1.131,12.062-0.18
		c0.112-0.117,3.31-1.479,3.447-2.777c0.151-1.452-2.138-2.075-3.878-2.688c-2.618-0.924-5.028-1.412-6.805-2.958
		c-1.287-1.119-2.938-4.024-1.379-6.185c1.979-2.739,8.122-4.915,12.319-5.195c0.54-0.038,1.402,0.004,1.81,0.177
		c0.09,0.039,0.932,0.695,0.862,1.077C57.82,1.993,52.602,2.938,50.793,4.086z"/>
	<path fill="#FFFFFF" d="M15.984,16.059c0.684-0.602,4.181-2.487,4.146-3.369c-0.042-1.039-3.112-3.47-3.874-4.284
		c-1.22,2.07-0.8,4.612-0.509,7.861"/>
	<path fill="#FFFFFF" d="M103.771,6.816c1.894-0.282,0.678,2.191,0.353,3.661c-0.149,0.683-0.425,1.95-0.233,2.198
		c0.543,0.708,2.471-0.7,2.934,0.243c0.262,0.535-0.917,0.819-1.291,0.976c-0.83,0.348-1.867,0.195-1.879,1.709
		c-0.006,1.029,0.408,4.219,1.293,4.394c0.182,0.037,1.644-1.343,1.992-0.978c0.611,0.635-0.641,2.258-1.055,2.441
		c-2.781,1.229-3.908-2.432-4.107-4.882c-0.03-0.388,0.177-1.309,0-1.586c-0.135-0.216-2.728-0.182-1.875-1.587
		c0.19-0.318,1.556-0.068,1.875-0.488c0.148-0.195,0.347-3.107,0.471-3.661C102.527,7.98,102.727,6.972,103.771,6.816z"/>
	<path fill="#FFFFFF" d="M98.58,20.339c0.605-0.194,0.936-0.034,1.059,0.121c1.41,1.812-2.734,1.91-1.763,0.121
		C97.95,20.447,98.141,20.479,98.58,20.339z"/>
	<path fill="#FFFFFF" d="M110.08,18.682c0.518,0.305,1.954-2.795,2.922-4.28c0.178-0.271,1.264-1.896,1.895-1.068
		c0.209,0.273,0.058,1.442-0.055,1.631c-0.308,0.523-0.756,1.27-1.189,2.139c-0.644,1.285-2.555,5.019-4.654,3.83
		c-0.223-0.125-0.975-1.188-1.083-1.689c-0.345-1.58-0.231-4.349,0.976-4.391C110.705,14.79,109.562,18.374,110.08,18.682z"/>
	<path fill="#E24629" d="M0.246,1.913c0,1.101-0.633,5.431,0.131,6.073C1.273,8.74,5.205,8.108,6.445,8.014
		C6.701,6.042,6.696,3.59,6.446,1.587C4.443,1.318,2.283,1.53,0.246,1.53"/>
	<path fill="#DC308B" d="M7.812,3.284C7.767,4.35,6.972,8.514,7.687,9.17c0.837,0.77,4.67,0.334,5.874,0.301
		c0.328-1.898,0.43-4.274,0.269-6.224c-1.929-0.35-4.029-0.242-6-0.334"/>
	<path fill="#53549C" d="M15.622,6.881c0.953,0,4.696,0.592,5.251-0.123c0.651-0.838,0.106-4.516,0.025-5.676
		c-1.706-0.238-3.825-0.236-5.556,0c-0.233,1.874-0.051,3.896-0.051,5.799"/>
	<path fill="#374F9F" d="M27.905,3.2c-0.953,0-4.695-0.592-5.25,0.123c-0.652,0.839-0.106,4.514-0.026,5.676
		C24.335,9.237,26.455,9.234,28.187,9c0.232-1.875,0.049-3.895,0.049-5.8"/>
	<path fill="#0690C5" d="M29.448,0.654c0,1.193-0.688,5.883,0.141,6.579c0.973,0.814,5.228,0.13,6.573,0.029
		c0.276-2.135,0.273-4.793,0.001-6.961c-2.171-0.291-4.511-0.062-6.715-0.062"/>
	<path fill="#E22B49" d="M0.232,10.261c0,1.035-0.594,5.095,0.123,5.697c0.843,0.708,4.529,0.115,5.692,0.026
		c0.24-1.85,0.236-4.15,0-6.027c-1.88-0.251-3.905-0.053-5.815-0.053"/>
	<path fill="#9355A2" d="M12.59,11.54c-0.911,0-4.484-0.564-5.013,0.117c-0.622,0.802-0.099,4.31-0.022,5.417
		c1.628,0.228,3.652,0.226,5.302,0c0.222-1.788,0.047-3.715,0.047-5.535"/>
	<path fill="#4DBEA1" d="M21.566,10.271c0,0.992-0.571,4.886,0.117,5.461c0.807,0.678,4.342,0.11,5.458,0.026
		c0.229-1.775,0.227-3.98,0.001-5.781c-1.803-0.241-3.745-0.051-5.577-0.051"/>
	<path fill="#88C442" d="M28.906,9.21c0,0.993-0.57,4.886,0.118,5.462c0.806,0.678,4.34,0.11,5.458,0.026
		c0.229-1.774,0.226-3.979,0-5.781c-1.802-0.24-3.745-0.051-5.576-0.051"/>
	<path fill="#8850A0" d="M6.243,22.893c0-0.994,0.57-4.887-0.119-5.465c-0.806-0.677-4.341-0.109-5.456-0.023
		c-0.23,1.771-0.227,3.979,0,5.781c1.8,0.239,3.744,0.051,5.575,0.051"/>
	<path fill="#3C52A2" d="M7.668,18.547c0,0.992-0.569,4.887,0.118,5.463c0.806,0.678,4.342,0.11,5.455,0.025
		c0.231-1.771,0.228-3.979,0.002-5.779c-1.803-0.24-3.745-0.051-5.575-0.051"/>
	<path fill="#388A6D" d="M20.428,18.499c-0.952-0.05-4.661-0.834-5.251-0.147c-0.69,0.805-0.319,4.504-0.293,5.668
		c1.691,0.326,3.81,0.432,5.549,0.285c0.322-1.859,0.234-3.887,0.326-5.789"/>
	<path fill="#6DBD46" d="M27.696,23.484c0.044-0.909,0.743-4.455,0.139-5.019c-0.71-0.661-3.98-0.312-5.006-0.29
		c-0.291,1.615-0.388,3.641-0.264,5.307c1.644,0.309,3.436,0.229,5.116,0.318"/>
	<path fill="#EEE80E" d="M35.423,21.857c0-0.992,0.569-4.885-0.118-5.463c-0.808-0.677-4.341-0.108-5.458-0.022
		c-0.228,1.772-0.227,3.978,0,5.776c1.801,0.242,3.745,0.054,5.576,0.054"/>
</g>
</svg>
