<?xml version="1.0" encoding="utf-8"?>
<!-- Generator: Adobe Illustrator 16.0.3, SVG Export Plug-In . SVG Version: 6.00 Build 0)  -->
<!DOCTYPE svg PUBLIC "-//W3C//DTD SVG 1.1//EN" "http://www.w3.org/Graphics/SVG/1.1/DTD/svg11.dtd">
<svg version="1.1" id="Layer_1" xmlns="http://www.w3.org/2000/svg" xmlns:xlink="http://www.w3.org/1999/xlink" x="0px" y="0px"
	 width="32px" height="32px" viewBox="0 0 32 32" enable-background="new 0 0 32 32" xml:space="preserve">
<g>
	<path fill="#666666" d="M15.055,21.739h-0.003c0.184,0.08,0.406,0.157,0.617,0.218c0.208,0.064,0.402,0.117,0.522,0.146
		c-0.174-0.037-0.349-0.092-0.522-0.146l0,0C15.465,21.895,15.257,21.819,15.055,21.739z"/>
	<path fill="#666666" d="M16.228,22.112c0.058,0.016,0.097,0.022,0.097,0.022v-0.003C16.293,22.128,16.264,22.12,16.228,22.112z"/>
	<path fill="#666666" d="M21.84,21.654c0.021-0.011,0.282-0.115,0.639-0.302C22.269,21.457,22.059,21.562,21.84,21.654L21.84,21.654
		z"/>
	<path fill="#666666" d="M22.517,21.331c0.031-0.019,0.063-0.034,0.1-0.05c0.081-0.051,0.173-0.103,0.264-0.157
		c-0.086,0.057-0.171,0.102-0.264,0.151C22.58,21.292,22.543,21.313,22.517,21.331z"/>
	<path fill="#666666" d="M28.438,3.567c-3.42-3.42-8.965-3.42-12.386,0l-3.744,3.746c-0.323,0.324-0.615,0.665-0.878,1.022
		c-0.057,0.079-0.109,0.159-0.164,0.237c1.808-0.487,3.726-0.461,5.521,0.088l0.305-0.309l2.064-2.059
		c1.81-1.812,4.744-1.812,6.562,0c1.807,1.808,1.807,4.746,0,6.556l-2.354,2.355l-0.483,0.484l-0.47,0.474v0.002l-0.789,0.779
		c-0.814,0.816-1.861,1.265-2.931,1.345l0,0c0,0,0,0-0.005,0c-0.223,0.02-0.413,0.022-0.581,0.014
		c-0.361-0.014-0.575-0.066-0.575-0.066v-0.005c-0.9-0.163-1.766-0.586-2.464-1.287c-0.679-0.678-1.104-1.516-1.273-2.393
		c-0.005-0.024-0.005-0.05-0.012-0.075c-0.793,0.065-1.57,0.401-2.173,1.009l-1.247,1.245c0.426,1.08,1.075,2.098,1.95,2.972
		c0.875,0.873,1.887,1.525,2.97,1.949c0.2,0.08,0.401,0.151,0.604,0.213c0.169,0.057,0.341,0.102,0.513,0.146
		c0.013,0.003,0.023,0.003,0.035,0.003c0.032,0.012,0.065,0.017,0.094,0.024c1.791,0.407,3.693,0.258,5.403-0.475
		c0.213-0.092,0.423-0.188,0.623-0.29c0.013-0.006,0.026-0.018,0.034-0.021c0.035-0.016,0.065-0.037,0.104-0.059
		c0.085-0.048,0.17-0.091,0.255-0.145c0.004,0,0.007,0,0.007,0c0.623-0.37,1.209-0.819,1.741-1.354l3.745-3.738
		C31.854,12.536,31.854,6.99,28.438,3.567z"/>
	<path fill="#666666" d="M15.5,23.187l-0.312,0.315l-2.104,2.104c-1.848,1.846-4.846,1.843-6.69-0.006c-1.85-1.847-1.85-4.84,0-6.69
		l2.399-2.396L9.29,16.02l0.479-0.479l0,0l0.799-0.802c0.835-0.835,1.902-1.29,2.995-1.369l0,0c0.229-0.023,0.43-0.023,0.596-0.014
		c0.367,0.015,0.584,0.072,0.584,0.072c0.921,0.163,1.806,0.599,2.517,1.311c0.692,0.693,1.126,1.541,1.3,2.442
		c0.005,0.022,0.005,0.055,0.011,0.075c0.811-0.064,1.604-0.405,2.22-1.026l1.271-1.271c-0.432-1.103-1.093-2.136-1.987-3.031
		c-0.894-0.887-1.93-1.552-3.035-1.989c-0.201-0.082-0.406-0.152-0.616-0.217c-0.172-0.054-0.346-0.107-0.524-0.148
		c-0.01-0.003-0.021-0.009-0.03-0.009c-0.036-0.007-0.067-0.017-0.1-0.022c-1.83-0.419-3.766-0.261-5.512,0.483
		c-0.218,0.092-0.433,0.19-0.635,0.297c-0.018,0.009-0.028,0.014-0.039,0.019c-0.036,0.02-0.068,0.039-0.104,0.057
		c-0.086,0.046-0.177,0.093-0.261,0.15H9.213c-0.639,0.377-1.233,0.835-1.779,1.377l-3.817,3.819c-3.488,3.484-3.488,9.146,0,12.636
		c3.487,3.49,9.147,3.489,12.638,0l3.816-3.818c0.33-0.325,0.635-0.678,0.896-1.044c0.059-0.075,0.112-0.165,0.168-0.245
		C19.291,23.779,17.332,23.745,15.5,23.187z"/>
</g>
</svg>
