<?xml version="1.0" encoding="utf-8"?>
<!-- Generator: Adobe Illustrator 16.0.3, SVG Export Plug-In . SVG Version: 6.00 Build 0)  -->
<!DOCTYPE svg PUBLIC "-//W3C//DTD SVG 1.1//EN" "http://www.w3.org/Graphics/SVG/1.1/DTD/svg11.dtd">
<svg version="1.1" id="Layer_1" xmlns="http://www.w3.org/2000/svg" xmlns:xlink="http://www.w3.org/1999/xlink" x="0px" y="0px"
	 width="32px" height="32px" viewBox="0 0 32 32" enable-background="new 0 0 32 32" xml:space="preserve">
<path fill="#666666" d="M16.513,1v6.238h5.864v5.688h-5.864v8.07c0,1.742-0.023,2.75,0.165,3.25
	c0.177,0.481,0.643,0.997,1.143,1.285c0.666,0.402,1.424,0.599,2.279,0.599c1.517,0,3.824-0.487,5.328-1.495v4.742
	c-1.279,0.592-2.443,1.024-3.48,1.271C20.904,30.878,19.787,31,18.572,31c-1.375,0-2.173-0.178-3.229-0.521
	c-1.053-0.328-1.955-0.838-2.696-1.479c-0.749-0.638-1.268-1.319-1.553-2.05c-0.294-0.705-0.44-1.749-0.44-3.117V12.926H6.572V9.048
	C7.751,8.668,9.124,8.117,9.963,7.4c0.839-0.709,1.512-1.571,2.024-2.573c0.508-0.999,0.858-2.282,1.05-3.827H16.513z"/>
</svg>
