<?xml version="1.0" encoding="utf-8"?>
<!-- Generator: Adobe Illustrator 15.1.0, SVG Export Plug-In . SVG Version: 6.00 Build 0)  -->
<!DOCTYPE svg PUBLIC "-//W3C//DTD SVG 1.1//EN" "http://www.w3.org/Graphics/SVG/1.1/DTD/svg11.dtd">
<svg version="1.1" id="Layer_1" xmlns="http://www.w3.org/2000/svg" xmlns:xlink="http://www.w3.org/1999/xlink" x="0px" y="0px"
	 width="18px" height="12px" viewBox="0 0 18 12" enable-background="new 0 0 18 12" xml:space="preserve">
<path fill="#FFFFFF" d="M16.25,1.503c-0.533,0.236-1.105,0.396-1.709,0.468c0.613-0.368,1.086-0.951,1.309-1.646
	c-0.574,0.341-1.211,0.589-1.89,0.722c-0.542-0.578-1.315-0.939-2.171-0.939c-1.643,0-2.975,1.332-2.975,2.975
	c0,0.233,0.026,0.461,0.076,0.679c-2.471-0.125-4.663-1.31-6.13-3.11c-0.257,0.439-0.403,0.95-0.403,1.495
	c0,1.032,0.525,1.943,1.323,2.477C3.192,4.608,2.733,4.475,2.333,4.252C2.332,4.265,2.332,4.276,2.332,4.289
	c0,1.441,1.025,2.645,2.387,2.918c-0.25,0.068-0.513,0.104-0.784,0.104c-0.191,0-0.378-0.018-0.56-0.053
	c0.379,1.182,1.478,2.041,2.779,2.066c-1.019,0.797-2.301,1.273-3.694,1.273c-0.24,0-0.478-0.017-0.71-0.043
	c1.316,0.846,2.88,1.338,4.561,1.338c5.472,0,8.464-4.533,8.464-8.466c0-0.129-0.004-0.258-0.01-0.385
	C15.348,2.623,15.852,2.1,16.25,1.503z"/>
</svg>
