<?xml version="1.0" encoding="utf-8"?>
<!-- Generator: Adobe Illustrator 15.1.0, SVG Export Plug-In . SVG Version: 6.00 Build 0)  -->
<!DOCTYPE svg PUBLIC "-//W3C//DTD SVG 1.1//EN" "http://www.w3.org/Graphics/SVG/1.1/DTD/svg11.dtd">
<svg version="1.1" id="Layer_1" xmlns="http://www.w3.org/2000/svg" xmlns:xlink="http://www.w3.org/1999/xlink" x="0px" y="0px"
	 width="15px" height="16px" viewBox="0 0 15 16" enable-background="new 0 0 15 16" xml:space="preserve">
<path fill="#231F20" d="M10.136,8l4.318-4.318c0.728-0.728,0.728-1.908,0-2.636c-0.729-0.728-1.908-0.728-2.636,0L7.5,5.364
	L3.182,1.046c-0.728-0.728-1.907-0.728-2.636,0c-0.728,0.728-0.728,1.908,0,2.636L4.864,8l-4.318,4.318
	c-0.728,0.729-0.728,1.908,0,2.636c0.729,0.729,1.908,0.729,2.636,0L7.5,10.636l4.318,4.317c0.728,0.729,1.907,0.729,2.636,0
	c0.728-0.728,0.728-1.907,0-2.636L10.136,8z"/>
</svg>
