<?xml version="1.0" encoding="utf-8"?>
<!-- Generator: Adobe Illustrator 15.1.0, SVG Export Plug-In . SVG Version: 6.00 Build 0)  -->
<!DOCTYPE svg PUBLIC "-//W3C//DTD SVG 1.1//EN" "http://www.w3.org/Graphics/SVG/1.1/DTD/svg11.dtd">
<svg version="1.1" id="Layer_1" xmlns="http://www.w3.org/2000/svg" xmlns:xlink="http://www.w3.org/1999/xlink" x="0px" y="0px"
	 width="15px" height="16px" viewBox="0 0 15 16" enable-background="new 0 0 15 16" xml:space="preserve">
<g>
	<g>
		<g>
			<path d="M1.93,11.583c-0.668,0-1.212-0.511-1.212-1.137V5.311c0-0.627,0.543-1.137,1.212-1.137h4.568
				c0.668,0,1.212,0.51,1.212,1.137v5.135c0,0.626-0.543,1.137-1.212,1.137H1.93z"/>
		</g>
		<g>
			<path d="M6.498,4.848c0.273,0,0.494,0.208,0.494,0.463v5.135c0,0.255-0.221,0.463-0.494,0.463H1.93
				c-0.273,0-0.494-0.208-0.494-0.463V5.311c0-0.256,0.221-0.463,0.494-0.463H6.498 M6.498,3.5H1.93C0.866,3.5,0,4.312,0,5.311
				v5.135c0,0.998,0.866,1.811,1.93,1.811h4.568c1.064,0,1.93-0.812,1.93-1.811V5.311C8.428,4.312,7.562,3.5,6.498,3.5L6.498,3.5z"
				/>
		</g>
	</g>
	<g>
		<polygon points="5.114,7.878 4.054,6.752 7.337,4.973 12.926,1.946 12.926,8 12.926,14.054 7.337,11.026 4.154,9.303 		"/>
		<path d="M12.926,16c-0.358,0-0.717-0.087-1.038-0.261l-8.771-4.751c-0.489-0.266-0.842-0.706-0.977-1.22
			C2.004,9.254,2.099,8.71,2.4,8.262l0.128-0.19L2.499,8.04C2.086,7.602,1.906,7.014,2.006,6.438c0.1-0.576,0.471-1.08,1.01-1.372
			l8.873-4.806c0.642-0.348,1.432-0.348,2.074,0C14.604,0.608,15,1.251,15,1.946v12.107c0,0.695-0.396,1.338-1.037,1.686
			C13.642,15.913,13.283,16,12.926,16z M7.034,8.615l3.816,2.067V5.317L7.109,7.344C7.235,7.759,7.212,8.208,7.034,8.615z"/>
	</g>
</g>
</svg>
