<?xml version="1.0" encoding="utf-8"?>
<!-- Generator: Adobe Illustrator 16.0.3, SVG Export Plug-In . SVG Version: 6.00 Build 0)  -->
<!DOCTYPE svg PUBLIC "-//W3C//DTD SVG 1.1//EN" "http://www.w3.org/Graphics/SVG/1.1/DTD/svg11.dtd">
<svg version="1.1" id="Layer_1" xmlns="http://www.w3.org/2000/svg" xmlns:xlink="http://www.w3.org/1999/xlink" x="0px" y="0px"
	 width="32px" height="32px" viewBox="0 0 32 32" enable-background="new 0 0 32 32" xml:space="preserve">
<path fill="#666666" d="M31.62,12.268c-0.22-0.691-0.819-1.195-1.543-1.297L21.54,9.725l-3.831-7.746
	c-0.639-1.306-2.777-1.306-3.42,0l-3.824,7.747L1.92,10.972c-0.72,0.102-1.317,0.606-1.543,1.297
	c-0.22,0.691-0.037,1.449,0.483,1.958l6.185,6.032l-1.457,8.513c-0.123,0.717,0.172,1.438,0.76,1.863
	c0.592,0.426,1.371,0.485,2.011,0.146l7.644-4.021l7.647,4.021c0.275,0.146,0.582,0.22,0.888,0.22c0.396,0,0.79-0.126,1.118-0.364
	c0.59-0.426,0.887-1.146,0.754-1.866l-1.454-8.513l6.181-6.033C31.658,13.714,31.844,12.959,31.62,12.268z"/>
</svg>
