<?xml version="1.0" encoding="utf-8"?>
<!-- Generator: Adobe Illustrator 15.1.0, SVG Export Plug-In . SVG Version: 6.00 Build 0)  -->
<!DOCTYPE svg PUBLIC "-//W3C//DTD SVG 1.1//EN" "http://www.w3.org/Graphics/SVG/1.1/DTD/svg11.dtd">
<svg version="1.1" id="Layer_1" xmlns="http://www.w3.org/2000/svg" xmlns:xlink="http://www.w3.org/1999/xlink" x="0px" y="0px"
	 width="50px" height="41px" viewBox="0 0 50 41" enable-background="new 0 0 50 41" xml:space="preserve">
<g>
	<g>
		<rect x="17.633" y="8.128" fill="#666766" width="15.984" height="1.372"/>
		<path fill="#666766" d="M33.617,10.61H17.633c-0.612,0-1.11-0.497-1.11-1.11V8.129c0-0.294,0.117-0.577,0.325-0.785
			s0.491-0.325,0.785-0.325h15.984c0.611,0,1.109,0.497,1.109,1.109V9.5C34.727,10.113,34.229,10.61,33.617,10.61z"/>
	</g>
	<g>
		<rect x="17.633" y="13.937" fill="#666766" width="15.984" height="1.371"/>
		<path fill="#666766" d="M33.617,16.417H17.633c-0.612,0-1.11-0.496-1.11-1.109v-1.371c0-0.294,0.117-0.577,0.325-0.785
			s0.491-0.325,0.785-0.325h15.984c0.611,0,1.109,0.497,1.109,1.11v1.371C34.727,15.921,34.229,16.417,33.617,16.417z"/>
	</g>
	<g>
		<rect x="17.633" y="19.744" fill="#666766" width="15.984" height="1.371"/>
		<path fill="#666766" d="M33.617,22.225H17.633c-0.612,0-1.11-0.496-1.11-1.107v-1.371c0-0.295,0.117-0.576,0.325-0.785
			c0.208-0.208,0.491-0.324,0.785-0.324h15.984c0.611,0,1.109,0.496,1.109,1.109v1.371C34.727,21.729,34.229,22.225,33.617,22.225z"
			/>
	</g>
</g>
</svg>
