<?xml version="1.0" encoding="utf-8"?>
<!-- Generator: Adobe Illustrator 15.1.0, SVG Export Plug-In . SVG Version: 6.00 Build 0)  -->
<!DOCTYPE svg PUBLIC "-//W3C//DTD SVG 1.1//EN" "http://www.w3.org/Graphics/SVG/1.1/DTD/svg11.dtd">
<svg version="1.1" id="Layer_1" xmlns="http://www.w3.org/2000/svg" xmlns:xlink="http://www.w3.org/1999/xlink" x="0px" y="0px"
	 width="50px" height="41px" viewBox="0 0 50 41" enable-background="new 0 0 50 41" xml:space="preserve">
<g>
	<g>
		<rect x="17.633" y="8.128" fill="#666766" width="15.984" height="1.372"/>
		<path fill="#666766" d="M33.617,10.61H17.633c-0.612,0-1.11-0.497-1.11-1.11V8.129c0-0.294,0.117-0.577,0.325-0.785
			c0.208-0.208,0.491-0.325,0.785-0.325h15.984c0.612,0,1.109,0.497,1.109,1.109V9.5C34.727,10.113,34.229,10.61,33.617,10.61z"/>
	</g>
	<g>
		<rect x="17.633" y="13.937" fill="#666766" width="15.984" height="1.371"/>
		<path fill="#666766" d="M33.617,16.417H17.633c-0.612,0-1.11-0.496-1.11-1.109v-1.371c0-0.294,0.117-0.577,0.325-0.785
			c0.208-0.208,0.491-0.325,0.785-0.325h15.984c0.612,0,1.109,0.497,1.109,1.11v1.371C34.727,15.921,34.229,16.417,33.617,16.417z"
			/>
	</g>
	<g>
		<rect x="17.633" y="19.744" fill="#666766" width="15.984" height="1.371"/>
		<path fill="#666766" d="M33.617,22.225H17.633c-0.612,0-1.11-0.496-1.11-1.109v-1.371c0-0.295,0.117-0.576,0.325-0.785
			c0.208-0.208,0.491-0.324,0.785-0.324h15.984c0.612,0,1.109,0.496,1.109,1.109v1.371C34.727,21.728,34.229,22.225,33.617,22.225z"
			/>
	</g>
</g>
<g>
	<path fill="#666766" d="M9.413,34.543c0.352,0,0.608-0.042,0.77-0.127c0.161-0.084,0.242-0.229,0.242-0.434
		c0-0.191-0.086-0.349-0.258-0.474c-0.172-0.124-0.457-0.26-0.853-0.407c-0.242-0.088-0.464-0.181-0.666-0.28
		c-0.202-0.099-0.376-0.214-0.522-0.347c-0.147-0.132-0.262-0.291-0.347-0.479c-0.084-0.187-0.126-0.416-0.126-0.688
		c0-0.527,0.194-0.943,0.583-1.248s0.917-0.457,1.584-0.457c0.337,0,0.66,0.032,0.968,0.094c0.308,0.062,0.539,0.123,0.693,0.182
		l-0.242,1.078c-0.146-0.066-0.333-0.127-0.561-0.182c-0.228-0.055-0.492-0.082-0.792-0.082c-0.271,0-0.492,0.046-0.66,0.137
		c-0.169,0.092-0.253,0.233-0.253,0.424c0,0.096,0.016,0.18,0.049,0.253s0.09,0.142,0.17,0.204c0.081,0.062,0.187,0.124,0.319,0.187
		c0.132,0.062,0.293,0.127,0.484,0.192c0.315,0.117,0.583,0.233,0.803,0.347c0.22,0.113,0.402,0.242,0.544,0.385
		c0.143,0.144,0.248,0.307,0.314,0.489c0.066,0.184,0.099,0.404,0.099,0.66c0,0.551-0.203,0.967-0.61,1.249
		s-0.988,0.423-1.744,0.423c-0.506,0-0.913-0.042-1.221-0.126c-0.308-0.084-0.524-0.152-0.649-0.203l0.231-1.111
		c0.198,0.081,0.434,0.157,0.709,0.23C8.748,34.507,9.061,34.543,9.413,34.543z"/>
	<path fill="#666766" d="M12.933,28.229l1.331-0.22v1.738h2.046v1.111h-2.046v2.343c0,0.462,0.073,0.792,0.22,0.99
		c0.146,0.197,0.396,0.297,0.748,0.297c0.242,0,0.457-0.026,0.644-0.077c0.187-0.052,0.335-0.1,0.445-0.144l0.22,1.057
		c-0.154,0.065-0.356,0.134-0.605,0.203c-0.25,0.069-0.543,0.104-0.88,0.104c-0.411,0-0.753-0.055-1.028-0.165
		c-0.275-0.109-0.493-0.27-0.654-0.479c-0.162-0.209-0.275-0.462-0.341-0.759s-0.099-0.636-0.099-1.018V28.229z"/>
	<path fill="#666766" d="M20.875,30.946c-0.11-0.037-0.262-0.075-0.457-0.116c-0.194-0.04-0.42-0.061-0.676-0.061
		c-0.147,0-0.303,0.016-0.468,0.045s-0.28,0.055-0.346,0.076V35.5h-1.331v-5.478c0.256-0.096,0.577-0.186,0.962-0.27
		c0.385-0.085,0.812-0.127,1.281-0.127c0.088,0,0.191,0.006,0.308,0.017s0.235,0.025,0.352,0.044s0.231,0.04,0.341,0.066
		c0.11,0.025,0.198,0.049,0.264,0.071L20.875,30.946z"/>
	<path fill="#666766" d="M21.71,32.651c0-0.507,0.075-0.95,0.226-1.331c0.15-0.382,0.35-0.699,0.6-0.952
		c0.249-0.253,0.535-0.443,0.858-0.571c0.323-0.129,0.653-0.193,0.99-0.193c0.792,0,1.41,0.246,1.854,0.737
		c0.443,0.491,0.665,1.225,0.665,2.2c0,0.073-0.002,0.156-0.005,0.247c-0.004,0.092-0.01,0.175-0.017,0.248h-3.795
		c0.037,0.462,0.2,0.819,0.49,1.072c0.29,0.253,0.709,0.38,1.259,0.38c0.323,0,0.618-0.029,0.886-0.088
		c0.268-0.059,0.478-0.121,0.632-0.188l0.176,1.089c-0.073,0.037-0.174,0.075-0.302,0.116c-0.129,0.04-0.275,0.076-0.44,0.109
		s-0.343,0.061-0.534,0.083c-0.19,0.021-0.385,0.032-0.583,0.032c-0.506,0-0.946-0.075-1.32-0.225
		c-0.374-0.15-0.682-0.359-0.924-0.628c-0.242-0.268-0.422-0.583-0.539-0.945C21.769,33.481,21.71,33.084,21.71,32.651z
		 M25.572,32.057c0-0.183-0.026-0.357-0.077-0.522s-0.126-0.308-0.226-0.429s-0.22-0.216-0.363-0.286
		c-0.143-0.069-0.313-0.104-0.512-0.104c-0.205,0-0.385,0.039-0.539,0.115c-0.154,0.077-0.284,0.179-0.39,0.303
		c-0.106,0.125-0.189,0.268-0.248,0.429c-0.059,0.162-0.099,0.327-0.121,0.495H25.572z"/>
	<path fill="#666766" d="M30.225,29.604c0.44,0,0.811,0.056,1.111,0.165c0.301,0.11,0.541,0.265,0.721,0.463
		c0.18,0.197,0.308,0.438,0.385,0.72c0.077,0.283,0.115,0.593,0.115,0.93v3.487c-0.205,0.044-0.515,0.097-0.93,0.159
		c-0.414,0.062-0.882,0.094-1.402,0.094c-0.345,0-0.66-0.033-0.945-0.099c-0.286-0.066-0.53-0.173-0.731-0.319
		c-0.202-0.146-0.36-0.337-0.474-0.572c-0.113-0.234-0.17-0.524-0.17-0.869c0-0.33,0.063-0.608,0.192-0.836
		c0.128-0.227,0.302-0.412,0.522-0.556c0.22-0.143,0.475-0.245,0.765-0.308c0.289-0.062,0.592-0.094,0.907-0.094
		c0.146,0,0.301,0.01,0.462,0.027c0.161,0.019,0.334,0.05,0.517,0.094v-0.22c0-0.154-0.018-0.301-0.055-0.44
		c-0.037-0.139-0.101-0.262-0.192-0.368s-0.213-0.188-0.363-0.247s-0.339-0.089-0.566-0.089c-0.308,0-0.59,0.022-0.847,0.066
		s-0.466,0.096-0.627,0.154l-0.165-1.078c0.168-0.059,0.414-0.117,0.736-0.176C29.514,29.634,29.858,29.604,30.225,29.604z
		 M30.335,34.565c0.41,0,0.722-0.022,0.935-0.066v-1.474c-0.073-0.022-0.18-0.044-0.318-0.066c-0.14-0.022-0.294-0.033-0.462-0.033
		c-0.147,0-0.296,0.011-0.446,0.033s-0.285,0.062-0.406,0.121s-0.219,0.142-0.292,0.247c-0.073,0.106-0.109,0.24-0.109,0.401
		c0,0.315,0.099,0.534,0.297,0.655C29.729,34.505,29.997,34.565,30.335,34.565z"/>
	<path fill="#666766" d="M37.463,32.475c0-0.601-0.075-1.035-0.226-1.303s-0.431-0.402-0.842-0.402
		c-0.146,0-0.308,0.012-0.483,0.033c-0.176,0.022-0.309,0.041-0.396,0.056V35.5h-1.331v-5.566c0.257-0.073,0.593-0.143,1.007-0.209
		c0.414-0.065,0.853-0.099,1.314-0.099c0.396,0,0.721,0.052,0.974,0.154s0.464,0.238,0.633,0.406c0.08-0.059,0.183-0.12,0.308-0.187
		s0.264-0.127,0.418-0.182s0.317-0.101,0.489-0.138c0.173-0.036,0.347-0.055,0.522-0.055c0.447,0,0.816,0.064,1.105,0.192
		c0.29,0.129,0.518,0.309,0.683,0.539c0.165,0.231,0.278,0.51,0.341,0.836s0.094,0.684,0.094,1.072V35.5h-1.331v-3.025
		c0-0.601-0.073-1.035-0.221-1.303c-0.146-0.268-0.429-0.402-0.847-0.402c-0.213,0-0.414,0.035-0.604,0.104
		c-0.191,0.07-0.334,0.138-0.43,0.204c0.059,0.184,0.1,0.378,0.121,0.583c0.022,0.205,0.033,0.425,0.033,0.66V35.5h-1.331V32.475z"
		/>
</g>
</svg>
