<?xml version="1.0" encoding="utf-8"?>
<!-- Generator: Adobe Illustrator 15.1.0, SVG Export Plug-In . SVG Version: 6.00 Build 0)  -->
<!DOCTYPE svg PUBLIC "-//W3C//DTD SVG 1.1//EN" "http://www.w3.org/Graphics/SVG/1.1/DTD/svg11.dtd">
<svg version="1.1" id="Layer_1" xmlns="http://www.w3.org/2000/svg" xmlns:xlink="http://www.w3.org/1999/xlink" x="0px" y="0px"
	 width="50px" height="41px" viewBox="0 0 50 41" enable-background="new 0 0 50 41" xml:space="preserve">
<g>
	<g>
		<path fill="#63BD57" d="M22.487,21.93v-2.981h11.93v2.981H22.487z M22.487,12.983h11.93v2.982h-11.93V12.983z M22.487,7.019h11.93
			v2.982h-11.93V7.019z M16.523,18.948h2.982v2.981h-2.982V18.948z M16.523,12.983h2.982v2.982h-2.982V12.983z M16.523,7.019h2.982
			v2.982h-2.982V7.019z"/>
		<path fill="#63BD57" d="M34.417,22.18h-11.93c-0.138,0-0.25-0.111-0.25-0.25v-2.981c0-0.138,0.112-0.25,0.25-0.25h11.93
			c0.138,0,0.25,0.112,0.25,0.25v2.981C34.667,22.066,34.555,22.18,34.417,22.18z M22.737,21.68h11.43v-2.481h-11.43V21.68z
			 M19.505,22.18h-2.982c-0.138,0-0.25-0.111-0.25-0.25v-2.981c0-0.138,0.112-0.25,0.25-0.25h2.982c0.138,0,0.25,0.112,0.25,0.25
			v2.981C19.755,22.066,19.643,22.18,19.505,22.18z M16.773,21.68h2.482v-2.481h-2.482V21.68z M34.417,16.216h-11.93
			c-0.138,0-0.25-0.112-0.25-0.25v-2.982c0-0.138,0.112-0.25,0.25-0.25h11.93c0.138,0,0.25,0.112,0.25,0.25v2.982
			C34.667,16.104,34.555,16.216,34.417,16.216z M22.737,15.716h11.43v-2.482h-11.43V15.716z M19.505,16.216h-2.982
			c-0.138,0-0.25-0.112-0.25-0.25v-2.982c0-0.138,0.112-0.25,0.25-0.25h2.982c0.138,0,0.25,0.112,0.25,0.25v2.982
			C19.755,16.104,19.643,16.216,19.505,16.216z M16.773,15.716h2.482v-2.482h-2.482V15.716z M34.417,10.251h-11.93
			c-0.138,0-0.25-0.112-0.25-0.25V7.019c0-0.138,0.112-0.25,0.25-0.25h11.93c0.138,0,0.25,0.112,0.25,0.25v2.982
			C34.667,10.139,34.555,10.251,34.417,10.251z M22.737,9.751h11.43V7.269h-11.43V9.751z M19.505,10.251h-2.982
			c-0.138,0-0.25-0.112-0.25-0.25V7.019c0-0.138,0.112-0.25,0.25-0.25h2.982c0.138,0,0.25,0.112,0.25,0.25v2.982
			C19.755,10.139,19.643,10.251,19.505,10.251z M16.773,9.751h2.482V7.269h-2.482V9.751z"/>
	</g>
</g>
</svg>
