<?xml version="1.0" encoding="utf-8"?>
<!-- Generator: Adobe Illustrator 15.1.0, SVG Export Plug-In . SVG Version: 6.00 Build 0)  -->
<!DOCTYPE svg PUBLIC "-//W3C//DTD SVG 1.1//EN" "http://www.w3.org/Graphics/SVG/1.1/DTD/svg11.dtd">
<svg version="1.1" id="Layer_1" xmlns="http://www.w3.org/2000/svg" xmlns:xlink="http://www.w3.org/1999/xlink" x="0px" y="0px"
	 width="19px" height="17px" viewBox="0 0 19 17" enable-background="new 0 0 19 17" xml:space="preserve">
<path fill="#2B2B2B" d="M17.278,6.898H9.941v-0.01H9.898V4.892C9.898,2.194,7.705,0,5.007,0C3.706,0,2.492,0.452,1.59,1.273
	C0.641,2.138,0.118,3.337,0.118,4.65c0,0.664,0.538,1.203,1.203,1.203c0.664,0,1.202-0.539,1.202-1.203
	c0-1.474,1.25-2.245,2.485-2.245c1.371,0,2.486,1.116,2.486,2.486v2.006c-0.884,0.001-1.6,0.719-1.6,1.604v6.895
	C5.894,16.282,6.611,17,7.497,17h9.782c0.886,0,1.604-0.718,1.604-1.604V8.501C18.883,7.616,18.164,6.898,17.278,6.898z"/>
</svg>
