<?xml version="1.0" encoding="utf-8"?>
<!-- Generator: Adobe Illustrator 15.1.0, SVG Export Plug-In . SVG Version: 6.00 Build 0)  -->
<!DOCTYPE svg PUBLIC "-//W3C//DTD SVG 1.1//EN" "http://www.w3.org/Graphics/SVG/1.1/DTD/svg11.dtd">
<svg version="1.1" id="Layer_1" xmlns="http://www.w3.org/2000/svg" xmlns:xlink="http://www.w3.org/1999/xlink" x="0px" y="0px"
	 width="14px" height="17px" viewBox="0 0 14 17" enable-background="new 0 0 14 17" xml:space="preserve">
<path fill="#2B2B2B" d="M11.975,6.727h-0.183V4.821C11.792,2.163,9.629,0,6.97,0C4.312,0,2.147,2.162,2.147,4.821v1.905H2.025
	c-0.9,0-1.631,0.73-1.631,1.63v7.013c0,0.9,0.73,1.63,1.631,1.63h9.95c0.898,0,1.631-0.729,1.631-1.63V8.357
	C13.605,7.457,12.874,6.727,11.975,6.727z M9.422,6.727H4.521V4.821c0-1.351,1.1-2.45,2.45-2.45c1.352,0,2.451,1.1,2.451,2.45V6.727
	z"/>
</svg>
