<?xml version="1.0" encoding="utf-8"?>
<!-- Generator: Adobe Illustrator 15.1.0, SVG Export Plug-In . SVG Version: 6.00 Build 0)  -->
<!DOCTYPE svg PUBLIC "-//W3C//DTD SVG 1.1//EN" "http://www.w3.org/Graphics/SVG/1.1/DTD/svg11.dtd">
<svg version="1.1" id="Layer_1" xmlns="http://www.w3.org/2000/svg" xmlns:xlink="http://www.w3.org/1999/xlink" x="0px" y="0px"
	 width="14px" height="11px" viewBox="0 0 14 11" enable-background="new 0 0 14 11" xml:space="preserve">
<path fill="#EFEFEF" d="M14,5.527c0-0.288-0.104-0.552-0.273-0.765c-0.063-0.154-0.159-0.3-0.289-0.424L9.286,0.364
	c-0.508-0.485-1.33-0.485-1.837,0s-0.507,1.272,0,1.758l2.23,2.135H1.326C0.594,4.257,0,4.826,0,5.527s0.594,1.27,1.326,1.27h8.297
	L7.449,8.878c-0.507,0.485-0.507,1.272,0,1.758c0.508,0.485,1.329,0.485,1.837,0l4.151-3.974c0.09-0.086,0.157-0.185,0.216-0.286
	C13.866,6.151,14,5.855,14,5.527z"/>
</svg>
