<?xml version="1.0" encoding="utf-8"?>
<!-- Generator: Adobe Illustrator 15.1.0, SVG Export Plug-In . SVG Version: 6.00 Build 0)  -->
<!DOCTYPE svg PUBLIC "-//W3C//DTD SVG 1.1//EN" "http://www.w3.org/Graphics/SVG/1.1/DTD/svg11.dtd">
<svg version="1.1" id="Layer_1" xmlns="http://www.w3.org/2000/svg" xmlns:xlink="http://www.w3.org/1999/xlink" x="0px" y="0px"
	 width="16px" height="11px" viewBox="0 0 16 11" enable-background="new 0 0 16 11" xml:space="preserve">
<path fill="#EFEFEF" d="M16,5.074c-0.562,0.096-1.38-0.004-1.812-0.183c0.899-0.074,1.508-0.482,1.744-1.035
	c-0.324,0.199-1.332,0.416-1.887,0.209c-0.027-0.13-0.059-0.254-0.089-0.366c-0.423-1.551-1.873-2.801-3.392-2.65
	C10.688,1,10.811,0.954,10.938,0.912c0.166-0.06,1.146-0.219,0.992-0.564c-0.131-0.304-1.328,0.229-1.555,0.299
	c0.298-0.111,0.79-0.303,0.843-0.646c-0.456,0.062-0.903,0.278-1.25,0.591c0.125-0.134,0.22-0.298,0.239-0.474
	c-1.216,0.776-1.928,2.34-2.503,3.859C7.252,3.539,6.851,3.195,6.492,3.003C5.484,2.464,4.279,1.901,2.387,1.2
	c-0.058,0.625,0.31,1.456,1.368,2.008C3.526,3.177,3.106,3.246,2.771,3.326c0.137,0.716,0.583,1.306,1.792,1.59
	C4.011,4.953,3.725,5.079,3.466,5.348c0.251,0.498,0.866,1.083,1.97,0.962C4.208,6.84,4.935,7.818,5.935,7.672
	C4.23,9.43,1.543,9.299,0,7.83c4.029,5.479,12.787,3.238,14.091-2.037C15.068,5.801,15.645,5.456,16,5.074z"/>
</svg>
