<?xml version="1.0" encoding="utf-8"?>
<!-- Generator: Adobe Illustrator 15.1.0, SVG Export Plug-In . SVG Version: 6.00 Build 0)  -->
<!DOCTYPE svg PUBLIC "-//W3C//DTD SVG 1.1//EN" "http://www.w3.org/Graphics/SVG/1.1/DTD/svg11.dtd">
<svg version="1.1" id="Layer_1" xmlns="http://www.w3.org/2000/svg" xmlns:xlink="http://www.w3.org/1999/xlink" x="0px" y="0px"
	 width="10px" height="10px" viewBox="0 0 10 10" enable-background="new 0 0 10 10" xml:space="preserve">
<linearGradient id="SVGID_1_" gradientUnits="userSpaceOnUse" x1="4.9995" y1="1.5215" x2="4.9995" y2="8.2969">
	<stop  offset="0" style="stop-color:#FFFFFF"/>
	<stop  offset="1" style="stop-color:#ECEFF3"/>
</linearGradient>
<path fill="url(#SVGID_1_)" d="M5.117,1.551v1.434h1.348v1.307H5.117v1.854c0,0.4-0.005,0.633,0.038,0.747
	c0.041,0.111,0.147,0.229,0.262,0.296C5.57,7.279,5.745,7.325,5.941,7.325c0.348,0,0.879-0.113,1.225-0.341v1.088
	C6.871,8.211,6.604,8.309,6.365,8.365C6.126,8.42,5.867,8.449,5.591,8.449c-0.316,0-0.502-0.041-0.745-0.121
	C4.604,8.25,4.396,8.137,4.227,7.989C4.056,7.841,3.937,7.685,3.87,7.518C3.805,7.352,3.771,7.112,3.771,6.797V4.291H2.834V3.4
	C3.105,3.313,3.42,3.187,3.613,3.022c0.192-0.163,0.348-0.361,0.465-0.592s0.197-0.523,0.24-0.88H5.117z"/>
</svg>
