<?xml version="1.0" encoding="utf-8"?>
<!-- Generator: Adobe Illustrator 15.1.0, SVG Export Plug-In . SVG Version: 6.00 Build 0)  -->
<!DOCTYPE svg PUBLIC "-//W3C//DTD SVG 1.1//EN" "http://www.w3.org/Graphics/SVG/1.1/DTD/svg11.dtd">
<svg version="1.1" id="Layer_1" xmlns="http://www.w3.org/2000/svg" xmlns:xlink="http://www.w3.org/1999/xlink" x="0px" y="0px"
	 width="10px" height="10px" viewBox="0 0 10 10" enable-background="new 0 0 10 10" xml:space="preserve">
<g>
	<path fill="#FFFFFF" d="M10,9c0,0.553-0.447,1-1,1H1c-0.552,0-1-0.447-1-1V1c0-0.552,0.448-1,1-1h8c0.553,0,1,0.448,1,1V9z
		 M4.758,2.344C4.723,2.628,4.659,2.863,4.565,3.047C4.472,3.231,4.348,3.39,4.194,3.52C4.039,3.651,3.788,3.752,3.571,3.823v0.711
		H4.32v2.003c0,0.252,0.026,0.443,0.079,0.576C4.453,7.246,4.547,7.371,4.684,7.49C4.82,7.607,4.986,7.699,5.18,7.762
		c0.194,0.062,0.341,0.096,0.595,0.096c0.221,0,0.428-0.022,0.619-0.065c0.19-0.046,0.403-0.123,0.64-0.233V6.688
		C6.758,6.871,6.334,6.96,6.055,6.96c-0.156,0-0.296-0.036-0.419-0.108C5.544,6.795,5.459,6.702,5.427,6.613
		c-0.035-0.092-0.03-0.277-0.03-0.598V4.534h1.078V3.49H5.396V2.344H4.758z"/>
</g>
</svg>
