<?xml version="1.0" encoding="utf-8"?>
<!-- Generator: Adobe Illustrator 15.1.0, SVG Export Plug-In . SVG Version: 6.00 Build 0)  -->
<!DOCTYPE svg PUBLIC "-//W3C//DTD SVG 1.1//EN" "http://www.w3.org/Graphics/SVG/1.1/DTD/svg11.dtd">
<svg version="1.1" id="Layer_1" xmlns="http://www.w3.org/2000/svg" xmlns:xlink="http://www.w3.org/1999/xlink" x="0px" y="0px"
	 width="10px" height="10px" viewBox="0 0 10 10" enable-background="new 0 0 10 10" xml:space="preserve">
<path fill="#00BFEC" d="M10,9c0,0.553-0.447,1-1,1H1c-0.552,0-1-0.447-1-1V1c0-0.552,0.448-1,1-1h8c0.553,0,1,0.448,1,1V9z
	 M8.656,5.084C8.399,5.128,8.025,5.083,7.828,5.001C8.239,4.967,8.518,4.78,8.624,4.526c-0.148,0.091-0.607,0.19-0.862,0.096
	C7.75,4.562,7.735,4.506,7.723,4.454C7.529,3.743,6.866,3.17,6.172,3.24c0.057-0.023,0.113-0.044,0.171-0.064
	c0.075-0.027,0.523-0.1,0.453-0.258c-0.059-0.14-0.607,0.104-0.711,0.136c0.137-0.05,0.362-0.138,0.386-0.295
	C6.263,2.787,6.058,2.886,5.899,3.03C5.957,2.969,6,2.893,6.01,2.812C5.452,3.168,5.127,3.886,4.865,4.582
	c-0.207-0.2-0.39-0.358-0.554-0.446C3.85,3.888,3.299,3.63,2.435,3.309C2.408,3.595,2.576,3.976,3.06,4.229
	C2.955,4.216,2.764,4.248,2.61,4.284c0.062,0.329,0.266,0.599,0.818,0.729C3.177,5.03,3.046,5.087,2.928,5.211
	c0.115,0.228,0.396,0.496,0.9,0.441C3.267,5.895,3.599,6.344,4.056,6.276C3.277,7.081,2.049,7.022,1.344,6.35
	c1.841,2.51,5.844,1.483,6.44-0.936C8.231,5.418,8.493,5.26,8.656,5.084z"/>
</svg>
