<?xml version="1.0" encoding="utf-8"?>
<!-- Generator: Adobe Illustrator 15.1.0, SVG Export Plug-In . SVG Version: 6.00 Build 0)  -->
<!DOCTYPE svg PUBLIC "-//W3C//DTD SVG 1.1//EN" "http://www.w3.org/Graphics/SVG/1.1/DTD/svg11.dtd">
<svg version="1.1" id="Layer_1" xmlns="http://www.w3.org/2000/svg" xmlns:xlink="http://www.w3.org/1999/xlink" x="0px" y="0px"
	 width="10px" height="10px" viewBox="0 0 10 10" enable-background="new 0 0 10 10" xml:space="preserve">
<path fill="#FFFFFF" d="M10,9c0,0.553-0.447,1-1,1H1c-0.552,0-1-0.447-1-1V1c0-0.552,0.448-1,1-1h8c0.553,0,1,0.448,1,1V9z
	 M6.502,6.59V6.587c0,0-0.97,0.007-1.296,0.007S4.542,6.398,4.542,5.799V5.272h1.96V5.271c0.354,0,0.641-0.287,0.641-0.641
	c0-0.354-0.287-0.641-0.641-0.641h-1.96V3.306c0,0,0,0,0-0.001c0-0.356-0.289-0.645-0.645-0.645c-0.356,0-0.645,0.289-0.645,0.645
	c0,0,0,1.569,0,2.585c0,1.367,1.003,1.967,1.823,1.967c0.651,0,1.426,0,1.426,0V7.854c0.342-0.009,0.617-0.288,0.617-0.632
	C7.119,6.878,6.844,6.599,6.502,6.59z"/>
</svg>
