<?xml version="1.0" encoding="utf-8"?>
<!-- Generator: Adobe Illustrator 15.1.0, SVG Export Plug-In . SVG Version: 6.00 Build 0)  -->
<!DOCTYPE svg PUBLIC "-//W3C//DTD SVG 1.1//EN" "http://www.w3.org/Graphics/SVG/1.1/DTD/svg11.dtd">
<svg version="1.1" id="Layer_1" xmlns="http://www.w3.org/2000/svg" xmlns:xlink="http://www.w3.org/1999/xlink" x="0px" y="0px"
	 width="10px" height="10px" viewBox="0 0 10 10" enable-background="new 0 0 10 10" xml:space="preserve">
<path fill="#33CCFF" d="M10,4.732c-0.354,0.06-0.861-0.003-1.133-0.115C9.43,4.57,9.811,4.315,9.956,3.969
	C9.754,4.093,9.125,4.229,8.777,4.1C8.76,4.018,8.741,3.94,8.723,3.87c-0.264-0.972-1.17-1.756-2.119-1.661
	c0.076-0.031,0.154-0.06,0.232-0.086c0.104-0.037,0.717-0.137,0.62-0.353C7.375,1.578,6.625,1.912,6.484,1.956
	c0.186-0.07,0.494-0.19,0.526-0.404c-0.284,0.039-0.563,0.174-0.78,0.37C6.309,1.838,6.367,1.735,6.38,1.625
	C5.619,2.112,5.175,3.092,4.815,4.044c-0.283-0.274-0.534-0.49-0.758-0.61c-0.629-0.337-1.383-0.69-2.565-1.13
	C1.456,2.695,1.685,3.217,2.347,3.562C2.203,3.543,1.941,3.586,1.732,3.636c0.085,0.449,0.364,0.819,1.12,0.998
	c-0.345,0.022-0.524,0.102-0.685,0.27c0.157,0.312,0.542,0.68,1.231,0.604C2.63,5.84,3.084,6.453,3.709,6.361
	C2.644,7.463,0.964,7.381,0,6.461c2.518,3.436,7.991,2.031,8.807-1.278C9.419,5.188,9.777,4.971,10,4.732z"/>
</svg>
