<?xml version="1.0" encoding="utf-8"?>
<!-- Generator: Adobe Illustrator 15.1.0, SVG Export Plug-In . SVG Version: 6.00 Build 0)  -->
<!DOCTYPE svg PUBLIC "-//W3C//DTD SVG 1.1//EN" "http://www.w3.org/Graphics/SVG/1.1/DTD/svg11.dtd">
<svg version="1.1" id="Layer_1" xmlns="http://www.w3.org/2000/svg" xmlns:xlink="http://www.w3.org/1999/xlink" x="0px" y="0px"
	 width="36px" height="36px" viewBox="0 0 36 36" enable-background="new 0 0 36 36" xml:space="preserve">
<g>
	<path fill="#EFEFEF" d="M17.041,8.649c-0.96,0-1.865,0.119-2.718,0.359c-0.854,0.239-1.798,0.626-2.837,1.159L9.808,5.652
		c1.038-0.666,2.264-1.179,3.677-1.54c1.411-0.359,2.797-0.538,4.154-0.538c1.706,0,3.111,0.227,4.217,0.679
		c1.105,0.453,1.979,1.025,2.618,1.719c0.639,0.692,1.084,1.451,1.338,2.277s0.381,1.611,0.381,2.358
		c0,0.746-0.114,1.433-0.34,2.059c-0.228,0.626-0.514,1.205-0.86,1.738s-0.745,1.039-1.198,1.519
		c-0.454,0.479-0.894,0.932-1.319,1.357c-0.318,0.32-0.653,0.66-0.998,1.02c-0.346,0.359-0.66,0.74-0.939,1.139
		c-0.279,0.4-0.513,0.819-0.699,1.259c-0.188,0.44-0.279,0.886-0.279,1.34c0,0.105,0,0.267,0,0.479s0.012,0.398,0.04,0.56h-5.275
		c-0.054-0.267-0.088-0.566-0.101-0.899s-0.02-0.619-0.02-0.86c0-0.744,0.093-1.418,0.279-2.018c0.186-0.599,0.433-1.158,0.74-1.679
		c0.306-0.519,0.658-1.005,1.059-1.458c0.4-0.452,0.812-0.893,1.239-1.319c0.611-0.612,1.171-1.22,1.679-1.817
		c0.505-0.601,0.759-1.285,0.759-2.059c0-0.64-0.247-1.186-0.739-1.638C18.726,8.875,18,8.649,17.041,8.649z M20.756,28.749
		c0,1.174-0.379,2.078-1.138,2.719c-0.76,0.64-1.618,0.958-2.577,0.958c-0.96,0-1.818-0.318-2.578-0.958
		c-0.759-0.641-1.14-1.545-1.14-2.719c0-1.171,0.381-2.076,1.14-2.717c0.76-0.639,1.618-0.958,2.578-0.958
		c0.959,0,1.817,0.319,2.577,0.958C20.377,26.673,20.756,27.578,20.756,28.749z"/>
</g>
</svg>
