<?xml version="1.0" encoding="utf-8"?>
<!-- Generator: Adobe Illustrator 15.1.0, SVG Export Plug-In . SVG Version: 6.00 Build 0)  -->
<!DOCTYPE svg PUBLIC "-//W3C//DTD SVG 1.1//EN" "http://www.w3.org/Graphics/SVG/1.1/DTD/svg11.dtd">
<svg version="1.1" xmlns="http://www.w3.org/2000/svg" xmlns:xlink="http://www.w3.org/1999/xlink" x="0px" y="0px" width="17px"
	 height="15px" viewBox="0 0 17 15" enable-background="new 0 0 17 15" xml:space="preserve">
<g id="Layer_1">
	<g>
		<g>
			<ellipse fill="#BBBBBB" cx="8.5" cy="6.501" rx="7.607" ry="5.764"/>
			<path fill="#BBBBBB" d="M8.5,13.003c-4.602,0-8.345-2.916-8.345-6.501C0.155,2.917,3.898,0,8.5,0s8.345,2.917,8.345,6.501
				C16.845,10.087,13.102,13.003,8.5,13.003z M8.5,1.475c-3.788,0-6.87,2.255-6.87,5.027c0,2.772,3.082,5.027,6.87,5.027
				c3.789,0,6.87-2.255,6.87-5.027C15.37,3.73,12.289,1.475,8.5,1.475z"/>
		</g>
		<g>
			<polyline fill="#BBBBBB" points="6.188,11.896 8.655,14.263 11.182,11.733 			"/>
			<path fill="#BBBBBB" d="M8.655,15c-0.184,0-0.367-0.068-0.51-0.205l-2.468-2.366c-0.294-0.282-0.304-0.749-0.021-1.042
				c0.281-0.294,0.748-0.304,1.042-0.022l1.946,1.866l2.016-2.019c0.287-0.287,0.754-0.288,1.043-0.001
				c0.287,0.289,0.288,0.756,0.001,1.043l-2.526,2.53C9.034,14.928,8.845,15,8.655,15z"/>
		</g>
	</g>
</g>
<g id="Layer_2">
	<g>
		<g>
			<ellipse fill="#F0E84B" cx="8.5" cy="6.501" rx="7.607" ry="5.764"/>
			<path fill="#F0E84B" d="M8.5,13.003c-4.602,0-8.345-2.916-8.345-6.501C0.155,2.917,3.898,0,8.5,0s8.345,2.917,8.345,6.501
				C16.845,10.087,13.102,13.003,8.5,13.003z M8.5,1.475c-3.788,0-6.87,2.255-6.87,5.027c0,2.772,3.082,5.027,6.87,5.027
				c3.789,0,6.87-2.255,6.87-5.027C15.37,3.73,12.289,1.475,8.5,1.475z"/>
		</g>
		<g>
			<polyline fill="#F0E84B" points="6.188,11.896 8.655,14.263 11.182,11.733 			"/>
			<path fill="#F0E84B" d="M8.655,15c-0.184,0-0.367-0.068-0.51-0.205l-2.468-2.366c-0.294-0.282-0.304-0.749-0.021-1.042
				c0.281-0.294,0.748-0.304,1.042-0.022l1.946,1.866l2.016-2.019c0.287-0.287,0.754-0.288,1.043-0.001
				c0.287,0.289,0.288,0.756,0.001,1.043l-2.526,2.53C9.034,14.928,8.845,15,8.655,15z"/>
		</g>
	</g>
</g>
</svg>
