<?xml version="1.0" encoding="utf-8"?>
<!-- Generator: Adobe Illustrator 15.1.0, SVG Export Plug-In . SVG Version: 6.00 Build 0)  -->
<!DOCTYPE svg PUBLIC "-//W3C//DTD SVG 1.1//EN" "http://www.w3.org/Graphics/SVG/1.1/DTD/svg11.dtd">
<svg version="1.1" id="Layer_1" xmlns="http://www.w3.org/2000/svg" xmlns:xlink="http://www.w3.org/1999/xlink" x="0px" y="0px"
	 width="10px" height="11px" viewBox="0 0 10 11" enable-background="new 0 0 10 11" xml:space="preserve">
<g>
	<g>
		<path fill="#666766" d="M0.206,4.226h3.407V0.451h2.774v3.774h3.407v2.55H6.387v3.773H3.613V6.775H0.206V4.226z"/>
		<path fill="#666766" d="M6.387,10.755H3.613c-0.114,0-0.206-0.092-0.206-0.205V6.98H0.206C0.092,6.98,0,6.891,0,6.775v-2.55
			C0,4.111,0.092,4.02,0.206,4.02h3.202V0.451c0-0.114,0.092-0.206,0.206-0.206h2.774c0.112,0,0.205,0.092,0.205,0.206V4.02h3.201
			C9.908,4.02,10,4.111,10,4.226v2.549C10,6.891,9.908,6.98,9.794,6.98H6.593v3.568C6.593,10.663,6.5,10.755,6.387,10.755z
			 M3.818,10.344h2.364V6.775c0-0.113,0.092-0.207,0.204-0.207h3.202V4.431H6.387c-0.113,0-0.205-0.092-0.205-0.205v-3.57H3.818
			v3.569c0,0.113-0.092,0.205-0.206,0.205H0.411v2.138h3.202c0.114,0,0.206,0.094,0.206,0.207L3.818,10.344L3.818,10.344z"/>
	</g>
</g>
</svg>
