<?xml version="1.0" encoding="utf-8"?>
<!-- Generator: Adobe Illustrator 15.1.0, SVG Export Plug-In . SVG Version: 6.00 Build 0)  -->
<!DOCTYPE svg PUBLIC "-//W3C//DTD SVG 1.1//EN" "http://www.w3.org/Graphics/SVG/1.1/DTD/svg11.dtd">
<svg version="1.1" id="Layer_1" xmlns="http://www.w3.org/2000/svg" xmlns:xlink="http://www.w3.org/1999/xlink" x="0px" y="0px"
	 width="17px" height="15px" viewBox="0 0 17 15" enable-background="new 0 0 17 15" xml:space="preserve">
<g id="Layer_2">
	<g>
		<g>
			<ellipse fill="#F0E84C" cx="8.5" cy="6.501" rx="7.607" ry="5.764"/>
			<path fill="#F0E84C" d="M8.5,13.003c-4.603,0-8.346-2.916-8.346-6.501S3.897,0,8.5,0c4.602,0,8.346,2.917,8.346,6.501
				C16.846,10.087,13.102,13.003,8.5,13.003z M8.5,1.475c-3.788,0-6.87,2.255-6.87,5.027c0,2.771,3.082,5.027,6.87,5.027
				c3.789,0,6.87-2.256,6.87-5.027C15.37,3.73,12.289,1.475,8.5,1.475z"/>
		</g>
		<g>
			<polyline fill="#F0E84C" points="6.188,11.896 8.654,14.264 11.182,11.732 			"/>
			<path fill="#F0E84C" d="M8.654,15c-0.184,0-0.366-0.068-0.51-0.205L5.677,12.43c-0.294-0.283-0.304-0.75-0.021-1.043
				c0.28-0.294,0.747-0.304,1.042-0.021l1.945,1.864l2.017-2.019c0.287-0.287,0.754-0.288,1.043-0.001
				c0.287,0.289,0.288,0.756,0.001,1.043l-2.526,2.53C9.034,14.928,8.845,15,8.654,15z"/>
		</g>
	</g>
</g>
</svg>
