<?xml version="1.0" encoding="utf-8"?>
<!-- Generator: Adobe Illustrator 16.0.1, SVG Export Plug-In . SVG Version: 6.00 Build 0)  -->
<!DOCTYPE svg PUBLIC "-//W3C//DTD SVG 1.1//EN" "http://www.w3.org/Graphics/SVG/1.1/DTD/svg11.dtd">
<svg version="1.1" id="Layer_1" xmlns="http://www.w3.org/2000/svg" xmlns:xlink="http://www.w3.org/1999/xlink" x="0px" y="0px"
	 width="10px" height="11px" viewBox="0 0 10 11" enable-background="new 0 0 10 11" xml:space="preserve">
<path fill="#efefef" d="M9.794,4.092H6.593V0.696C6.593,0.588,6.5,0.5,6.389,0.5H3.614C3.5,0.5,3.408,0.588,3.408,0.696v3.396H0.206
	C0.092,4.092,0,4.178,0,4.287v2.427c0,0.109,0.092,0.194,0.206,0.194h3.201v3.396c0,0.105,0.092,0.193,0.206,0.193h2.774
	c0.113,0,0.206-0.088,0.206-0.197V6.908h3.201C9.908,6.908,10,6.823,10,6.714V4.288C10,4.178,9.908,4.092,9.794,4.092z"/>
</svg>
