<?xml version="1.0" encoding="utf-8"?>
<!-- Generator: Adobe Illustrator 15.1.0, SVG Export Plug-In . SVG Version: 6.00 Build 0)  -->
<!DOCTYPE svg PUBLIC "-//W3C//DTD SVG 1.1//EN" "http://www.w3.org/Graphics/SVG/1.1/DTD/svg11.dtd">
<svg version="1.1" id="Layer_1" xmlns="http://www.w3.org/2000/svg" xmlns:xlink="http://www.w3.org/1999/xlink" x="0px" y="0px"
	 width="300px" height="300px" viewBox="0 0 300 300" enable-background="new 0 0 300 300" xml:space="preserve">
<path fill="#FFFFFF" d="M0.021,149.979c0-82.841,67.158-150,150-150c82.846,0,150,67.159,150,150c0,82.842-67.154,150-150,150
	C67.18,299.979,0.021,232.82,0.021,149.979z M221.872,197.879c5.745-8.614,3.419-20.256-5.2-26.001l-47.9-31.933V56.229
	c0-10.354-8.396-18.75-18.75-18.75s-18.75,8.396-18.75,18.75v93.75c0,6.271,3.136,12.126,8.35,15.602l56.25,37.499
	c3.199,2.134,6.812,3.154,10.382,3.154C212.313,206.233,218.26,203.299,221.872,197.879z"/>
</svg>
