<?xml version="1.0" encoding="utf-8"?>
<!-- Generator: Adobe Illustrator 16.0.1, SVG Export Plug-In . SVG Version: 6.00 Build 0)  -->
<!DOCTYPE svg PUBLIC "-//W3C//DTD SVG 1.1//EN" "http://www.w3.org/Graphics/SVG/1.1/DTD/svg11.dtd">
<svg version="1.1" id="Layer_1" xmlns="http://www.w3.org/2000/svg" xmlns:xlink="http://www.w3.org/1999/xlink" x="0px" y="0px"
	 width="8px" height="11px" viewBox="0 0 8 11" enable-background="new 0 0 8 11" xml:space="preserve">
<path fill="#efefef" d="M7.333,0.5H0.667C0.299,0.5,0,0.78,0,1.125v8.75c0,0.24,0.147,0.459,0.378,0.562
	c0.092,0.043,0.19,0.062,0.289,0.062c0.148,0,0.296-0.046,0.416-0.136L4,8.175l2.917,2.188c0.12,0.092,0.269,0.137,0.416,0.137
	c0.099,0,0.196-0.02,0.289-0.061C7.854,10.334,8,10.115,8,9.875v-8.75C8,0.78,7.701,0.5,7.333,0.5z"/>
</svg>
