<?xml version="1.0" encoding="utf-8"?>
<!-- Generator: Adobe Illustrator 15.1.0, SVG Export Plug-In . SVG Version: 6.00 Build 0)  -->
<!DOCTYPE svg PUBLIC "-//W3C//DTD SVG 1.1//EN" "http://www.w3.org/Graphics/SVG/1.1/DTD/svg11.dtd">
<svg version="1.1" xmlns="http://www.w3.org/2000/svg" xmlns:xlink="http://www.w3.org/1999/xlink" x="0px" y="0px" width="15px"
	 height="14px" viewBox="0 0 15 14" enable-background="new 0 0 15 14" xml:space="preserve">
<g id="Layer_1">
	<g>
		<g>
			<path fill="#BBBBBB" d="M7.498,13.675c-0.06,0-0.12-0.021-0.173-0.062c-0.27-0.204-0.525-0.401-0.773-0.591
				c-3.41-2.603-5.123-3.909-5.968-6.555C0.088,4.801,0.261,3.241,1.072,2.066c0.751-1.09,1.972-1.741,3.267-1.741
				c1.311,0,2.46,0.68,3.158,1.848c0.707-1.168,1.856-1.848,3.163-1.848c1.3,0,2.517,0.651,3.268,1.741
				c0.812,1.174,0.983,2.735,0.496,4.394c-0.856,2.652-2.562,3.958-5.972,6.56c-0.248,0.19-0.503,0.388-0.774,0.593
				C7.625,13.654,7.566,13.675,7.498,13.675z"/>
			<path fill="#BBBBBB" d="M10.66,0.65c2.246,0,4.515,2.189,3.471,5.712c-0.879,2.731-2.659,3.942-6.633,6.987
				c-3.969-3.045-5.749-4.256-6.624-6.987C-0.174,2.839,2.09,0.65,4.339,0.65c1.251,0,2.498,0.683,3.158,2.199
				C8.159,1.333,9.406,0.65,10.66,0.65 M10.66,0C9.392,0,8.265,0.588,7.498,1.614C6.732,0.588,5.605,0,4.339,0
				C2.946,0,1.636,0.701,0.825,1.874c-0.868,1.26-1.059,2.923-0.537,4.684c0.003,0.005,0.003,0.009,0.003,0.014
				c0.883,2.744,2.618,4.071,6.08,6.715c0.248,0.188,0.503,0.385,0.774,0.59C7.25,13.959,7.377,14,7.498,14
				c0.128,0,0.256-0.041,0.361-0.123c0.27-0.205,0.526-0.402,0.774-0.593c3.462-2.642,5.197-3.968,6.076-6.712
				c0-0.005,0-0.009,0-0.014c0.525-1.76,0.338-3.424-0.533-4.684C13.364,0.701,12.058,0,10.66,0L10.66,0z"/>
		</g>
	</g>
</g>
<g id="Layer_2">
	<g>
		<g>
			<path fill="#E61B48" d="M7.498,13.675c-0.06,0-0.12-0.021-0.173-0.062c-0.27-0.204-0.525-0.401-0.773-0.591
				c-3.41-2.603-5.123-3.909-5.968-6.555C0.088,4.801,0.261,3.241,1.072,2.066c0.751-1.09,1.972-1.741,3.267-1.741
				c1.311,0,2.46,0.68,3.158,1.848c0.707-1.168,1.856-1.848,3.163-1.848c1.3,0,2.517,0.651,3.268,1.741
				c0.812,1.174,0.983,2.735,0.496,4.394c-0.856,2.652-2.562,3.958-5.972,6.56c-0.248,0.19-0.503,0.388-0.774,0.593
				C7.625,13.654,7.566,13.675,7.498,13.675z"/>
			<path fill="#E61B48" d="M10.66,0.65c2.246,0,4.515,2.189,3.471,5.712c-0.879,2.731-2.659,3.942-6.633,6.987
				c-3.969-3.045-5.749-4.256-6.624-6.987C-0.174,2.839,2.09,0.65,4.339,0.65c1.251,0,2.498,0.683,3.158,2.199
				C8.159,1.333,9.406,0.65,10.66,0.65 M10.66,0C9.392,0,8.265,0.588,7.498,1.614C6.732,0.588,5.605,0,4.339,0
				C2.946,0,1.636,0.701,0.825,1.874c-0.868,1.26-1.059,2.923-0.537,4.684c0.003,0.005,0.003,0.009,0.003,0.014
				c0.883,2.744,2.618,4.071,6.08,6.715c0.248,0.188,0.503,0.385,0.774,0.59C7.25,13.959,7.377,14,7.498,14
				c0.128,0,0.256-0.041,0.361-0.123c0.27-0.205,0.526-0.402,0.774-0.593c3.462-2.642,5.197-3.968,6.076-6.712
				c0-0.005,0-0.009,0-0.014c0.525-1.76,0.338-3.424-0.533-4.684C13.364,0.701,12.058,0,10.66,0L10.66,0z"/>
		</g>
	</g>
</g>
</svg>
