<?xml version="1.0" encoding="utf-8"?>
<!-- Generator: Adobe Illustrator 16.0.1, SVG Export Plug-In . SVG Version: 6.00 Build 0)  -->
<!DOCTYPE svg PUBLIC "-//W3C//DTD SVG 1.1//EN" "http://www.w3.org/Graphics/SVG/1.1/DTD/svg11.dtd">
<svg version="1.1" id="Layer_1" xmlns="http://www.w3.org/2000/svg" xmlns:xlink="http://www.w3.org/1999/xlink" x="0px" y="0px"
	 width="8px" height="11px" viewBox="0 0 8 11" enable-background="new 0 0 8 11" xml:space="preserve">
<path fill="#666666" d="M7.333,0.167H0.667C0.299,0.167,0,0.466,0,0.834v9.333c0,0.256,0.147,0.489,0.378,0.601
	c0.092,0.045,0.19,0.065,0.289,0.065c0.148,0,0.296-0.049,0.416-0.146L4,8.354l2.917,2.334c0.12,0.098,0.269,0.146,0.416,0.146
	c0.099,0,0.196-0.021,0.289-0.064C7.854,10.656,8,10.423,8,10.167V0.834C8,0.466,7.701,0.167,7.333,0.167z"/>
</svg>
