<?xml version="1.0" encoding="utf-8"?>
<!-- Generator: Adobe Illustrator 15.1.0, SVG Export Plug-In . SVG Version: 6.00 Build 0)  -->
<!DOCTYPE svg PUBLIC "-//W3C//DTD SVG 1.1//EN" "http://www.w3.org/Graphics/SVG/1.1/DTD/svg11.dtd">
<svg version="1.1" id="Layer_1" xmlns="http://www.w3.org/2000/svg" xmlns:xlink="http://www.w3.org/1999/xlink" x="0px" y="0px"
	 width="11px" height="11px" viewBox="0 0 11 11" enable-background="new 0 0 11 11" xml:space="preserve">
<g id="Layer_1_1_">
	<g>
		<g>
			<ellipse fill="#BCBCBB" cx="5.5" cy="4.842" rx="5.014" ry="3.799"/>
			<path fill="#BCBCBB" d="M5.5,9.127C2.468,9.127,0,7.205,0,4.842c0-2.362,2.468-4.285,5.5-4.285S11,2.479,11,4.842
				C11,7.205,8.532,9.127,5.5,9.127z M5.5,1.529c-2.496,0-4.527,1.486-4.527,3.312c0,1.827,2.031,3.313,4.527,3.313
				c2.497,0,4.527-1.486,4.527-3.313C10.027,3.016,7.997,1.529,5.5,1.529z"/>
		</g>
		<g>
			<polyline fill="#BCBCBB" points="3.976,8.397 5.602,9.957 7.268,8.289 			"/>
			<path fill="#BCBCBB" d="M5.602,10.443c-0.121,0-0.241-0.045-0.336-0.136L3.64,8.749c-0.194-0.187-0.2-0.495-0.014-0.688
				c0.186-0.194,0.493-0.2,0.687-0.014l1.283,1.229l1.328-1.332c0.189-0.189,0.497-0.189,0.688,0c0.188,0.19,0.189,0.498,0,0.688
				L5.946,10.3C5.853,10.395,5.728,10.443,5.602,10.443z"/>
		</g>
	</g>
</g>
</svg>
