<?xml version="1.0" encoding="utf-8"?>
<!-- Generator: Adobe Illustrator 15.1.0, SVG Export Plug-In . SVG Version: 6.00 Build 0)  -->
<!DOCTYPE svg PUBLIC "-//W3C//DTD SVG 1.1//EN" "http://www.w3.org/Graphics/SVG/1.1/DTD/svg11.dtd">
<svg version="1.1" id="Layer_1" xmlns="http://www.w3.org/2000/svg" xmlns:xlink="http://www.w3.org/1999/xlink" x="0px" y="0px"
	 width="14px" height="15px" viewBox="0 0 14 15" enable-background="new 0 0 14 15" xml:space="preserve">
<g id="Layer_1_1_">
	<g>
		<g>
			<path fill="#BBBBBB" d="M0.288,5.764h4.77v-5.14h3.883v5.141h4.771v3.474H8.941v5.141H5.058V9.238h-4.77V5.764z"/>
			<path fill="#BBBBBB" d="M8.941,14.658H5.058c-0.159,0-0.288-0.125-0.288-0.279V9.518H0.288C0.129,9.518,0,9.393,0,9.238V5.764
				c0-0.155,0.129-0.28,0.288-0.28H4.77v-4.86c0-0.155,0.129-0.28,0.288-0.28h3.883c0.16,0,0.289,0.125,0.289,0.28v4.861h4.48
				c0.16,0,0.289,0.125,0.289,0.28v3.474c0,0.153-0.129,0.278-0.288,0.278H9.229v4.86C9.229,14.533,9.102,14.658,8.941,14.658z
				 M5.346,14.098h3.308V9.238c0-0.154,0.129-0.281,0.287-0.281h4.481V6.044H8.941c-0.159,0-0.289-0.125-0.289-0.28V0.903H5.346
				v4.861c0,0.155-0.129,0.28-0.288,0.28H0.576v2.913h4.482c0.159,0,0.288,0.127,0.288,0.281V14.098z"/>
		</g>
	</g>
</g>
</svg>
