<?xml version="1.0" encoding="utf-8"?>
<!-- Generator: Adobe Illustrator 15.1.0, SVG Export Plug-In . SVG Version: 6.00 Build 0)  -->
<!DOCTYPE svg PUBLIC "-//W3C//DTD SVG 1.1//EN" "http://www.w3.org/Graphics/SVG/1.1/DTD/svg11.dtd">
<svg version="1.1" xmlns="http://www.w3.org/2000/svg" xmlns:xlink="http://www.w3.org/1999/xlink" x="0px" y="0px" width="27px"
	 height="12px" viewBox="0 0 27 12" enable-background="new 0 0 27 12" xml:space="preserve">
<g id="Layer_1">
	<g>
		<path fill="#BBBBBB" d="M16.738,5.522c-0.59,0.1-1.444-0.003-1.897-0.192c0.942-0.078,1.578-0.505,1.823-1.086
			c-0.339,0.208-1.392,0.436-1.972,0.219c-0.028-0.137-0.06-0.266-0.094-0.384c-0.441-1.627-1.957-2.939-3.547-2.78
			c0.128-0.052,0.258-0.1,0.389-0.145c0.174-0.062,1.201-0.231,1.039-0.593c-0.138-0.319-1.391,0.24-1.627,0.314
			c0.312-0.117,0.827-0.318,0.883-0.677c-0.478,0.065-0.946,0.292-1.308,0.621c0.13-0.141,0.229-0.313,0.25-0.498
			C9.405,1.136,8.661,2.777,8.059,4.37c-0.472-0.459-0.892-0.82-1.268-1.021C5.738,2.784,4.476,2.193,2.498,1.458
			C2.437,2.112,2.82,2.985,3.929,3.563c-0.24-0.033-0.678,0.041-1.029,0.123c0.144,0.751,0.611,1.371,1.875,1.669
			C4.196,5.394,3.896,5.527,3.625,5.81C3.889,6.332,4.531,6.946,5.687,6.82C4.401,7.375,5.162,8.4,6.208,8.248
			C4.426,10.092,1.615,9.955,0,8.414c4.215,5.75,13.377,3.399,14.741-2.138C15.764,6.285,16.365,5.922,16.738,5.522z"/>
		<path fill="#BBBBBB" d="M22.812,11.802v-5.77h-1.227V4.002H22.8c0,0,0-0.649,0-1.841s0.838-1.888,2.312-1.888
			c1.476,0,1.864,0,1.864,0l-0.003,1.958c0,0-0.952,0-1.307,0c-0.354,0-0.507,0.331-0.507,0.507c0,0.177,0,1.298,0,1.298H27
			l-0.212,1.994h-1.569l-0.018,5.769L22.812,11.802z"/>
	</g>
</g>
<g id="Layer_2">
	<g>
		<path fill="#0092C0" d="M16.738,5.522c-0.59,0.1-1.444-0.003-1.897-0.192c0.942-0.078,1.578-0.505,1.823-1.086
			c-0.339,0.208-1.392,0.436-1.972,0.219c-0.028-0.137-0.06-0.266-0.094-0.384c-0.441-1.627-1.957-2.939-3.547-2.78
			c0.128-0.052,0.258-0.1,0.389-0.145c0.174-0.062,1.201-0.231,1.039-0.593c-0.138-0.319-1.391,0.24-1.627,0.314
			c0.312-0.117,0.827-0.318,0.883-0.677c-0.478,0.065-0.946,0.292-1.308,0.621c0.13-0.141,0.229-0.313,0.25-0.498
			C9.405,1.136,8.661,2.777,8.059,4.37c-0.472-0.459-0.892-0.82-1.268-1.021C5.738,2.784,4.476,2.193,2.498,1.458
			C2.437,2.112,2.82,2.985,3.929,3.563c-0.24-0.033-0.678,0.041-1.029,0.123c0.144,0.751,0.611,1.371,1.875,1.669
			C4.196,5.394,3.896,5.527,3.625,5.81C3.889,6.332,4.531,6.946,5.687,6.82C4.401,7.375,5.162,8.4,6.208,8.248
			C4.426,10.092,1.615,9.955,0,8.414c4.215,5.75,13.377,3.399,14.741-2.138C15.764,6.285,16.365,5.922,16.738,5.522z"/>
		<path fill="#0092C0" d="M22.812,11.802v-5.77h-1.227V4.002H22.8c0,0,0-0.649,0-1.841s0.838-1.888,2.312-1.888
			c1.476,0,1.864,0,1.864,0l-0.003,1.958c0,0-0.952,0-1.307,0c-0.354,0-0.507,0.331-0.507,0.507c0,0.177,0,1.298,0,1.298H27
			l-0.212,1.994h-1.569l-0.018,5.769L22.812,11.802z"/>
	</g>
</g>
</svg>
