<?xml version="1.0" encoding="utf-8"?>
<!-- Generator: Adobe Illustrator 16.0.3, SVG Export Plug-In . SVG Version: 6.00 Build 0)  -->
<!DOCTYPE svg PUBLIC "-//W3C//DTD SVG 1.1//EN" "http://www.w3.org/Graphics/SVG/1.1/DTD/svg11.dtd">
<svg version="1.1" id="Layer_1" xmlns="http://www.w3.org/2000/svg" xmlns:xlink="http://www.w3.org/1999/xlink" x="0px" y="0px"
	 width="32px" height="32px" viewBox="0 0 32 32" enable-background="new 0 0 32 32" xml:space="preserve">
<path fill="#efefef" d="M26.552,12.903h-7.045V5.431c0-0.237-0.205-0.431-0.45-0.431h-6.107c-0.25,0-0.452,0.194-0.452,0.431v7.473
	H5.45c-0.251,0-0.454,0.189-0.454,0.43v5.34c0,0.241,0.202,0.429,0.454,0.429h7.045v7.474c0,0.229,0.201,0.424,0.452,0.424h6.105
	c0.249,0,0.454-0.194,0.454-0.435v-7.463h7.045c0.251,0,0.452-0.188,0.452-0.429v-5.338C27.005,13.093,26.803,12.903,26.552,12.903z
	"/>
</svg>
